<?xml version="1.0" encoding="utf-8"?>
<!-- Generator: Adobe Illustrator 22.1.0, SVG Export Plug-In . SVG Version: 6.00 Build 0)  -->
<svg version="1.1" id="Layer_1" xmlns="http://www.w3.org/2000/svg" xmlns:xlink="http://www.w3.org/1999/xlink" x="0px" y="0px"
	 viewBox="0 0 1179.1 1692" style="enable-background:new 0 0 1179.1 1692;" xml:space="preserve">
<style type="text/css">
	.st0{fill:#8BC639;}
	.st1{fill:#7BB239;}
	.st2{fill:#6D9F05;}
	.st3{fill:#6D9F3B;}
	.st4{fill:#98C46C;}
	.st5{fill:#98C436;}
	.st6{fill:#719D06;}
	.st7{fill:#9A4E19;}
	.st8{fill:#70471A;}
	.st9{fill:#633A11;}
</style>
<g id="_x32_QQoT2.tif">
	<g>
		<path class="st0" d="M105,357.7c0.5-0.8,1.2-1.2,2.2-1c23.8-6.6,47.7-13.1,71.4-19.7c5.6-1.5,11.2-3.6,16.8-5.3l0.2-0.2
			c0-7.3,2.2-16.1-0.7-21.5c-7-12.6-5.8-23.8-0.3-36c2.9-6.4,5.1-13.2,7.5-19.7c3.7-0.3,7.5-0.7,11.5-1.2
			c-7.6-18.2,4.1-21,14.6-24.4c8.5-2.5,17.1-3.7,25.6-6.3c7.3-2.2,14.4-8.8,21.2-8.1c29.9,2.7,59.5,7.3,91.8,11.5
			c2.4-8.8,20-15.8,12.4-34.6l-0.2,0.2c1.5-2,2.9-4.2,4.4-6.3l0.2-0.3c1-1.2,2-2.4,2.9-3.7l0.2-0.2c5.3-5.3,10.5-10.7,15.6-15.9
			l0.8,0.5l-0.8-0.5c8.8,2.2,18,7.5,23.9-6.1c1-2.5,7-3.7,10.5-3.4c10.9,1,21.9,2,32.6,5.1c21.9,6.1,40.4-7.1,43.4-32.2l0.2-0.2
			c1.2-1.2,2.4-2.4,3.6-3.6l0,0c13.4,3.7,15.3-7.1,18-17l0,0c4.6-3.6,9-7.1,13.6-10.5l0.3-0.2c13.4-6.8,26.6-14.4,40.4-20.4
			c11.2-4.9,23.6-13.6,29.2-3.2c4.9-2.7,10.7-8.5,16.5-8.7c19.2-0.3,38.7,0,57.7,2.7c11.9,1.7,23.1,8.5,34.6,13.1l-0.7,1l0.7-1
			c2.9,5.1,4.9,12,9.2,14.6c3.1,1.9,10.5-0.3,13.4-3.6c4.2-4.8,6.1-12,9-18.3c2.5-1.9,5.3-3.7,7.8-5.4c0.3-1,1-1.5,2-1.5
			c4.9-2.9,9.8-5.9,14.8-8.8c77.5-37,206.8-13.9,263.3,74.6c35.6,55.6,36.8,156.2-19.7,205.3c-1.7,1.5-3.1,3.4-6.6,7.6
			c55.5,7.6,95.3,36.6,110.1,95c9.5,37.5,1.5,74-21.4,105c-1.9-1-3.7-2.5-5.6-2.7c-14.1-1-28.2-2.7-42.2-2.7
			c-4.4,0-10.2,4.2-13.1,8.5c-9.3,13.4-15.1,32.1-27,41.1c-38.3,29-83.6,27.8-115.9-16.5c-7.1-9.7-11-11-19.7-2.9
			c-12.6,11.7-25.4,23.6-40,31.9c-33.9,19.7-70.6,4.2-79.1-40c-3.9-20.4-3.2-41.7-4.6-63.3c-1.4,0.5-3.9,1.4-6.4,2.5
			c-33.3,16.3-72.6-4.9-66.7-49c2.5-18.7,4.9-37.2,7.8-58.7c-42.4,12.2-79.6,2-106.4-34.4c-22.6,16.3-43.1,32.1-64.3,46.3
			c-27,18.2-54.6,34.8-86.9,11c-13.6,53.4-40.9,90.4-88.7,107.2c-15.8,5.6-31.2,12.6-33.6,34.6c-0.3,3.7-4.2,7.1-6.6,10.3
			c-20.4,25.8-46,29.2-75.3,20.5c-4.2,12-8,23.4-12.2,34.6c-9.8,26.5-46.7,43.3-61.4,25.3c-13.7-16.8-23.2-6.4-36.3-3.1
			c-19.5,5.1-40,6.4-60.2,8.1c-3.1,0.2-6.8-6.6-10-10c-2.4-14.8-4.6-29.5-7-44.3v0.2c5.9-4.9,11.9-9.8,19-15.6
			c-0.3-4.4-1-12.6-1.5-20.7h0.2c5.3-0.5,10.5-1,18.5-1.7c-2.7-9.2-4.8-15.8-6.6-22.2c0-1.2,0.2-2.4,0.2-3.7
			c-1.2-6.3-1.5-12.9-3.7-18.8c-4.6-12.7-10.9-24.8-15.1-37.7c-8.8-26.8,3.7-50,11.9-74c1.9-5.4,2.5-11.2,3.7-16.8
			c0-0.8,0.3-1.4,1-1.5C88.9,382.2,99.9,373.7,105,357.7z"/>
		<path class="st1" d="M54.5,643.8c3.4,3.6,7,10.3,10,10c20.2-1.7,40.7-3.1,60.2-8.1c13.1-3.4,22.6-13.7,36.3,3.1
			c14.8,18,51.6,1.2,61.4-25.3c4.1-11.2,8-22.6,12.2-34.6c29.3,8.7,55.1,5.1,75.3-20.5c2.5-3.2,6.3-6.6,6.6-10.3
			c2.4-22.1,17.8-29.2,33.6-34.6c47.8-16.8,75.2-53.9,88.7-107.2c32.4,23.6,60.1,7,86.9-11c21.2-14.3,41.7-30,64.3-46.3
			c26.8,36.6,64,46.7,106.4,34.4c-2.9,21.5-5.3,40.2-7.8,58.7c-5.9,44.1,33.4,65.5,66.7,49c2.4-1.2,5.1-2,6.4-2.5
			c1.4,21.5,0.7,42.9,4.6,63.3c8.3,44.4,45.1,59.7,79.1,40c14.4-8.3,27.3-20.2,40-31.9c8.7-8.1,12.7-6.8,19.7,2.9
			c32.1,44.3,77.5,45.5,115.9,16.5c11.9-9,17.5-27.5,27-41.1c2.9-4.2,8.5-8.5,13.1-8.5c14.1-0.2,28.2,1.7,42.2,3.1
			c1.9,0.2,3.7,1.9,5.6,2.7c-9.5,14.1-19.2,28.2-31,45.8c10.9,21,11.9,52.8-6.8,81.3c-11.4,17.3-28,30.4-42.4,45.1
			c-4.1,4.2-8.8,7.6-13.2,11.5c-22.4,9-45,18.2-67.3,27c-40.5,15.8-62.3,13.7-94.7-21.4c-10.2-11-17.1-25.4-27-36.8
			c-3.9-4.2-13.4-7.5-18-5.3c-26.1,12.4-50.7,7.1-75.3-4.4c-20.2-14.9-40.4-29.9-60.6-45c-14.9-19.3-23.4-40.4-12.4-66.5
			c-13.9-5.1-25.8-9.3-37.7-13.6h-0.2c-1-2.4-1.9-4.8-2.9-7.1l-0.3-0.7c-1.2-2-2.5-4.2-3.7-6.3c-1.2-1.4-2.4-2.7-3.6-4.1
			c-1-1.2-2-2.2-2.9-3.4c-9.7-17.5-19.3-34.9-28.5-51.6c-14.6,31.9-34.1,52.9-59,62.8c-1,1-2,1.9-3.1,2.9c-1,0.3-1.9,0.5-2.9,0.5
			c-32.6,16.8-66.8,11-101.3,6.6c-1,10.7-2,20-2.9,29.3c-9.2,14.8-18.3,29.5-27.5,44.4c-20.7,4.9-41.6,9.8-62.9,14.9
			c4.9,7.5,9.3,14.6,13.9,21.4c21.5,31.9,29,68.4,20.4,105.7c-4.4,18.7-2.9,26.6,11.7,36.3c28,18.5,39.9,57,30.2,90.8
			c-9.3,32.2-42.8,59-69.4,55.1c-5.4-0.8-11.5,2.4-17.1,3.6c-25.1,1.5-45.5-9.3-61.9-29.3c-5.6-6.8-10.2-14.6-14.8-22.2
			c-9.5-15.4-22.4-21.5-39.7-22.4c-17-0.8-35.3-2.5-50-10.5c-33.8-18.3-40.4-53.9-20.7-96.5c-4.6-2.9-9.2-5.9-13.7-9
			c-1.9-1.2-3.9-2.4-5.8-3.4c-0.8,0-1.4-0.3-1.7-1.2c-4.6-3.7-9.2-7.3-13.7-11l-0.2-0.2c-2.4-2.2-4.8-4.2-7.1-6.4l-0.3-0.3
			c5.6-23.6-8.5-30-24.9-34.3c-0.8-0.7-1.2-1.5-1.2-2.7c-3.4-8.8-6.8-17.6-10.2-26.5c-0.7-0.5-0.8-1.2-0.5-1.9
			c-0.5-9.5-0.7-19-1.9-28.5C40,646.6,44.6,642.6,54.5,643.8z"/>
		<path class="st2" d="M688.6,974.7c-7.8-78.9,4.4-155.4,24.3-230.9c4.9-19,13.1-37.2,19.7-55.6c24.6,11.5,49.2,16.8,75.3,4.4
			c4.6-2.2,14.1,0.8,18,5.3c10,11.2,17,25.8,27,36.8c32.4,35.1,54.1,37.3,94.7,21.4c22.6-8.8,45-18,67.3-27
			c-10.2,20.4-27.7,29.5-46.8,34.6c-9,2.4-12.6,6.6-14.9,16.1c-12.2,50.7-41.2,85.3-85,106c-7.1,3.4-13.2,10-18.5,16.5
			c-11.2,14.3-20.2,30.9-32.6,43.8c-30.9,32.2-67.2,33.6-101.1,5.8C706.9,959.5,697.7,967.1,688.6,974.7z"/>
		<path class="st3" d="M383.1,636.6c5.8,5.6,11.2,11.9,17.6,16.5c48.9,34.6,71.9,87.2,86.3,146.4c14.6,59.2,18,102.1,18,161.5
			c0,1.5-2.5,27.7-3.1,29.3c-23.1-6.1-48.5-21.9-70.1-48c-5.4,5.8-10.7,12-16.6,17.1c-21.9,18.8-46,22.6-72.4,13.4
			c-10.9-3.7-22.2-5.8-33.4-8.7c5.8-1.4,11.7-4.4,17.1-3.6c26.6,3.9,60.1-22.9,69.4-55.1c9.8-33.8-2.2-72.3-30.2-90.8
			c-14.6-9.7-16.1-17.6-11.7-36.3c8.7-37.3,1.2-73.8-20.4-105.7c-4.6-6.8-9-13.7-13.9-21.4C341.5,646.5,362.2,641.6,383.1,636.6z"/>
		<path class="st4" d="M379.3,191.2c7.6,18.8-10,25.8-12.4,34.6c-32.2-4.2-61.9-8.8-91.8-11.5c-6.8-0.7-13.9,5.9-21.2,8.1
			c-8.5,2.5-17.1,3.7-25.6,6.3c-10.5,3.2-22.2,6.3-14.6,24.4c-4.1,0.3-7.8,0.8-11.5,1.2v0.2c-1-2.4-2-4.8-3.1-7
			c-0.5-0.7-1-1.4-1.7-2.2c21.4-26.8,50-37,80.6-37.5c21.9-0.5,44.3,4.2,65.7,10c12.6,3.4,19.5,2.9,24.8-10.9
			C370.7,201.2,375.6,196.4,379.3,191.2z"/>
		<path class="st5" d="M726.6,80.4c-11.5-4.6-22.7-11.2-34.6-13.1c-19-2.9-38.3-3.1-57.7-2.7c-5.8,0.2-11.5,5.9-16.5,8.7
			c-5.6-10.5-17.8-1.7-29.2,3.2c-13.7,5.9-27,13.6-40.4,20.4c49-40,102.5-52.3,161-29.7C715.7,69.5,720.8,75.8,726.6,80.4z"/>
		<path class="st5" d="M73.6,388.4c-1.2,5.6-1.9,11.4-3.7,16.8c-8.1,23.9-20.7,47.2-11.9,74c4.2,12.9,10.5,24.9,15.1,37.7
			c2.2,5.9,2.5,12.6,3.7,18.8C45,490.2,40.7,442.9,69,393.5C70.2,391.7,72.1,390.1,73.6,388.4z"/>
		<path class="st4" d="M512.8,128c-3.1,25.1-21.5,38.3-43.4,32.2c-10.5-3.1-21.5-4.1-32.6-5.1c-3.6-0.3-9.3,1-10.5,3.4
			c-5.9,13.6-15.1,8.5-23.9,6.1c14.4-16.8,40.2-24.4,59.2-13.4c17,9.7,27.7,6.6,37.8-9.8C502.7,136.2,508.3,132.5,512.8,128z"/>
		<path class="st4" d="M202.2,254.4c-2.5,6.6-4.8,13.4-7.5,19.7c-5.4,12.2-6.4,23.4,0.3,36c2.9,5.4,0.7,14.3,0.7,21.5
			c-17.6-37.3-17.1-62.6,1.7-86.2c0.5,0.7,1,1.4,1.7,2.2C200.2,249.8,201.2,252.1,202.2,254.4L202.2,254.4z"/>
		<path class="st5" d="M54.5,643.8c-9.8-1.2-14.4,2.9-13.1,14.3c1,9.3,1.2,19,1.9,28.5c-8.8-29.5-8.3-58.7,4.4-86.9
			C49.7,614.4,52.1,629.2,54.5,643.8z"/>
		<path class="st4" d="M195.4,331.8c-5.6,1.7-11.2,3.7-16.8,5.3c-23.8,6.6-47.7,13.2-71.4,19.7C133.2,333.8,164,331.8,195.4,331.8z"
			/>
		<path class="st5" d="M55.1,717.6c16.6,4.2,30.5,10.7,24.9,34.3C71.8,740.5,63.4,729.1,55.1,717.6z"/>
		<path class="st5" d="M758.1,73.2c-2.9,6.3-4.8,13.4-9,18.3c-2.9,3.2-10.3,5.4-13.4,3.6c-4.2-2.5-6.3-9.5-9.2-14.6
			c3.4,2.7,6.8,5.3,9.8,7.6C743.9,83.1,751,78.2,758.1,73.2z"/>
		<path class="st4" d="M105,357.7c-5.1,15.9-16.1,24.4-30.4,29C84.8,377.1,95,367.4,105,357.7z"/>
		<path class="st5" d="M64.8,563.3c0.7,8.1,1.2,16.3,1.5,20.7c-7,5.8-12.9,10.7-19,15.6C53.1,587.6,59,575.6,64.8,563.3z"/>
		<path class="st5" d="M76.7,539.4c2,6.6,3.9,13.1,6.6,22.2c-8,0.7-13.2,1.2-18.5,1.7C68.7,555.4,72.6,547.4,76.7,539.4z"/>
		<path class="st4" d="M534.4,107.5c-2.7,9.8-4.6,20.7-18,17C522.5,118.9,528.4,113.1,534.4,107.5z"/>
		<path class="st5" d="M43.6,688.4c3.4,8.8,6.8,17.6,10.2,26.5C50.6,706.2,47.2,697.2,43.6,688.4z"/>
		<path class="st4" d="M402.6,165c-5.3,5.3-10.5,10.7-15.6,15.9C392,175.5,397.3,170.3,402.6,165z"/>
		<path class="st5" d="M782.9,57.5c-4.9,2.9-9.8,5.9-14.8,8.8C773.1,63.4,778,60.4,782.9,57.5z"/>
		<path class="st5" d="M87.5,758.8c4.6,3.7,9.2,7.3,13.7,11C96.7,766.1,92.1,762.5,87.5,758.8z"/>
		<path class="st4" d="M548,96.8c-4.6,3.6-9,7.1-13.6,10.5C539,104,543.5,100.4,548,96.8z"/>
		<path class="st5" d="M766.1,67.8c-2.5,1.9-5.3,3.7-7.8,5.4C760.9,71.4,763.4,69.5,766.1,67.8z"/>
		<path class="st5" d="M80.4,752.2c2.4,2.2,4.8,4.2,7.1,6.4C85.2,756.6,82.8,754.4,80.4,752.2z"/>
		<path class="st4" d="M383.6,185c-1.5,2-2.9,4.2-4.4,6.3C380.7,189.3,382.2,187.2,383.6,185z"/>
		<path class="st5" d="M103,771c1.9,1.2,3.9,2.4,5.8,3.4C106.7,773.2,104.8,772,103,771z"/>
		<path class="st4" d="M386.8,181c-1,1.2-2,2.4-2.9,3.7C384.8,183.5,385.8,182.3,386.8,181z"/>
		<path class="st4" d="M516.6,124.5c-1.2,1.2-2.4,2.4-3.6,3.6C514.2,126.9,515.4,125.7,516.6,124.5z"/>
		<path class="st3" d="M514.7,556.2c-3.4,27.3-6.8,54.8-10.7,85.7c-14.4-9.5-28.3-18.5-41.9-28c-11.2-7.8-21.5-17.6-33.3-24.1
			c-4.6-2.5-12,1.5-18.2,2.5c0.8-9.3,1.9-18.8,2.9-29.3C447.9,567.3,482,573,514.7,556.2z"/>
		<path class="st3" d="M672,643.3c-16.6,10.3-33.1,20.7-50.2,31.2c0-39.2,0-75.3,0-111.3c11.9,4.2,23.8,8.7,37.7,13.6
			C648.5,602.9,657,623.9,672,643.3z"/>
		<path class="st6" d="M621.6,563c-1-2.4-1.9-4.8-2.9-7.1C619.7,558.3,620.7,560.6,621.6,563z"/>
		<path class="st6" d="M618.4,555.2c-1.2-2-2.5-4.2-3.7-6.3C616,551,617.2,553.2,618.4,555.2z"/>
		<path class="st6" d="M611.1,544.9c-1-1.2-2-2.2-2.9-3.4C609,542.7,610,543.8,611.1,544.9z"/>
		<path class="st6" d="M520.6,552.8c-1,1-2,1.9-3.1,2.9C518.6,554.7,519.6,553.7,520.6,552.8z"/>
		<path class="st7" d="M729.5,1257.5c1.4,3.9,2.7,8,4.1,11.9C732.3,1265.5,730.8,1261.4,729.5,1257.5z"/>
		<path class="st0" d="M202.2,254.4c-1-2.4-2-4.8-3.1-7C200.2,249.8,201.2,252.1,202.2,254.4z"/>
	</g>
</g>
<path class="st8" d="M696.4,1171.2c-9.5-64.9-7.2-129.2-7.9-196.5c-7.6-79.1,4.4-155.6,24.3-230.9c5.1-19,13.1-37.2,19.7-55.6
	c-20.2-15.1-40.4-30-60.6-45c-16.6,10.3-33.3,20.5-50.6,31c0-39.2,0-75.2,0-111.3h-0.2c-1-2.4-1.9-4.8-2.9-7.1l-0.3-0.7
	c-1.2-2-2.5-4.2-3.7-6.3c-1.2-1.4-2.4-2.7-3.6-4.1c-0.8-1.2-1.9-2.2-2.9-3.4c-9.7-17.5-19.3-35.1-28.5-51.6
	c-14.6,31.9-34.3,52.9-59,62.8c-1,1-2,1.9-3.1,2.9c-0.8,0.3-1.9,0.5-2.9,0.5c-3.4,27.3-6.8,54.8-10.7,85.7
	c-14.3-9.5-28.3-18.5-41.9-28c-11.2-7.8-21.5-17.5-33.3-24.1c-4.6-2.4-12,1.5-18.2,2.5c-9.2,14.9-18.3,29.7-27.5,44.4
	c5.9,5.4,11.2,11.9,17.6,16.5c48.9,34.8,71.9,87.4,86.3,146.4c14.4,59.2,15.9,115.9,16.1,175.2l-22.4,319.9
	c-16,68.2-73,192.7-283.1,332.6c59.2,0,180.3-34.6,286.4-60.8c-5,27.5-22.3,71.5-36.2,83.6l175-51.9c14.9-5.2,27.6-10.9,38.4-16.6
	c37.4,30.1,159.8,45.6,159.8,45.6c-35-20.7-55.3-52.2-79.7-86.3c54.5,24.1,211.8-0.4,211.8-0.4C818.4,1487.3,709.8,1273,709.8,1273"
	/>
<path class="st9" d="M577.3,1344.3l-2.1-247.7v-294l4.1-312.7c-21.1,48.9-65,66.2-65,66.2l-10.7,85.7c0,0-75.8-58.4-77.5-57.6
	c-1.7,0.8-15.8,8.1-15.8,8.1l-27.5,44.4l61.5,60.9c56.4,90.9,56.4,218.7,56.4,218.7l-11.3,216l-15.8,173l-61.5,128.4
	c-95.3,109.8-214.6,193.5-214.6,193.5s149.1-52.6,218.7-99.4c33.5-22.5,40.4-20.8,77-55.9l-0.8,26.7l-8.5,67.8l-36.2,83.6
	C608.3,1561.9,577.3,1344.3,577.3,1344.3z"/>
</svg>
