<?xml version="1.0" encoding="utf-8"?>
<!-- Generator: Adobe Illustrator 19.2.1, SVG Export Plug-In . SVG Version: 6.00 Build 0)  -->
<svg version="1.1" id="Layer_1" xmlns="http://www.w3.org/2000/svg" xmlns:xlink="http://www.w3.org/1999/xlink" x="0px" y="0px"
	 viewBox="0 0 833 1692" style="enable-background:new 0 0 833 1692;" xml:space="preserve">
<style type="text/css">
	.st0{fill:url(#SVGID_1_);stroke:#4E342E;stroke-miterlimit:10;}
	.st1{fill:url(#SVGID_2_);stroke:#1B5E20;stroke-miterlimit:10;}
</style>
<linearGradient id="SVGID_1_" gradientUnits="userSpaceOnUse" x1="258.8" y1="459.9001" x2="565.2" y2="459.9001" gradientTransform="matrix(1 0 0 -1 0 1689.8)">
	<stop  offset="0" style="stop-color:#5D4037"/>
	<stop  offset="0.4824" style="stop-color:#8D6E63"/>
	<stop  offset="0.7067" style="stop-color:#896A5F"/>
	<stop  offset="1" style="stop-color:#61433A"/>
</linearGradient>
<path class="st0" d="M499.2,767.8c-53.9,446.4,2.5,733.2,61.5,913c1.3,4,3,7.5,4.5,11.2H258.8c23.5-88.2,52.5-222.1,66-393.8
	c18.2-231.4-0.5-421.6-15.7-530.4L499.2,767.8L499.2,767.8z"/>
<radialGradient id="SVGID_2_" cx="392.7715" cy="307.7337" r="223.8448" gradientTransform="matrix(1.5205 0 0 -2.0164 -178.7982 1292.1654)" gradientUnits="userSpaceOnUse">
	<stop  offset="0" style="stop-color:#92BF5B"/>
	<stop  offset="0.4188" style="stop-color:#72AD50"/>
	<stop  offset="0.7153" style="stop-color:#579E47"/>
	<stop  offset="1" style="stop-color:#388E3C"/>
</radialGradient>
<path class="st1" d="M718,364.3c-3.8,16.2,2.9,36.2,9.1,47.1c11.1,19.4,23.1,14.1,27.4,29.1c3.5,12.5-4,19.2-10.6,53.8
	c-6.2,32.2-3.3,44.8-10.6,51.5c-10.1,9.2-24-6.5-27.4,0c-4.9,9.4,25.8,40.7,21.3,62.7c-7.2,35.2-87.3,9.6-101.9,56
	c-8.7,27.7,14.9,52.4,4.6,80.7c-10.4,28.5-37.7,12.4-66.9,49.3c-20.7,26.1-14.8,44-30.4,53.8c-29,18.1-56.3-39.4-86.7-20.2
	c-13.9,8.8-12.6,23.8-27.4,38.1c-23.3,22.6-54.9,12.8-79.1,0c-51.2,42.4-72.1,43-80.6,31.4c-10.5-14.5-0.4-45.9-12.2-58.3
	c-15.3-16-43.9,24.8-57.8,9c-9.6-10.9,1.5-33-9.1-60.5c-11.2-29.2-31.8-25.4-35-47.1c-3.5-23.9,20-37.8,16.7-60.5
	c-4-27.4-41.7-29.5-42.6-51.5c-0.6-16.5,20.1-24.9,18.2-38.1c-1.6-11.4-17.9-10.2-44.1-26.9c-18.6-11.9-29.3-18.7-33.5-33.6
	c-8-28.9,11.8-77.5,35-85.1c16.7-5.5,28,12.5,33.5,4.5c7.2-10.5-2.2-56.5-24.3-78.4c-19-18.8-37.4-10-45.6-31.4
	c-5.3-13.9-2.2-29.9-1.5-33.6c5.9-30.5,30.5-44.7,50.2-56c27.5-15.8,30.9-7,42.6-20.2c17-19.2,13.6-42.4,28.9-80.7
	c12.5-31.2,22.9-59.6,38-60.5c13.7-0.8,13.6,33.8,36.5,49.3c10.5,7.1,28.8,14.5,39.5,2.2c12.3-14,4.7-41.8,15.2-49.3
	c6.5-4.7,12,4.3,38,17.9c16,8.4,24.1,12.5,28.9,9c14.1-10.3,4.6-53.9,18.2-65c8.5-6.9,16.3,6.6,36.5,15.7c38.2,17.2,66.3-5.5,71.5,9
	c4.7,13.1-20.9,43.2-16.7,51.5c4.2,8.2,29.4-21.5,48.7-6.7c9.5,7.3,14.7,23.2,15.2,24.6c5.5,17,1.2,26.8,6.1,33.6
	c8.3,11.3,23.6-12,36.5-2.2c11.5,8.7,6.6,32.9,24.3,69.5c5.4,11.2,8.2,16.8,12.2,17.9c17.5,5.1,32.6-59.6,48.7-56
	c8.8,1.9,6.6,24.1,18.2,49.3c21.8,47.5,64.2,46.6,63.9,65C757.2,338.9,724.4,336.6,718,364.3z"/>
</svg>
