<?xml version="1.0" encoding="utf-8"?>
<!-- Generator: Adobe Illustrator 22.1.0, SVG Export Plug-In . SVG Version: 6.00 Build 0)  -->
<svg version="1.1" id="Layer_1" xmlns="http://www.w3.org/2000/svg" xmlns:xlink="http://www.w3.org/1999/xlink" x="0px" y="0px"
	 viewBox="0 0 1662 1013.8" style="enable-background:new 0 0 1662 1013.8;" xml:space="preserve">
<style type="text/css">
	.st0{fill:#82B56D;stroke:#000000;stroke-miterlimit:10;}
	.st1{fill:#E2B596;stroke:#000000;stroke-miterlimit:10;}
	.st2{fill:#8E706B;stroke:#000000;stroke-miterlimit:10;}
	.st3{fill:#404956;stroke:#000000;stroke-miterlimit:10;}
	.st4{fill:#FFFFFF;}
	.st5{fill:#995D34;stroke:#000000;stroke-miterlimit:10;}
	.st6{fill:#3A9B46;stroke:#366E3B;stroke-miterlimit:10;}
	.st7{fill:#F4CF92;stroke:#000000;stroke-miterlimit:10;}
	.st8{fill:#FEE87D;stroke:#000000;stroke-miterlimit:10;}
	.st9{fill:#AE8779;stroke:#000000;stroke-miterlimit:10;}
	.st10{fill:#E5C7BE;}
	.st11{fill:#E2B5AA;}
	.st12{fill:#CE958A;}
	.st13{fill:#DDC6C0;stroke:#000000;stroke-miterlimit:10;}
	.st14{fill:#443930;stroke:#D19F5D;stroke-width:5;stroke-miterlimit:10;}
	.st15{fill:#CC8147;stroke:#7F542E;stroke-miterlimit:10;}
	.st16{fill:#D19F5D;}
	.st17{font-family:'Effra-Bold';}
	.st18{font-size:55.0744px;}
</style>
<rect y="642.7" class="st0" width="1662" height="371.1"/>
<rect class="st1" width="597.9" height="642.7"/>
<rect y="426.9" class="st2" width="597.9" height="215.7"/>
<rect class="st2" width="597.9" height="51"/>
<g id="Window">
	<rect x="131" y="75.1" class="st3" width="237" height="327.8"/>
	<rect x="131" y="234.2" class="st4" width="237" height="8.3"/>
	<rect x="131" y="75.1" class="st4" width="10.6" height="327.8"/>
	<rect x="357.4" y="75.1" class="st4" width="10.6" height="327.8"/>
	<rect x="131" y="394.5" class="st4" width="237" height="8.3"/>
	<rect x="131" y="75.1" class="st4" width="237" height="8.3"/>
	<rect x="244.2" y="75.1" class="st4" width="10.6" height="327.8"/>
</g>
<g id="Layer_2_1_">
	<path class="st5" d="M513,48.2c9.3,102.9,5.9,189.7,0,254c-8.5,92.9-16.7,175.1-59.7,272c-25.1,56.5-54,99.8-75.9,129
		c73.5,0,147,0,220.5,0v-657C569.6,46.9,541.3,47.5,513,48.2z"/>
	<path class="st6" d="M320,111c21.9,20.2,56.9-13.2,98,4c38.4,16.1,38.7,58.2,65,59c31.1,1,49-57.4,71-52c15.2,3.7,8.6,32.2,30,46
		c22.7,14.6,58.9,1.3,95-12c30.6-11.2,31.3-16.7,44.2-16.5c41.2,0.9,50.4,60.6,81,58.5c42.2-2.9,93.8-92.9,83-175.5
		c-5.6-42.6-26.3-71.1-32-78.8c-14.1-18.9-36.1-39.1-89-56.1c-53.5-17.2-92.7-16.5-135-17.9c-154.5-5-160.1-31.5-229-13.1
		c-21.5,5.7-63.8,20.9-129,93.1C260.7-36.3,186.5,45.8,201,63c12.2,14.5,74.7-32.9,101-10C318.8,67.6,302.4,94.8,320,111z"/>
</g>
<rect x="597.9" class="st2" width="1064.1" height="749.4"/>
<g id="Door">
	<rect x="742.2" y="140.4" class="st7" width="322" height="609"/>
	<circle class="st8" cx="1025" cy="474.1" r="14.6"/>
</g>
<g id="Path">
	<polygon class="st9" points="743.4,749.4 538.2,1013.8 1214.3,1013.8 1065.4,749.4 	"/>
	<path class="st10" d="M823.9,773.5h-40.4c-3.2,0-5-2.3-4.1-5.1l0,0c0.9-2.7,4.2-4.9,7.3-4.9H826c3.1,0,5.2,2.2,4.7,4.9l0,0
		C830.1,771.2,827.1,773.5,823.9,773.5z"/>
	<path class="st10" d="M889.2,789.7h-41.6c-3.3,0-5.6-2.4-5.2-5.4l0,0c0.4-2.9,3.3-5.2,6.5-5.2h40.4c3.2,0,5.8,2.3,5.8,5.2l0,0
		C895.1,787.3,892.4,789.7,889.2,789.7z"/>
	<path class="st10" d="M764.2,795.4h-42.9c-3.4,0-4.9-2.6-3.4-5.7l0,0c1.5-3.1,5.3-5.5,8.6-5.5h41.6c3.3,0,5.1,2.5,4.1,5.5l0,0
		C771.2,792.8,767.6,795.4,764.2,795.4z"/>
	<path class="st10" d="M822.7,817.4h-45.3c-3.6,0-5.6-2.9-4.5-6.4l0,0c1.1-3.4,4.8-6.2,8.2-6.2H825c3.4,0,5.8,2.8,5.2,6.2l0,0
		C829.7,814.5,826.2,817.4,822.7,817.4z"/>
	<path class="st10" d="M961.7,773.5h-40.4c-3.2,0-5.9-2.3-6-5.1l0,0c-0.1-2.7,2.3-4.9,5.4-4.9H960c3.1,0,6,2.2,6.5,4.9l0,0
		C967.1,771.2,964.9,773.5,961.7,773.5z"/>
	<path class="st10" d="M939,820.2h-44.2c-3.5,0-6.2-2.8-6.1-6.1l0,0c0.1-3.3,2.9-5.9,6.3-5.9h42.9c3.4,0,6.4,2.6,6.8,5.9l0,0
		C945,817.4,942.5,820.2,939,820.2z"/>
	<path class="st10" d="M1001.2,800.5H959c-3.3,0-6.5-2.5-7-5.5l0,0c-0.5-3,1.7-5.4,4.9-5.4h41c3.2,0,6.6,2.4,7.6,5.4l0,0
		C1006.4,798,1004.5,800.5,1001.2,800.5z"/>
	<path class="st10" d="M1069.7,773.5h-40.4c-3.2,0-6.6-2.3-7.5-5.1l0,0c-0.9-2.7,0.9-4.9,4-4.9h39.3c3.1,0,6.7,2.2,8,4.9l0,0
		C1074.4,771.2,1072.9,773.5,1069.7,773.5z"/>
	<path class="st10" d="M1068.3,813.6h-44.9c-3.5,0-7.2-2.8-8.2-6.3l0,0c-1-3.4,1.1-6.1,4.5-6.1h43.5c3.4,0,7.4,2.7,8.8,6.1l0,0
		C1073.5,810.7,1071.8,813.6,1068.3,813.6z"/>
	<path class="st11" d="M992.9,881.6h52.8c4.1,0,9.5,4.1,11.9,9.2l0,0c2.5,5.3,1.1,9.8-3.3,9.8h-55.8c-4.4,0-9.2-4.5-10.6-9.8l0,0
		C986.5,885.7,988.8,881.6,992.9,881.6z"/>
	<path class="st11" d="M918.7,864.3h50.1c3.9,0,7.9,3.7,8.8,8.3l0,0c0.9,4.8-1.7,8.8-5.8,8.8H919c-4.1,0-7.5-4-7.5-8.8l0,0
		C911.5,868,914.8,864.3,918.7,864.3z"/>
	<path class="st11" d="M1042.8,849.1h47.7c3.7,0,9.1,3.3,11.9,7.5l0,0c2.9,4.3,2.1,7.9-1.8,7.9h-50.1c-3.9,0-8.9-3.6-10.9-7.9l0,0
		C1037.6,852.4,1039.1,849.1,1042.8,849.1z"/>
	<path class="st11" d="M971.9,833.1h43.9c3.5,0,7.5,2.8,9.1,6.4l0,0c1.6,3.6,0,6.7-3.6,6.7h-45.9c-3.6,0-7.3-3-8.2-6.7l0,0
		C966.3,835.9,968.5,833.1,971.9,833.1z"/>
	<path class="st11" d="M811.1,881.6h52.8c4.1,0,7.3,4.1,7,9.2l0,0c-0.3,5.3-4.2,9.8-8.5,9.8h-55.8c-4.4,0-6.8-4.5-5.4-9.8l0,0
		C802.5,885.7,806.9,881.6,811.1,881.6z"/>
	<path class="st11" d="M851.4,835.1h45.5c3.6,0,6.6,3,6.8,6.8l0,0c0.2,3.9-2.8,7.2-6.5,7.2h-47.7c-3.7,0-6.3-3.3-5.7-7.2l0,0
		C844.4,838.1,847.8,835.1,851.4,835.1z"/>
	<path class="st11" d="M769.3,853.6h48.9c3.8,0,6.1,3.5,4.9,7.9l0,0c-1.2,4.5-5.5,8.3-9.5,8.3h-51.4c-4,0-5.6-3.8-3.5-8.3l0,0
		C760.7,857.1,765.5,853.6,769.3,853.6z"/>
	<path class="st11" d="M670.1,881.6h52.8c4.1,0,5.6,4.1,3.1,9.2l0,0c-2.5,5.3-8.2,9.8-12.6,9.8h-55.8c-4.4,0-5-4.5-1.4-9.8l0,0
		C659.8,885.7,666,881.6,670.1,881.6z"/>
	<path class="st11" d="M724.6,828.5h44.5c3.5,0,5.2,2.9,3.7,6.5l0,0c-1.5,3.7-5.8,6.8-9.4,6.8h-46.6c-3.7,0-4.8-3.1-2.5-6.8l0,0
		C716.5,831.4,721.1,828.5,724.6,828.5z"/>
	<path class="st12" d="M760.9,937.9H701c-4.7,0-6.4-4.6-3.9-10.1l0,0c2.5-5.3,8.1-9.6,12.6-9.6h56.9c4.5,0,7,4.2,5.6,9.6l0,0
		C770.7,933.3,765.7,937.9,760.9,937.9z"/>
	<path class="st12" d="M861.2,954.8h-63.4c-5,0-8.1-4.6-6.9-10l0,0c1.1-5.3,5.9-9.5,10.6-9.5h59.9c4.7,0,8.6,4.2,8.7,9.5l0,0
		C870.2,950.2,866.1,954.8,861.2,954.8z"/>
	<path class="st12" d="M660.3,964.7h-67.2c-5.3,0-5.7-5.2-1.2-11.4l0,0c4.4-6,12-10.8,17-10.8h63.4c5,0,6.6,4.8,3.5,10.8l0,0
		C672.7,959.5,665.6,964.7,660.3,964.7z"/>
	<path class="st12" d="M750.4,1000.7H675c-5.9,0-7.6-4.8-3.8-10.6l0,0c3.6-5.5,11.1-9.9,16.6-9.9h70.7c5.6,0,8.5,4.4,6.6,9.9l0,0
		C762.9,995.9,756.4,1000.7,750.4,1000.7z"/>
	<path class="st12" d="M972.5,933.9h-59.9c-4.7,0-8.9-4.9-9.2-10.7l0,0c-0.4-5.6,3-10.1,7.5-10.1h56.9c4.5,0,9.3,4.5,10.7,10.1l0,0
		C979.8,929,977.2,933.9,972.5,933.9z"/>
	<path class="st12" d="M952.7,993.1h-95.3c-7.5,0-10.6-7.2-7.3-14.9l0,0c2.9-6.7,9.7-11.6,15.5-11.6h74.2c5.8,0,13.5,4.9,17.5,11.6
		l0,0C962,985.8,960.1,993.1,952.7,993.1z"/>
	<path class="st12" d="M1060.6,966.3h-72.3c-5.7,0-11.9-5.2-13.9-11.3l0,0c-1.9-5.9,1-10.7,6.4-10.7h68.3c5.4,0,12.3,4.7,15.6,10.7
		l0,0C1068.1,961.1,1066.3,966.3,1060.6,966.3z"/>
	<path class="st12" d="M1139.5,938.3h-59.9c-4.7,0-10.8-4.8-13.5-10.4l0,0c-2.6-5.5-1-9.9,3.5-9.9h56.9c4.5,0,11,4.4,14.7,9.9l0,0
		C1144.9,933.5,1144.2,938.3,1139.5,938.3z"/>
	<path class="st12" d="M1177.9,993.3h-74c-5.8,0-13.5-4.6-16.9-10l0,0c-3.3-5.2-1.5-9.4,4-9.4h69.3c5.4,0,13.8,4.2,18.7,9.4l0,0
		C1184.2,988.7,1183.7,993.3,1177.9,993.3z"/>
</g>
<rect x="650.1" class="st13" width="54.7" height="757.5"/>
<rect x="1096" class="st13" width="54.7" height="757.5"/>
<rect x="640.4" y="739.3" class="st13" width="73.3" height="36.4"/>
<rect x="1086.7" y="745.8" class="st13" width="73.3" height="36.4"/>
<g id="Banner">
	<path class="st14" d="M1227.9,251.3h-55.7v163.1h462.2V251.3H1592c-3.7-3.3-65.7-56-182.3-55.9
		C1293.3,195.4,1231.7,247.9,1227.9,251.3z"/>
	<circle class="st15" cx="1403.3" cy="220.8" r="12.8"/>
	<circle class="st15" cx="1383.5" cy="233.6" r="7"/>
	<circle class="st15" cx="1423" cy="233.6" r="7"/>
	<circle class="st9" cx="1228.5" cy="272" r="5.5"/>
	<circle class="st9" cx="1590.8" cy="272" r="5.5"/>
</g>
<path class="st2" d="M206-28"/>
<text transform="matrix(1 0 0 1 1343.278 293.8984)"><tspan x="0" y="0" class="st16 st17 st18">8102</tspan><tspan x="-120.7" y="66.1" class="st16 st17 st18">Asthma House</tspan></text>
</svg>
