<?xml version="1.0" encoding="utf-8"?>
<!-- Generator: Adobe Illustrator 23.0.4, SVG Export Plug-In . SVG Version: 6.00 Build 0)  -->
<svg version="1.1"
	 id="Layer_1" inkscape:version="0.92.4 (5da689c313, 2019-01-14)" sodipodi:docname="Hallway.svg" xmlns:cc="http://creativecommons.org/ns#" xmlns:dc="http://purl.org/dc/elements/1.1/" xmlns:inkscape="http://www.inkscape.org/namespaces/inkscape" xmlns:rdf="http://www.w3.org/1999/02/22-rdf-syntax-ns#" xmlns:sodipodi="http://sodipodi.sourceforge.net/DTD/sodipodi-0.dtd" xmlns:svg="http://www.w3.org/2000/svg"
	 xmlns="http://www.w3.org/2000/svg" xmlns:xlink="http://www.w3.org/1999/xlink" x="0px" y="0px" viewBox="0 0 1662 1013.8"
	 style="enable-background:new 0 0 1662 1013.8;" xml:space="preserve">
<pattern  y="1013.8" width="436" height="348" patternUnits="userSpaceOnUse" id="Floor_1_" viewBox="290.7 -377 436 348" style="overflow:visible;">
	<g>
		<rect x="290.7" y="-377" style="fill:none;" width="436" height="348"/>
		<path id="path1309_1_" style="fill:none;" d="M290.7-29h436v-348h-436V-29z"/>
		<path id="path1311_1_" style="fill:none;" d="M290.7-29h436v-348h-436V-29z"/>
		<path id="path1313_1_" style="fill:none;" d="M290.7-29h436v-348h-436V-29z"/>
		<path id="path1315_1_" style="fill:none;" d="M290.7-29h436v-348h-436V-29z"/>
		<path id="path1317_1_" style="fill:none;" d="M290.7-29h436v-348h-436V-29z"/>
		<path id="path1319_1_" style="fill:none;" d="M290.7-29h436v-348h-436V-29z"/>
		<path id="path1321_1_" style="fill:none;" d="M290.7-29h436v-348h-436V-29z"/>
		<path id="path1323_1_" style="fill:none;" d="M290.7-29h436v-348h-436V-29z"/>
		<path id="path1325_1_" style="fill:#7A6551;stroke:#2D1E11;stroke-miterlimit:10;" d="M291.2-0.5h435v-57h-435V-0.5z"/>
		<path id="path1327_1_" style="fill:#B79C80;" d="M724.2-39.5l-124,1c0,0-83,2-90,3s-17,2-16,4s16,5,29,6s201,2,201,2s-180-1-187-4
			s0-3,3-4S724.2-39.5,724.2-39.5z"/>
		<path id="path1329_1_" style="fill:#B79C80;" d="M723.2-33.5c-2,0-85,0-83,2s11,4,19,5s50,2,50,2s-59-4-55-5s70-2,70-2L723.2-33.5
			z M291.2-50.5h435v-4h-435V-50.5z"/>
		<path id="path1331_1_" style="fill:#937F6D;" d="M291.2-45.5h435v-1h-435V-45.5z"/>
		<path id="path1333_1_" style="fill:#B79C80;" d="M291.2-48.5h435v-1h-435V-48.5z"/>
		<path id="path1335_1_" style="fill:#7A6551;stroke:#2D1E11;stroke-miterlimit:10;" d="M436.5-58.5h435v-57h-435V-58.5z"/>
		<path id="path1337_1_" style="fill:#937F6D;" d="M437.5-70.5c0,0,234,5,271,6s115-2,118-3s43,0,43,0v3h-41c-7,0-55,6-55,6h-336
			V-70.5z"/>
		<path id="path1339_1_" style="fill:#B79C80;" d="M869.5-97.5l-124,1c0,0-83,2-90,3s-17,2-16,4s16,5,29,6s201,2,201,2s-180-1-187-4
			s0-3,3-4S869.5-97.5,869.5-97.5z M436.5-108.5h435v-4h-435V-108.5z"/>
		<path id="path1341_1_" style="fill:#937F6D;" d="M436.5-103.5h435v-1h-435V-103.5z"/>
		<path id="path1343_1_" style="fill:#B79C80;" d="M436.5-106.5h435v-1h-435V-106.5z"/>
		<path id="path1345_1_" style="fill:#7A6551;stroke:#2D1E11;stroke-miterlimit:10;" d="M0.5-58.5h435v-57H0.5V-58.5z"/>
		<path id="path1347_1_" style="fill:#937F6D;" d="M1.5-70.5c0,0,234,5,271,6s115-2,118-3s43,0,43,0v3h-41c-7,0-55,6-55,6H1.5V-70.5
			z"/>
		<path id="path1349_1_" style="fill:#B79C80;" d="M433.5-97.5l-124,1c0,0-83,2-90,3s-17,2-16,4s16,5,29,6s201,2,201,2s-180-1-187-4
			s0-3,3-4S433.5-97.5,433.5-97.5z"/>
		<path id="path1351_1_" style="fill:#B79C80;" d="M432.5-91.5c-2,0-85,0-83,2s11,4,19,5s50,2,50,2s-59-4-55-5s70-2,70-2L432.5-91.5
			z M0.5-108.5h435v-4H0.5V-108.5z"/>
		<path id="path1353_1_" style="fill:#937F6D;" d="M0.5-103.5h435v-1H0.5V-103.5z"/>
		<path id="path1355_1_" style="fill:#B79C80;" d="M0.5-106.5h435v-1H0.5V-106.5z"/>
		<path id="path1357_1_" style="fill:#7A6551;stroke:#2D1E11;stroke-miterlimit:10;" d="M581.8-116.5h435v-57h-435L581.8-116.5z"/>
		<path id="path1359_1_" style="fill:#937F6D;" d="M582.8-128.5c0,0,234,5,271,6s115-2,118-3s43,0,43,0v3h-41c-7,0-55,6-55,6h-336
			L582.8-128.5z"/>
		<path id="path1361_1_" style="fill:#B79C80;" d="M581.8-166.5h435v-4h-435L581.8-166.5z"/>
		<path id="path1363_1_" style="fill:#937F6D;" d="M581.8-161.5h435v-1h-435L581.8-161.5z"/>
		<path id="path1365_1_" style="fill:#B79C80;" d="M581.8-164.5h435v-1h-435L581.8-164.5z"/>
		<path id="path1367_1_" style="fill:#7A6551;stroke:#2D1E11;stroke-miterlimit:10;" d="M145.8-116.5h435v-57h-435V-116.5z"/>
		<path id="path1369_1_" style="fill:#937F6D;" d="M146.8-128.5c0,0,234,5,271,6s115-2,118-3s43,0,43,0v3h-41c-7,0-55,6-55,6h-336
			V-128.5z"/>
		<path id="path1371_1_" style="fill:#B79C80;" d="M578.8-155.5l-124,1c0,0-83,2-90,3s-17,2-16,4s16,5,29,6s201,2,201,2
			s-180-1-187-4s0-3,3-4S578.8-155.5,578.8-155.5z"/>
		<path id="path1373_1_" style="fill:#B79C80;" d="M577.8-149.5c-2,0-85,0-83,2s11,4,19,5c8,1,50,2,50,2s-59-4-55-5c4-1,70-2,70-2
			L577.8-149.5z M145.8-166.5h435v-4h-435V-166.5z"/>
		<path id="path1375_1_" style="fill:#937F6D;" d="M145.8-161.5h435v-1h-435V-161.5z"/>
		<path id="path1377_1_" style="fill:#B79C80;" d="M145.8-164.5h435v-1h-435V-164.5z"/>
		<path id="path1379_1_" style="fill:#7A6551;stroke:#2D1E11;stroke-miterlimit:10;" d="M291.2-174.5h435v-57h-435V-174.5z"/>
		<path id="path1381_1_" style="fill:#937F6D;" d="M292.2-186.5c0,0,234,5,271,6s115-2,118-3s43,0,43,0v3h-41c-7,0-55,6-55,6h-336
			V-186.5z"/>
		<path id="path1383_1_" style="fill:#B79C80;" d="M724.2-213.5l-124,1c0,0-83,2-90,3s-17,2-16,4s16,5,29,6s201,2,201,2
			s-180-1-187-4s0-3,3-4S724.2-213.5,724.2-213.5z"/>
		<path id="path1385_1_" style="fill:#B79C80;" d="M723.2-207.5c-2,0-85,0-83,2s11,4,19,5s50,2,50,2s-59-4-55-5s70-2,70-2
			L723.2-207.5z M291.2-224.5h435v-4h-435V-224.5z"/>
		<path id="path1387_1_" style="fill:#937F6D;" d="M291.2-219.5h435v-1h-435V-219.5z"/>
		<path id="path1389_1_" style="fill:#B79C80;" d="M291.2-222.5h435v-1h-435V-222.5z"/>
		<path id="path1391_1_" style="fill:#7A6551;stroke:#2D1E11;stroke-miterlimit:10;" d="M436.5-232.5h435v-57h-435V-232.5z"/>
		<path id="path1393_1_" style="fill:#937F6D;" d="M437.5-244.5c0,0,234,5,271,6s115-2,118-3s43,0,43,0v3h-41c-7,0-55,6-55,6h-336
			V-244.5z"/>
		<path id="path1395_1_" style="fill:#B79C80;" d="M869.5-271.5l-124,1c0,0-83,2-90,3s-17,2-16,4s16,5,29,6s201,2,201,2
			s-180-1-187-4s0-3,3-4S869.5-271.5,869.5-271.5z M436.5-282.5h435v-4h-435V-282.5z"/>
		<path id="path1397_1_" style="fill:#937F6D;" d="M436.5-277.5h435v-1h-435V-277.5z"/>
		<path id="path1399_1_" style="fill:#B79C80;" d="M436.5-280.5h435v-1h-435V-280.5z"/>
		<path id="path1401_1_" style="fill:#7A6551;stroke:#2D1E11;stroke-miterlimit:10;" d="M0.5-232.5h435v-57H0.5V-232.5z"/>
		<path id="path1403_1_" style="fill:#937F6D;" d="M1.5-244.5c0,0,234,5,271,6s115-2,118-3s43,0,43,0v3h-41c-7,0-55,6-55,6H1.5
			V-244.5z"/>
		<path id="path1405_1_" style="fill:#B79C80;" d="M433.5-271.5l-124,1c0,0-83,2-90,3s-17,2-16,4s16,5,29,6s201,2,201,2
			s-180-1-187-4s0-3,3-4S433.5-271.5,433.5-271.5z"/>
		<path id="path1407_1_" style="fill:#B79C80;" d="M432.5-265.5c-2,0-85,0-83,2s11,4,19,5s50,2,50,2s-59-4-55-5s70-2,70-2
			L432.5-265.5z M0.5-282.5h435v-4H0.5V-282.5z"/>
		<path id="path1409_1_" style="fill:#937F6D;" d="M0.5-277.5h435v-1H0.5V-277.5z"/>
		<path id="path1411_1_" style="fill:#B79C80;" d="M0.5-280.5h435v-1H0.5V-280.5z"/>
		<path id="path1413_1_" style="fill:#7A6551;stroke:#2D1E11;stroke-miterlimit:10;" d="M581.8-290.5h435v-57h-435L581.8-290.5z"/>
		<path id="path1415_1_" style="fill:#937F6D;" d="M582.8-302.5c0,0,234,5,271,6s115-2,118-3s43,0,43,0v3h-41c-7,0-55,6-55,6h-336
			L582.8-302.5z"/>
		<path id="path1417_1_" style="fill:#B79C80;" d="M581.8-340.5h435v-4h-435L581.8-340.5z"/>
		<path id="path1419_1_" style="fill:#937F6D;" d="M581.8-335.5h435v-1h-435L581.8-335.5z"/>
		<path id="path1421_1_" style="fill:#B79C80;" d="M581.8-338.5h435v-1h-435L581.8-338.5z"/>
		<path id="path1423_1_" style="fill:#7A6551;stroke:#2D1E11;stroke-miterlimit:10;" d="M145.8-290.5h435v-57h-435V-290.5z"/>
		<path id="path1425_1_" style="fill:#937F6D;" d="M146.8-302.5c0,0,234,5,271,6s115-2,118-3s43,0,43,0v3h-41c-7,0-55,6-55,6h-336
			V-302.5z"/>
		<path id="path1427_1_" style="fill:#B79C80;" d="M578.8-329.5l-124,1c0,0-83,2-90,3s-17,2-16,4s16,5,29,6s201,2,201,2
			s-180-1-187-4s0-3,3-4S578.8-329.5,578.8-329.5z"/>
		<path id="path1429_1_" style="fill:#B79C80;" d="M577.8-323.5c-2,0-85,0-83,2s11,4,19,5c8,1,50,2,50,2s-59-4-55-5c4-1,70-2,70-2
			L577.8-323.5z M145.8-340.5h435v-4h-435V-340.5z"/>
		<path id="path1431_1_" style="fill:#937F6D;" d="M145.8-335.5h435v-1h-435V-335.5z"/>
		<path id="path1433_1_" style="fill:#B79C80;" d="M145.8-338.5h435v-1h-435V-338.5z"/>
		<path id="path1435_1_" style="fill:#7A6551;stroke:#2D1E11;stroke-miterlimit:10;" d="M291.2-348.5h435v-57h-435V-348.5z"/>
		<path id="path1437_1_" style="fill:#937F6D;" d="M292.2-360.5c0,0,234,5,271,6s115-2,118-3s43,0,43,0v3h-41c-7,0-55,6-55,6h-336
			V-360.5z"/>
		<path id="path1439_1_" style="fill:#B79C80;" d="M724.2-387.5l-124,1c0,0-83,2-90,3s-17,2-16,4s16,5,29,6s201,2,201,2
			s-180-1-187-4s0-3,3-4S724.2-387.5,724.2-387.5z"/>
		<path id="path1441_1_" style="fill:#B79C80;" d="M723.2-381.5c-2,0-85,0-83,2s11,4,19,5s50,2,50,2s-59-4-55-5s70-2,70-2
			L723.2-381.5z"/>
	</g>
</pattern>
<sodipodi:namedview  bordercolor="#666666" borderopacity="1" gridtolerance="10" guidetolerance="10" id="namedview1657" inkscape:current-layer="Window" inkscape:cx="-40.269002" inkscape:cy="442.16274" inkscape:pageopacity="0" inkscape:pageshadow="2" inkscape:window-height="1515" inkscape:window-maximized="0" inkscape:window-width="3465" inkscape:window-x="-10" inkscape:window-y="8" inkscape:zoom="1.15" objecttolerance="10" pagecolor="#ffffff" showgrid="false">
	</sodipodi:namedview>
<g id="Layer_1-2">
	
		<radialGradient id="path1448_1_" cx="839.1" cy="1262.1666" r="537.7108" gradientTransform="matrix(1 0 0 -0.6 0 1615.1)" gradientUnits="userSpaceOnUse">
		<stop  offset="0" style="stop-color:#E8CBB1"/>
		<stop  offset="0.61" style="stop-color:#F8D9C1"/>
		<stop  offset="0.76" style="stop-color:#F9DAC2"/>
		<stop  offset="1" style="stop-color:#FFDFC8"/>
	</radialGradient>
	<path id="path1448" inkscape:connector-curvature="0" style="fill:url(#path1448_1_);stroke:#000000;stroke-miterlimit:10;" d="
		M95.1,1013.8c148.7-104.3,297.4-208.6,446-313h618c141.3,104.6,282.7,209.3,424,314C1087.1,1014.5,591.1,1014.2,95.1,1013.8
		L95.1,1013.8z"/>
	<path id="path1450" inkscape:connector-curvature="0" style="fill:#F0F7F7;stroke:#000000;stroke-miterlimit:10;" d="M182.5-5.6
		c119.7,81.4,239.3,162.8,359,244.3c206-0.3,410.6,0.3,616.6,0c109.3-80.1,224.9-161.9,334.2-242C1057.3-4.3,617.5-4.6,182.5-5.6z"
		/>
	<g id="FLOOR">
		<pattern  id="Floor-2_1_" xlink:href="#Floor_1_" patternTransform="matrix(1 0 0 1 -3549.8999 57507)">
		</pattern>
		<path id="Floor-2" inkscape:connector-curvature="0" style="fill:url(#Floor-2_1_);stroke:#7C726C;stroke-miterlimit:10;" d="
			M0,613.3h1650.8V1011H0V613.3z"/>
		
			<radialGradient id="overlay_floor_1_" cx="-435.4673" cy="68.8859" r="462.84" gradientTransform="matrix(1.53 0 0 1.61 1488.88 698.6199)" gradientUnits="userSpaceOnUse">
			<stop  offset="0" style="stop-color:#A2814B"/>
			<stop  offset="0.57" style="stop-color:#A17559"/>
			<stop  offset="1" style="stop-color:#7F6D4F"/>
		</radialGradient>
		
			<path id="overlay_floor" inkscape:connector-curvature="0" style="fill:url(#overlay_floor_1_);fill-opacity:0.3;stroke:#010101;stroke-width:0.75;stroke-linejoin:round;" d="
			M1650.8,627.7L1.1,606.7L0,1011h1650.8V627.7z"/>
	</g>
	
		<linearGradient id="path1455_1_" gradientUnits="userSpaceOnUse" x1="271.65" y1="-222" x2="271.65" y2="791.8" gradientTransform="matrix(1 0 0 1 0 222)">
		<stop  offset="0.25" style="stop-color:#E7F4F1"/>
		<stop  offset="1" style="stop-color:#7D8E94"/>
	</linearGradient>
	
		<path id="path1455" inkscape:connector-curvature="0" style="fill:url(#path1455_1_);stroke:#000000;stroke-width:0.75;stroke-miterlimit:10;" d="
		M543.3,239L163,0H0v1013.8h91.9L543.3,700V239z"/>
	
		<linearGradient id="path1457_1_" gradientUnits="userSpaceOnUse" x1="1155.4" y1="285.9" x2="1662.2" y2="285.9" gradientTransform="matrix(1 0 0 1 0 222)">
		<stop  offset="0.25" style="stop-color:#E7F4F1"/>
		<stop  offset="1" style="stop-color:#7D8E94"/>
	</linearGradient>
	<path id="path1457" inkscape:connector-curvature="0" style="fill:url(#path1457_1_);" d="M1155.4,240L1510.7,1h151.5v1013.8h-85.4
		L1156.4,700L1155.4,240z"/>
	
		<path id="path1459" inkscape:connector-curvature="0" style="fill:#777677;stroke:#000000;stroke-width:0.75;stroke-miterlimit:10;" d="
		M0-23.3h98.1v1037.1H0V-23.3z"/>
	<path id="right_wall" inkscape:connector-curvature="0" style="fill:#FCECAC;" d="M1157.5,541l417.4-9V-63
		c-147.6,96.4-265.8,160-417.2,255.7C1157.9,293.4,1157.1,440.3,1157.5,541z"/>
	
		<linearGradient id="path1463_1_" gradientUnits="userSpaceOnUse" x1="70.4" y1="26" x2="517.6" y2="26" gradientTransform="matrix(1 0 0 1 25.9783 206.1304)">
		<stop  offset="0" style="stop-color:#FCECAC"/>
		<stop  offset="0.27" style="stop-color:#F7E7A9"/>
		<stop  offset="0.59" style="stop-color:#E8D99F"/>
		<stop  offset="0.95" style="stop-color:#CFC18F"/>
		<stop  offset="1" style="stop-color:#CBBD8C"/>
	</linearGradient>
	<path id="path1463" inkscape:connector-curvature="0" style="fill:url(#path1463_1_);" d="M542.1,534.1l-445.7-9v-595
		c155.6,91.7,298.7,172.4,447.2,256C543.3,286.8,542.4,433.4,542.1,534.1z"/>
	<path id="path1465" inkscape:connector-curvature="0" style="fill:#A89856;" d="M0,0h99.4v524.7H0V0z"/>
	
		<linearGradient id="path1467_1_" gradientUnits="userSpaceOnUse" x1="569.45" y1="505.05" x2="1129.9498" y2="-55.45" gradientTransform="matrix(1 0 0 1 0 222)">
		<stop  offset="0" style="stop-color:#7D8E94"/>
		<stop  offset="0.54" style="stop-color:#D5E3E1"/>
		<stop  offset="0.99" style="stop-color:#E7F4F1"/>
	</linearGradient>
	<path id="path1467" inkscape:connector-curvature="0" style="fill:url(#path1467_1_);" d="M543.6,193h612.8v507h-614
		C542.8,546.3,543.2,346.7,543.6,193L543.6,193z"/>
	
		<linearGradient id="path1469_1_" gradientUnits="userSpaceOnUse" x1="1002.088" y1="-119.0164" x2="698.6121" y2="406.6163" gradientTransform="matrix(1 0 0 1 0 222)">
		<stop  offset="0" style="stop-color:#FCECAC"/>
		<stop  offset="0.36" style="stop-color:#F9E9AA"/>
		<stop  offset="0.61" style="stop-color:#F0E1A4"/>
		<stop  offset="0.82" style="stop-color:#E1D29B"/>
		<stop  offset="1" style="stop-color:#CDBF8E"/>
	</linearGradient>
	<path id="path1469" inkscape:connector-curvature="0" style="fill:url(#path1469_1_);" d="M1158,538.6H542.7V193H1158"/>
	<path id="path1471" inkscape:connector-curvature="0" style="fill:#C1C1C1;" d="M1574.9,525.1h94.1v27.4h-94.1V525.1z"/>
	<path id="path1473" inkscape:connector-curvature="0" style="fill:#FFFFFF;stroke:#494444;stroke-miterlimit:10;" d="M542.6,533.6
		H731v13.7H542.6V533.6z M969,537.3h189v10H969V537.3z"/>
	
		<path id="path1475" inkscape:connector-curvature="0" style="fill:#777677;stroke:#000000;stroke-width:0.75;stroke-miterlimit:10;" d="
		M1575-29.5L1662,1v1013.8h-87V-29.5z"/>
	<path id="path1477" inkscape:connector-curvature="0" style="fill:#C1C1C1;stroke:#494444;stroke-miterlimit:10;" d="M-6.2,525.1
		H97.6v27.4H-6.2V525.1z"/>
	<path id="path1479" inkscape:connector-curvature="0" style="fill:#C1C1C1;" d="M1575.2,524.7h93.8v27.8h-93.8V524.7z"/>
	<path id="path1481" inkscape:connector-curvature="0" style="fill:none;stroke:#000000;stroke-miterlimit:10;" d="M1156.6,193
		l0.4,508.4 M205.3,0l337.4,193v507.8 M1475.5,0l-318.9,193 M1575,1014.8l-415.8-313.9"/>
	<g id="Door">
		<path id="path1483" inkscape:connector-curvature="0" style="fill:#99623D;stroke:#000000;stroke-miterlimit:10;" d="M744.6,700
			V273h209.6L954,700H744.6z"/>
		
			<ellipse id="ellipse1485" style="fill:#E2C675;stroke:#000000;stroke-width:0.75;stroke-miterlimit:10;" cx="923.2" cy="479.8" rx="7.8" ry="10"/>
	</g>
	<g id="windowAfter">
		
			<linearGradient id="path5445_1_" gradientUnits="userSpaceOnUse" x1="447.6266" y1="575.5624" x2="487.9001" y2="575.5624" gradientTransform="matrix(1 0 0 -1 0 1014)">
			<stop  offset="0" style="stop-color:#101D0E"/>
			<stop  offset="1" style="stop-color:#101D0E;stop-opacity:0"/>
		</linearGradient>
		<path id="path5445" inkscape:connector-curvature="0" style="fill:url(#path5445_1_);" d="M477.8,385.1c-6.5,14.8,0.4,21.7-2.6,30
			s1.7-2.2-7.4-9.6s-28.7,4.3-16.1,4.3s11.3-6.1,15.2,10c3.9,16.1,10.4,10,13,3.9c2.6-6.1,10-13.9,6.5-2.6s-14.3,23.9-10.9,33.9
			s8.7,20,6.1,23.9c-2.6,3.9-19.1-7-17.4-16.5s-23,1.7-13.9,10s28.5,28.7,34.5,16.1s1.2-34.8,1.2-34.8l1.7-59.1
			C487.8,394.7,484.3,380.8,477.8,385.1L477.8,385.1z"/>
		<path id="path1490" inkscape:connector-curvature="0" inkscape:label="window side frame" style="fill:#513420;" d="M415.5,200h5
			v293.9h-5V200z"/>
		<path id="path1488" inkscape:connector-curvature="0" inkscape:label="window frame" style="fill:#895E3B;" d="M420.5,493.3
			l69,2.1c-0.9-82.9-1.8-165.8-2.6-248.6c-22.1-15.6-44.3-31.2-66.4-46.8V493.3z M228.6,491.7l124.5,2.9
			c-1.6-108.1-3.1-216.2-4.6-324.2c-39.6-21.7-79.6-43.6-120-65.6v386.9L228.6,491.7z"/>
		<path id="path1492" inkscape:connector-curvature="0" inkscape:label="blue window" style="fill:#E6F5FF;" d="M344.1,176.2
			c-31.6-16.3-63.5-32.8-95.6-49.6l-2.5-1.3c-0.1,0-9.7-5.1-9.8-5.1c0,118.9,0,237.8-0.1,356.8l112.7,3.6L344.1,176.2z M482.4,250.7
			c-11.7-7.7-23.4-15.3-35.2-23c-7.4-4.9-14.9-9.7-22.3-14.6v271.4l60,4.1L482.4,250.7z"/>
		
			<path id="path1494" inkscape:connector-curvature="0" inkscape:label="leaves on tree" sodipodi:nodetypes="cccccccccccccccccsc" style="fill:#76D13F;fill-opacity:0.6847;" d="
			M424.9,213.1c3.9,6.2,16.4,12.6,19.1,12.9c5.2,0.7-0.3,6.3,5,7c4.5,0.5,4.6,5.5,10.1,7.5c2.5,0.8,5.2,1,7.8,0.5l0.2-0.3l-43.4-29
			l0.1,14.8L424.9,213.1z M244.5,151.4c14.9,4.1,9.4,8.8,15.1,13c17.5,10.6,32.9-3.7,33.8,2.8c-0.3,8.8-2.3,41.2,32.6,34
			c9.9-2.2,10.5-4.5,14.8,0.6c1.3,0.8,2.6,1.7,3.9,2.5c-0.2-9.9-0.4-19.9-0.5-29.8c-33.3-16.7-69.1-34.7-107.8-54.1
			c0,8.7-0.1,17.2-0.1,21.7C236.3,146.4,238.3,149.3,244.5,151.4L244.5,151.4z"/>
		
			<path id="path1496" inkscape:connector-curvature="0" inkscape:label="tree trunk" sodipodi:nodetypes="ccccccc" style="fill:#995D34;fill-opacity:0.6798;" d="
			M444,226c-1.6,16.3-3,44.3-4.4,70.9c-1.7,32.1-3.2,60.3-1.8,95.8c1.3,31.4,4.6,62.8,10,93.8c-7.7-0.3-15.5-0.5-23.2-0.8
			c-0.2-69.1-0.5-157.5-0.9-274C430.8,218.3,437.3,219.5,444,226L444,226z"/>
		<path id="path1498" inkscape:connector-curvature="0" style="display:none;fill:#846144;" d="M228.8,293.7l2-5.5L349.4,332l-2,5.5
			L228.8,293.7z"/>
		<path id="path1500" inkscape:connector-curvature="0" style="fill:#846144;" d="M422,359.7l2.5-3.1l61.6,22.7l-2.5,3.1L422,359.7z
			 M299.2,147.5h5.1v338.8h-5.1V147.5z"/>
		<path id="path1502" inkscape:connector-curvature="0" style="fill:#846144;" d="M459.4,235.5h2.6v257.1h-2.6V235.5z"/>
		<path id="path1522" inkscape:connector-curvature="0" inkscape:label="window crossbar" style="fill:#846144;" d="M228.9,293.8
			l2-5.5l118.5,43.9l-2,5.5L228.9,293.8z"/>
		<path id="path1504" inkscape:connector-curvature="0" style="fill:#754A2D;" d="M219.5,490.9l8.9,0.7V104.7h-8.9V490.9z"/>
	</g>
	<g id="Mold">
		<g id="Window">
			<path id="path1507" inkscape:connector-curvature="0" style="fill:#846144;" d="M420.4,493.3l69,2.1
				c-0.9-82.9-1.8-165.8-2.6-248.6c-22.1-15.6-44.3-31.2-66.4-46.8V493.3z"/>
			<path id="path1509" inkscape:connector-curvature="0" style="fill:#754A2D;" d="M228.6,491.7l124.5,2.9
				c-1.6-108.1-3.1-216.2-4.6-324.2c-39.6-21.7-79.6-43.6-120-65.6v386.9L228.6,491.7z"/>
			<path id="path1511" inkscape:connector-curvature="0" inkscape:label="blue" style="fill:#D2F1FF;" d="M344,176.1
				c-31.6-16.3-63.5-32.8-95.6-49.6l-2.5-1.3c-0.1,0-9.7-5.1-9.8-5.1c0,118.9,0,237.8-0.1,356.8l112.7,3.6L344,176.1z M482.3,250.6
				c-11.7-7.7-23.4-15.3-35.2-23c-7.4-4.9-14.9-9.7-22.3-14.6v271.4l60,4.1L482.3,250.6z"/>
			
				<path id="path5537" inkscape:connector-curvature="0" inkscape:label="tree trunk" sodipodi:nodetypes="ccccccc" style="fill:#995D34;fill-opacity:0.6798;" d="
				M444,226c-1.6,16.3-3,44.3-4.4,70.9c-1.7,32.1-3.2,60.3-1.8,95.8c1.3,31.4,4.6,62.8,10,93.8c-7.7-0.3-15.5-0.5-23.2-0.8
				c-0.2-69.1-0.5-157.5-0.9-274C430.8,218.3,437.3,219.5,444,226L444,226z"/>
			
				<path id="path5534" inkscape:connector-curvature="0" inkscape:label="leaves on tree" sodipodi:nodetypes="cccccccccccccccccsc" style="fill:#76D13F;fill-opacity:0.6847;" d="
				M424.9,213.1c3.9,6.2,16.4,12.6,19.1,12.9c5.2,0.7-0.3,6.3,5,7c4.5,0.5,4.6,5.5,10.1,7.5c2.5,0.8,5.2,1,7.8,0.5l0.2-0.3l-43.4-29
				l0.1,14.8L424.9,213.1z M244.5,151.4c14.9,4.1,9.4,8.8,15.1,13c17.5,10.6,32.9-3.7,33.8,2.8c-0.3,8.8-2.3,41.2,32.6,34
				c9.9-2.2,10.5-4.5,14.8,0.6c1.3,0.8,2.6,1.7,3.9,2.5c-0.2-9.9-0.4-19.9-0.5-29.8c-33.3-16.7-69.1-34.7-107.8-54.1
				c0,8.7-0.1,17.2-0.1,21.7C236.3,146.4,238.3,149.3,244.5,151.4L244.5,151.4z"/>
			<path id="path5531" inkscape:connector-curvature="0" inkscape:label="window crossbar" style="fill:#846144;" d="M228.9,293.8
				l2-5.5l118.5,43.9l-2,5.5L228.9,293.8z"/>
		</g>
		<path id="path1518" inkscape:connector-curvature="0" inkscape:label="moldy bits" style="display:none;fill:#5B8852;" d="
			M231,419.1c0,0,11.5,1.6,9.9,11.2c0,0,1.3,5.4-0.7,8.7l1.5,4.2c0,0-1.3,7.9-0.2,7.9c0,0-2.1,4-1.5,7.4c0,0,4.7,4.7,3,10.5
			c0,0,4.7,2.1,4,5.7c0,0,8,1.1,8.9,2.6c0,0,2.3-3.2,12.1-1.5c9.8,1.7,14.7,0.3,14.7,0.3l9.1,1l4.2-0.6c0,0,1.4-3.8,3-1.6
			c1.6,2.2,0,7.6,0,7.6l-3.5-1.1c0,0-12.2,1.5-18.8-1.9c-3.7-2-8.1-2.3-12-0.7l9.3,3.6c0,0-11.6-0.5-17.3-3.5c-5.7-3-3.7,5-3.7,5
			s-3.8,1.2-1.7,5.8c2.1,4.6-3,4.2-3,4.2s-5.6-6.8-3.5-10.5s-2.3-4.4-2.3-4.4l-3.2,4.9c0,0-5.5,0.8-5.6,5.9c0,0-2.4-7.6,2.2-13
			l-3.3-10c0,0,3-7.9,0.8-11.4s0.2-8.8,0.2-8.8l1-8.1c0,0-4-5.8,0.2-9C234.8,429.6,230.3,423.9,231,419.1L231,419.1z M232.1,288.2
			c0,0,8.2-0.5,9.4,1.1c0.7,0.8,0.7,2.1,0,2.9l-10.7-3.9L232.1,288.2z M234.6,295.9c0,0-1.3,3.6,0.7,3.4l-0.1,3.1l1.1-3.1l4.1,0.1
			l0.3-1.3L234.6,295.9z M292.1,317.4l-0.6,1.9l1.1,3.2l1.9,2.1l-0.9,3.3l-2,0.5l0.7,4.1l0.6,2.6l-1.3,0.8l0.4,2.6l1.4,1.3L293,342
			l-0.9,1.1l1,3l-0.8,8.1l2.9-2.4l-0.3-3.9v-2l3.2-1.7l-1.9-6.2l1.7-2.8l1.5-6.1l-0.4-9.5L292.1,317.4z M305.5,322.4l-0.6,2.4
			l2.1,1.5l1.9,3.7l-1.1,0.7l2.3,5.8l-1.7,9.4l0.7,5.4l-0.7,3.6l-0.6,6.5l1.3-0.2l-2.7,3.9l0.5,5.5l-0.4,3.3l0.8,8.4l-1.2,4.6
			l-0.1,5.3l0.6,6.7l-1.8,3.3l-0.8,1.2l-0.1-81.7L305.5,322.4z M303.9,478l2.5-0.7l-0.7-2.5l3.8,1.1l2-1.6l2.5,2.1l3.7,0.8l5.6-1.5
			l2,1.2l1.9-0.5l2.1-0.7l4.5,1.7l4-0.9l3.2-0.3l4.7-2.3l-2.5-3.6l8.3,4.6l0.7,1.9l-1.6,3.4l-1.3,5.4l-1.2-3.3l-1.9,1l0.4,2
			l-1.2,1.7l1.1,2.6l-0.9,1.5l0.5,2.2l-0.9,2.9v2.5l-3.2-3.1l-1.7-3.4l-1.6-0.5l0.4-2.3l1.7-1.7l-2.1-2.4l1.2-1.6l0.4-1.5l-3.9,1.2
			l-2.3,0.4l-2.1-0.1l-1.4,1.8v2.1l-2.2,1.3l-1,1.3l-2.3-4l-2.3,2.8l-0.5,2.5l-1.4,0.4l-1.1-2.5l-0.7,3l-2.4,1.4l-2.9-3.6l-0.1,4.4
			l-2,2.7l-1.7-1.8l-1.3-1.8l0.7-1.8l-1.3-2.4l-1.1-2.1l2.1-3l-0.4-2.2l-1.9,0.1l-1.1,0.8l-1.5-0.3L303.9,478z M423,360.7v2
			l-2.2-0.2v2.2l1.4,3.8l1.1,4.1l0.1,3.2l0.5,1L423,381l-0.6,1.3l2,3.3l-0.7,1.5l-0.6,2.1l1,13.5l-2.1,1.5l-0.3,2.4l2,1.2l-1.1,3.1
			l1,1.8l-2,1.2l1.9,2.6l-1.8,3.4l1.3,1.5l-0.8,4.7l-0.1,3.1l1.4,1.1c0,0-0.8,2.6-0.8,2.7s-1.6,1.9-1.6,1.9l1,3.3l0.5,5.1l-1.7,2.2
			l1.2,2.7l0.6,5.6l-1.2,2.7l1.5,3.9c0,0-0.4,4.5-0.6,5.1c-0.4,0.7-0.9,1.4-1.5,2l0.9,2.2l-0.4,2.9l0.6,2.2l-0.6,2.3l1,4.2l0.2,1.8
			l-3.7-0.7l2.8,3.9L421,489l-1.4,0.8l0.8,3.5l-2-0.7l0.3,2.3l-1.1,2.9l0.9,2.2l2,2l2.5-1.1l1.2-4.3l2.6-1.2l-0.9-2.5l1.9-3.6
			c0,0,1.1-0.9,1.2-0.8c0.8,0.1,1.6,0.1,2.4,0l-0.1,5.3l2.4-1.5l2.3-2l1.8,0.5l2.6-1.7l1.3,1.5l2.1-1.1l2.4,0.5l1.6,1.4l0.2,3.5
			c0.7,0.4,1.5,0.6,2.3,0.7c0.6-0.1,2.9-2.2,2.9-2.2l1.4-2.4l1.9-1.4l1,1.4l1.6-2.8v-1.7l0.1-3.3l-4.6,1.4l-1.8-1.3l-1.8-0.6
			l-4.9,1.3l-1.5-0.9l-2.5-0.7l-3.8,0.7l-2-3.5l-4.1-3.1l-2.2,0.4l-0.8,1.6l2.2,2.1l-1.8,0.8l-1.2-0.9l0.6-3l-1.2-2.4l1.4-4.9
			l0.7-2.3l-1.5-3.6l-0.4-4.4l0.5-4.2l-2.2-3.9l-1.2-4.6l1.4-6.4l0.8-5c-0.1-1.2-0.1-2.5,0-3.7c0.2-0.5,1.2-3.4,1.2-3.4l-0.4-6
			l3.1-13.2l-1.2-3.6l-0.2-3.4l0.9-2.1l0.9-4.7l-1.8-5.1l0.5-3.5l0.7-3.7c0,0-1.7-4-1.4-4.9c0.3-0.9-0.1-9-0.1-9l-2.2-3.9l0.2-3.3
			L423,360.7z M422.7,356.5l0.2-7.2l1.4,3.7l0.1,3.5l1.8-0.8l1.4-1l-0.7,2.5L422.7,356.5z M461.9,462.9l2-5.7l2,4
			c0,0-0.7,2.8-0.7,3.1c0,0.3,1.1,1.3,1.3,1.5c0.2,0.2-0.8,1.4-0.8,1.4l1.2,1.4l0.6,3.1l-0.6,0.9l-1.2,1.5l0.4,2.7l0.7,1.6l-0.9,0.8
			l0.6,1.2l-1.4,1.8l0.6,1.3l2.3,0.9l3.1,0.4l4.6,1l4.5,0.5l2.6,0.3l1.9-1.1l-0.1,2h1.8l0.3,1.9l3,1.2v1.5l-0.9,0.9l0.8,0.9
			l-2.3,2.7c-0.2,0.3-0.4,0.6-0.6,0.9c0.2,0.9,0.3,1.8,0.2,2.7c-0.4,0.6-0.9,1.2-1.5,1.7c0,0-1,0.1-0.9,0c-0.4-0.9-0.8-1.7-1.3-2.5
			c0,0-0.9-1.6-1.1-1.8c-0.2-0.2-1.7-2.9-1.7-2.9l0.8-4.6l-2.6-0.9l1.1,1.8l-0.2,2.8c-0.7,0.5-1.3,1.1-1.9,1.7
			c-0.2,0.3-1.5,1.7-1.6,1.9c-0.1,0.2-1.7,0.3-1.7,0.3l-2.2-3.7l-0.9-2.1l2.5-1.1l-1.1-1.5l-2.9-0.1v2.4l-2.6,1.7l-1.4,2.7l-2,0.8
			l-1.6-2.4c-0.1-0.7-0.1-1.5-0.1-2.2C462.1,492.3,461.9,462.9,461.9,462.9L461.9,462.9z M459.1,378.6l-2.1-2.4l-1.9-2.2l-1.1-2.6
			l5.2,1.9l0.1,5.8L459.1,378.6z M454.9,367.8l1.5-0.6l-2.9-0.8l-1.4-0.1l1.3-0.3h3.7l2.2-0.1v3.5L454.9,367.8z M461.9,366.3
			l1.3,1.2l2.3,0.3l1.5,0.2l0.5-1.4l0.5,0.3l-0.2,1.1l0.1,0.7l-0.3,0.6l-1.1-0.1l-1.2,0.1l-0.8,0.2l0.9,0.8l1.1-0.6l-0.1,1.7
			l-0.9,0.1l-1.3-0.8l-1-0.7l-1.4,0.1v-3.8L461.9,366.3z M462,375.2l1.2,0.8l3.6,2.2l-1.5,0.9l1.7,1.5l0.6,3.4l0.9,4.1v3.3l-1.2,1.2
			l1.2,5.1l0.3,1.3l-0.7,1.6l-1,1.7l0.6,3.6l0.7,1.4l-1.6,1.6c-0.4,1-0.7,2.1-1,3.2c-0.1,0.7-0.4,4.2-0.4,4.2l1.6-1.3l-0.3,2
			l-0.1,2.4l-1.4,1.3l0.9,2.9l-0.7,2.1l0.7,2.8l-1.9,3.1l0.2,3l0.7,1.5l-1,2.6l-1.5,3.3l-0.1-4.1v-6.6l-0.7-2.4L462,375.2z"/>
		<path id="path1520" inkscape:connector-curvature="0" style="display:none;fill:#513420;" d="M415.5,200h5v293.9h-5V200z"/>
		<g id="g5366" inkscape:label="window parts" sodipodi:insensitive="true">
			<path id="path1526" inkscape:connector-curvature="0" inkscape:label="window center" style="fill:#846144;" d="M459.3,235.4h2.6
				v257.1h-2.6V235.4z"/>
			<path id="path1528" inkscape:connector-curvature="0" inkscape:label="window edge" style="fill:#513420;" d="M219.5,490.9
				l8.9,0.7V104.7h-8.9V490.9z"/>
			<path id="path1524" inkscape:connector-curvature="0" inkscape:label="window centers" style="fill:#846144;" d="M421.9,359.6
				l2.5-3.1l61.6,22.7l-2.5,3.1L421.9,359.6z M299.1,147.4h5.1v338.8h-5.1V147.4z"/>
		</g>
		<g id="layer1" inkscape:groupmode="layer" inkscape:label="new modl">
			<path id="path5371" inkscape:connector-curvature="0" sodipodi:nodetypes="csssssscccsc" style="fill:#0C8C40;" d="M230.1,298.5
				c11.3,12.2,18.2,15.3,17.3,24.9c-0.9,9.6-13,19.6-10,29.1c3,9.6-4.5,36.6-1,48.8s4,29.7,16.7,37.8c8.9,5.7-1.3,13.6,0.9,24.9
				c2.2,11.3,13.4,2.9,24.7,6s22.6,1.3,22.2,6.1c-0.4,4.8-1.8,10.2-1.8,10.2l-66.1-2.4c0,0,4.3-25.2,3.9-35.2
				S229.5,302.8,230.1,298.5L230.1,298.5z"/>
			<ellipse id="path5373" style="fill:#10460E;" cx="255.2" cy="463.1" rx="3.5" ry="3.7"/>
			<ellipse id="path5373-6" style="fill:#10460E;" cx="282" cy="476" rx="2.8" ry="5.4"/>
			<ellipse id="path5373-6-4" style="fill:#10460E;" cx="239.6" cy="411.6" rx="2.8" ry="5.4"/>
			
				<linearGradient id="path5435_1_" gradientUnits="userSpaceOnUse" x1="232.3135" y1="554.7325" x2="287.0261" y2="554.7325" gradientTransform="matrix(1 0 0 -1 0 1014)">
				<stop  offset="0" style="stop-color:#101D0E"/>
				<stop  offset="1" style="stop-color:#101D0E;stop-opacity:0"/>
			</linearGradient>
			<path id="path5435" inkscape:connector-curvature="0" inkscape:label="black mold path" style="fill:url(#path5435_1_);" d="
				M237.4,432.1c3.5,1.3,2.6,18.3,6.5,29.1c3.9,10.9,4.8,4.8,12.2,13.5c7.4,8.7,3.5,11.7,10,7c6.5-4.8-7-20,0.4-23
				c7.4-3,13.9-6.1,11.3-13.9c-2.6-7.8,2.6-13.9,4.8-7s7.8,21.3-0.4,21.7s-16.5-0.9-13.9,6.1s11.7,20.9,7.8,22.2s-43-3.9-43-3.9
				S231.3,420.3,237.4,432.1L237.4,432.1z"/>
			<ellipse id="path5373-6-4-6" style="fill:#10460E;" cx="247.8" cy="362.1" rx="5.4" ry="5"/>
			<ellipse id="path5373-6-4-0" style="fill:#101D0E;" cx="246.5" cy="384.2" rx="2.8" ry="5.4"/>
		</g>
		
			<linearGradient id="path5481_1_" gradientUnits="userSpaceOnUse" x1="467.0909" y1="574.1123" x2="470.2825" y2="574.1123" gradientTransform="matrix(1 0 0 -1 0 1014)">
			<stop  offset="0" style="stop-color:#103519"/>
			<stop  offset="1" style="stop-color:#103519;stop-opacity:0"/>
		</linearGradient>
		<path id="path5481" inkscape:connector-curvature="0" style="fill:url(#path5481_1_);" d="M468,437.8c-1.2,2,0.5,5.1,1.5,3.8
			S468.8,437.7,468,437.8z"/>
		
			<linearGradient id="path5491_1_" gradientUnits="userSpaceOnUse" x1="452.3177" y1="561.7328" x2="456.154" y2="561.7328" gradientTransform="matrix(1 0 0 -1 0 1014)">
			<stop  offset="0" style="stop-color:#103519"/>
			<stop  offset="1" style="stop-color:#103519;stop-opacity:0"/>
		</linearGradient>
		<path id="path5491" inkscape:connector-curvature="0" style="fill:url(#path5491_1_);" d="M452.3,452.8c0.9,1.7,5.8-0.5,2.9-1.5
			S452.3,452.8,452.3,452.8z"/>
		
			<linearGradient id="path5471_1_" gradientUnits="userSpaceOnUse" x1="464.1774" y1="596.3542" x2="483.3705" y2="596.3542" gradientTransform="matrix(1 0 0 -1 5.5339 1067.8016)">
			<stop  offset="0" style="stop-color:#103519"/>
			<stop  offset="1" style="stop-color:#103519;stop-opacity:0"/>
		</linearGradient>
		<path id="path5471" inkscape:connector-curvature="0" style="fill:url(#path5471_1_);" d="M480.8,460.4c-1.2,5.8-2.1,5.1-3.9,2.6
			s-10.3-3.2-6-0.5c4.3,2.8,6.5,3.3,7.1,4.2s-4.9,1.3-3.8,4s1.5,1.8,4,2.4c2.5,0.5,1.9,5.5,1.4,6.5c-0.5,1.1-0.4,10,6.1,4.4
			c6.5-5.6-3.3-10.2-3-13.1s8.8-11.2,5.1-13.3C484.3,455.6,481.2,458.8,480.8,460.4L480.8,460.4z"/>
		<path id="path5501" inkscape:connector-curvature="0" style="fill:#0C8C40;" d="M462.3,421.2c0.3,1.5,2.9,17.5,1.8,19.3
			c-1.1,1.8-3.4,10.1-1.8,13.7c1.5,3.6,2.5,6.2,4.9,9.8s-2.2,9.6-2.3,11c-0.1,1.4-1.2,10,6.2,6.4c7.4-3.6,13.8-3.4,13.7-2.8
			c-0.1,0.5,0.1,10,0.1,10l-23.5-1.4c0,0,2.7-4.1,1.7-7.4s1.7-9.1,2-10.8c0.2-1.6-6.2-5.9-6.8-8.9c-0.7-3-5.9-8.5-4.7-9.9
			s7.1-8.2,7.3-13C461.1,432.3,458.5,415.4,462.3,421.2L462.3,421.2z"/>
	</g>
	<ellipse id="ellipse1531" style="fill:#705746;stroke:#000000;stroke-miterlimit:10;" cx="842.4" cy="62.2" rx="87.8" ry="33.5"/>
	<path id="path1533" inkscape:connector-curvature="0" style="fill:#FFFFFF;stroke:#494444;stroke-miterlimit:10;" d="M542.6,533.6
		L98.7,523v29.8c148.6-1.9,295.4-3.7,444-5.6C542.6,542.7,542.6,538.1,542.6,533.6L542.6,533.6z"/>
	<g id="Stairs">
		<path id="path1535" inkscape:connector-curvature="0" style="fill:#895E3B;stroke:#000000;stroke-miterlimit:10;" d="M0,877.4
			V1014h183L0,877.4z M16.4,480.1v409.5L31,900.5V493.2L16.4,480.1z M65.4,521.4v404.8L80,937.1V534.5L65.4,521.4z"/>
		<path id="path1537" inkscape:connector-curvature="0" style="fill:#895E3B;stroke:#000000;stroke-miterlimit:10;" d="M114.4,565.1
			v397.7l14.6,10.9V578.2L114.4,565.1z M163.4,607.4v392l14.6,10.9v-390L163.4,607.4z M212.4,655.3v361.2l14.6,6.3V666.7
			L212.4,655.3z M263.8,701v313.5l14.6,8.3V711L263.8,701z"/>
		<path id="path1539" inkscape:connector-curvature="0" style="fill:#AA7D55;" d="M0,908.7V1014h141L0,908.7z"/>
		<path id="path1541" inkscape:connector-curvature="0" style="fill:none;stroke:#895F3B;stroke-miterlimit:10;" d="M0,961.4
			l49-19.6"/>
		<path id="path1543" inkscape:connector-curvature="0" style="fill:#895E3B;" d="M48.2,941.8v33h44.6L48.2,941.8z M1.4,908.7v33H46
			L1.4,908.7z M92.1,974.8v32.9h44.6L92.1,974.8z"/>
		<path id="path1545" inkscape:connector-curvature="0" style="fill:none;stroke:#895F3B;stroke-miterlimit:10;" d="M0,1014
			l97.2-38.3 M91.6,1025.1l49.1-19.6"/>
		<path id="path1547" inkscape:connector-curvature="0" style="fill:#895E3B;" d="M135,1006.3v33h44.6L135,1006.3z"/>
		<path id="path1549" inkscape:connector-curvature="0" style="fill:#754A2D;stroke:#000000;stroke-miterlimit:10;" d="M0,439.2
			l291,250.2h31c8.6,2.7,14.6,9.7,15,17c0.5,10.1-9.9,20.9-24,20l-26-3c-95.7-86-191.4-172-287-258V439.2z"/>
	</g>
	<g id="Hanger">
		
			<path id="path1552" inkscape:connector-curvature="0" style="fill:#4C301C;stroke:#000000;stroke-width:0.5;stroke-miterlimit:10;" d="
			M1045.1,348.8h5.1V331c-0.4-1.1-1.4-1.8-2.5-1.9c-1.2,0-2.3,0.7-2.7,1.9C1045.1,336.9,1045.1,342.8,1045.1,348.8z"/>
		
			<path id="path1554" inkscape:connector-curvature="0" style="fill:#7A543F;stroke:#000000;stroke-width:0.5;stroke-miterlimit:10;" d="
			M1050.1,698c2.8,5.5,11.4,22.3,11.7,23.6c0,0.2,0.1,0.6-0.1,0.8s-0.9,0.1-1.3-0.1c-5.3-8.1-10.6-16.2-16-24.2L1050.1,698z"/>
		
			<path id="path1556" inkscape:connector-curvature="0" style="fill:#A0775C;stroke:#000000;stroke-width:0.5;stroke-miterlimit:10;" d="
			M1078.7,723.8c-1.1-1.8-19.7-19.9-27-26.9V344h-8v352.1c-8.4,7.2-26.3,22.8-27.5,24.5c-0.3,0.4-0.4,0.8-0.4,1.3
			c0.2,0.6,1,0.9,1.5,1c8.6-5.8,17.3-11.7,25.9-17.6c-1.1,12.2-3.2,34.1-2.8,36c0,0.5,0.3,0.9,0.7,1.2c0.6,0.3,1.4-0.3,1.8-0.7
			c2.6-12.1,5.1-24.2,7.7-36.3c9,6.9,18,13.7,26.9,20.6c0.5-0.1,1.3-0.3,1.5-0.9C1079.1,724.7,1079,724.2,1078.7,723.8L1078.7,723.8
			z"/>
		
			<path id="path1558" inkscape:connector-curvature="0" style="fill:#BA8D6E;stroke:#000000;stroke-width:0.5;stroke-miterlimit:10;" d="
			M1075.2,326.6l-20.2,17.5h-1c4.8-8.3,9.5-16.6,14.3-24.9c-1.5,0.7-2.9,1.5-4.4,2.2l-13.9,21.5h-4.6l-13.3-21.6
			c-1.2-0.5-2.5-0.9-3.8-1.4c4.4,8.1,8.8,16.2,13.2,24.2h-3l-19.2-17.5c-2.3-0.9-4.6-1.9-6.9-2.9c8.1,8.3,16.2,16.7,24.3,25.1h20.2
			c8.3-8.2,16.6-16.5,24.9-24.7C1079.6,324.9,1077.4,325.7,1075.2,326.6L1075.2,326.6z"/>
		
			<path id="path1560" inkscape:connector-curvature="0" style="fill:#526677;stroke:#000000;stroke-width:0.75;stroke-miterlimit:10;" d="
			M1071.7,328.1c-0.2,1.9-0.6,4.8-1,8.3l0,0c-2.4,19.5-3.4,34.2-3.7,38c-1.7,23.6-5.9,65.3-7.7,83.3c-1.3,13.5-3,33.1-4.7,57.3
			c0.6,2.7,1.7,7.7,3.3,12.7c0.5,1.7,1.3,3.3,2.3,4.7c1,1.3,2.3,2.4,3.7,3.3c2,0.9,4.1,1.5,6.3,1.7c1.6,0.2,3.1,0.2,4.7,0
			c3.5,4.8,10.2,5.8,15,2.2c0.7-0.6,1.4-1.2,2-1.9c2.8-1.4,5.5-2.8,8.3-4.2c1.1-21.1,1.4-43.5,0.7-67.1
			c-1.5-48.2-7.2-96.1-17.1-143.3c-1.6,2.2-3.9,3.8-6.5,4.6C1075.5,328.3,1073.6,328.4,1071.7,328.1L1071.7,328.1z"/>
		<path id="path1562" inkscape:connector-curvature="0" style="fill:#3C5268;stroke:#000000;stroke-miterlimit:10;" d="
			M1070.7,328.8c0.9-2.5,2.6-4.7,5-6c1.4-0.8,3.1-1.2,4.7-1.3c2.1,0.2,4.1,1,5.7,2.3c1.7,1.4,2.8,3.3,3.3,5.4
			c6.7,23.1,13.3,46.2,20,69.3l6,69c1.1,21.3,2.2,42.7,3.3,64c-1.6,1.8-3.7,3-6,3.7c-1.5,0.3-3.1,0.4-4.7,0.3
			c-2.9,0-5.8-0.3-8.7-0.7l-7.3,7c-1.5,1.1-3.4,1.6-5.3,1.3c-1.7-0.4-3.2-1.3-4.3-2.7c-1.6-1.7-2.8-3.7-3.3-6
			c-4.3-41.2-7.3-85.1-8.3-131.7C1070.1,377.3,1070.1,352.6,1070.7,328.8L1070.7,328.8z"/>
		<path id="path1564" inkscape:connector-curvature="0" style="fill:none;stroke:#526778;stroke-miterlimit:10;" d="M1089.4,356.5
			l15,122 M1086.2,357.9l7.3,111.7 M1098.6,531.2l-3.4-48.6"/>
		<path id="path1566" inkscape:connector-curvature="0" style="fill:none;stroke:#3C5268;stroke-miterlimit:10;" d="M1075.2,533.5
			l-3.5-53.2"/>
	</g>
	<g id="Hat">
		
			<path id="path1569" inkscape:connector-curvature="0" style="fill:#493B31;stroke:#000000;stroke-width:0.75;stroke-miterlimit:10;" d="
			M993.1,334.9c-1.8,5.5-3.3,11.1-3.2,16.6l8.4,10.1l-0.8,6.9l22.8-21.8l2.2-29.6l-4.8,4.4h-13.1
			C999.6,326.1,997.1,329.4,993.1,334.9L993.1,334.9z"/>
		<path id="path1571" inkscape:connector-curvature="0" style="fill:#5B4A3F;" d="M1004.1,324.1l-3.7,13.4l-9.1,11.2l3.1-13.1
			L1004.1,324.1z"/>
		<path id="path1573" inkscape:connector-curvature="0" style="fill:none;stroke:#5C4A3F;stroke-miterlimit:10;" d="M1008.6,353.4
			l8.8-8.6 M1018,333.9l-0.9,11.2"/>
	</g>
	<g id="Stool">
		<g id="Layer_3">
			<path id="path1576" inkscape:connector-curvature="0" style="fill:none;stroke:#1E1E1E;stroke-miterlimit:10;" d="M552.5,698.2
				h152.4"/>
			<path id="path1578" inkscape:connector-curvature="0" style="fill:#A0775C;stroke:#000000;stroke-miterlimit:10;" d="M558,646.4
				c-4.5,17.9-18.1,72.8-18,77.1c-0.1,0.9,0.3,1.8,0.9,2.5c1,0.8,2.7,0,3.6-0.5c9.9-26.6,19.9-53.1,29.8-79.7L558,646.4z
				 M690.6,652.2c6.3,20.7,21.4,70,23.7,73c0.2,0.3,1,1.4,1.8,1.2c1-0.2,1.8-1.9,2.2-3c-5.2-26.1-10.3-52.1-15.5-78.2
				C698.8,647.6,694.7,649.9,690.6,652.2z"/>
			
				<path id="path1580" inkscape:connector-curvature="0" style="fill:none;stroke:#1E1E1E;stroke-width:0.75;stroke-miterlimit:10;" d="
				M558.4,706.4h145.1 M558.4,704h143.9 M558.8,701.8H701 M557.6,707.9h145.9"/>
			<path id="path1582" inkscape:connector-curvature="0" style="fill:#7F5334;stroke:#000000;stroke-miterlimit:10;" d="
				M552.5,642.1h158v11.4h-158V642.1z"/>
		</g>
		<path id="path1585" inkscape:connector-curvature="0" style="fill:none;stroke:#1E1E1E;stroke-miterlimit:10;" d="M550.3,709.8
			l158.4,0.1 M559.5,698.2l-2.3,11.6 M700,698.2l4.7,11.6"/>
		<path id="path1587" inkscape:connector-curvature="0" style="fill:none;stroke:#1E1E1E;stroke-width:2;stroke-miterlimit:10;" d="
			M628.7,698.2v11.6"/>
		
			<path id="path1589" inkscape:connector-curvature="0" style="fill:#9B5699;stroke:#5C2168;stroke-width:0.5;stroke-miterlimit:10;" d="
			M562.1,583.6l-7.8,4.1l-8,11l0.9,30.1l9,12.2l9.2-2.7l-1.4-3l-8,2.7l-6.9-10.4l-1.8-29.6l7.3-9.8l7.7-3.6l1.7-2.4L562.1,583.6z"/>
		
			<path id="path1591" inkscape:connector-curvature="0" style="fill:#9B5699;stroke:#5C2568;stroke-width:0.5;stroke-miterlimit:10;" d="
			M577.6,582.5l-12.4,3.1l-14.4,14.1l-0.3,34.3l9.8,8.1l9.7-3.6l-0.9-1.9l-8.7,3.4l-7.4-7.4l-0.3-23.6l-0.1-10l13.1-12.5l11.8-2.5
			l2.9-2.9L577.6,582.5z"/>
		
			<path id="path1593" inkscape:connector-curvature="0" style="fill:#AA6D89;stroke:#000000;stroke-width:0.75;stroke-miterlimit:10;" d="
			M567,578.6c-0.9,1.1-6.9,8.9-7.8,10c-0.9,1.1-1.8,2.2-2.6,3.4c-2.7,3.5-3.7,15.4,2.4,50.1h22.3l-1.7-45.6L567,578.6z"/>
		
			<path id="path1595" inkscape:connector-curvature="0" style="fill:#894E6C;stroke:#000000;stroke-width:0.75;stroke-miterlimit:10;" d="
			M591.5,579.7l-24.5-1.1l12.5,17.9l1.7,45.6h27.7l1.6-45.5l-14.1-17.4L591.5,579.7z"/>
		
			<path id="path1597" inkscape:connector-curvature="0" style="fill:#D3A3C4;stroke:#000000;stroke-width:0.75;stroke-miterlimit:10;" d="
			M579.5,596.5l20.1,8.3l10.9-8.2l-14.1-17.4l-29.4-0.6L579.5,596.5z"/>
		
			<path id="path1599" inkscape:connector-curvature="0" style="fill:#FFDD92;stroke:#D8A744;stroke-width:0.5;stroke-miterlimit:10;" d="
			M599.1,600.2l-1.3,4.9l2,4.4l1.6-4.9L599.1,600.2z"/>
		<g id="Layer_4">
			<path id="path1601" inkscape:connector-curvature="0" style="fill:#4C3D33;stroke:#000000;stroke-miterlimit:10;" d="M641,677.4
				c1.2-1.2,2.6-2.2,4.2-2.8c1.6-0.6,3.3-1,5-1c2.1,0.1,4.2,0.6,6,1.7c1,0.6,1.9,1.3,2.6,2.2c1.3,8.1,2.5,16.2,3.8,24.4
				c-0.6,2-1.8,3.8-3.4,5.1c-2.2,1.6-4.7,2.7-7.4,3c-3.2-0.5-6.3-1.8-8.9-3.8c-1.5-1.2-2.8-2.6-3.8-4.3
				C639.8,693.6,640.4,685.5,641,677.4L641,677.4z M666.9,677.4c1.3-0.9,2.7-1.7,4.2-2.3c1.6-0.6,3.3-1.1,5-1.5c1.4,0.1,2.7,0.5,4,1
				c1.7,0.6,3.3,1.6,4.6,2.8c1.3,8.1,2.5,16.2,3.8,24.4c-0.9,2-2.2,3.8-4,5.1c-2,1.5-4.3,2.5-6.8,3c-3-0.5-5.8-1.6-8.3-3.3
				c-1.8-1.3-3.3-2.9-4.4-4.8C665.7,693.6,666.3,685.5,666.9,677.4z"/>
			<path id="path1603" inkscape:connector-curvature="0" style="fill:#A87669;" d="M642.4,702.1c2.8,0.7,5.6,1.3,8.4,2l8.6-2.1
				c-0.9-7.8-1.8-15.7-2.8-23.5c-0.8-0.7-1.6-1.3-2.6-1.8c-1.1-0.5-2.3-0.9-3.5-1c-1.1,0-2.2,0.3-3.3,0.7c-1.1,0.4-2.2,1-3.1,1.8
				C643.5,686.1,643,694.1,642.4,702.1L642.4,702.1z M667.9,701.2c3,1.7,5.9,3.4,8.9,5.2c3-2,6-4,9.1-6c-1-6.8-2-13.6-3-20.3
				c-0.5-1.1-1.4-1.9-2.4-2.5c-1.4-0.8-3-1-4.5-0.8c-1.6-0.1-3.2,0.3-4.5,1.2c-1.1,0.7-1.9,1.7-2.4,2.8L667.9,701.2z"/>
			<path id="path1605" inkscape:connector-curvature="0" style="fill:#756154;" d="M639.3,700l11.6-5.5l11.5,5.5
				c0.3,2.7-0.8,5.3-2.9,7c-2.2,1.7-4.8,2.7-7.6,2.8c-3.4,0-6.7-1.3-9.3-3.5C640.7,704.7,639.5,702.5,639.3,700z M665.3,699.6
				l11.6-5.5l11.5,5.5c0.3,2.7-0.8,5.3-2.9,7c-2.2,1.7-4.8,2.7-7.6,2.8c-3.4,0-6.7-1.3-9.3-3.5C666.7,704.3,665.6,702,665.3,699.6z"
				/>
			<path id="path1607" inkscape:connector-curvature="0" style="fill:#4C3D33;" d="M650.9,700.4l3.7-4.1l-3.7-1.7l-3.4,1.6
				L650.9,700.4z M676.7,700l3.8-4.1l-3.7-1.8l-3.5,1.6L676.7,700z"/>
		</g>
	</g>
	<g id="Carpet">
		<g id="Rug">
			<path id="path1611" inkscape:connector-curvature="0" style="fill:#2672A5;" d="M1021.4,784.9h-340l64-77h213L1021.4,784.9"/>
			<path id="path1613" inkscape:connector-curvature="0" style="fill:#3C94C6;" d="M983.4,766.9h-264l34-49h196L983.4,766.9z"/>
			<g id="g1617" style="opacity:0.45;">
				<path id="path1615" inkscape:connector-curvature="0" d="M757.1,723.5h7c-3.6,8-5.3,12-8.7,20c6.2-8,9.2-12,14.9-20h7
					c-2.4,8-3.5,12-5.6,20c4.9-8,7.2-12,11.8-20h7c-6.6,12.1-13.7,24-20.9,35.8h-9c2.3-9,3.5-13.5,6.3-22.5
					c-5.4,7.6-11,15.1-16.7,22.5h-9C746.2,747.2,751.5,735.3,757.1,723.5L757.1,723.5z M793,723.5h19.8c-0.8,3.1-1.2,4.6-1.9,7.6
					h-13c-0.8,2.3-1.1,3.4-1.9,5.7h12.5l-1.9,7.3h-13.1l-2.4,7.1h15.1c-0.8,3.2-1.2,4.9-2,8.1h-25
					C783.9,747.4,788.4,735.4,793,723.5z M817.2,723.5h7.4c-1.9,10.8-2.8,16.2-4.7,27h13.6c-0.3,3.5-0.5,5.3-0.9,8.8h-23.5
					C811.9,747.4,814.6,735.4,817.2,723.5L817.2,723.5z M855.5,744.7c3,1.2,4.5,1.8,7.6,2.9c-0.2,2.4-0.9,4.7-2,6.8
					c-0.9,1.7-2.4,3.2-4.1,4.1c-2,1-4.3,1.5-6.5,1.4c-2.7,0.1-5.4-0.5-7.8-1.7c-2.2-1.4-3.9-3.5-4.8-6c-1.2-2.8-1.6-6.5-1.2-10.9
					c0.5-5.9,2-10.5,4.4-13.6c2.1-3,5.5-4.8,9.2-4.8c2.7-0.1,5.3,0.9,7.2,2.7c1.8,1.8,3.3,4.6,4.5,8.4c-2.7,0.9-4.1,1.3-6.9,2.2
					c-0.2-0.8-0.5-1.6-0.8-2.4c-0.4-0.8-1-1.4-1.7-2c-0.6-0.5-1.4-0.7-2.1-0.7c-1.8,0-3.1,1-4.2,3c-0.9,2.2-1.4,4.6-1.3,7
					c-0.2,4,0.2,6.7,1.1,8.2c0.8,1.4,2.4,2.3,4,2.2c1.5,0.1,2.9-0.6,3.8-1.8C854.7,748.2,855.3,746.4,855.5,744.7L855.5,744.7z
					 M865.7,741.4c-0.5-5.8,0.3-10.4,2.2-13.6c1.7-3.1,5-5,8.5-4.9c4,0,7.7,1.8,10.3,4.8c3,3.2,5.3,7.7,6.7,13.4
					c1,4.2,1.4,7.6,0.9,10.3c-0.3,2.4-1.6,4.7-3.5,6.2c-1.9,1.5-4.5,2.2-7.8,2.2c-3,0.1-5.9-0.6-8.6-1.9c-2.5-1.4-4.5-3.6-5.9-6.1
					C866.8,748.6,865.9,745.1,865.7,741.4L865.7,741.4z M874,741.5c0.5,3.6,1.4,6.2,2.6,7.8c1.1,1.5,2.8,2.4,4.7,2.4
					c1.7,0.1,3.2-0.8,3.9-2.3c0.7-1.5,0.7-4.3-0.2-8.3c-0.7-3.4-1.7-5.8-3-7.4c-1-1.4-2.6-2.3-4.3-2.3c-1.5,0-2.9,0.9-3.4,2.4
					C873.6,735.2,873.5,737.8,874,741.5L874,741.5z M892.8,723.5h9.7c4.5,8.7,6.9,13.1,11.8,21.8c-1.5-8.7-2.4-13.1-4.3-21.8h9.7
					l16.4,35.8h-7.5L917.3,732c2.6,10.9,3.7,16.4,5.6,27.3h-6.8c-5.1-8.9-9.9-18.1-14.5-27.3l8.7,27.3h-7.5L892.8,723.5z
					 M924.5,723.5h19.8l4.8,7.6H936l3.1,5.7h12.5l4.5,7.3H943c1.5,2.8,2.3,4.2,3.8,7.1H962l5.1,8.1H942L924.5,723.5z"/>
			</g>
		</g>
	</g>
	<path id="path1621" inkscape:connector-curvature="0" style="fill:#FFFFFF;stroke:#494444;stroke-miterlimit:10;" d="M1158,537.3
		l417.7-12.2v27.4l-417.8-5.2L1158,537.3z"/>
	<path id="path1623" inkscape:connector-curvature="0" style="fill:#4F3819;" d="M1498.5,464.5l-310.7,24.1V298.8l310.7-210.2V464.5
		z"/>
	<path id="path1625" inkscape:connector-curvature="0" style="fill:#E5CFB5;" d="M1488.9,453.3l-296.8,27.9V305.4l296.8-194.7
		L1488.9,453.3z"/>
	<g id="Layer_5">
		<path id="path1627" inkscape:connector-curvature="0" style="fill:#333333;" d="M1196.8,481c-2.9-34.2-3.3-48.2-2.7-52.6
			c0.1-2.4,0.5-4.8,1.1-7.2c0.7-3,1.1-6,1.3-9c0.1-2.4,1.2-4.7,3-6.3c7.4-6.5,15.1-13.3,23.3-20.2c1.1-1,2.1-2.2,3-3.4
			c2-2.9,2-4.5,1.9-4.9c0-0.3-0.1-0.5-0.2-0.8c-0.7-2.3-1.5-4.5-2.6-6.7c-0.8-1.7-1.1-2.3-1.6-2.4c-2-0.4-2.1-2.3-2.2-4.5
			c-0.2-3.5-0.7-6.9-1.3-10.3c-0.2-0.6-0.3-1.2-0.2-1.8c0.4-1.6,0.2-3.2-0.5-4.7c-0.8-1.7-1.3-3.6-1.5-5.5
			c-0.7-6.8-0.6-13.6,3.3-21.2c1.8-3.5,4.1-6.8,6.9-9.7c1.8-2,5.9-6.7,11.4-9.5c2.2-1.1,4.6-1.9,7-2.4c0.9-0.3,1.9-0.4,2.8-0.3
			c2.1,0.7,3.7-0.1,5.1,0.7c0.8,0.6,1.7,1.1,2.7,1.4c0.4,0.1,0.9,0.2,1.3,0.3c1.8,0.2,2.3-0.4,2.9,0.1s0.9,1.5,1,3
			c0,1.1,0.2,2.3,0.7,3.3c0.9,1.3,0.9,3.2,1.2,4.9c0.7,2.5,0.6,5.1-0.3,7.5c-0.1,0.1-0.1,0.3-0.1,0.4c0.8,2-0.2,4.4-0.9,6.7
			c-0.4,1.4-0.4,2.9,0.4,3.4c0.8,0.6,1.2,1.5,1.1,2.5c0,4,0.1,8-0.1,12.1c-0.2,3.4-2.6,6.6-2.7,6.9c-1.2,2.3-2,2.9-2.5,4.8
			c-0.4,1.6-0.4,3.3,0.1,4.9c0,0.1,0,0.1,0.1,0.2c1,2.8,5.8,5.4,9.7,8.3c0.8,0.6,1.9,1.3,3.6,2.5c0.7,0.6,1.6,1.1,2.5,1.4
			c4.6,1.1,9.5,1.8,14.5,2.6c-1.4-1.1-2.3-2.7-2.4-4.5c0-0.7,0-1.6,1.6-5.9c2-5.7,3.1-7.3,2.6-9c-0.3-1-0.8-0.9-1.1-2.3
			c-0.3-1.5-0.3-3,0-4.5c0.7-2.5,1.1-5,1.4-7.6c0.2-4,1.9-7.5,4.4-11c2.9-4.2,4.6-4.5,6.2-7.8c0.6-1.3,1.1-2.7,1.3-4.2
			c1.3-6.6-0.1-8.8,1-14.5c0.1-0.3,0.3-0.6,0.4-0.9c2.7-5.7,5.6-11.4,9-17.1c5.6-9.5,10.8-19.4,17.7-29.1c3.8-5.6,9-10.2,15-13.4
			c1.8-1,3.6-1.8,5.4-2.6c6.4-2.8,10.9-5.4,14.7-5.4c10.8-0.3,18.7,4,23,12.9c5.5,11.5,3.3,17.5,10.2,21.4c5.5,3.1,6.9,3.7,6.9,3.7
			c3.5,1.6,6.2,2.3,7.5,5.3c0.3,0.9,0.6,1.9,0.8,2.9c0.6,2.9,0.8,4.3,0,6c-1,2-2,2.2-2.6,3.6c-1.7,4.1,5.7,7.4,12.8,10.6
			c0.7,0.3,2.6,0,3.2,1.5c1,2.7,3.9,3.3,6.6,4c7.7,2,9.3,7.8,3.7,15.4c-0.3,0.3-0.5,0.7-0.6,1.1c-1.1,2.5,1.8,2.9,2.5,5.7
			c0.1,0.5-0.5,3.2-1.6,8.7c-0.2,0.8-0.3,1.5-0.4,2.3c0.4,3.2,5.7,3.1,9.2,4.3c4.3,1.5,7.3,4.4,7.2,11.5c-0.2,11.1,0.2,22-0.1,33
			c-0.2,7.3-0.1,14.5-2.1,22c-4,15.4-9.5,30.5-16.3,44.9c-0.3,0.8-0.9,1.5-1.6,2c-0.9,0.4-1.8,0.7-2.8,0.8
			C1429.5,459,1302.5,471,1196.8,481z"/>
		<g id="Layer_6">
			<path id="_7hattf.tif" inkscape:connector-curvature="0" style="fill:#333333;" d="M1382.1,463.7v-34.1c1.3-3,3.1-5.6,5.5-7.8
				c5.5-5.3,11.6-9.8,18.2-13.6c5.4-3.3,10.9-6.6,16.1-11c7.4-6.2,11.3-14,11.1-23.7c-0.1-2.4-0.6-4.5-2.1-5.8
				c-3.7-3.2-5.7-7.7-6.5-13c-0.1-1-0.6-1.9-1.3-2.6c-1-0.9-1.8-0.4-3-1.2c-1.1-0.8-1.9-2-2.2-3.4c-0.4-1.5-0.6-3-0.7-4.5
				c-0.2-3.1,0-6.1,2.5-9c0.3-0.4,0.1-0.6,0.1-0.9l-1.2-8.1c-0.4-3.3-1-6.5-0.5-10.1c1.5-11.2,6.9-20.6,16.2-28.3
				c6.2-5.1,12.9-8.1,19.8-10.5c6-2.1,12-3.2,17.5-2.2c11,2,16.9,9.4,16.4,22.6c-0.4,5-1.1,10-2,14.9c-0.2,1.4-0.5,2.6,0.9,3.2
				c0.8,0.4,1.3,1.2,1.5,2.1c1.1,2.7,0.6,5.9,0.1,9c-0.6,3.9-2.1,7.3-5.9,9.7c-1.3,0.9-2.2,2.3-2.4,3.9c-1,6.9-3.8,13.4-8.1,18.9
				c-1.4,1.7-2.1,3.8-2.1,6c-0.4,9.2,2.5,16.1,10.1,19.9c4.1,2.1,5.5,1.8,7.3,2.9c4.5,2.8,2.6,10.6,2.4,33
				c-0.1,11.8-0.2,17.8-0.1,18.4c-0.1,4.1-0.9,11-0.8,14.9c-1.4,0.3-2.9,0.5-4.3,0.6c-6.5,0.3-13,1.5-19.5,1.8
				c-1.3,0.1-4.8,0.4-11.9,1.1s-11.6,1.3-17,1.9c-6,0.7-15.7,1.8-23.6,2.6C1404.9,461.9,1394.7,462.8,1382.1,463.7L1382.1,463.7z"/>
		</g>
	</g>
	<ellipse id="ellipse1632" style="fill:#F4ECA4;" cx="1493.3" cy="103.2" rx="3.2" ry="6.2"/>
	<ellipse id="ellipse1634" style="fill:#F4ECA4;" cx="1493.4" cy="457.2" rx="3.3" ry="5.5"/>
	<ellipse id="ellipse1636" style="fill:#F4ECA4;" cx="1189.8" cy="304.6" rx="0.8" ry="3.8"/>
	<ellipse id="ellipse1638" style="fill:#F4ECA4;" cx="1190" cy="483.8" rx="0.8" ry="3.1"/>
	<g id="Rat">
		<path id="path6480" inkscape:connector-curvature="0" inkscape:label="black shadow body group" style="fill:#020202;" d="
			M1097.7,706.7c0,0,5.5-8.2,6.1-8.3s-0.4-0.4,0-1c0.4-0.4,0.6-1,1.4-1c0.5-0.1,1-0.3,1.4-0.6c0,0,1.7-0.6,1.9-1
			c0.2-0.4,2.4-1.8,2.4-2.4c0.1-2.1,0.3-4.3,0.6-6.4c0.4-0.6,0.4-1.8,0.6-1.8s3.6,5.5,3.5,5.5c0,0.4,3.7,0.4,3.7,0.4h2.4
			c0,0,0.6-1.8,1.4-1.8c0.6,0,1.4-1,2.6-0.6c0.8,0.2,1.6,0.4,2.4,0.4l0.6-0.6c0.6-0.4,6.1-3.1,7.6-3.1s5.9-0.4,7.9,1.8
			c2,2.2,6.1,5.9,7.2,7.7c0.6,1.8,2.6,4,3.5,4c0.4,0,7.2-0.6,7.2-1v-0.4c-0.1-0.8-1.1-1.4-1.4-1.5c-1.9-0.8-3.7-1.6-5.5-2.6
			c-1.1-0.7-2.3-1.4-3.6-1.8c-0.8-0.3-1.7-0.5-2.5-0.6c3.3,0,6.6,0.6,9.7,1.7c1.9,0.7,3.7,1.5,5.4,2.5c0.4,0.7,1.3,1.8,1,3.1
			c-0.2,0.6-0.5,1-1,1.4c-2.2,1.9-7.2,2.6-8.2,2.8h-0.1c-0.4,0.3,0.6,2.4,0.6,2.4s1.4,5.5,0.4,7.3c-0.6,1.8-1.9,5.9-3.7,7.7
			c-1.9,1.8-4,5-5.1,5.4c-0.6,0.4,1.9,0.6,2.4,0.4c0.6-0.1,1.2-0.2,1.7-0.4c0,0.4,1.9,1.8,2.4,1.8s0,1-0.6,1
			c-0.4-0.3-0.9-0.4-1.4-0.4l1.4,1.8c0,0-0.4,1.8-0.4,1c-0.7-0.1-1.4-0.5-1.9-1c0-0.4-0.6-1-0.6-1l0.4,1.8c0,0-0.4,1-0.6,1
			c-0.5,0-1-0.2-1.4-0.4c-0.4-0.7-0.4-2.1-0.7-2.1c-0.3,0-0.4,0.6-0.4,1c0,0.3-0.2,0.5-0.4,0.6c-0.4-0.4-1.4-0.4-1.4-1
			s0-1.9-0.6-1.8c-0.6,0.5-1.1,1.2-1.4,1.9c0,0.4-0.4,5.5-0.4,5.5s0,5,0.4,5.4c1.1,0.7,2.3,1.3,3.6,1.8c0,0.3-0.3,0.6-0.6,0.6
			c-0.4,0-2.6-0.4-2.6-0.4s-0.4,0.6,0,1s0.4,1.8,0,1.8s-0.6,0.6-0.6,0.4c0-0.4-0.4-1.9-0.6-1.8c-0.6,0.4-1.4,1.9-1.9,1.8
			s-0.6-0.4-0.4-0.6c0.4-0.4,1.7-2.4,1.4-1.9c-0.4,0-2.6,1.9-3.7,1.8c-0.4,0-1.7-0.4-1.4-0.6c1.1-0.7,2.3-1.4,3.6-1.9
			c0,0,0.6-3.5,0.4-3.5c-0.4,0,0-2.4,0-2.8c0-0.4-4-8.3-5.1-8.3s-9.6-3.1-11.2-1.8c-1.7,1.8-7.2,7.7-7.2,9.4s0.6,3.1,0.4,3.5
			s-0.6,0.4-0.6,0s-0.6,0.6-0.4,1.8c0.4,1,0.4,2.8,0,2.8c-0.6,0-1.4-1.8-1.7-1.8c-0.3,0-0.4,0-0.6,0.4c-0.4,0.4-0.6,1.8-1.7,1.9
			c-0.6,0.4-0.6-0.6-0.4-1c0.4-0.4,0.6-1,0.4-1c-0.4,0.4-1.7,1.8-2.4,1.8c-0.4,0-0.6-0.4-0.4-0.4c0.4-0.4,1.7-1.9,1.7-1.9
			s-1.9,0.6-1.4,0s1.9-1.9,1.7-1.9c-0.2,0,1.7,0,1.7-0.4s0.4-3.1,0.4-3.5c-0.4-0.4,0.4-1,0-1.9c-0.6-5,0.6-8.7-2.6-17.2
			c-3.6-0.4-5.1-0.4-7.6-1.8c-1.3-0.8-2.6-1.7-3.7-2.8C1099.8,709.6,1098.6,708.2,1097.7,706.7L1097.7,706.7z"/>
		
			<linearGradient id="path6480-2_1_" gradientUnits="userSpaceOnUse" x1="-17569.0977" y1="-1432.8015" x2="-17620.1777" y2="-1498.8315" gradientTransform="matrix(0.41 0 0 0.41 8380.8799 1356.78)">
			<stop  offset="0" style="stop-color:#2A1B12"/>
			<stop  offset="1" style="stop-color:#CDCCCC"/>
		</linearGradient>
		<path id="path6480-2" inkscape:connector-curvature="0" inkscape:label="grey body" style="fill:url(#path6480-2_1_);" d="
			M1098.6,706.4c0,0,5.3-8,5.9-8.1c0.6-0.1-0.4-0.4,0-1c0.4-0.4,0.6-1,1.4-1c0.5-0.1,1-0.3,1.4-0.6c0,0,1.7-0.6,1.9-1
			s2.4-1.8,2.4-2.4c0.1-2.1,0.3-4.2,0.6-6.2c0.4-0.6,0.4-1.8,0.6-1.8s3.6,5.3,3.4,5.3c0,0.4,3.5,0.4,3.5,0.4h2.3
			c0,0,0.6-1.8,1.4-1.8c0.6,0,1.4-1,2.6-0.6c0.8,0.2,1.6,0.4,2.4,0.4l0.6-0.6c0.6-0.4,5.9-3.1,7.4-3.1s5.7-0.4,7.7,1.8
			c2,2.2,5.9,5.7,7,7.5c0.6,1.8,2.6,3.8,3.4,3.8c0.4,0,7-0.6,7-1v-0.4c-0.1-0.8-1.1-1.4-1.4-1.5c-1.8-0.7-3.6-1.6-5.3-2.6
			c-1.1-0.7-2.2-1.3-3.4-1.8c-0.8-0.3-1.6-0.5-2.5-0.6c3.2,0,6.4,0.6,9.5,1.7c1.8,0.6,3.6,1.5,5.2,2.5c0.4,0.7,1.3,1.8,1,3.1
			c-0.2,0.5-0.5,1-1,1.4c-2.2,1.9-7,2.6-8,2.8h-0.1c-0.4,0.3,0.6,2.4,0.6,2.4s1.4,5.3,0.4,7.1c-0.6,1.8-1.9,5.7-3.6,7.5
			c-1.9,1.8-3.9,4.8-4.9,5.2c-0.6,0.4,1.9,0.6,2.4,0.4c0.6-0.1,1.1-0.2,1.7-0.4c0,0.4,1.9,1.8,2.4,1.8s0,1-0.6,1
			c-0.4-0.3-0.9-0.4-1.4-0.4l1.4,1.8c0,0-0.4,1.8-0.4,1c-0.7-0.1-1.4-0.5-1.9-1c0-0.4-0.6-1-0.6-1l0.4,1.8c0,0-0.4,1-0.6,1
			c-0.5,0-1-0.2-1.4-0.4c-0.4-0.7-0.4-2.1-0.7-2.1c-0.3,0-0.4,0.6-0.4,1c0,0.3-0.2,0.5-0.4,0.6c-0.4-0.4-1.4-0.4-1.4-1
			s0-1.9-0.6-1.8c-0.6,0.5-1.1,1.2-1.4,1.9c0,0.4-0.4,5.3-0.4,5.3s0,4.8,0.4,5.2c1.1,0.7,2.3,1.3,3.4,1.8c0,0.3-0.3,0.6-0.6,0.6
			c-0.4,0-2.6-0.4-2.6-0.4s-0.4,0.6,0,1s0.4,1.8,0,1.8s-0.6,0.6-0.6,0.4c0-0.4-0.4-1.9-0.6-1.8c-0.6,0.4-1.4,1.9-1.9,1.8
			s-0.6-0.4-0.4-0.6c0.4-0.4,1.7-2.4,1.4-1.9c-0.4,0-2.6,1.9-3.5,1.8c-0.4,0-1.7-0.4-1.4-0.6c1.1-0.7,2.3-1.3,3.4-1.9
			c0.2-1.1,0.4-2.3,0.4-3.4c-0.4,0,0-2.4,0-2.8s-3.9-8.1-4.9-8.1c-1,0-9.4-3.1-10.9-1.8c-1.7,1.8-7,7.5-7,9.2s0.6,3,0.4,3.5
			s-0.6,0.4-0.6,0s-0.6,0.6-0.4,1.8c0.4,1,0.4,2.8,0,2.8c-0.6,0-1.4-1.8-1.7-1.8s-0.4,0-0.6,0.4c-0.4,0.4-0.6,1.8-1.7,1.9
			c-0.6,0.4-0.6-0.6-0.4-1c0.4-0.4,0.6-1,0.4-1c-0.4,0.4-1.7,1.8-2.4,1.8c-0.4,0-0.6-0.4-0.4-0.4c0.4-0.4,1.7-1.9,1.7-1.9
			s-1.9,0.6-1.4,0s1.9-1.9,1.7-1.9s1.7,0,1.7-0.4s0.4-3,0.4-3.5c-0.4-0.4,0.4-1,0-1.9c-0.6-4.8,0.6-8.5-2.6-16.8
			c-3.4-0.4-4.9-0.4-7.4-1.8c-1.3-0.7-2.5-1.7-3.5-2.8C1100.6,709.2,1099.4,707.9,1098.6,706.4L1098.6,706.4z"/>
		
			<path id="path6482" inkscape:connector-curvature="0" inkscape:label="left eye" style="fill:#040404;stroke:#4C2D1A;stroke-width:0.43;" d="
			M1111.5,700.3c0.3-0.5,0.5-1.1,0.6-1.8c0-0.4,1.7-1,1.9-1s1.9,1,1.9,1.9c0,0.6,0.4,1.9-0.4,1.9c-0.8,0.5-1.8,0.5-2.6,0
			C1112.4,700.9,1111.9,700.6,1111.5,700.3L1111.5,700.3z"/>
		
			<path id="path6484" inkscape:connector-curvature="0" inkscape:label="nose" style="fill:#F59DB1;stroke:#020202;stroke-width:0.29;" d="
			M1101.2,709.1c0,0,1.7-0.4,1.7-0.6c0-0.4,0-2.4-0.4-2.4s-1.9-0.6-2.4-0.4c-0.4,0.4-0.4,0-0.6,0.4c-0.4,0.4,0,1.8,0,1.9
			c0.4,0.4,0.4,1,0.6,1C1100.5,709.1,1100.9,709.1,1101.2,709.1L1101.2,709.1z"/>
		
			<path id="path6496" inkscape:connector-curvature="0" inkscape:label="right eye" style="fill:#040404;stroke:#020202;stroke-width:0.29;" d="
			M1106.4,696.1l-1.7,1.9c0,0-0.4-0.4-0.4-0.6c0-0.4,0.6-1,0.6-1L1106.4,696.1L1106.4,696.1z"/>
		
			<path id="path6498" inkscape:connector-curvature="0" inkscape:label="pink tail" style="fill:#F59DB1;stroke:#020202;stroke-width:0.14;stroke-linejoin:round;" d="
			M1156.7,702L1156.7,702c0.1,0.1,0.3-0.6,0.3-0.6l2.2-0.6c1.1-0.4,2.2-1,3.2-1.4c0.7-0.7,1.4-1.3,2.1-1.9c-0.1-0.8-0.3-1.7-0.6-2.5
			l-1.1-1.1l-3.4-2.2c-2.2-0.7-4.5-1.1-6.8-1.4c-1.4-0.1-2.8-0.1-3.9-0.1c2,0.3,4,0.9,5.9,1.8c1.8,0.8,3.6,1.8,5.2,3.1
			c0.6,0.4,1.2,0.9,1.7,1.4c-1,0.4-1.9,0.8-2.9,1.3c-1.5-0.4-1.9,0-2.1,0.1C1155.5,698.8,1156.7,701.4,1156.7,702L1156.7,702z"/>
	</g>
	<ellipse id="ellipse1647" style="fill:#7A6D64;stroke:#000000;stroke-miterlimit:10;" cx="842.4" cy="71" rx="58.8" ry="22.4"/>
	
		<radialGradient id="ellipse1649_1_" cx="842.4" cy="1825" r="32.6546" gradientTransform="matrix(1 0 0 -1 0 1896)" gradientUnits="userSpaceOnUse">
		<stop  offset="0" style="stop-color:#FFFFFF"/>
		<stop  offset="1.000000e-02" style="stop-color:#FFFEFC"/>
		<stop  offset="0.25" style="stop-color:#FFF3CA"/>
		<stop  offset="0.48" style="stop-color:#FFEAA2"/>
		<stop  offset="0.69" style="stop-color:#FFE486"/>
		<stop  offset="0.86" style="stop-color:#FFE075"/>
		<stop  offset="1" style="stop-color:#FFDF6F"/>
	</radialGradient>
	
		<ellipse id="ellipse1649" inkscape:label="yellow light" style="fill:url(#ellipse1649_1_);stroke:#000000;stroke-miterlimit:10;" cx="842.4" cy="71" rx="42.4" ry="18.3">
	</ellipse>
</g>
<path id="path1652" inkscape:connector-curvature="0" inkscape:label="door frame" style="fill:#754A2D;" d="M731,260v440.4h238V260
	H731z M954.2,700.3H744.6V273h209.6L954.2,700.3z"/>
<path id="path1654" inkscape:connector-curvature="0" inkscape:label="path1654" style="fill:#A89856;" d="M1575.2,0h86.8v524.7
	h-86.8V0z"/>
</svg>
