<?xml version="1.0" encoding="utf-8"?>
<!-- Generator: Adobe Illustrator 22.1.0, SVG Export Plug-In . SVG Version: 6.00 Build 0)  -->
<svg version="1.1" id="Layer_1" xmlns="http://www.w3.org/2000/svg" xmlns:xlink="http://www.w3.org/1999/xlink" x="0px" y="0px"
	 viewBox="0 0 1662 1013.8" style="enable-background:new 0 0 1662 1013.8;" xml:space="preserve">
<style type="text/css">
	.st0{fill:none;}
	.st1{fill:#7A6551;stroke:#2D1E11;stroke-miterlimit:10;}
	.st2{fill:#B79C80;}
	.st3{fill:#937F6D;}
	.st4{fill:#FFFFFF;stroke:#000000;stroke-miterlimit:10;}
	.st5{fill:url(#SVGID_1_);stroke:#000000;stroke-miterlimit:10;}
	.st6{fill:#F0F7F7;stroke:#000000;stroke-miterlimit:10;}
	.st7{fill:url(#Floor_1_);stroke:#7C726C;stroke-miterlimit:10;}
	.st8{fill:url(#overlay_floor_1_);fill-opacity:0.3;stroke:#010101;stroke-width:0.75;stroke-linejoin:round;}
	.st9{fill:url(#SVGID_2_);stroke:#000000;stroke-width:0.75;stroke-miterlimit:10;}
	.st10{fill:url(#SVGID_3_);}
	.st11{fill:#777677;stroke:#000000;stroke-width:0.75;stroke-miterlimit:10;}
	.st12{fill:#FCECAC;}
	.st13{fill:url(#SVGID_4_);}
	.st14{fill:#A89856;}
	.st15{fill:url(#SVGID_5_);}
	.st16{fill:url(#SVGID_6_);}
	.st17{fill:#C1C1C1;}
	.st18{fill:#FFFFFF;stroke:#494444;stroke-miterlimit:10;}
	.st19{fill:#C1C1C1;stroke:#494444;stroke-miterlimit:10;}
	.st20{fill:none;stroke:#000000;stroke-miterlimit:10;}
	.st21{fill:#99623D;stroke:#000000;stroke-miterlimit:10;}
	.st22{fill:#E2C675;stroke:#000000;stroke-width:0.75;stroke-miterlimit:10;}
	.st23{fill:#895E3B;stroke:#000000;stroke-miterlimit:10;}
	.st24{fill:#E6F5FF;}
	.st25{fill:#76BF6D;}
	.st26{fill:#995D34;}
	.st27{fill:#846144;}
	.st28{fill:#754A2D;stroke:#000000;stroke-miterlimit:10;}
	.st29{fill:#D2F1FF;}
	.st30{fill:#5B8852;}
	.st31{fill:#705746;stroke:#000000;stroke-miterlimit:10;}
	.st32{fill:#AA7D55;}
	.st33{fill:none;stroke:#895F3B;stroke-miterlimit:10;}
	.st34{fill:#895E3B;}
	.st35{display:none;fill-opacity:0.17;}
	.st36{fill:#4C301C;stroke:#000000;stroke-width:0.5;stroke-miterlimit:10;}
	.st37{fill:#7A543F;stroke:#000000;stroke-width:0.5;stroke-miterlimit:10;}
	.st38{fill:#A0775C;stroke:#000000;stroke-width:0.5;stroke-miterlimit:10;}
	.st39{fill:#BA8D6E;stroke:#000000;stroke-width:0.5;stroke-miterlimit:10;}
	.st40{fill:#526677;stroke:#000000;stroke-width:0.75;stroke-miterlimit:10;}
	.st41{fill:#3C5268;stroke:#000000;stroke-miterlimit:10;}
	.st42{fill:none;stroke:#526778;stroke-miterlimit:10;}
	.st43{fill:none;stroke:#3C5268;stroke-miterlimit:10;}
	.st44{fill:#493B31;stroke:#000000;stroke-width:0.75;stroke-miterlimit:10;}
	.st45{fill:#5B4A3F;}
	.st46{fill:none;stroke:#5C4A3F;stroke-miterlimit:10;}
	.st47{fill:none;stroke:#1E1E1E;stroke-miterlimit:10;}
	.st48{fill:#A0775C;stroke:#000000;stroke-miterlimit:10;}
	.st49{fill:none;stroke:#1E1E1E;stroke-width:0.75;stroke-miterlimit:10;}
	.st50{fill:#7F5334;stroke:#000000;stroke-miterlimit:10;}
	.st51{fill:none;stroke:#1E1E1E;stroke-width:2;stroke-miterlimit:10;}
	.st52{fill:#9B5699;stroke:#5C2168;stroke-width:0.5;stroke-miterlimit:10;}
	.st53{fill:#9B5699;stroke:#5C2568;stroke-width:0.5;stroke-miterlimit:10;}
	.st54{fill:#AA6D89;stroke:#000000;stroke-width:0.75;stroke-miterlimit:10;}
	.st55{fill:#894E6C;stroke:#000000;stroke-width:0.75;stroke-miterlimit:10;}
	.st56{fill:#D3A3C4;stroke:#000000;stroke-width:0.75;stroke-miterlimit:10;}
	.st57{fill:#FFDD92;stroke:#D8A744;stroke-width:0.5;stroke-miterlimit:10;}
	.st58{fill:#4C3D33;stroke:#000000;stroke-miterlimit:10;}
	.st59{fill:#A87669;}
	.st60{fill:#756154;}
	.st61{fill:#4C3D33;}
	.st62{fill:#372D42;}
	.st63{display:none;fill:none;stroke:#9084AF;stroke-miterlimit:10;}
	.st64{fill:#4F3819;}
	.st65{fill:#E5CFB5;}
	.st66{fill:#333333;}
	.st67{fill:#F4ECA4;}
	.st68{display:none;fill:url(#path6480_2_);stroke:#020202;}
	.st69{fill:url(#path6480_3_);stroke:#020202;}
	.st70{fill:#040404;stroke:#4C2D1A;stroke-width:0.4343;}
	.st71{fill:#F59DB1;stroke:#020202;stroke-width:0.2895;}
	.st72{fill:#040404;stroke:#020202;stroke-width:0.2895;}
	.st73{fill:#F59DB1;stroke:#020202;stroke-width:0.1448;stroke-linejoin:round;}
	.st74{fill:#7A6D64;stroke:#000000;stroke-miterlimit:10;}
	.st75{fill:url(#SVGID_7_);stroke:#000000;stroke-miterlimit:10;}
	.st76{fill:#754A2D;}
</style>
<pattern  y="1013.8" width="436" height="348" patternUnits="userSpaceOnUse" id="Floor_2_" viewBox="290.7 -377 436 348" style="overflow:visible;">
	<g>
		<rect x="290.7" y="-377" class="st0" width="436" height="348"/>
		<g>
			<rect x="290.7" y="-377" class="st0" width="436" height="348"/>
			<g>
				<rect x="290.7" y="-377" class="st0" width="436" height="348"/>
				<g>
					<rect x="290.7" y="-377" class="st0" width="436" height="348"/>
					<g>
						<rect x="290.7" y="-377" class="st0" width="436" height="348"/>
						<g>
							<rect x="290.7" y="-377" class="st0" width="436" height="348"/>
							<g>
								<rect x="290.7" y="-377" class="st0" width="436" height="348"/>
								<g>
									<rect x="291.2" y="-57.5" class="st1" width="435" height="57"/>
									<path class="st2" d="M724.2-39.5l-124,1c0,0-83,2-90,3s-17,2-16,4s16,5,29,6s201,2,201,2s-180-1-187-4s0-3,3-4
										S724.2-39.5,724.2-39.5z"/>
									<path class="st2" d="M723.2-33.5c-2,0-85,0-83,2s11,4,19,5s50,2,50,2s-59-4-55-5s70-2,70-2L723.2-33.5z"/>
									<rect x="291.2" y="-54.5" class="st2" width="435" height="4"/>
									<rect x="291.2" y="-46.5" class="st3" width="435" height="1"/>
									<rect x="291.2" y="-49.5" class="st2" width="435" height="1"/>
								</g>
								<g>
									<rect x="436.5" y="-115.5" class="st1" width="435" height="57"/>
									<path class="st3" d="M437.5-70.5c0,0,234,5,271,6s115-2,118-3s43,0,43,0v3c0,0-34,0-41,0s-55,6-55,6h-110h-226V-70.5z"/>
									<path class="st2" d="M869.5-97.5l-124,1c0,0-83,2-90,3s-17,2-16,4s16,5,29,6s201,2,201,2s-180-1-187-4s0-3,3-4
										S869.5-97.5,869.5-97.5z"/>
									<rect x="436.5" y="-112.5" class="st2" width="435" height="4"/>
									<rect x="436.5" y="-104.5" class="st3" width="435" height="1"/>
									<rect x="436.5" y="-107.5" class="st2" width="435" height="1"/>
								</g>
								<g>
									<rect x="0.5" y="-115.5" class="st1" width="435" height="57"/>
									<path class="st3" d="M1.5-70.5c0,0,234,5,271,6s115-2,118-3s43,0,43,0v3c0,0-34,0-41,0s-55,6-55,6h-110H1.5V-70.5z"/>
									<path class="st2" d="M433.5-97.5l-124,1c0,0-83,2-90,3s-17,2-16,4s16,5,29,6s201,2,201,2s-180-1-187-4s0-3,3-4
										S433.5-97.5,433.5-97.5z"/>
									<path class="st2" d="M432.5-91.5c-2,0-85,0-83,2s11,4,19,5s50,2,50,2s-59-4-55-5s70-2,70-2L432.5-91.5z"/>
									<rect x="0.5" y="-112.5" class="st2" width="435" height="4"/>
									<rect x="0.5" y="-104.5" class="st3" width="435" height="1"/>
									<rect x="0.5" y="-107.5" class="st2" width="435" height="1"/>
								</g>
								<g>
									<rect x="581.8" y="-173.5" class="st1" width="435" height="57"/>
									<path class="st3" d="M582.8-128.5c0,0,234,5,271,6s115-2,118-3s43,0,43,0v3c0,0-34,0-41,0s-55,6-55,6h-110h-226V-128.5z"/>
									<rect x="581.8" y="-170.5" class="st2" width="435" height="4"/>
									<rect x="581.8" y="-162.5" class="st3" width="435" height="1"/>
									<rect x="581.8" y="-165.5" class="st2" width="435" height="1"/>
								</g>
								<g>
									<rect x="145.8" y="-173.5" class="st1" width="435" height="57"/>
									<path class="st3" d="M146.8-128.5c0,0,234,5,271,6s115-2,118-3s43,0,43,0v3c0,0-34,0-41,0s-55,6-55,6h-110h-226
										L146.8-128.5L146.8-128.5z"/>
									<path class="st2" d="M578.8-155.5l-124,1c0,0-83,2-90,3s-17,2-16,4s16,5,29,6s201,2,201,2s-180-1-187-4s0-3,3-4
										S578.8-155.5,578.8-155.5z"/>
									<path class="st2" d="M577.8-149.5c-2,0-85,0-83,2s11,4,19,5s50,2,50,2s-59-4-55-5s70-2,70-2L577.8-149.5z"/>
									<rect x="145.8" y="-170.5" class="st2" width="435" height="4"/>
									<rect x="145.8" y="-162.5" class="st3" width="435" height="1"/>
									<rect x="145.8" y="-165.5" class="st2" width="435" height="1"/>
								</g>
								<g>
									<rect x="291.2" y="-231.5" class="st1" width="435" height="57"/>
									<path class="st3" d="M292.2-186.5c0,0,234,5,271,6s115-2,118-3s43,0,43,0v3c0,0-34,0-41,0s-55,6-55,6h-110h-226V-186.5z"/>
									<path class="st2" d="M724.2-213.5l-124,1c0,0-83,2-90,3s-17,2-16,4s16,5,29,6s201,2,201,2s-180-1-187-4s0-3,3-4
										S724.2-213.5,724.2-213.5z"/>
									<path class="st2" d="M723.2-207.5c-2,0-85,0-83,2s11,4,19,5s50,2,50,2s-59-4-55-5s70-2,70-2L723.2-207.5z"/>
									<rect x="291.2" y="-228.5" class="st2" width="435" height="4"/>
									<rect x="291.2" y="-220.5" class="st3" width="435" height="1"/>
									<rect x="291.2" y="-223.5" class="st2" width="435" height="1"/>
								</g>
								<g>
									<rect x="436.5" y="-289.5" class="st1" width="435" height="57"/>
									<path class="st3" d="M437.5-244.5c0,0,234,5,271,6s115-2,118-3s43,0,43,0v3c0,0-34,0-41,0s-55,6-55,6h-110h-226V-244.5z"/>
									<path class="st2" d="M869.5-271.5l-124,1c0,0-83,2-90,3s-17,2-16,4s16,5,29,6s201,2,201,2s-180-1-187-4s0-3,3-4
										S869.5-271.5,869.5-271.5z"/>
									<rect x="436.5" y="-286.5" class="st2" width="435" height="4"/>
									<rect x="436.5" y="-278.5" class="st3" width="435" height="1"/>
									<rect x="436.5" y="-281.5" class="st2" width="435" height="1"/>
								</g>
								<g>
									<rect x="0.5" y="-289.5" class="st1" width="435" height="57"/>
									<path class="st3" d="M1.5-244.5c0,0,234,5,271,6s115-2,118-3s43,0,43,0v3c0,0-34,0-41,0s-55,6-55,6h-110H1.5V-244.5z"/>
									<path class="st2" d="M433.5-271.5l-124,1c0,0-83,2-90,3s-17,2-16,4s16,5,29,6s201,2,201,2s-180-1-187-4s0-3,3-4
										S433.5-271.5,433.5-271.5z"/>
									<path class="st2" d="M432.5-265.5c-2,0-85,0-83,2s11,4,19,5s50,2,50,2s-59-4-55-5s70-2,70-2L432.5-265.5z"/>
									<rect x="0.5" y="-286.5" class="st2" width="435" height="4"/>
									<rect x="0.5" y="-278.5" class="st3" width="435" height="1"/>
									<rect x="0.5" y="-281.5" class="st2" width="435" height="1"/>
								</g>
								<g>
									<rect x="581.8" y="-347.5" class="st1" width="435" height="57"/>
									<path class="st3" d="M582.8-302.5c0,0,234,5,271,6s115-2,118-3s43,0,43,0v3c0,0-34,0-41,0s-55,6-55,6h-110h-226V-302.5z"/>
									<rect x="581.8" y="-344.5" class="st2" width="435" height="4"/>
									<rect x="581.8" y="-336.5" class="st3" width="435" height="1"/>
									<rect x="581.8" y="-339.5" class="st2" width="435" height="1"/>
								</g>
								<g>
									<rect x="145.8" y="-347.5" class="st1" width="435" height="57"/>
									<path class="st3" d="M146.8-302.5c0,0,234,5,271,6s115-2,118-3s43,0,43,0v3c0,0-34,0-41,0s-55,6-55,6h-110h-226
										L146.8-302.5L146.8-302.5z"/>
									<path class="st2" d="M578.8-329.5l-124,1c0,0-83,2-90,3s-17,2-16,4s16,5,29,6s201,2,201,2s-180-1-187-4s0-3,3-4
										S578.8-329.5,578.8-329.5z"/>
									<path class="st2" d="M577.8-323.5c-2,0-85,0-83,2s11,4,19,5s50,2,50,2s-59-4-55-5s70-2,70-2L577.8-323.5z"/>
									<rect x="145.8" y="-344.5" class="st2" width="435" height="4"/>
									<rect x="145.8" y="-336.5" class="st3" width="435" height="1"/>
									<rect x="145.8" y="-339.5" class="st2" width="435" height="1"/>
								</g>
								<g>
									<rect x="291.2" y="-405.5" class="st1" width="435" height="57"/>
									<path class="st3" d="M292.2-360.5c0,0,234,5,271,6s115-2,118-3s43,0,43,0v3c0,0-34,0-41,0s-55,6-55,6h-110h-226V-360.5z"/>
									<path class="st2" d="M724.2-387.5l-124,1c0,0-83,2-90,3s-17,2-16,4s16,5,29,6s201,2,201,2s-180-1-187-4s0-3,3-4
										S724.2-387.5,724.2-387.5z"/>
									<path class="st2" d="M723.2-381.5c-2,0-85,0-83,2s11,4,19,5s50,2,50,2s-59-4-55-5s70-2,70-2L723.2-381.5z"/>
								</g>
							</g>
						</g>
					</g>
				</g>
			</g>
		</g>
	</g>
</pattern>
<g id="Layer_1_1_">
	<path class="st4" d="M0,1013.8"/>
	<path class="st0" d="M0,1013.8"/>
	
		<radialGradient id="SVGID_1_" cx="839.1" cy="892.1667" r="537.7081" gradientTransform="matrix(1 0 0 -0.6 0 1393.1)" gradientUnits="userSpaceOnUse">
		<stop  offset="0" style="stop-color:#E8CBB1"/>
		<stop  offset="0.6094" style="stop-color:#F8D9C1"/>
		<stop  offset="0.7553" style="stop-color:#F9DAC2"/>
		<stop  offset="0.998" style="stop-color:#FFDFC8"/>
	</radialGradient>
	<path class="st5" d="M95.1,1013.8c148.7-104.3,297.3-208.7,446-313c206,0,412,0,618,0c141.3,104.6,282.7,209.4,424,314
		C1087.1,1014.5,591.1,1014,95.1,1013.8z"/>
	<path class="st6" d="M182.5-5.6c119.7,81.4,239.3,162.9,359,244.3c206-0.3,410.6,0.3,616.6,0c109.3-80.1,224.9-161.9,334.2-242
		C1057.3-4.3,617.5-4.6,182.5-5.6z"/>
	<g id="FLOOR">
		<pattern  id="Floor_1_" xlink:href="#Floor_2_" patternTransform="matrix(1 0 0 1 -3081.2 56116.1992)">
		</pattern>
		<rect id="Floor" y="613.3" class="st7" width="1650.8" height="397.7"/>
		
			<radialGradient id="overlay_floor_1_" cx="-799.996" cy="206.5854" r="462.8406" gradientTransform="matrix(1.5336 0 0 1.6144 2047.2709 472.644)" gradientUnits="userSpaceOnUse">
			<stop  offset="0" style="stop-color:#A2814B"/>
			<stop  offset="0.5711" style="stop-color:#A17559"/>
			<stop  offset="1" style="stop-color:#7F6D4F"/>
		</radialGradient>
		<polygon id="overlay_floor" class="st8" points="1650.8,627.7 1.1,606.7 0,1011 1650.8,1011 		"/>
	</g>
	<linearGradient id="SVGID_2_" gradientUnits="userSpaceOnUse" x1="271.65" y1="-9.094947e-13" x2="271.65" y2="1013.8">
		<stop  offset="0.252" style="stop-color:#E7F4F1"/>
		<stop  offset="1" style="stop-color:#7D8E94"/>
	</linearGradient>
	<polygon class="st9" points="543.3,239 163,0 0,0 0,1013.8 91.9,1013.8 543.3,700 	"/>
	<linearGradient id="SVGID_3_" gradientUnits="userSpaceOnUse" x1="1155.4" y1="507.9" x2="1662.2" y2="507.9">
		<stop  offset="0.252" style="stop-color:#E7F4F1"/>
		<stop  offset="1" style="stop-color:#7D8E94"/>
	</linearGradient>
	<polygon class="st10" points="1155.4,240 1510.7,1 1662.2,1 1662.2,1014.8 1576.8,1014.8 1156.4,700 	"/>
	<rect y="-23.3" class="st11" width="98.1" height="1037.1"/>
	<path class="st12" d="M1157.5,541c139.1-3,278.3-6,417.4-9V-63c-147.6,96.4-265.8,160-417.2,255.7
		C1157.9,293.4,1157.1,440.3,1157.5,541z"/>
	<linearGradient id="SVGID_4_" gradientUnits="userSpaceOnUse" x1="97.4" y1="239" x2="544.6" y2="239">
		<stop  offset="0" style="stop-color:#FCECAC"/>
		<stop  offset="0.2666" style="stop-color:#F7E7A9"/>
		<stop  offset="0.5939" style="stop-color:#E8D99F"/>
		<stop  offset="0.9518" style="stop-color:#CFC18F"/>
		<stop  offset="1" style="stop-color:#CBBD8C"/>
	</linearGradient>
	<path class="st13" d="M543.1,541c-148.6-3-297.1-6-445.7-9V-63C253,28.7,396.1,109.4,544.6,193C544.3,293.7,543.4,440.3,543.1,541z
		"/>
	<rect class="st14" width="99.4" height="524.7"/>
	<linearGradient id="SVGID_5_" gradientUnits="userSpaceOnUse" x1="569.45" y1="727.05" x2="1129.95" y2="166.55">
		<stop  offset="0" style="stop-color:#7D8E94"/>
		<stop  offset="0.5433" style="stop-color:#D5E3E1"/>
		<stop  offset="0.9949" style="stop-color:#E7F4F1"/>
	</linearGradient>
	<path class="st15" d="M543.6,193h612.8v507c-204.7,0-409.4,0-614,0C542.8,546.3,543.2,346.7,543.6,193z"/>
	<linearGradient id="SVGID_6_" gradientUnits="userSpaceOnUse" x1="1002.0925" y1="102.9868" x2="698.6075" y2="628.6382">
		<stop  offset="0" style="stop-color:#FCECAC"/>
		<stop  offset="0.3614" style="stop-color:#F9E9AA"/>
		<stop  offset="0.6076" style="stop-color:#F0E1A4"/>
		<stop  offset="0.8188" style="stop-color:#E1D29B"/>
		<stop  offset="1" style="stop-color:#CDBF8E"/>
	</linearGradient>
	<polyline class="st16" points="1158,538.6 542.7,538.6 542.7,193 1158,193 	"/>
	<rect x="1574.9" y="525.1" class="st17" width="94.1" height="27.4"/>
	<rect x="542.6" y="533.6" class="st18" width="188.4" height="13.7"/>
	<rect x="969" y="537.3" class="st18" width="189" height="10"/>
	<polygon class="st11" points="1575,-29.5 1662,1 1662,1014.8 1575,1014.8 	"/>
	<g>
		<rect x="-6.2" y="525.1" class="st19" width="103.8" height="27.4"/>
		<rect x="1575.2" y="524.7" class="st17" width="93.8" height="27.8"/>
	</g>
	<g>
		<line class="st20" x1="1156.6" y1="193" x2="1157" y2="701.4"/>
		<g>
			<polyline class="st20" points="205.3,0 542.7,193 542.7,700.8 			"/>
			<path class="st20" d="M1156.6,193H542.7H1156.6z"/>
			<line class="st20" x1="1475.5" y1="0" x2="1156.6" y2="193"/>
			<line class="st20" x1="1575" y1="1014.8" x2="1159.2" y2="700.9"/>
		</g>
	</g>
	<g id="Door">
		<polygon class="st21" points="744.6,700 744.6,273 954.2,273 954,700 		"/>
		<ellipse class="st22" cx="923.2" cy="479.8" rx="7.8" ry="10"/>
	</g>
	<rect x="415.5" y="199" class="st23" width="5" height="294.9"/>
	<g id="windowAfter">
		<path class="st23" d="M420.5,493.3l69,2.1c-0.9-82.9-1.7-165.7-2.6-248.6c-22.1-15.6-44.3-31.2-66.4-46.8V493.3z"/>
		<path class="st23" d="M228.6,491.7l124.5,2.9c-1.6-108.1-3-216.1-4.6-324.2c-39.6-21.7-79.6-43.6-120-65.6v386.9H228.6z"/>
		<path class="st24" d="M344.1,176.2c-31.6-16.3-63.4-32.9-95.6-49.6l-2.5-1.3c-0.1,0-9.7-5.1-9.8-5.1c0,118.9-0.1,237.9-0.1,356.8
			l112.7,3.6L344.1,176.2z"/>
		<path class="st24" d="M482.4,250.7c-11.7-7.7-23.4-15.3-35.2-23c-7.4-4.9-14.9-9.7-22.3-14.6c0,90.5,0,180.9,0,271.4l60,4.1
			L482.4,250.7z"/>
		<path class="st25" d="M425.3,227.6c3.9,6.2,7.5,7.9,10.2,8.2c5.2,0.7,8.2-3.5,13.5-2.8c4.5,0.5,4.6,5.5,10.1,7.5
			c3,1.1,5.9,0.8,7.8,0.5l0.2-0.3l-43.4-29l0.1,14.8L425.3,227.6z"/>
		<path class="st25" d="M241,148.1c10.4,9.5,28.2,2.6,35.4,11.8c5.4,7.1-2.4,15.2,2.4,22.1c5.6,8,21.6-1.2,39.5,4.2
			c10.9,3.3,18.1,10.4,22.4,15.5c1.3,0.8,2.6,1.7,3.9,2.5c-0.2-9.9-0.4-19.9-0.5-29.8c-33.3-16.7-69.1-34.7-107.8-54.1
			C232.9,136.3,236.6,144,241,148.1z"/>
		<path class="st26" d="M444.4,231.7c-1.6,16.3-3.4,38.6-4.8,65.2c-1.7,32.1-3.2,60.3-1.8,95.8c1,24.1,3.5,56.1,10,93.8
			c-7.7-0.3-15.5-0.5-23.2-0.8c-0.2-69.1-0.5-157.3-0.9-273.8C430.8,218.5,437.7,225.2,444.4,231.7z"/>
		
			<rect x="286.1" y="249.7" transform="matrix(0.347 -0.9379 0.9379 0.347 -104.7033 475.3946)" class="st27" width="5.9" height="126.4"/>
		<polygon class="st27" points="422,359.7 424.5,356.6 486.1,379.3 483.6,382.4 		"/>
		<rect x="299.2" y="147.5" class="st27" width="5.1" height="338.8"/>
		<rect x="459.4" y="235.5" class="st27" width="2.6" height="257.1"/>
	</g>
	<g id="Mold">
		<g id="Window">
			<path class="st27" d="M420.4,493.3l69,2.1c-0.9-82.9-1.7-165.7-2.6-248.6c-22.1-15.6-44.3-31.2-66.4-46.8V493.3z"/>
			<path class="st28" d="M228.5,491.6l124.5,2.9c-1.6-108.1-3-216.1-4.6-324.2c-39.6-21.7-79.6-43.6-120-65.6v386.9H228.5z"/>
			<path class="st29" d="M344,176.1c-31.6-16.3-63.4-32.9-95.6-49.6l-2.5-1.3c-0.1,0-9.7-5.1-9.8-5.1c0,118.9-0.1,237.9-0.1,356.8
				l112.7,3.6L344,176.1z"/>
			<path class="st29" d="M482.3,250.6c-11.7-7.7-23.4-15.3-35.2-23c-7.4-4.9-14.9-9.7-22.3-14.6c0,90.5,0,180.9,0,271.4l60,4.1
				L482.3,250.6z"/>
			<path class="st26" d="M444.3,231.6c-1.6,16.3-3.4,38.6-4.8,65.2c-1.7,32.1-3.2,60.3-1.8,95.8c1,24.1,3.5,56.1,10,93.8
				c-7.7-0.3-15.5-0.5-23.2-0.8c-0.2-69.1-0.5-157.3-0.9-273.8C430.7,218.4,437.6,225.1,444.3,231.6z"/>
			<path class="st25" d="M425.2,227.5c3.9,6.2,7.5,7.9,10.2,8.2c5.2,0.7,8.2-3.5,13.5-2.8c4.5,0.5,4.6,5.5,10.1,7.5
				c3,1.1,5.9,0.8,7.8,0.5l0.2-0.3l-43.4-29l0.1,14.8L425.2,227.5z"/>
			<path class="st25" d="M240.9,148c10.4,9.5,28.2,2.6,35.4,11.8c5.4,7.1-2.4,15.2,2.4,22.1c5.6,8,21.6-1.2,39.5,4.2
				c10.9,3.3,18.1,10.4,22.4,15.5c1.3,0.8,2.6,1.7,3.9,2.5c-0.2-9.9-0.4-19.9-0.5-29.8c-33.3-16.7-69.1-34.7-107.8-54.1
				C232.8,136.2,236.5,143.9,240.9,148z"/>
		</g>
		<g id="Mold_1_">
			<path class="st30" d="M231,419.1c0,0,11.5,1.6,9.9,11.2c0,0,1.3,5.4-0.7,8.7l1.5,4.2c0,0-1.3,7.9-0.2,7.9c0,0-2.1,4-1.5,7.4
				c0,0,4.7,4.7,3,10.5c0,0,4.7,2.1,4,5.7c0,0,8,1.1,8.9,2.6c0,0,2.3-3.2,12.1-1.5s14.7,0.3,14.7,0.3l9.1,1l4.2-0.6
				c0,0,1.4-3.8,3-1.6s0,7.6,0,7.6l-3.5-1.1c0,0-12.2,1.5-18.8-1.9c-6.6-3.4-12-0.7-12-0.7l9.3,3.6c0,0-11.6-0.5-17.3-3.5
				c-5.8-3-3.7,5-3.7,5s-3.8,1.2-1.7,5.8c2.1,4.6-3,4.2-3,4.2s-5.6-6.8-3.5-10.5s-2.3-4.4-2.3-4.4l-3.2,4.9c0,0-5.5,0.8-5.6,5.9
				c0,0-2.4-7.6,2.2-13l-3.3-10c0,0,3-7.9,0.8-11.4s0.2-8.8,0.2-8.8l1-8.1c0,0-4-5.8,0.2-9C234.8,429.6,230.3,423.9,231,419.1z"/>
			<path class="st30" d="M232.1,288.2c0,0,8.2-0.5,9.4,1.1s0,2.9,0,2.9l-10.7-3.9L232.1,288.2z"/>
			<path class="st30" d="M234.6,295.9c0,0-1.3,3.6,0.7,3.4l-0.1,3.1l1.1-3.1l4.1,0.1l0.3-1.3L234.6,295.9z"/>
			<polygon class="st30" points="292.1,317.4 291.5,319.3 292.6,322.5 294.5,324.6 293.6,327.9 291.6,328.4 292.3,332.5 
				292.9,335.1 291.6,335.9 292,338.5 293.4,339.8 293,342 292.1,343.1 293.1,346.1 292.3,354.2 295.2,351.8 294.9,347.9 
				294.9,345.9 298.1,344.2 296.2,338 297.9,335.2 299.4,329.1 299,319.6 			"/>
			<polygon class="st30" points="305.5,322.4 304.9,324.8 307,326.3 308.9,330 307.8,330.7 310.1,336.5 308.4,345.9 309.1,351.3 
				308.4,354.9 307.8,361.4 309.1,361.2 306.4,365.1 306.9,370.6 306.5,373.9 307.3,382.3 306.1,386.9 306,392.2 306.6,398.9 
				304.8,402.2 304,403.4 303.9,321.7 			"/>
			<polygon class="st30" points="303.9,478 306.4,477.3 305.7,474.8 309.5,475.9 311.5,474.3 314,476.4 317.7,477.2 323.3,475.7 
				325.3,476.9 327.2,476.4 329.3,475.7 333.8,477.4 337.8,476.5 341,476.2 345.7,473.9 343.2,470.3 351.5,474.9 352.2,476.8 
				350.6,480.2 349.3,485.6 348.1,482.3 346.2,483.3 346.6,485.3 345.4,487 346.5,489.6 345.6,491.1 346.1,493.3 345.2,496.2 
				345.2,498.7 342,495.6 340.3,492.2 338.7,491.7 339.1,489.4 340.8,487.7 338.7,485.3 339.9,483.7 340.3,482.2 336.4,483.4 
				334.1,483.8 332,483.7 330.6,485.5 330.6,487.6 328.4,488.9 327.4,490.2 325.1,486.2 322.8,489 322.3,491.5 320.9,491.9 
				319.8,489.4 319.1,492.4 316.7,493.8 313.8,490.2 313.7,494.6 311.7,497.3 310,495.5 308.7,493.7 309.4,491.9 308.1,489.5 
				307,487.4 309.1,484.4 308.7,482.2 306.8,482.3 305.7,483.1 304.2,482.8 			"/>
			<path class="st30" d="M423,360.7v2l-2.2-0.2v2.2l1.4,3.8l1.1,4.1l0.1,3.2l0.5,1L423,381l-0.6,1.3l2,3.3l-0.7,1.5l-0.6,2.1l1,13.5
				l-2.1,1.5l-0.3,2.4l2,1.2l-1.1,3.1l1,1.8l-2,1.2l1.9,2.6l-1.8,3.4l1.3,1.5l-0.8,4.7l-0.1,3.1l1.4,1.1c0,0-0.8,2.6-0.8,2.7
				s-1.6,1.9-1.6,1.9l1,3.3l0.5,5.1l-1.7,2.2l1.2,2.7l0.6,5.6l-1.2,2.7l1.5,3.9c0,0-0.4,4.5-0.6,5.1s-1.5,2-1.5,2l0.9,2.2l-0.4,2.9
				l0.6,2.2l-0.6,2.3l1,4.2l0.2,1.8l-3.7-0.7l2.8,3.9L421,489l-1.4,0.8l0.8,3.5l-2-0.7l0.3,2.3l-1.1,2.9l0.9,2.2l2,2l2.5-1.1
				l1.2-4.3l2.6-1.2l-0.9-2.5l1.9-3.6c0,0,1.1-0.9,1.2-0.8s2.4,0,2.4,0l-0.1,5.3l2.4-1.5l2.3-2l1.8,0.5l2.6-1.7l1.3,1.5l2.1-1.1
				l2.4,0.5l1.6,1.4l0.2,3.5c0,0,1.7,0.8,2.3,0.7s2.9-2.2,2.9-2.2l1.4-2.4l1.9-1.4l1,1.4l1.6-2.8v-1.7l0.1-3.3l-4.6,1.4l-1.8-1.3
				l-1.8-0.6l-4.9,1.3l-1.5-0.9l-2.5-0.7l-3.8,0.7l-2-3.5l-4.1-3.1l-2.2,0.4l-0.8,1.6l2.2,2.1l-1.8,0.8l-1.2-0.9l0.6-3l-1.2-2.4
				l1.4-4.9l0.7-2.3l-1.5-3.6l-0.4-4.4l0.5-4.2l-2.2-3.9l-1.2-4.6l1.4-6.4l0.8-5c0,0-0.2-3.2,0-3.7s1.2-3.4,1.2-3.4l-0.4-6l3.1-13.2
				l-1.2-3.6l-0.2-3.4l0.9-2.1l0.9-4.7l-1.8-5.1l0.5-3.5l0.7-3.7c0,0-1.7-4-1.4-4.9c0.3-1-0.1-9-0.1-9l-2.2-3.9l0.2-3.3L423,360.7z"
				/>
			<polygon class="st30" points="422.7,356.5 422.9,349.3 424.3,353 424.4,356.5 426.2,355.7 427.6,354.7 426.9,357.2 			"/>
			<path class="st30" d="M461.9,462.9l2-5.7l2,4c0,0-0.7,2.8-0.7,3.1c0,0.3,1.1,1.3,1.3,1.5s-0.8,1.4-0.8,1.4l1.2,1.4l0.6,3.1
				l-0.6,0.9l-1.2,1.5l0.4,2.7l0.7,1.6l-0.9,0.8l0.6,1.2l-1.4,1.8l0.6,1.3l2.3,0.9l3.1,0.4l4.6,1l4.5,0.5l2.6,0.3l1.9-1.1l-0.1,2
				h1.8l0.3,1.9l3,1.2v1.5l-0.9,0.9l0.8,0.9l-2.3,2.7c0,0-0.6,0.8-0.6,0.9s0.4,2.1,0.2,2.7s-1.5,1.7-1.5,1.7s-1,0.1-0.9,0
				s-1.3-2.5-1.3-2.5s-0.9-1.6-1.1-1.8s-1.7-2.9-1.7-2.9l0.8-4.6l-2.6-0.9l1.1,1.8l-0.2,2.8c0,0-1.7,1.4-1.9,1.7
				c-0.2,0.3-1.5,1.7-1.6,1.9s-1.7,0.3-1.7,0.3l-2.2-3.7l-0.9-2.1l2.5-1.1l-1.1-1.5l-2.9-0.1v2.4l-2.6,1.7l-1.4,2.7l-2,0.8l-1.6-2.4
				c0,0-0.2-2.3-0.1-2.2S461.9,462.9,461.9,462.9z"/>
			<polygon class="st30" points="459.1,378.6 457,376.2 455.1,374 454,371.4 459.2,373.3 459.3,379.1 			"/>
			<polygon class="st30" points="454.9,367.8 456.4,367.2 453.5,366.4 452.1,366.3 453.4,366 457.1,366 459.3,365.9 459.3,369.4 			
				"/>
			<path class="st30" d="M461.9,366.3l1.3,1.2l2.3,0.3l1.5,0.2l0.5-1.4l0.5,0.3l-0.2,1.1l0.1,0.7l-0.3,0.6l-1.1-0.1l-1.2,0.1
				l-0.8,0.2l0.9,0.8l1.1-0.6l-0.1,1.7l-0.9,0.1l-1.3-0.8l-1-0.7l-1.4,0.1v-3.8L461.9,366.3L461.9,366.3z"/>
			<path class="st30" d="M462,375.2l1.2,0.8l3.6,2.2l-1.5,0.9l1.7,1.5l0.6,3.4l0.9,4.1v3.3l-1.2,1.2l1.2,5.1l0.3,1.3l-0.7,1.6
				l-1,1.7l0.6,3.6l0.7,1.4l-1.6,1.6c0,0-0.9,2.5-1,3.2s-0.4,4.2-0.4,4.2l1.6-1.3l-0.3,2l-0.1,2.4l-1.4,1.3l0.9,2.9l-0.7,2.1
				l0.7,2.8l-1.9,3.1l0.2,3l0.7,1.5l-1,2.6l-1.5,3.3l-0.1-4.1v-6.6l-0.7-2.4L462,375.2z"/>
		</g>
		
			<rect x="286.2" y="249.8" transform="matrix(0.347 -0.9379 0.9379 0.347 -104.6879 475.5567)" class="st27" width="5.9" height="126.4"/>
		<polygon class="st27" points="421.9,359.6 424.4,356.5 486,379.2 483.5,382.3 		"/>
		<rect x="299.1" y="147.4" class="st27" width="5.1" height="338.8"/>
		<rect x="459.3" y="235.4" class="st27" width="2.6" height="257.1"/>
	</g>
	<ellipse class="st31" cx="842.4" cy="62.2" rx="87.8" ry="33.5"/>
	<path class="st18" d="M542.6,533.6L98.7,523v29.8c148.6-1.9,295.4-3.7,444-5.6C542.6,542.7,542.6,538.1,542.6,533.6z"/>
	<g id="Stairs">
		<polygon class="st23" points="0,877.4 0,1014 183,1014 		"/>
		<polygon class="st23" points="16.4,480.1 16.4,889.6 31,900.5 31,493.2 		"/>
		<polygon class="st23" points="65.4,521.4 65.4,926.2 80,937.1 80,534.5 		"/>
		<polygon class="st23" points="114.4,565.1 114.4,962.8 129,973.7 129,578.2 		"/>
		<polygon class="st23" points="163.4,607.4 163.4,999.4 178,1010.3 178,620.3 		"/>
		<polygon class="st23" points="212.4,655.3 212.4,1016.5 227,1022.8 227,666.7 		"/>
		<polygon class="st23" points="263.8,701 263.8,1014.5 278.4,1022.8 278.4,711 		"/>
		<polygon class="st32" points="0,908.7 0,1014 141,1014 		"/>
		<line class="st33" x1="0" y1="961.4" x2="49" y2="941.8"/>
		<polygon class="st34" points="48.2,941.8 48.2,974.8 92.8,974.8 		"/>
		<polygon class="st34" points="1.4,908.7 1.4,941.7 46,941.7 		"/>
		<polygon class="st34" points="92.1,974.8 92.1,1007.7 136.7,1007.7 		"/>
		<line class="st33" x1="0" y1="1014" x2="97.2" y2="975.7"/>
		<line class="st33" x1="91.6" y1="1025.1" x2="140.7" y2="1005.5"/>
		<polygon class="st34" points="135,1006.3 135,1039.3 179.6,1039.3 		"/>
		<path class="st28" d="M0,439.2l291,250.2c10.3,0,20.7,0,31,0c8.6,2.7,14.6,9.7,15,17c0.5,10.1-9.9,20.9-24,20c-8.7-1-17.3-2-26-3
			c-95.7-86-191.3-172-287-258V439.2z"/>
	</g>
	<g id="Hanger">
		<path id="coatrack_shadow" class="st35" d="M1136.3,471.2l-6-69c-6.7-23.1-13.3-46.2-20-69.3c-0.2-0.9-0.9-3.4-3.3-5.4
			c-2.3-1.9-4.8-2.2-5.7-2.3c-1.1,0-2.8,0.3-4.7,1.3c-3.4,1.9-4.7,5-5,6c0,0.6,0,1.2,0,1.7l-15.7,13.6h-1
			c4.8-8.3,9.5-16.6,14.3-24.9c-1.5,0.7-2.9,1.5-4.4,2.2l-13.7,21.2v-11.6c-0.4-1.1-1.4-1.8-2.5-1.9c-1.2,0-2.3,0.7-2.7,1.9
			c0.1,3.8,0.1,7.6,0.1,11.4l-13-21.1c-1.2-0.5-2.5-0.9-3.8-1.4c4.4,8.1,8.8,16.2,13.2,24.2h-3l-16.9-15.4l0.9-11.6l-4.8,4.4h-13.1
			c-5,4.6-7.5,7.9-11.5,13.4c-1.8,5.5-3.3,11.1-3.2,16.6l8.4,10.1l-0.8,6.9l22.8-21.8l1-13.8c5.1,5.3,10.2,10.6,15.4,15.9h6.6h0.4
			l-8.8,347c-8.4,7.2-38.4,19.4-39.6,21.1c-0.1,0.2-0.5,0.8-0.4,1.3c0.2,0.6,1,0.9,1.5,1c8.6-5.8,28.8-11.8,37.4-17.6
			c-1.1,12.2-14.3,34.1-13.9,36c0,0.3,0.2,0.9,0.7,1.2c0.6,0.3,1.4-0.3,1.8-0.7c2.5-11.6,16.9-24.5,17-36.5c3.4,5.1-3.3,11.9,0.1,17
			c0.4,0.2,1,0.4,1.3,0.1c0.2-0.2,0.1-0.6,0.1-0.8c-0.2-0.7,4.1-11.8,1.2-17.5c0.9,6.9,7.4,16.5,14.5,22c0.5-0.1,1.3-0.3,1.5-0.9
			c0.2-0.6-0.2-1.2-0.3-1.4c-1.1-1.8-8.5-17.2-15.8-24.2l9.7-347.1h5.2c4.6-4.5,9.1-9,13.7-13.5c0,0.9,0,1.9-0.1,2.8
			c-2.3,18.7-3.2,32.7-3.5,36.3c-1.7,23.6-5.9,65.3-7.7,83.3c-1.3,13.5-3,33.1-4.7,57.3c0.6,2.7,1.7,7.7,3.3,12.7
			c0.4,1.2,1,2.9,2.3,4.7c1.3,1.6,2.7,2.7,3.7,3.3c1.5,0.7,3.7,1.4,6.3,1.7c1.8,0.2,3.4,0.1,4.7,0c0.4,0.5,3,3.9,7.7,4.3
			c0.4,0,0.8,0,1.2,0c0.8,0.6,1.7,1.1,2.9,1.4c2.6,0.5,4.7-0.9,5.3-1.3c2.4-2.3,4.9-4.7,7.3-7c3.6,0.5,6.5,0.7,8.7,0.7
			c2.8,0.1,3.8-0.1,4.7-0.3c2.9-0.8,4.9-2.5,6-3.7C1138.5,513.9,1137.4,492.5,1136.3,471.2z"/>
		<path class="st36" d="M1045.1,348.8h5.1V331c-0.4-1.1-1.4-1.8-2.5-1.9c-1.2,0-2.3,0.7-2.7,1.9
			C1045.1,336.9,1045.1,342.8,1045.1,348.8z"/>
		<path class="st37" d="M1050.1,698c2.8,5.5,11.4,22.3,11.7,23.6c0,0.2,0.1,0.6-0.1,0.8c-0.3,0.3-0.9,0.1-1.3-0.1
			c-5.3-8.1-10.6-16.2-16-24.2L1050.1,698z"/>
		<path class="st38" d="M1078.7,723.8c-1.1-1.8-19.7-19.9-27-26.9V344h-8v352.1c-8.4,7.2-26.3,22.8-27.5,24.5
			c-0.1,0.2-0.5,0.8-0.4,1.3c0.2,0.6,1,0.9,1.5,1c8.6-5.8,17.3-11.7,25.9-17.6c-1.1,12.2-3.2,34.1-2.8,36c0,0.3,0.2,0.9,0.7,1.2
			c0.6,0.3,1.4-0.3,1.8-0.7c2.6-12.1,5.1-24.2,7.7-36.3c9,6.9,18,13.7,26.9,20.6c0.5-0.1,1.3-0.3,1.5-0.9
			C1079.2,724.6,1078.8,724,1078.7,723.8z"/>
		<path class="st39" d="M1075.2,326.6l-20.2,17.5h-1c4.8-8.3,9.5-16.6,14.3-24.9c-1.5,0.7-2.9,1.5-4.4,2.2l-13.9,21.5h-4.6
			l-13.3-21.6c-1.2-0.5-2.5-0.9-3.8-1.4c4.4,8.1,8.8,16.2,13.2,24.2h-3l-19.2-17.5c-2.3-0.9-4.6-1.9-6.9-2.9
			c8.1,8.3,16.2,16.7,24.3,25.1h6.6h0.8h1.2h0.1h2.3h3.6h0.4h5.2c8.3-8.2,16.6-16.5,24.9-24.7
			C1079.6,324.9,1077.4,325.7,1075.2,326.6z"/>
		<path class="st40" d="M1071.7,328.1c-0.2,1.9-0.6,4.8-1,8.3l0,0c-2.4,19.5-3.4,34.2-3.7,38c-1.7,23.6-5.9,65.3-7.7,83.3
			c-1.3,13.5-3,33.1-4.7,57.3c0.6,2.7,1.7,7.7,3.3,12.7c0.4,1.2,1,2.9,2.3,4.7c1.3,1.6,2.7,2.7,3.7,3.3c1.5,0.7,3.7,1.4,6.3,1.7
			c1.8,0.2,3.4,0.1,4.7,0c0.4,0.5,3,3.9,7.7,4.3c5.5,0.5,9-3.6,9.3-4c2.8-1.4,5.5-2.8,8.3-4.2c1.1-21.1,1.4-43.5,0.7-67.1
			c-1.7-53.7-8.4-101.8-17.1-143.3c-0.7,1-2.8,3.5-6.5,4.6C1074.9,328.5,1072.9,328.3,1071.7,328.1z"/>
		<path class="st41" d="M1070.7,328.8c0.3-1,1.6-4.1,5-6c1.9-1,3.6-1.3,4.7-1.3c0.9,0.1,3.4,0.4,5.7,2.3c2.4,2,3.1,4.5,3.3,5.4
			c6.7,23.1,13.3,46.2,20,69.3l6,69c1.1,21.3,2.2,42.7,3.3,64c-1.1,1.2-3.1,2.9-6,3.7c-0.9,0.2-1.9,0.4-4.7,0.3
			c-2.2,0-5.1-0.2-8.7-0.7c-2.4,2.3-4.9,4.7-7.3,7c-0.6,0.4-2.7,1.8-5.3,1.3c-2-0.4-3.3-1.6-4.3-2.7c-2.1-2.1-2.9-4.5-3.3-6
			c-4.3-41.2-7.3-85.1-8.3-131.7C1070.1,377.3,1070.1,352.6,1070.7,328.8z"/>
		<line class="st42" x1="1089.4" y1="356.5" x2="1104.4" y2="478.5"/>
		<line class="st42" x1="1086.2" y1="357.9" x2="1093.5" y2="469.6"/>
		<line class="st42" x1="1098.6" y1="531.2" x2="1095.2" y2="482.6"/>
		<line class="st43" x1="1075.2" y1="533.5" x2="1071.7" y2="480.3"/>
	</g>
	<g id="Hat">
		<path class="st44" d="M993.1,334.9c-1.8,5.5-3.3,11.1-3.2,16.6l8.4,10.1l-0.8,6.9l22.8-21.8l2.2-29.6l-4.8,4.4h-13.1
			C999.6,326.1,997.1,329.4,993.1,334.9z"/>
		<polygon class="st45" points="1004.1,324.1 1000.4,337.5 991.3,348.7 994.4,335.6 		"/>
		<line class="st46" x1="1008.6" y1="353.4" x2="1017.4" y2="344.8"/>
		<line class="st46" x1="1018" y1="333.9" x2="1017.1" y2="345.1"/>
	</g>
	<g id="Stool">
		<g id="Layer_3">
			<line class="st47" x1="552.5" y1="698.2" x2="704.9" y2="698.2"/>
			<path class="st48" d="M558,646.4c-4.5,17.9-18.1,72.8-18,77.1c0,0.5,0.1,1.9,0.9,2.5c1,0.8,2.7,0,3.6-0.5
				c9.9-26.6,19.9-53.1,29.8-79.7L558,646.4z"/>
			<path class="st48" d="M690.6,652.2c6.3,20.7,21.4,70,23.7,73c0.2,0.3,1,1.4,1.8,1.2c1-0.2,1.8-1.9,2.2-3
				c-5.2-26.1-10.3-52.1-15.5-78.2C698.8,647.6,694.7,649.9,690.6,652.2z"/>
			<line class="st49" x1="558.4" y1="706.4" x2="703.5" y2="706.4"/>
			<line class="st49" x1="558.4" y1="704" x2="702.3" y2="704"/>
			<line class="st49" x1="558.8" y1="701.8" x2="701" y2="701.8"/>
			<line class="st49" x1="557.6" y1="707.9" x2="703.5" y2="707.9"/>
			<rect x="552.5" y="642.1" class="st50" width="158" height="11.4"/>
		</g>
		<line class="st47" x1="550.3" y1="709.8" x2="708.7" y2="709.9"/>
		<line class="st47" x1="559.5" y1="698.2" x2="557.2" y2="709.8"/>
		<line class="st47" x1="700" y1="698.2" x2="704.7" y2="709.8"/>
		<line class="st51" x1="628.7" y1="698.2" x2="628.7" y2="709.8"/>
		<polygon class="st52" points="562.1,583.6 554.3,587.7 546.3,598.7 547.2,628.8 556.2,641 565.4,638.3 564,635.3 556,638 
			549.1,627.6 547.3,598 554.6,588.2 562.3,584.6 564,582.2 		"/>
		<polygon class="st53" points="577.6,582.5 565.2,585.6 550.8,599.7 550.5,634 560.3,642.1 570,638.5 569.1,636.6 560.4,640 
			553,632.6 552.7,609 552.6,599 565.7,586.5 577.5,584 580.4,581.1 		"/>
		<path class="st54" d="M567,578.6c-0.9,1.1-6.9,8.9-7.8,10c-2.4,3.1-2.6,3.3-2.6,3.4c-2.7,3.5-3.7,15.4,2.4,50.1h22.3l-1.7-45.6
			L567,578.6z"/>
		<polygon class="st55" points="591.5,579.7 567,578.6 579.5,596.5 581.2,642.1 608.9,642.1 610.5,596.6 596.4,579.2 		"/>
		<polygon class="st56" points="579.5,596.5 599.6,604.8 610.5,596.6 596.4,579.2 567,578.6 		"/>
		<path class="st57" d="M599.1,600.2l-1.3,4.9l2,4.4l1.6-4.9L599.1,600.2z"/>
		<g id="Layer_4">
			<path class="st58" d="M641,677.4c0.7-0.7,2-1.9,4.2-2.8c2.1-0.8,4-1,5-1c1.1,0,3.6,0.3,6,1.7c1.2,0.7,2.1,1.5,2.6,2.2
				c1.3,8.1,2.5,16.2,3.8,24.4c-0.3,0.9-1,3.2-3.4,5.1c-2.9,2.4-6.4,2.8-7.4,3c-1.8-0.3-5.5-1.2-8.9-3.8c-2-1.5-3.1-3.1-3.8-4.3
				C639.8,693.6,640.4,685.5,641,677.4z"/>
			<path class="st58" d="M666.9,677.4c1-0.7,2.4-1.6,4.2-2.3c1.9-0.8,3.7-1.2,5-1.5c1.1,0.1,2.5,0.4,4,1c2.3,0.9,3.8,2,4.6,2.8
				c1.3,8.1,2.5,16.2,3.8,24.4c-0.4,1-1.5,3.2-4,5.1c-2.7,2-5.5,2.7-6.8,3c-1.6-0.3-5-1-8.3-3.3c-2.4-1.7-3.7-3.6-4.4-4.8
				C665.7,693.6,666.3,685.5,666.9,677.4z"/>
			<path class="st59" d="M642.4,702.1c2.8,0.7,5.6,1.3,8.4,2c2.9-0.7,5.7-1.4,8.6-2.1c-0.9-7.8-1.8-15.7-2.8-23.5
				c-0.5-0.5-1.4-1.2-2.6-1.8c-1.4-0.7-2.7-0.9-3.5-1c-0.8,0-2,0.2-3.3,0.7c-1.5,0.6-2.5,1.3-3.1,1.8
				C643.5,686.1,643,694.1,642.4,702.1z"/>
			<path class="st59" d="M667.9,701.2c3,1.7,5.9,3.4,8.9,5.2c3-2,6-4,9.1-6c-1-6.8-2-13.6-3-20.3c-0.3-0.5-0.9-1.7-2.4-2.5
				c-2-1.1-3.9-0.9-4.5-0.8c-0.6,0-2.6-0.1-4.5,1.2c-1.5,1-2.2,2.3-2.4,2.8C668.7,687.6,668.3,694.4,667.9,701.2z"/>
			<path class="st60" d="M639.3,700l11.6-5.5l11.5,5.5c0.1,0.6,0.4,4.1-2.9,7c-3,2.6-6.9,2.8-7.6,2.8c-0.9,0-5.7-0.2-9.3-3.5
				C639.8,703.9,639.4,701,639.3,700z"/>
			<path class="st60" d="M665.3,699.6l11.6-5.5l11.5,5.5c0.1,0.6,0.4,4.1-2.9,7c-3,2.6-6.9,2.8-7.6,2.8c-0.9,0-5.7-0.2-9.3-3.5
				C665.8,703.4,665.4,700.5,665.3,699.6z"/>
			<polygon class="st61" points="650.9,700.4 654.6,696.3 650.9,694.6 647.5,696.2 			"/>
			<polygon class="st61" points="676.7,700 680.5,695.9 676.8,694.1 673.3,695.7 			"/>
		</g>
	</g>
	<g id="Carpet_1_">
		<ellipse id="Carpet" class="st62" cx="849.4" cy="746.4" rx="132.3" ry="36.1"/>
		<ellipse id="CIRCLE_DETAIL" class="st63" cx="849.4" cy="746.4" rx="123.6" ry="28.4"/>
	</g>
	<polygon class="st18" points="1158,537.3 1575.7,525.1 1575.7,552.5 1157.9,547.3 	"/>
	<polygon class="st64" points="1498.5,464.5 1187.8,488.6 1187.8,298.8 1498.5,88.6 	"/>
	<polygon class="st65" points="1488.9,453.3 1192.1,481.2 1192.1,305.4 1488.9,110.7 	"/>
	<g id="Layer_5">
		<path class="st66" d="M1196.8,481c-2.9-34.2-3.3-48.2-2.7-52.6c0.1-0.8,0.1-3.4,1.1-7.2c0.7-3,1.1-6,1.3-9c0.2-2.7,1.2-4.8,3-6.3
			c7.4-6.5,15.1-13.3,23.3-20.2c0,0,1.4-1.2,3-3.4c2-2.9,2-4.5,1.9-4.9c0-0.3-0.1-0.5-0.2-0.8c-1.2-4-2.6-6.7-2.6-6.7
			c-0.8-1.7-1.1-2.3-1.6-2.4c-2-0.4-2.1-2.3-2.2-4.5c-0.1-3.6-0.8-6.9-1.3-10.3c-0.1-0.6-0.4-1.1-0.2-1.8c0.5-1.9,0.1-3.3-0.5-4.7
			c-0.7-1.7-1.3-3.4-1.5-5.5c-0.7-6.8-0.6-13.6,3.3-21.2c2.1-4.2,4.4-6.9,6.9-9.7c1.8-2,5.9-6.7,11.4-9.5c3.3-1.7,6.1-2.2,7-2.4
			c1.2-0.2,2.2-0.5,2.8-0.3c2.1,0.7,3.7-0.1,5.1,0.7c0.8,0.4,1.3,1,2.7,1.4c0.3,0.1,0.7,0.2,1.3,0.3c1.8,0.2,2.3-0.4,2.9,0.1
			s0.9,1.5,1,3c0.1,1.2,0.2,2.5,0.7,3.3c0.9,1.3,0.9,3.2,1.2,4.9c0.5,2.3,0.9,4.6-0.3,7.5c-0.1,0.1-0.1,0.3-0.1,0.4
			c0.8,2-0.2,4.4-0.9,6.7c-0.4,1.4-0.4,2.9,0.4,3.4s1.1,1.3,1.1,2.5c0,4,0.1,8-0.1,12.1c-0.2,3.4-2.6,6.6-2.7,6.9
			c-1.2,2.3-2,2.9-2.5,4.8c-0.6,2.4-0.1,4.3,0.1,4.9c0,0,0,0.1,0.1,0.2c1,2.8,5.8,5.4,9.7,8.3c0.8,0.6,1.9,1.3,3.6,2.5
			c0.8,0.5,1.5,1.2,2.5,1.4c4.6,1.1,9.5,1.8,14.5,2.6c-1-0.9-2.3-2.3-2.4-4.5c0-0.7,0-1.6,1.6-5.9c2-5.7,3.1-7.3,2.6-9
			c-0.3-1-0.8-0.9-1.1-2.3c-0.3-1.3-0.3-2.7,0-4.5c0.5-2.5,1.3-5.2,1.4-7.6c0.2-4,1.9-7.5,4.4-11c2.9-4.2,4.6-4.5,6.2-7.8
			c0.8-1.6,1-2.8,1.3-4.2c1.3-6.6-0.1-8.8,1-14.5c0.1-0.3,0.3-0.6,0.4-0.9c2.7-5.7,5.6-11.4,9-17.1c5.6-9.5,10.8-19.4,17.7-29.1
			c6.1-8.6,11.8-11.6,15-13.4c1.4-0.8,2.7-1.4,5.4-2.6c6.4-2.8,10.9-5.4,14.7-5.4c10.8-0.3,18.7,4,23,12.9
			c5.5,11.5,3.3,17.5,10.2,21.4c5.5,3.1,6.9,3.7,6.9,3.7c3.5,1.6,6.2,2.3,7.5,5.3c0.3,0.8,0.5,1.6,0.8,2.9c0.6,2.9,0.8,4.3,0,6
			c-1,2-2,2.2-2.6,3.6c-1.7,4.1,5.7,7.4,12.8,10.6c0.7,0.3,2.6,0,3.2,1.5c1,2.7,3.9,3.3,6.6,4c7.7,2,9.3,7.8,3.7,15.4
			c-0.2,0.3-0.5,0.6-0.6,1.1c-1.1,2.5,1.8,2.9,2.5,5.7c0.1,0.5-0.5,3.2-1.6,8.7c-0.4,2-0.4,2.1-0.4,2.3c0.4,3.2,5.7,3.1,9.2,4.3
			c4.3,1.5,7.3,4.4,7.2,11.5c-0.2,11.1,0.2,22-0.1,33c-0.2,7.3-0.1,14.5-2.1,22c-4.1,15.5-9.4,30.4-16.3,44.9
			c-0.4,0.9-0.9,1.6-1.6,2c-1.2,0.7-2.6,0.7-2.8,0.8C1429.5,459,1302.5,471,1196.8,481z"/>
		<g id="Layer_6">
			<g id="_x37_hattf.tif">
				<g>
					<path class="st66" d="M1382.1,463.7c0-11.4,0-22.8,0-34.1c1.3-3.1,3.2-5.6,5.5-7.8c5.5-5.5,11.7-9.7,18.2-13.6
						c5.4-3.3,10.9-6.6,16.1-11c7.4-6.2,11.3-14,11.1-23.7c-0.1-2.4-0.6-4.5-2.1-5.8c-3.7-3.2-5.7-7.7-6.5-13
						c-0.1-0.6-0.3-1.7-1.3-2.6s-1.8-0.4-3-1.2c-1.2-0.8-1.8-2-2.2-3.4c-0.4-1.4-0.6-2.9-0.7-4.5c-0.2-3.1,0-6.1,2.5-9
						c0.3-0.4,0.1-0.6,0.1-0.9c-0.4-2.7-0.8-5.4-1.2-8.1c-0.4-3.3-1-6.5-0.5-10.1c1.5-11.2,6.9-20.6,16.2-28.3
						c6.2-5.1,12.9-8.1,19.8-10.5c6-2.1,12-3.2,17.5-2.2c11,2,16.9,9.4,16.4,22.6c-0.2,4.8-1.2,9.9-2,14.9c-0.2,1.4-0.5,2.6,0.9,3.2
						c0.8,0.3,1.2,1.2,1.5,2.1c1.1,2.7,0.6,5.9,0.1,9c-0.6,3.9-2.1,7.3-5.9,9.7c-1.4,0.9-2.2,2.4-2.4,3.9
						c-1.1,6.8-3.5,13.1-8.1,18.9c-1.4,1.8-2.1,3.9-2.1,6c-0.4,9.2,2.5,16.1,10.1,19.9c4.1,2.1,5.5,1.8,7.3,2.9
						c4.5,2.8,2.6,10.6,2.4,33c-0.1,11.8-0.2,17.8-0.1,18.4c-0.1,4.1-0.9,11-0.8,14.9c0,0.2-3.8,0.6-4.3,0.6
						c-6.5,0.3-13,1.5-19.5,1.8c-1.3,0.1-4.8,0.4-11.9,1.1c-7,0.7-11.6,1.3-17,1.9c-6,0.7-15.7,1.8-23.6,2.6
						C1404.9,461.9,1394.7,462.8,1382.1,463.7z"/>
				</g>
			</g>
		</g>
	</g>
	<ellipse class="st67" cx="1493.3" cy="103.2" rx="3.2" ry="6.2"/>
	<ellipse class="st67" cx="1493.4" cy="457.2" rx="3.3" ry="5.5"/>
	<ellipse class="st67" cx="1189.8" cy="304.6" rx="0.8" ry="3.8"/>
	<ellipse class="st67" cx="1190" cy="483.8" rx="0.8" ry="3.1"/>
	<g id="Rat" transform="matrix(0.98542783,0,0,0.98542783,133.65514,-61.375923)">
		
			<linearGradient id="path6480_2_" gradientUnits="userSpaceOnUse" x1="-15998.3691" y1="-945.5367" x2="-16049.4492" y2="-1011.5706" gradientTransform="matrix(0.4191 0 0 0.4191 7742.1108 1211.1003)">
			<stop  offset="0" style="stop-color:#2A1B12"/>
			<stop  offset="1" style="stop-color:#CDCCCC"/>
		</linearGradient>
		<path id="path6480_1_" class="st68" d="M979.2,779.6c0,0,5.4-8.1,6-8.2c0.6-0.1-0.4-0.4,0-1c0.4-0.4,0.6-1,1.4-1
			c0.4,0,1.4-0.6,1.4-0.6s1.7-0.6,1.9-1s2.4-1.8,2.4-2.4s0.4-5.8,0.6-6.3c0.4-0.6,0.4-1.8,0.6-1.8c0.1,0,3.6,5.4,3.5,5.4
			c0,0.4,3.6,0.4,3.6,0.4h2.4c0,0,0.6-1.8,1.4-1.8c0.6,0,1.4-1,2.6-0.6c1.4,0.4,2.4,0.4,2.4,0.4s0.4-0.4,0.6-0.6
			c0.6-0.4,6-3.1,7.5-3.1c1.4,0,5.8-0.4,7.8,1.8c1.9,2.2,6,5.8,7.1,7.6c0.6,1.8,2.6,3.9,3.5,3.9c0.4,0,7.1-0.6,7.1-1
			c0-0.1,0-0.4,0-0.4c-0.1-0.8-1.1-1.4-1.4-1.5c-2.4-1-4.2-1.9-5.4-2.6c-0.8-0.4-1.8-1.3-3.5-1.8c-1-0.3-1.9-0.6-2.5-0.6
			c2.4,0,5.8,0.3,9.6,1.7c2.1,0.7,3.9,1.7,5.3,2.5c0.4,0.7,1.3,1.8,1,3.1c0,0.1-0.3,0.8-1,1.4c-2.2,1.9-7.1,2.6-8.1,2.8
			c0,0,0,0-0.1,0c-0.4,0.3,0.6,2.4,0.6,2.4s1.4,5.4,0.4,7.2c-0.6,1.8-1.9,5.8-3.6,7.6c-1.9,1.8-4,4.9-5,5.3
			c-0.6,0.4,1.9,0.6,2.4,0.4c0.4,0,1.7-0.4,1.7-0.4c0,0.4,1.9,1.8,2.4,1.8c0.4,0,0,1-0.6,1c-0.4-0.4-1.4-0.4-1.4-0.4l1.4,1.8
			c0,0-0.4,1.8-0.4,1c-0.4,0-1.7-0.6-1.9-1c0-0.4-0.6-1-0.6-1l0.4,1.8c0,0-0.4,1-0.6,1c-0.1,0-0.6,0-1.4-0.4
			c-0.4-0.7-0.4-2.1-0.7-2.1c-0.4,0-0.4,0.6-0.4,1s-0.4,0.6-0.4,0.6c-0.4-0.4-1.4-0.4-1.4-1s0-1.9-0.6-1.8c-0.6,0.4-1.4,1.8-1.4,1.9
			c0,0.4-0.4,5.4-0.4,5.4s0,4.9,0.4,5.3s3.5,1.8,3.5,1.8c0,0.4-0.4,0.6-0.6,0.6c-0.4,0-2.6-0.4-2.6-0.4s-0.4,0.6,0,1s0.4,1.8,0,1.8
			s-0.6,0.6-0.6,0.4c0-0.4-0.4-1.9-0.6-1.8c-0.6,0.4-1.4,1.9-1.9,1.8c-0.4,0-0.6-0.4-0.4-0.6c0.4-0.4,1.7-2.4,1.4-1.9
			c-0.4,0-2.6,1.9-3.6,1.8c-0.4,0-1.7-0.4-1.4-0.6c0.4-0.4,3.5-1.9,3.5-1.9s0.6-3.5,0.4-3.5c-0.4,0,0-2.4,0-2.8s-4-8.2-5-8.2
			s-9.5-3.1-11.1-1.8c-1.7,1.8-7.1,7.6-7.1,9.3c0,1.8,0.6,3.1,0.4,3.5s-0.6,0.4-0.6,0s-0.6,0.6-0.4,1.8c0.4,1,0.4,2.8,0,2.8
			c-0.6,0-1.4-1.8-1.7-1.8s-0.4,0-0.6,0.4c-0.4,0.4-0.6,1.8-1.7,1.9c-0.6,0.4-0.6-0.6-0.4-1c0.4-0.4,0.6-1,0.4-1
			c-0.4,0.4-1.7,1.8-2.4,1.8c-0.4,0-0.6-0.4-0.4-0.4c0.4-0.4,1.7-1.9,1.7-1.9s-1.9,0.6-1.4,0s1.9-1.9,1.7-1.9s1.7,0,1.7-0.4
			s0.4-3.1,0.4-3.5c-0.4-0.4,0.4-1,0-1.9c-0.6-4.9,0.6-8.6-2.6-17c-3.5-0.4-5-0.4-7.5-1.8c-1-0.6-2.4-1.5-3.6-2.8
			C980.9,782.2,979.9,780.7,979.2,779.6z"/>
		
			<linearGradient id="path6480_3_" gradientUnits="userSpaceOnUse" x1="-15998.3574" y1="-946.7138" x2="-16049.4375" y2="-1012.7477" gradientTransform="matrix(0.4191 0 0 0.4191 7742.1108 1211.1003)">
			<stop  offset="0" style="stop-color:#2A1B12"/>
			<stop  offset="1" style="stop-color:#CDCCCC"/>
		</linearGradient>
		<path id="path6480" class="st69" d="M979.2,779.1c0,0,5.4-8.1,6-8.2c0.6-0.1-0.4-0.4,0-1c0.4-0.4,0.6-1,1.4-1
			c0.4,0,1.4-0.6,1.4-0.6s1.7-0.6,1.9-1s2.4-1.8,2.4-2.4c0-0.6,0.4-5.8,0.6-6.3c0.4-0.6,0.4-1.8,0.6-1.8c0.1,0,3.6,5.4,3.5,5.4
			c0,0.4,3.6,0.4,3.6,0.4h2.4c0,0,0.6-1.8,1.4-1.8c0.6,0,1.4-1,2.6-0.6c1.4,0.4,2.4,0.4,2.4,0.4s0.4-0.4,0.6-0.6
			c0.6-0.4,6-3.1,7.5-3.1c1.4,0,5.8-0.4,7.8,1.8c1.9,2.2,6,5.8,7.1,7.6c0.6,1.8,2.6,3.9,3.5,3.9c0.4,0,7.1-0.6,7.1-1
			c0-0.1,0-0.4,0-0.4c-0.1-0.8-1.1-1.4-1.4-1.5c-2.4-1-4.2-1.9-5.4-2.6c-0.8-0.4-1.8-1.3-3.5-1.8c-1-0.3-1.9-0.6-2.5-0.6
			c2.4,0,5.8,0.3,9.6,1.7c2.1,0.7,3.9,1.7,5.3,2.5c0.4,0.7,1.3,1.8,1,3.1c0,0.1-0.3,0.8-1,1.4c-2.2,1.9-7.1,2.6-8.1,2.8
			c0,0,0,0-0.1,0c-0.4,0.3,0.6,2.4,0.6,2.4s1.4,5.4,0.4,7.2c-0.6,1.8-1.9,5.8-3.6,7.6c-1.9,1.8-4,4.9-5,5.3
			c-0.6,0.4,1.9,0.6,2.4,0.4c0.4,0,1.7-0.4,1.7-0.4c0,0.4,1.9,1.8,2.4,1.8c0.4,0,0,1-0.6,1c-0.4-0.4-1.4-0.4-1.4-0.4l1.4,1.8
			c0,0-0.4,1.8-0.4,1c-0.4,0-1.7-0.6-1.9-1c0-0.4-0.6-1-0.6-1l0.4,1.8c0,0-0.4,1-0.6,1c-0.1,0-0.6,0-1.4-0.4
			c-0.4-0.7-0.4-2.1-0.7-2.1c-0.4,0-0.4,0.6-0.4,1s-0.4,0.6-0.4,0.6c-0.4-0.4-1.4-0.4-1.4-1s0-1.9-0.6-1.8c-0.6,0.4-1.4,1.8-1.4,1.9
			c0,0.4-0.4,5.4-0.4,5.4s0,4.9,0.4,5.3c0.4,0.4,3.5,1.8,3.5,1.8c0,0.4-0.4,0.6-0.6,0.6c-0.4,0-2.6-0.4-2.6-0.4s-0.4,0.6,0,1
			s0.4,1.8,0,1.8s-0.6,0.6-0.6,0.4c0-0.4-0.4-1.9-0.6-1.8c-0.6,0.4-1.4,1.9-1.9,1.8c-0.4,0-0.6-0.4-0.4-0.6c0.4-0.4,1.7-2.4,1.4-1.9
			c-0.4,0-2.6,1.9-3.6,1.8c-0.4,0-1.7-0.4-1.4-0.6c0.4-0.4,3.5-1.9,3.5-1.9s0.6-3.5,0.4-3.5c-0.4,0,0-2.4,0-2.8c0-0.4-4-8.2-5-8.2
			s-9.5-3.1-11.1-1.8c-1.7,1.8-7.1,7.6-7.1,9.3c0,1.8,0.6,3.1,0.4,3.5s-0.6,0.4-0.6,0s-0.6,0.6-0.4,1.8c0.4,1,0.4,2.8,0,2.8
			c-0.6,0-1.4-1.8-1.7-1.8s-0.4,0-0.6,0.4c-0.4,0.4-0.6,1.8-1.7,1.9c-0.6,0.4-0.6-0.6-0.4-1c0.4-0.4,0.6-1,0.4-1
			c-0.4,0.4-1.7,1.8-2.4,1.8c-0.4,0-0.6-0.4-0.4-0.4c0.4-0.4,1.7-1.9,1.7-1.9s-1.9,0.6-1.4,0s1.9-1.9,1.7-1.9s1.7,0,1.7-0.4
			s0.4-3.1,0.4-3.5c-0.4-0.4,0.4-1,0-1.9c-0.6-4.9,0.6-8.6-2.6-17c-3.5-0.4-5-0.4-7.5-1.8c-1-0.6-2.4-1.5-3.6-2.8
			C980.9,781.8,979.9,780.3,979.2,779.1z"/>
		<path id="path6482" class="st70" d="M992.3,772.9c0,0,0.6-1,0.6-1.8c0-0.4,1.7-1,1.9-1s1.9,1,1.9,1.9c0,0.6,0.4,1.9-0.4,1.9
			c-0.6,0.4-1.9,0.6-2.6,0C993.3,773.7,992.3,772.9,992.3,772.9L992.3,772.9z"/>
		<path id="path6484" class="st71" d="M981.9,781.9c0,0,1.7-0.4,1.7-0.6c0-0.4,0-2.4-0.4-2.4s-1.9-0.6-2.4-0.4
			c-0.4,0.4-0.4,0-0.6,0.4c-0.4,0.4,0,1.8,0,1.9c0.4,0.4,0.4,1,0.6,1C981.3,781.9,981.9,781.9,981.9,781.9L981.9,781.9z"/>
		<path id="path6496" class="st72" d="M987.1,768.7l-1.7,1.9c0,0-0.4-0.4-0.4-0.6c0-0.4,0.6-1,0.6-1L987.1,768.7L987.1,768.7z"/>
		<path id="path6498" class="st73" d="M1038.2,774.7L1038.2,774.7c0.1,0.1,0.3-0.6,0.3-0.6l2.2-0.6c1.1-0.4,2.2-1,3.3-1.4
			c0.7-0.7,1.4-1.3,2.1-1.9c-0.1-0.8-0.4-1.7-0.6-2.5l-1.1-1.1l-3.5-2.2c-1.9-0.6-4.3-1.1-6.9-1.4c-1.4-0.1-2.8-0.1-4-0.1
			c1.7,0.3,3.8,0.8,6,1.8s4,2.1,5.3,3.1c0.6,0.4,1.1,0.8,1.7,1.4c-1,0.4-1.9,0.8-2.9,1.3c-1.5-0.4-1.9,0-2.1,0.1
			C1037,771.4,1038.2,774,1038.2,774.7z"/>
	</g>
	<ellipse class="st74" cx="842.4" cy="71" rx="58.8" ry="22.4"/>
	
		<radialGradient id="SVGID_7_" cx="842.4" cy="1603" r="32.6546" gradientTransform="matrix(1 0 0 -1 0 1674)" gradientUnits="userSpaceOnUse">
		<stop  offset="0" style="stop-color:#FFFFFF"/>
		<stop  offset="1.446936e-02" style="stop-color:#FFFEFC"/>
		<stop  offset="0.2537" style="stop-color:#FFF3CA"/>
		<stop  offset="0.4794" style="stop-color:#FFEAA2"/>
		<stop  offset="0.6854" style="stop-color:#FFE486"/>
		<stop  offset="0.8649" style="stop-color:#FFE075"/>
		<stop  offset="0.998" style="stop-color:#FFDF6F"/>
	</radialGradient>
	<ellipse class="st75" cx="842.4" cy="71" rx="42.4" ry="18.3"/>
</g>
<path class="st76" d="M731,260v440.4h238V260H731z M954.2,700.3H744.6V273h209.6L954.2,700.3L954.2,700.3z"/>
<rect x="1575.2" class="st14" width="86.8" height="524.7"/>
<path class="st20" d="M1156.6,193"/>
<polygon class="st28" points="219.5,490.9 228.4,491.6 228.4,104.7 219.5,104.7 "/>
<path class="st17" d="M540,273"/>
</svg>
