<svg id="Layer_1" data-name="Layer 1" xmlns="http://www.w3.org/2000/svg" xmlns:xlink="http://www.w3.org/1999/xlink" viewBox="0 0 1662 1013.8">
  <defs>
    <style>
      .cls-1,
      .cls-20,
      .cls-35,
      .cls-43,
      .cls-44,
      .cls-47,
      .cls-48,
      .cls-50,
      .cls-52 {
        fill: none;
      }
      .cls-2 {
        fill: #7a6551;
        stroke: #2d1e11;
      }
      .cls-11,
      .cls-18,
      .cls-19,
      .cls-2,
      .cls-20,
      .cls-21,
      .cls-22,
      .cls-32,
      .cls-33,
      .cls-35,
      .cls-36,
      .cls-37,
      .cls-38,
      .cls-39,
      .cls-40,
      .cls-41,
      .cls-42,
      .cls-43,
      .cls-44,
      .cls-45,
      .cls-47,
      .cls-48,
      .cls-49,
      .cls-5,
      .cls-50,
      .cls-51,
      .cls-52,
      .cls-53,
      .cls-54,
      .cls-55,
      .cls-56,
      .cls-57,
      .cls-58,
      .cls-59,
      .cls-6,
      .cls-7,
      .cls-76,
      .cls-77,
      .cls-9 {
        stroke-miterlimit: 10;
      }
      .cls-3 {
        fill: #b79c80;
      }
      .cls-4 {
        fill: #937f6d;
      }
      .cls-11,
      .cls-20,
      .cls-21,
      .cls-22,
      .cls-32,
      .cls-33,
      .cls-36,
      .cls-37,
      .cls-38,
      .cls-39,
      .cls-40,
      .cls-41,
      .cls-42,
      .cls-45,
      .cls-49,
      .cls-5,
      .cls-51,
      .cls-55,
      .cls-56,
      .cls-57,
      .cls-59,
      .cls-6,
      .cls-76,
      .cls-77,
      .cls-9 {
        stroke: #000;
      }
      .cls-5 {
        fill: url("#radial-gradient");
      }
      .cls-6 {
        fill: #f0f7f7;
      }
      .cls-7 {
        stroke: #7c726c;
        fill: url("#Floor_1_");
      }
      .cls-8 {
        fill-opacity: 0.3;
        stroke: #010101;
        fill: url("#radial-gradient-2");
      }
      .cls-75,
      .cls-8 {
        stroke-linejoin: round;
      }
      .cls-11,
      .cls-22,
      .cls-41,
      .cls-45,
      .cls-50,
      .cls-55,
      .cls-56,
      .cls-57,
      .cls-8,
      .cls-9 {
        stroke-width: 0.75px;
      }
      .cls-9 {
        fill: url("#linear-gradient");
      }
      .cls-10 {
        fill: url("#linear-gradient-2");
      }
      .cls-11 {
        fill: #777677;
      }
      .cls-12 {
        fill: #fcecac;
      }
      .cls-13 {
        fill: url("#linear-gradient-3");
      }
      .cls-14 {
        fill: #a89856;
      }
      .cls-15 {
        fill: url("#linear-gradient-4");
      }
      .cls-16 {
        fill: url("#linear-gradient-5");
      }
      .cls-17,
      .cls-19 {
        fill: #c1c1c1;
      }
      .cls-18 {
        fill: #fff;
      }
      .cls-18,
      .cls-19 {
        stroke: #494444;
      }
      .cls-21 {
        fill: #99623d;
      }
      .cls-22 {
        fill: #e2c675;
      }
      .cls-23,
      .cls-33 {
        fill: #895e3b;
      }
      .cls-24 {
        fill: #513420;
      }
      .cls-25 {
        fill: #e6f5ff;
      }
      .cls-26 {
        fill: #76bf6d;
      }
      .cls-27 {
        fill: #995d34;
      }
      .cls-28 {
        fill: #846144;
      }
      .cls-29,
      .cls-36 {
        fill: #754a2d;
      }
      .cls-30 {
        fill: #d2f1ff;
      }
      .cls-31 {
        fill: #5b8852;
      }
      .cls-32 {
        fill: #705746;
      }
      .cls-34 {
        fill: #aa7d55;
      }
      .cls-35 {
        stroke: #895f3b;
      }
      .cls-37 {
        fill: #4c301c;
      }
      .cls-37,
      .cls-38,
      .cls-39,
      .cls-40,
      .cls-53,
      .cls-54,
      .cls-58 {
        stroke-width: 0.5px;
      }
      .cls-38 {
        fill: #7a543f;
      }
      .cls-39,
      .cls-49 {
        fill: #a0775c;
      }
      .cls-40 {
        fill: #ba8d6e;
      }
      .cls-41 {
        fill: #526677;
      }
      .cls-42 {
        fill: #3c5268;
      }
      .cls-43 {
        stroke: #526778;
      }
      .cls-44 {
        stroke: #3c5268;
      }
      .cls-45 {
        fill: #493b31;
      }
      .cls-46 {
        fill: #5b4a3f;
      }
      .cls-47 {
        stroke: #5c4a3f;
      }
      .cls-48,
      .cls-50,
      .cls-52 {
        stroke: #1e1e1e;
      }
      .cls-51 {
        fill: #7f5334;
      }
      .cls-52 {
        stroke-width: 2px;
      }
      .cls-53,
      .cls-54 {
        fill: #9b5699;
      }
      .cls-53 {
        stroke: #5c2168;
      }
      .cls-54 {
        stroke: #5c2568;
      }
      .cls-55 {
        fill: #aa6d89;
      }
      .cls-56 {
        fill: #894e6c;
      }
      .cls-57 {
        fill: #d3a3c4;
      }
      .cls-58 {
        fill: #ffdd92;
        stroke: #d8a744;
      }
      .cls-59,
      .cls-62 {
        fill: #4c3d33;
      }
      .cls-60 {
        fill: #a87669;
      }
      .cls-61 {
        fill: #756154;
      }
      .cls-63 {
        fill: #2672a5;
      }
      .cls-64 {
        fill: #3c94c6;
      }
      .cls-65 {
        opacity: 0.45;
      }
      .cls-66 {
        fill: #4f3819;
      }
      .cls-67 {
        fill: #e5cfb5;
      }
      .cls-68 {
        fill: #333;
      }
      .cls-69 {
        fill: #f4eca4;
      }
      .cls-70 {
        fill: #020202;
      }
      .cls-71 {
        fill: url("#linear-gradient-6");
      }
      .cls-72,
      .cls-74 {
        fill: #040404;
      }
      .cls-72 {
        stroke: #4c2d1a;
        stroke-width: 0.43px;
      }
      .cls-73,
      .cls-75 {
        fill: #f59db1;
      }
      .cls-73,
      .cls-74,
      .cls-75 {
        stroke: #020202;
      }
      .cls-73,
      .cls-74 {
        stroke-width: 0.29px;
      }
      .cls-75 {
        stroke-width: 0.14px;
      }
      .cls-76 {
        fill: #7a6d64;
      }
      .cls-77 {
        fill: url("#radial-gradient-3");
      }
    </style>
    <radialGradient id="radial-gradient" cx="839.1" cy="-174.17" r="537.71" gradientTransform="translate(0 962.3) scale(1 0.6)" gradientUnits="userSpaceOnUse"><stop offset="0" stop-color="#e8cbb1"/><stop offset="0.61" stop-color="#f8d9c1"/><stop offset="0.76" stop-color="#f9dac2"/><stop offset="1" stop-color="#ffdfc8"/></radialGradient>
    <pattern id="Floor_1_" data-name="Floor 1 " width="436" height="348" patternTransform="matrix(1, 0, 0, -1, -3460.9, -56826)" patternUnits="userSpaceOnUse" viewBox="0 0 436 348"><rect class="cls-1" width="436" height="348"/><rect class="cls-1" width="436" height="348"/><rect class="cls-1" width="436" height="348"/><rect class="cls-1" width="436" height="348"/><rect class="cls-1" width="436" height="348"/><rect class="cls-1" width="436" height="348"/><rect class="cls-1" width="436" height="348"/><rect class="cls-1" width="436" height="348"/><rect class="cls-2" x="0.5" y="-28.5" width="435" height="57"/><path class="cls-3" d="M433.5,10.5l-124-1s-83-2-90-3-17-2-16-4,16-5,29-6,201-2,201-2-180,1-187,4,0,3,3,4S433.5,10.5,433.5,10.5Z"/><path class="cls-3" d="M432.5,4.5c-2,0-85,0-83-2s11-4,19-5,50-2,50-2-59,4-55,5,70,2,70,2Z"/><rect class="cls-3" x="0.5" y="21.5" width="435" height="4"/><rect class="cls-4" x="0.5" y="16.5" width="435" height="1"/><rect class="cls-3" x="0.5" y="19.5" width="435" height="1"/><rect class="cls-2" x="145.8" y="29.5" width="435" height="57"/><path class="cls-4" d="M146.8,41.5s234-5,271-6,115,2,118,3,43,0,43,0v-3h-41c-7,0-55-6-55-6h-336Z"/><path class="cls-3" d="M578.8,68.5l-124-1s-83-2-90-3-17-2-16-4,16-5,29-6,201-2,201-2-180,1-187,4,0,3,3,4S578.8,68.5,578.8,68.5Z"/><rect class="cls-3" x="145.8" y="79.5" width="435" height="4"/><rect class="cls-4" x="145.8" y="74.5" width="435" height="1"/><rect class="cls-3" x="145.8" y="77.5" width="435" height="1"/><rect class="cls-2" x="-290.2" y="29.5" width="435" height="57"/><path class="cls-4" d="M-289.2,41.5s234-5,271-6,115,2,118,3,43,0,43,0v-3h-41c-7,0-55-6-55-6h-336Z"/><path class="cls-3" d="M142.8,68.5l-124-1s-83-2-90-3-17-2-16-4,16-5,29-6,201-2,201-2-180,1-187,4,0,3,3,4S142.8,68.5,142.8,68.5Z"/><path class="cls-3" d="M141.8,62.5c-2,0-85,0-83-2s11-4,19-5,50-2,50-2-59,4-55,5,70,2,70,2Z"/><rect class="cls-3" x="-290.2" y="79.5" width="435" height="4"/><rect class="cls-4" x="-290.2" y="74.5" width="435" height="1"/><rect class="cls-3" x="-290.2" y="77.5" width="435" height="1"/><rect class="cls-2" x="291.1" y="87.5" width="435" height="57"/><path class="cls-4" d="M292.1,99.5s234-5,271-6,115,2,118,3,43,0,43,0v-3h-41c-7,0-55-6-55-6h-336Z"/><rect class="cls-3" x="291.1" y="137.5" width="435" height="4"/><rect class="cls-4" x="291.1" y="132.5" width="435" height="1"/><rect class="cls-3" x="291.1" y="135.5" width="435" height="1"/><rect class="cls-2" x="-144.9" y="87.5" width="435" height="57"/><path class="cls-4" d="M-143.9,99.5s234-5,271-6,115,2,118,3,43,0,43,0v-3h-41c-7,0-55-6-55-6h-336v12Z"/><path class="cls-3" d="M288.1,126.5l-124-1s-83-2-90-3-17-2-16-4,16-5,29-6,201-2,201-2-180,1-187,4,0,3,3,4S288.1,126.5,288.1,126.5Z"/><path class="cls-3" d="M287.1,120.5c-2,0-85,0-83-2s11-4,19-5,50-2,50-2-59,4-55,5,70,2,70,2Z"/><rect class="cls-3" x="-144.9" y="137.5" width="435" height="4"/><rect class="cls-4" x="-144.9" y="132.5" width="435" height="1"/><rect class="cls-3" x="-144.9" y="135.5" width="435" height="1"/><rect class="cls-2" x="0.5" y="145.5" width="435" height="57"/><path class="cls-4" d="M1.5,157.5s234-5,271-6,115,2,118,3,43,0,43,0v-3h-41c-7,0-55-6-55-6H1.5Z"/><path class="cls-3" d="M433.5,184.5l-124-1s-83-2-90-3-17-2-16-4,16-5,29-6,201-2,201-2-180,1-187,4,0,3,3,4S433.5,184.5,433.5,184.5Z"/><path class="cls-3" d="M432.5,178.5c-2,0-85,0-83-2s11-4,19-5,50-2,50-2-59,4-55,5,70,2,70,2Z"/><rect class="cls-3" x="0.5" y="195.5" width="435" height="4"/><rect class="cls-4" x="0.5" y="190.5" width="435" height="1"/><rect class="cls-3" x="0.5" y="193.5" width="435" height="1"/><rect class="cls-2" x="145.8" y="203.5" width="435" height="57"/><path class="cls-4" d="M146.8,215.5s234-5,271-6,115,2,118,3,43,0,43,0v-3h-41c-7,0-55-6-55-6h-336Z"/><path class="cls-3" d="M578.8,242.5l-124-1s-83-2-90-3-17-2-16-4,16-5,29-6,201-2,201-2-180,1-187,4,0,3,3,4S578.8,242.5,578.8,242.5Z"/><rect class="cls-3" x="145.8" y="253.5" width="435" height="4"/><rect class="cls-4" x="145.8" y="248.5" width="435" height="1"/><rect class="cls-3" x="145.8" y="251.5" width="435" height="1"/><rect class="cls-2" x="-290.2" y="203.5" width="435" height="57"/><path class="cls-4" d="M-289.2,215.5s234-5,271-6,115,2,118,3,43,0,43,0v-3h-41c-7,0-55-6-55-6h-336Z"/><path class="cls-3" d="M142.8,242.5l-124-1s-83-2-90-3-17-2-16-4,16-5,29-6,201-2,201-2-180,1-187,4,0,3,3,4S142.8,242.5,142.8,242.5Z"/><path class="cls-3" d="M141.8,236.5c-2,0-85,0-83-2s11-4,19-5,50-2,50-2-59,4-55,5,70,2,70,2Z"/><rect class="cls-3" x="-290.2" y="253.5" width="435" height="4"/><rect class="cls-4" x="-290.2" y="248.5" width="435" height="1"/><rect class="cls-3" x="-290.2" y="251.5" width="435" height="1"/><rect class="cls-2" x="291.1" y="261.5" width="435" height="57"/><path class="cls-4" d="M292.1,273.5s234-5,271-6,115,2,118,3,43,0,43,0v-3h-41c-7,0-55-6-55-6h-336Z"/><rect class="cls-3" x="291.1" y="311.5" width="435" height="4"/><rect class="cls-4" x="291.1" y="306.5" width="435" height="1"/><rect class="cls-3" x="291.1" y="309.5" width="435" height="1"/><rect class="cls-2" x="-144.9" y="261.5" width="435" height="57"/><path class="cls-4" d="M-143.9,273.5s234-5,271-6,115,2,118,3,43,0,43,0v-3h-41c-7,0-55-6-55-6h-336v12Z"/><path class="cls-3" d="M288.1,300.5l-124-1s-83-2-90-3-17-2-16-4,16-5,29-6,201-2,201-2-180,1-187,4,0,3,3,4S288.1,300.5,288.1,300.5Z"/><path class="cls-3" d="M287.1,294.5c-2,0-85,0-83-2s11-4,19-5,50-2,50-2-59,4-55,5,70,2,70,2Z"/><rect class="cls-3" x="-144.9" y="311.5" width="435" height="4"/><rect class="cls-4" x="-144.9" y="306.5" width="435" height="1"/><rect class="cls-3" x="-144.9" y="309.5" width="435" height="1"/><rect class="cls-2" x="0.5" y="319.5" width="435" height="57"/><path class="cls-4" d="M1.5,331.5s234-5,271-6,115,2,118,3,43,0,43,0v-3h-41c-7,0-55-6-55-6H1.5Z"/><path class="cls-3" d="M433.5,358.5l-124-1s-83-2-90-3-17-2-16-4,16-5,29-6,201-2,201-2-180,1-187,4,0,3,3,4S433.5,358.5,433.5,358.5Z"/><path class="cls-3" d="M432.5,352.5c-2,0-85,0-83-2s11-4,19-5,50-2,50-2-59,4-55,5,70,2,70,2Z"/></pattern>
    <radialGradient id="radial-gradient-2" cx="-617.33" cy="765.17" r="462.84" gradientTransform="matrix(1.53, 0, 0, -1.61, 1767.13, 2041.45)" gradientUnits="userSpaceOnUse"><stop offset="0" stop-color="#a2814b"/><stop offset="0.57" stop-color="#a17559"/><stop offset="1" stop-color="#7f6d4f"/></radialGradient>
    <linearGradient id="linear-gradient" x1="271.65" y1="1014" x2="271.65" y2="0.2" gradientTransform="matrix(1, 0, 0, -1, 0, 1014)" gradientUnits="userSpaceOnUse"><stop offset="0.25" stop-color="#e7f4f1"/><stop offset="1" stop-color="#7d8e94"/></linearGradient><linearGradient id="linear-gradient-2" x1="1155.4" y1="506.1" x2="1662.2" y2="506.1" xlink:href="#linear-gradient"/>
    <linearGradient id="linear-gradient-3" x1="97.4" y1="775" x2="544.6" y2="775" gradientTransform="matrix(1, 0, 0, -1, 0, 1014)" gradientUnits="userSpaceOnUse"><stop offset="0" stop-color="#fcecac"/><stop offset="0.27" stop-color="#f7e7a9"/><stop offset="0.59" stop-color="#e8d99f"/><stop offset="0.95" stop-color="#cfc18f"/><stop offset="1" stop-color="#cbbd8c"/></linearGradient>
    <linearGradient id="linear-gradient-4" x1="569.45" y1="286.95" x2="1129.95" y2="847.45" gradientTransform="matrix(1, 0, 0, -1, 0, 1014)" gradientUnits="userSpaceOnUse"><stop offset="0" stop-color="#7d8e94"/><stop offset="0.54" stop-color="#d5e3e1"/><stop offset="0.99" stop-color="#e7f4f1"/></linearGradient>
    <linearGradient id="linear-gradient-5" x1="1002.09" y1="911.02" x2="698.61" y2="385.38" gradientTransform="matrix(1, 0, 0, -1, 0, 1014)" gradientUnits="userSpaceOnUse"><stop offset="0" stop-color="#fcecac"/><stop offset="0.36" stop-color="#f9e9aa"/><stop offset="0.61" stop-color="#f0e1a4"/><stop offset="0.82" stop-color="#e1d29b"/><stop offset="1" stop-color="#cdbf8e"/></linearGradient>
    <linearGradient id="linear-gradient-6" x1="-16744.62" y1="2118.44" x2="-16795.7" y2="2184.47" gradientTransform="matrix(0.41, 0, 0, -0.41, 8071.13, 1616.01)" gradientUnits="userSpaceOnUse"><stop offset="0" stop-color="#2a1b12"/><stop offset="1" stop-color="#cdcccc"/></linearGradient>
    <radialGradient id="radial-gradient-3" cx="842.4" cy="-811" r="32.65" gradientTransform="translate(0 882)" gradientUnits="userSpaceOnUse"><stop offset="0" stop-color="#fff"/><stop offset="0.01" stop-color="#fffefc"/><stop offset="0.25" stop-color="#fff3ca"/><stop offset="0.48" stop-color="#ffeaa2"/><stop offset="0.69" stop-color="#ffe486"/><stop offset="0.86" stop-color="#ffe075"/><stop offset="1" stop-color="#ffdf6f"/></radialGradient>
  </defs>
  <title>Artboard 1</title>
  <g id="Layer_1-2" data-name="Layer 1"><path class="cls-5" d="M95.1,1013.8q223.05-156.45,446-313h618q212,156.9,424,314Q839.1,1014.35,95.1,1013.8Z"/><path class="cls-6" d="M182.5-5.6Q362,116.5,541.5,238.7c206-.3,410.6.3,616.6,0,109.3-80.1,224.9-161.9,334.2-242C1057.3-4.3,617.5-4.6,182.5-5.6Z"/>
    <g id="FLOOR"><rect id="Floor-2" data-name="Floor" class="cls-7" y="613.3" width="1650.8" height="397.7"/><polygon id="overlay_floor" data-name="overlay floor" class="cls-8" points="1650.8 627.7 1.1 606.7 0 1011 1650.8 1011 1650.8 627.7"/></g><polygon class="cls-9" points="543.3 239 163 0 0 0 0 1013.8 91.9 1013.8 543.3 700 543.3 239"/><polygon class="cls-10" points="1155.4 240 1510.7 1 1662.2 1 1662.2 1014.8 1576.8 1014.8 1156.4 700 1155.4 240"/><rect class="cls-11" y="-23.3" width="98.1" height="1037.1"/><path class="cls-12" d="M1157.5,541l417.4-9V-63c-147.6,96.4-265.8,160-417.2,255.7C1157.9,293.4,1157.1,440.3,1157.5,541Z"/><path class="cls-13" d="M543.1,541,97.4,532V-63C253,28.7,396.1,109.4,544.6,193,544.3,293.7,543.4,440.3,543.1,541Z"/><rect class="cls-14" width="99.4" height="524.7"/><path class="cls-15" d="M543.6,193h612.8V700h-614C542.8,546.3,543.2,346.7,543.6,193Z"/><polyline class="cls-16" points="1158 538.6 542.7 538.6 542.7 193 1158 193"/><rect class="cls-17" x="1574.9" y="525.1" width="94.1" height="27.4"/><rect class="cls-18" x="542.6" y="533.6" width="188.4" height="13.7"/><rect class="cls-18" x="969" y="537.3" width="189" height="10"/><polygon class="cls-11" points="1575 -29.5 1662 1 1662 1014.8 1575 1014.8 1575 -29.5"/><rect class="cls-19" x="-6.2" y="525.1" width="103.8" height="27.4"/><rect class="cls-17" x="1575.2" y="524.7" width="93.8" height="27.8"/><line class="cls-20" x1="1156.6" y1="193" x2="1157" y2="701.4"/><polyline class="cls-20" points="205.3 0 542.7 193 542.7 700.8"/><path class="cls-20" d="M1156.6,193h0Z"/><line class="cls-20" x1="1475.5" x2="1156.6" y2="193"/><line class="cls-20" x1="1575" y1="1014.8" x2="1159.2" y2="700.9"/>
    <g id="Door"><polygon class="cls-21" points="744.6 700 744.6 273 954.2 273 954 700 744.6 700"/><ellipse class="cls-22" cx="923.2" cy="479.8" rx="7.8" ry="10"/></g>
    <g id="windowAfter"><path class="cls-23" d="M420.5,493.3l69,2.1q-1.35-124.35-2.6-248.6c-22.1-15.6-44.3-31.2-66.4-46.8Z"/><path class="cls-23" d="M228.6,491.7l124.5,2.9q-2.4-162.15-4.6-324.2-59.4-32.55-120-65.6V491.7Z"/><rect class="cls-24" x="415.5" y="200" width="5" height="293.9"/><path class="cls-25" d="M344.1,176.2q-47.4-24.45-95.6-49.6l-2.5-1.3c-.1,0-9.7-5.1-9.8-5.1q0,178.35-.1,356.8l112.7,3.6Z"/><path class="cls-25" d="M482.4,250.7c-11.7-7.7-23.4-15.3-35.2-23-7.4-4.9-14.9-9.7-22.3-14.6V484.5l60,4.1Z"/><path class="cls-26" d="M425.3,227.6c3.9,6.2,7.5,7.9,10.2,8.2,5.2.7,8.2-3.5,13.5-2.8,4.5.5,4.6,5.5,10.1,7.5a15.4,15.4,0,0,0,7.8.5l.2-.3-43.4-29,.1,14.8Z"/><path
      class="cls-26"
      d="M241,148.1c10.4,9.5,28.2,2.6,35.4,11.8,5.4,7.1-2.4,15.2,2.4,22.1,5.6,8,21.6-1.2,39.5,4.2,10.9,3.3,18.1,10.4,22.4,15.5,1.3.8,2.6,1.7,3.9,2.5-.2-9.9-.4-19.9-.5-29.8-33.3-16.7-69.1-34.7-107.8-54.1C232.9,136.3,236.6,144,241,148.1Z"/><path class="cls-27" d="M444.4,231.7c-1.6,16.3-3.4,38.6-4.8,65.2-1.7,32.1-3.2,60.3-1.8,95.8a728,728,0,0,0,10,93.8c-7.7-.3-15.5-.5-23.2-.8-.2-69.1-.5-157.3-.9-273.8C430.8,218.5,437.7,225.2,444.4,231.7Z"/><rect class="cls-28" x="286.12" y="249.67" width="5.9" height="126.4" transform="translate(-104.67 475.41) rotate(-69.7)"/><polygon class="cls-28" points="422 359.7 424.5 356.6 486.1 379.3 483.6 382.4 422 359.7"/><rect class="cls-28" x="299.2" y="147.5" width="5.1" height="338.8"/><rect class="cls-28" x="459.4" y="235.5" width="2.6" height="257.1"/><polygon class="cls-29" points="219.5 490.9 228.4 491.6 228.4 104.7 219.5 104.7 219.5 490.9"/></g>
    <g id="Mold">
      <g id="Window"><path class="cls-28" d="M420.4,493.3l69,2.1q-1.35-124.35-2.6-248.6c-22.1-15.6-44.3-31.2-66.4-46.8Z"/><path class="cls-29" d="M228.6,491.7l124.5,2.9q-2.4-162.15-4.6-324.2-59.4-32.55-120-65.6V491.7Z"/><path class="cls-30" d="M344,176.1q-47.4-24.45-95.6-49.6l-2.5-1.3c-.1,0-9.7-5.1-9.8-5.1q0,178.35-.1,356.8l112.7,3.6Z"/><path class="cls-30" d="M482.3,250.6c-11.7-7.7-23.4-15.3-35.2-23-7.4-4.9-14.9-9.7-22.3-14.6V484.4l60,4.1Z"/><path class="cls-27" d="M444.3,231.6c-1.6,16.3-3.4,38.6-4.8,65.2-1.7,32.1-3.2,60.3-1.8,95.8a728,728,0,0,0,10,93.8c-7.7-.3-15.5-.5-23.2-.8-.2-69.1-.5-157.3-.9-273.8C430.7,218.4,437.6,225.1,444.3,231.6Z"/><path class="cls-26" d="M425.2,227.5c3.9,6.2,7.5,7.9,10.2,8.2,5.2.7,8.2-3.5,13.5-2.8,4.5.5,4.6,5.5,10.1,7.5a15.4,15.4,0,0,0,7.8.5l.2-.3-43.4-29,.1,14.8Z"/><path
        class="cls-26"
        d="M240.9,148c10.4,9.5,28.2,2.6,35.4,11.8,5.4,7.1-2.4,15.2,2.4,22.1,5.6,8,21.6-1.2,39.5,4.2,10.9,3.3,18.1,10.4,22.4,15.5,1.3.8,2.6,1.7,3.9,2.5-.2-9.9-.4-19.9-.5-29.8-33.3-16.7-69.1-34.7-107.8-54.1C232.8,136.2,236.5,143.9,240.9,148Z"/></g>
      <g ><path
        class="cls-31"
        d="M231,419.1s11.5,1.6,9.9,11.2c0,0,1.3,5.4-.7,8.7l1.5,4.2s-1.3,7.9-.2,7.9c0,0-2.1,4-1.5,7.4,0,0,4.7,4.7,3,10.5,0,0,4.7,2.1,4,5.7,0,0,8,1.1,8.9,2.6,0,0,2.3-3.2,12.1-1.5s14.7.3,14.7.3l9.1,1,4.2-.6s1.4-3.8,3-1.6,0,7.6,0,7.6l-3.5-1.1s-12.2,1.5-18.8-1.9a13.93,13.93,0,0,0-12-.7l9.3,3.6s-11.6-.5-17.3-3.5-3.7,5-3.7,5-3.8,1.2-1.7,5.8-3,4.2-3,4.2-5.6-6.8-3.5-10.5-2.3-4.4-2.3-4.4l-3.2,4.9s-5.5.8-5.6,5.9c0,0-2.4-7.6,2.2-13l-3.3-10s3-7.9.8-11.4.2-8.8.2-8.8l1-8.1s-4-5.8.2-9C234.8,429.6,230.3,423.9,231,419.1Z"/><path class="cls-31" d="M232.1,288.2s8.2-.5,9.4,1.1a2.24,2.24,0,0,1,0,2.9l-10.7-3.9Z"/><path class="cls-31" d="M234.6,295.9s-1.3,3.6.7,3.4l-.1,3.1,1.1-3.1,4.1.1.3-1.3Z"/><polygon
        class="cls-31"
        points="292.1 317.4 291.5 319.3 292.6 322.5 294.5 324.6 293.6 327.9 291.6 328.4 292.3 332.5 292.9 335.1 291.6 335.9 292 338.5 293.4 339.8 293 342 292.1 343.1 293.1 346.1 292.3 354.2 295.2 351.8 294.9 347.9 294.9 345.9 298.1 344.2 296.2 338 297.9 335.2 299.4 329.1 299 319.6 292.1 317.4"/><polygon
        class="cls-31"
        points="305.5 322.4 304.9 324.8 307 326.3 308.9 330 307.8 330.7 310.1 336.5 308.4 345.9 309.1 351.3 308.4 354.9 307.8 361.4 309.1 361.2 306.4 365.1 306.9 370.6 306.5 373.9 307.3 382.3 306.1 386.9 306 392.2 306.6 398.9 304.8 402.2 304 403.4 303.9 321.7 305.5 322.4"/><polygon
        class="cls-31"
        points="303.9 478 306.4 477.3 305.7 474.8 309.5 475.9 311.5 474.3 314 476.4 317.7 477.2 323.3 475.7 325.3 476.9 327.2 476.4 329.3 475.7 333.8 477.4 337.8 476.5 341 476.2 345.7 473.9 343.2 470.3 351.5 474.9 352.2 476.8 350.6 480.2 349.3 485.6 348.1 482.3 346.2 483.3 346.6 485.3 345.4 487 346.5 489.6 345.6 491.1 346.1 493.3 345.2 496.2 345.2 498.7 342 495.6 340.3 492.2 338.7 491.7 339.1 489.4 340.8 487.7 338.7 485.3 339.9 483.7 340.3 482.2 336.4 483.4 334.1 483.8 332 483.7 330.6 485.5 330.6 487.6 328.4 488.9 327.4 490.2 325.1 486.2 322.8 489 322.3 491.5 320.9 491.9 319.8 489.4 319.1 492.4 316.7 493.8 313.8 490.2 313.7 494.6 311.7 497.3 310 495.5 308.7 493.7 309.4 491.9 308.1 489.5 307 487.4 309.1 484.4 308.7 482.2 306.8 482.3 305.7 483.1 304.2 482.8 303.9 478"/><path
        class="cls-31"
        d="M423,360.7v2l-2.2-.2v2.2l1.4,3.8,1.1,4.1.1,3.2.5,1L423,381l-.6,1.3,2,3.3-.7,1.5-.6,2.1,1,13.5-2.1,1.5-.3,2.4,2,1.2-1.1,3.1,1,1.8-2,1.2,1.9,2.6-1.8,3.4,1.3,1.5-.8,4.7-.1,3.1,1.4,1.1s-.8,2.6-.8,2.7-1.6,1.9-1.6,1.9l1,3.3.5,5.1-1.7,2.2,1.2,2.7.6,5.6-1.2,2.7,1.5,3.9s-.4,4.5-.6,5.1a10.12,10.12,0,0,1-1.5,2l.9,2.2-.4,2.9.6,2.2-.6,2.3,1,4.2.2,1.8-3.7-.7,2.8,3.9L421,489l-1.4.8.8,3.5-2-.7.3,2.3-1.1,2.9.9,2.2,2,2,2.5-1.1,1.2-4.3,2.6-1.2-.9-2.5,1.9-3.6s1.1-.9,1.2-.8a19.2,19.2,0,0,0,2.4,0l-.1,5.3,2.4-1.5,2.3-2,1.8.5,2.6-1.7,1.3,1.5,2.1-1.1,2.4.5,1.6,1.4.2,3.5a7,7,0,0,0,2.3.7c.6-.1,2.9-2.2,2.9-2.2l1.4-2.4,1.9-1.4,1,1.4,1.6-2.8v-1.7l.1-3.3-4.6,1.4-1.8-1.3-1.8-.6-4.9,1.3-1.5-.9-2.5-.7-3.8.7-2-3.5-4.1-3.1-2.2.4-.8,1.6,2.2,2.1-1.8.8-1.2-.9.6-3-1.2-2.4,1.4-4.9.7-2.3-1.5-3.6-.4-4.4.5-4.2-2.2-3.9-1.2-4.6,1.4-6.4.8-5a22.62,22.62,0,0,1,0-3.7c.2-.5,1.2-3.4,1.2-3.4l-.4-6,3.1-13.2-1.2-3.6-.2-3.4.9-2.1.9-4.7-1.8-5.1.5-3.5.7-3.7s-1.7-4-1.4-4.9-.1-9-.1-9l-2.2-3.9.2-3.3Z"/><polygon class="cls-31" points="422.7 356.5 422.9 349.3 424.3 353 424.4 356.5 426.2 355.7 427.6 354.7 426.9 357.2 422.7 356.5"/><path
        class="cls-31"
        d="M461.9,462.9l2-5.7,2,4s-.7,2.8-.7,3.1,1.1,1.3,1.3,1.5-.8,1.4-.8,1.4l1.2,1.4.6,3.1-.6.9-1.2,1.5.4,2.7.7,1.6-.9.8.6,1.2-1.4,1.8.6,1.3,2.3.9,3.1.4,4.6,1,4.5.5,2.6.3,1.9-1.1-.1,2h1.8l.3,1.9,3,1.2v1.5l-.9.9.8.9-2.3,2.7a7,7,0,0,0-.6.9,10.2,10.2,0,0,1,.2,2.7,6.73,6.73,0,0,1-1.5,1.7s-1,.1-.9,0a19.65,19.65,0,0,0-1.3-2.5s-.9-1.6-1.1-1.8-1.7-2.9-1.7-2.9l.8-4.6-2.6-.9,1.1,1.8-.2,2.8a23.78,23.78,0,0,0-1.9,1.7c-.2.3-1.5,1.7-1.6,1.9s-1.7.3-1.7.3l-2.2-3.7-.9-2.1,2.5-1.1-1.1-1.5-2.9-.1v2.4l-2.6,1.7-1.4,2.7-2,.8-1.6-2.4a17,17,0,0,1-.1-2.2C462.1,492.3,461.9,462.9,461.9,462.9Z"/><polygon class="cls-31" points="459.1 378.6 457 376.2 455.1 374 454 371.4 459.2 373.3 459.3 379.1 459.1 378.6"/><polygon class="cls-31" points="454.9 367.8 456.4 367.2 453.5 366.4 452.1 366.3 453.4 366 457.1 366 459.3 365.9 459.3 369.4 454.9 367.8"/><path class="cls-31" d="M461.9,366.3l1.3,1.2,2.3.3,1.5.2.5-1.4.5.3-.2,1.1.1.7-.3.6-1.1-.1-1.2.1-.8.2.9.8,1.1-.6-.1,1.7-.9.1-1.3-.8-1-.7-1.4.1v-3.8Z"/><path
        class="cls-31"
        d="M462,375.2l1.2.8,3.6,2.2-1.5.9,1.7,1.5.6,3.4.9,4.1v3.3l-1.2,1.2,1.2,5.1.3,1.3-.7,1.6-1,1.7.6,3.6.7,1.4-1.6,1.6a32.27,32.27,0,0,0-1,3.2c-.1.7-.4,4.2-.4,4.2L467,415l-.3,2-.1,2.4-1.4,1.3.9,2.9-.7,2.1.7,2.8-1.9,3.1.2,3,.7,1.5-1,2.6-1.5,3.3-.1-4.1v-6.6l-.7-2.4Z"/></g><rect class="cls-24" x="415.5" y="200" width="5" height="293.9"/><rect class="cls-28" x="286.26" y="249.77" width="5.9" height="126.4" transform="translate(-104.67 475.62) rotate(-69.7)"/><polygon class="cls-28" points="421.9 359.6 424.4 356.5 486 379.2 483.5 382.3 421.9 359.6"/><rect class="cls-28" x="299.1" y="147.4" width="5.1" height="338.8"/><rect class="cls-28" x="459.3" y="235.4" width="2.6" height="257.1"/><polygon class="cls-24" points="219.5 490.9 228.4 491.6 228.4 104.7 219.5 104.7 219.5 490.9"/></g><ellipse class="cls-32" cx="842.4" cy="62.2" rx="87.8" ry="33.5"/><path class="cls-18" d="M542.6,533.6,98.7,523v29.8c148.6-1.9,295.4-3.7,444-5.6C542.6,542.7,542.6,538.1,542.6,533.6Z"/>
    <g id="Stairs"><polygon class="cls-33" points="0 877.4 0 1014 183 1014 0 877.4"/><polygon class="cls-33" points="16.4 480.1 16.4 889.6 31 900.5 31 493.2 16.4 480.1"/><polygon class="cls-33" points="65.4 521.4 65.4 926.2 80 937.1 80 534.5 65.4 521.4"/><polygon class="cls-33" points="114.4 565.1 114.4 962.8 129 973.7 129 578.2 114.4 565.1"/><polygon class="cls-33" points="163.4 607.4 163.4 999.4 178 1010.3 178 620.3 163.4 607.4"/><polygon class="cls-33" points="212.4 655.3 212.4 1016.5 227 1022.8 227 666.7 212.4 655.3"/><polygon class="cls-33" points="263.8 701 263.8 1014.5 278.4 1022.8 278.4 711 263.8 701"/><polygon class="cls-34" points="0 908.7 0 1014 141 1014 0 908.7"/><line class="cls-35" y1="961.4" x2="49" y2="941.8"/><polygon class="cls-23" points="48.2 941.8 48.2 974.8 92.8 974.8 48.2 941.8"/><polygon class="cls-23" points="1.4 908.7 1.4 941.7 46 941.7 1.4 908.7"/><polygon class="cls-23" points="92.1 974.8 92.1 1007.7 136.7 1007.7 92.1 974.8"/><line class="cls-35" y1="1014" x2="97.2" y2="975.7"/><line class="cls-35" x1="91.6" y1="1025.1" x2="140.7" y2="1005.5"/><polygon class="cls-23" points="135 1006.3 135 1039.3 179.6 1039.3 135 1006.3"/><path class="cls-36" d="M0,439.2,291,689.4h31c8.6,2.7,14.6,9.7,15,17,.5,10.1-9.9,20.9-24,20l-26-3q-143.55-129-287-258Z"/></g>
    <g id="Hanger"><path class="cls-37" d="M1045.1,348.8h5.1V331a2.92,2.92,0,0,0-2.5-1.9,2.79,2.79,0,0,0-2.7,1.9C1045.1,336.9,1045.1,342.8,1045.1,348.8Z"/><path class="cls-38" d="M1050.1,698c2.8,5.5,11.4,22.3,11.7,23.6,0,.2.1.6-.1.8s-.9.1-1.3-.1c-5.3-8.1-10.6-16.2-16-24.2Z"/><path
      class="cls-39"
      d="M1078.7,723.8c-1.1-1.8-19.7-19.9-27-26.9V344h-8V696.1c-8.4,7.2-26.3,22.8-27.5,24.5a2.23,2.23,0,0,0-.4,1.3c.2.6,1,.9,1.5,1,8.6-5.8,17.3-11.7,25.9-17.6-1.1,12.2-3.2,34.1-2.8,36a1.55,1.55,0,0,0,.7,1.2c.6.3,1.4-.3,1.8-.7,2.6-12.1,5.1-24.2,7.7-36.3,9,6.9,18,13.7,26.9,20.6.5-.1,1.3-.3,1.5-.9A1.83,1.83,0,0,0,1078.7,723.8Z"/><path
      class="cls-40"
      d="M1075.2,326.6,1055,344.1h-1c4.8-8.3,9.5-16.6,14.3-24.9-1.5.7-2.9,1.5-4.4,2.2L1050,342.9h-4.6l-13.3-21.6c-1.2-.5-2.5-.9-3.8-1.4,4.4,8.1,8.8,16.2,13.2,24.2h-3l-19.2-17.5c-2.3-.9-4.6-1.9-6.9-2.9,8.1,8.3,16.2,16.7,24.3,25.1h20.2c8.3-8.2,16.6-16.5,24.9-24.7C1079.6,324.9,1077.4,325.7,1075.2,326.6Z"/><path
      class="cls-41"
      d="M1071.7,328.1c-.2,1.9-.6,4.8-1,8.3h0c-2.4,19.5-3.4,34.2-3.7,38-1.7,23.6-5.9,65.3-7.7,83.3-1.3,13.5-3,33.1-4.7,57.3.6,2.7,1.7,7.7,3.3,12.7a16.56,16.56,0,0,0,2.3,4.7,14.82,14.82,0,0,0,3.7,3.3,21,21,0,0,0,6.3,1.7,24.45,24.45,0,0,0,4.7,0,10.72,10.72,0,0,0,17,.3c2.8-1.4,5.5-2.8,8.3-4.2,1.1-21.1,1.4-43.5.7-67.1a825.59,825.59,0,0,0-17.1-143.3,12.43,12.43,0,0,1-6.5,4.6A11.37,11.37,0,0,1,1071.7,328.1Z"/><path
      class="cls-42"
      d="M1070.7,328.8a10.9,10.9,0,0,1,5-6,10.44,10.44,0,0,1,4.7-1.3,10.6,10.6,0,0,1,5.7,2.3,9.89,9.89,0,0,1,3.3,5.4c6.7,23.1,13.3,46.2,20,69.3l6,69c1.1,21.3,2.2,42.7,3.3,64a12.88,12.88,0,0,1-6,3.7,16.11,16.11,0,0,1-4.7.3,64.84,64.84,0,0,1-8.7-.7l-7.3,7a7.22,7.22,0,0,1-5.3,1.3,7.82,7.82,0,0,1-4.3-2.7,13,13,0,0,1-3.3-6c-4.3-41.2-7.3-85.1-8.3-131.7C1070.1,377.3,1070.1,352.6,1070.7,328.8Z"/><line class="cls-43" x1="1089.4" y1="356.5" x2="1104.4" y2="478.5"/><line class="cls-43" x1="1086.2" y1="357.9" x2="1093.5" y2="469.6"/><line class="cls-43" x1="1098.6" y1="531.2" x2="1095.2" y2="482.6"/><line class="cls-44" x1="1075.2" y1="533.5" x2="1071.7" y2="480.3"/></g>
    <g id="Hat"><path class="cls-45" d="M993.1,334.9c-1.8,5.5-3.3,11.1-3.2,16.6l8.4,10.1-.8,6.9,22.8-21.8,2.2-29.6-4.8,4.4h-13.1C999.6,326.1,997.1,329.4,993.1,334.9Z"/><polygon class="cls-46" points="1004.1 324.1 1000.4 337.5 991.3 348.7 994.4 335.6 1004.1 324.1"/><line class="cls-47" x1="1008.6" y1="353.4" x2="1017.4" y2="344.8"/><line class="cls-47" x1="1018" y1="333.9" x2="1017.1" y2="345.1"/></g>
    <g id="Stool">
      <g id="Layer_3" data-name="Layer 3"><line class="cls-48" x1="552.5" y1="698.2" x2="704.9" y2="698.2"/><path class="cls-49" d="M558,646.4c-4.5,17.9-18.1,72.8-18,77.1a3.38,3.38,0,0,0,.9,2.5c1,.8,2.7,0,3.6-.5,9.9-26.6,19.9-53.1,29.8-79.7Z"/><path class="cls-49" d="M690.6,652.2c6.3,20.7,21.4,70,23.7,73,.2.3,1,1.4,1.8,1.2,1-.2,1.8-1.9,2.2-3-5.2-26.1-10.3-52.1-15.5-78.2C698.8,647.6,694.7,649.9,690.6,652.2Z"/><line class="cls-50" x1="558.4" y1="706.4" x2="703.5" y2="706.4"/><line class="cls-50" x1="558.4" y1="704" x2="702.3" y2="704"/><line class="cls-50" x1="558.8" y1="701.8" x2="701" y2="701.8"/><line class="cls-50" x1="557.6" y1="707.9" x2="703.5" y2="707.9"/><rect class="cls-51" x="552.5" y="642.1" width="158" height="11.4"/></g><line class="cls-48" x1="550.3" y1="709.8" x2="708.7" y2="709.9"/><line class="cls-48" x1="559.5" y1="698.2" x2="557.2" y2="709.8"/><line class="cls-48" x1="700" y1="698.2" x2="704.7" y2="709.8"/><line class="cls-52" x1="628.7" y1="698.2" x2="628.7" y2="709.8"/><polygon class="cls-53" points="562.1 583.6 554.3 587.7 546.3 598.7 547.2 628.8 556.2 641 565.4 638.3 564 635.3 556 638 549.1 627.6 547.3 598 554.6 588.2 562.3 584.6 564 582.2 562.1 583.6"/><polygon class="cls-54" points="577.6 582.5 565.2 585.6 550.8 599.7 550.5 634 560.3 642.1 570 638.5 569.1 636.6 560.4 640 553 632.6 552.7 609 552.6 599 565.7 586.5 577.5 584 580.4 581.1 577.6 582.5"/><path class="cls-55" d="M567,578.6c-.9,1.1-6.9,8.9-7.8,10a39.76,39.76,0,0,0-2.6,3.4c-2.7,3.5-3.7,15.4,2.4,50.1h22.3l-1.7-45.6Z"/><polygon class="cls-56" points="591.5 579.7 567 578.6 579.5 596.5 581.2 642.1 608.9 642.1 610.5 596.6 596.4 579.2 591.5 579.7"/><polygon class="cls-57" points="579.5 596.5 599.6 604.8 610.5 596.6 596.4 579.2 567 578.6 579.5 596.5"/><path class="cls-58" d="M599.1,600.2l-1.3,4.9,2,4.4,1.6-4.9Z"/>
      <g id="Layer_4" data-name="Layer 4"><path
        class="cls-59"
        d="M641,677.4a12.37,12.37,0,0,1,4.2-2.8,14.85,14.85,0,0,1,5-1,12.76,12.76,0,0,1,6,1.7,8.52,8.52,0,0,1,2.6,2.2c1.3,8.1,2.5,16.2,3.8,24.4a10.13,10.13,0,0,1-3.4,5.1,15.37,15.37,0,0,1-7.4,3,20.58,20.58,0,0,1-8.9-3.8,14,14,0,0,1-3.8-4.3C639.8,693.6,640.4,685.5,641,677.4Z"/><path
        class="cls-59"
        d="M666.9,677.4a19.73,19.73,0,0,1,4.2-2.3,29.38,29.38,0,0,1,5-1.5,14.55,14.55,0,0,1,4,1,13.58,13.58,0,0,1,4.6,2.8c1.3,8.1,2.5,16.2,3.8,24.4a12.31,12.31,0,0,1-4,5.1,18.06,18.06,0,0,1-6.8,3,21,21,0,0,1-8.3-3.3,15.15,15.15,0,0,1-4.4-4.8C665.7,693.6,666.3,685.5,666.9,677.4Z"/><path class="cls-60" d="M642.4,702.1c2.8.7,5.6,1.3,8.4,2l8.6-2.1c-.9-7.8-1.8-15.7-2.8-23.5a10.37,10.37,0,0,0-2.6-1.8,10.55,10.55,0,0,0-3.5-1,9.75,9.75,0,0,0-3.3.7,11.44,11.44,0,0,0-3.1,1.8C643.5,686.1,643,694.1,642.4,702.1Z"/><path class="cls-60" d="M667.9,701.2c3,1.7,5.9,3.4,8.9,5.2,3-2,6-4,9.1-6-1-6.8-2-13.6-3-20.3a5.91,5.91,0,0,0-2.4-2.5,7.13,7.13,0,0,0-4.5-.8,7.53,7.53,0,0,0-4.5,1.2,6.57,6.57,0,0,0-2.4,2.8Z"/><path class="cls-61" d="M639.3,700l11.6-5.5,11.5,5.5a8,8,0,0,1-2.9,7,12.59,12.59,0,0,1-7.6,2.8,14.67,14.67,0,0,1-9.3-3.5A9.38,9.38,0,0,1,639.3,700Z"/><path class="cls-61" d="M665.3,699.6l11.6-5.5,11.5,5.5a8,8,0,0,1-2.9,7,12.59,12.59,0,0,1-7.6,2.8,14.67,14.67,0,0,1-9.3-3.5A9.77,9.77,0,0,1,665.3,699.6Z"/><polygon class="cls-62" points="650.9 700.4 654.6 696.3 650.9 694.6 647.5 696.2 650.9 700.4"/><polygon class="cls-62" points="676.7 700 680.5 695.9 676.8 694.1 673.3 695.7 676.7 700"/></g>
    </g>
    <g id="Carpet">
      <g id="Rug"><polyline class="cls-63" points="1021.4 784.9 681.4 784.9 745.4 707.9 958.4 707.9 1021.4 784.9"/><polygon class="cls-64" points="983.4 766.9 719.4 766.9 753.4 717.9 949.4 717.9 983.4 766.9"/>
        <g class="cls-65"><path d="M757.11,723.51h7c-3.61,8-5.35,12-8.69,20,6.17-8,9.16-12,14.93-20h7c-2.43,8-3.55,12-5.58,20,4.87-8,7.23-12,11.83-20h7c-6.64,12.12-13.69,24-20.88,35.78h-9c2.28-9,3.55-13.52,6.34-22.53q-8.13,11.43-16.73,22.53h-9Q748.7,741.17,757.11,723.51Z"/><path d="M793,723.51h19.84c-.77,3.06-1.16,4.58-1.93,7.64H797.89c-.76,2.27-1.14,3.41-1.91,5.69h12.55l-1.89,7.29h-13.1l-2.37,7.06h15.14c-.82,3.24-1.22,4.86-2,8.1h-25Q786.15,741.4,793,723.51Z"/><path d="M817.23,723.51h7.4c-1.88,10.79-2.83,16.18-4.71,27h13.63c-.35,3.52-.52,5.29-.86,8.81H809.21Q813.21,741.4,817.23,723.51Z"/><path
          d="M855.51,744.65c3,1.17,4.51,1.75,7.6,2.93a18.05,18.05,0,0,1-2,6.8,10.44,10.44,0,0,1-4.07,4.13,13.54,13.54,0,0,1-6.55,1.39,15.84,15.84,0,0,1-7.85-1.7,11.9,11.9,0,0,1-4.82-6c-1.22-2.84-1.59-6.49-1.22-10.93.51-5.91,2-10.46,4.41-13.64a10.93,10.93,0,0,1,9.22-4.77,9.73,9.73,0,0,1,7.21,2.73c1.83,1.83,3.32,4.62,4.48,8.4-2.74.87-4.13,1.3-6.94,2.17a10.76,10.76,0,0,0-.83-2.39,5.55,5.55,0,0,0-1.65-1.95,3.51,3.51,0,0,0-2.11-.69c-1.77,0-3.13,1-4.15,3a17.61,17.61,0,0,0-1.33,7q-.23,6,1.12,8.16a4.4,4.4,0,0,0,4,2.2,4.31,4.31,0,0,0,3.78-1.78A12,12,0,0,0,855.51,744.65Z"/><path
          d="M865.66,741.42c-.51-5.84.28-10.38,2.17-13.64a9.16,9.16,0,0,1,8.53-4.88,13.53,13.53,0,0,1,10.29,4.8c3,3.19,5.27,7.67,6.73,13.43,1,4.18,1.39,7.61.92,10.29a9.83,9.83,0,0,1-3.49,6.25c-1.87,1.49-4.49,2.23-7.79,2.23a17.61,17.61,0,0,1-8.58-1.93,15.37,15.37,0,0,1-5.9-6.1A25.57,25.57,0,0,1,865.66,741.42Zm8.3.05c.49,3.62,1.36,6.21,2.64,7.79a5.89,5.89,0,0,0,4.7,2.37,4,4,0,0,0,3.94-2.32c.72-1.55.65-4.32-.17-8.33-.68-3.36-1.68-5.82-3-7.38a5.52,5.52,0,0,0-4.34-2.33,3.61,3.61,0,0,0-3.44,2.37C873.6,735.22,873.46,737.83,874,741.47Z"/><path d="M892.83,723.51h9.73c4.5,8.71,6.86,13.06,11.79,21.77-1.51-8.71-2.37-13.06-4.3-21.77h9.73l16.4,35.78h-7.51L917.27,732c2.58,10.92,3.71,16.38,5.62,27.29h-6.8c-5.06-8.95-9.91-18.08-14.49-27.29l8.72,27.29h-7.51Q897.82,741.4,892.83,723.51Z"/><path d="M924.49,723.51h19.84l4.75,7.64H936l3.06,5.69h12.55l4.49,7.29H943c1.52,2.82,2.28,4.24,3.81,7.06H962l5.06,8.1H942Z"/></g>
      </g>
    </g><polygon class="cls-18" points="1158 537.3 1575.7 525.1 1575.7 552.5 1157.9 547.3 1158 537.3"/><polygon class="cls-66" points="1498.5 464.5 1187.8 488.6 1187.8 298.8 1498.5 88.6 1498.5 464.5"/><polygon class="cls-67" points="1488.9 453.3 1192.1 481.2 1192.1 305.4 1488.9 110.7 1488.9 453.3"/>
    <g id="Layer_5" data-name="Layer 5"><path
      class="cls-68"
      d="M1196.8,481c-2.9-34.2-3.3-48.2-2.7-52.6a36.47,36.47,0,0,1,1.1-7.2,55.79,55.79,0,0,0,1.3-9,8.63,8.63,0,0,1,3-6.3c7.4-6.5,15.1-13.3,23.3-20.2a21.49,21.49,0,0,0,3-3.4c2-2.9,2-4.5,1.9-4.9a2.35,2.35,0,0,0-.2-.8,42.62,42.62,0,0,0-2.6-6.7c-.8-1.7-1.1-2.3-1.6-2.4-2-.4-2.1-2.3-2.2-4.5a85.22,85.22,0,0,0-1.3-10.3,3.59,3.59,0,0,1-.2-1.8,6.69,6.69,0,0,0-.5-4.7,18.53,18.53,0,0,1-1.5-5.5c-.7-6.8-.6-13.6,3.3-21.2a41.6,41.6,0,0,1,6.9-9.7c1.8-2,5.9-6.7,11.4-9.5a26.41,26.41,0,0,1,7-2.4,7.76,7.76,0,0,1,2.8-.3c2.1.7,3.7-.1,5.1.7a11,11,0,0,0,2.7,1.4,8.57,8.57,0,0,0,1.3.3c1.8.2,2.3-.4,2.9.1s.9,1.5,1,3a8.05,8.05,0,0,0,.7,3.3c.9,1.3.9,3.2,1.2,4.9a11.48,11.48,0,0,1-.3,7.5.6.6,0,0,0-.1.4c.8,2-.2,4.4-.9,6.7-.4,1.4-.4,2.9.4,3.4a2.63,2.63,0,0,1,1.1,2.5c0,4,.1,8-.1,12.1-.2,3.4-2.6,6.6-2.7,6.9-1.2,2.3-2,2.9-2.5,4.8a9,9,0,0,0,.1,4.9.31.31,0,0,0,.1.2c1,2.8,5.8,5.4,9.7,8.3.8.6,1.9,1.3,3.6,2.5a7.68,7.68,0,0,0,2.5,1.4c4.6,1.1,9.5,1.8,14.5,2.6a6.37,6.37,0,0,1-2.4-4.5c0-.7,0-1.6,1.6-5.9,2-5.7,3.1-7.3,2.6-9-.3-1-.8-.9-1.1-2.3a11.29,11.29,0,0,1,0-4.5,53.1,53.1,0,0,0,1.4-7.6c.2-4,1.9-7.5,4.4-11,2.9-4.2,4.6-4.5,6.2-7.8a15.42,15.42,0,0,0,1.3-4.2c1.3-6.6-.1-8.8,1-14.5.1-.3.3-.6.4-.9,2.7-5.7,5.6-11.4,9-17.1,5.6-9.5,10.8-19.4,17.7-29.1a41,41,0,0,1,15-13.4,57.19,57.19,0,0,1,5.4-2.6c6.4-2.8,10.9-5.4,14.7-5.4,10.8-.3,18.7,4,23,12.9,5.5,11.5,3.3,17.5,10.2,21.4,5.5,3.1,6.9,3.7,6.9,3.7,3.5,1.6,6.2,2.3,7.5,5.3a22.39,22.39,0,0,1,.8,2.9c.6,2.9.8,4.3,0,6-1,2-2,2.2-2.6,3.6-1.7,4.1,5.7,7.4,12.8,10.6.7.3,2.6,0,3.2,1.5,1,2.7,3.9,3.3,6.6,4,7.7,2,9.3,7.8,3.7,15.4a2.87,2.87,0,0,0-.6,1.1c-1.1,2.5,1.8,2.9,2.5,5.7.1.5-.5,3.2-1.6,8.7a13.81,13.81,0,0,0-.4,2.3c.4,3.2,5.7,3.1,9.2,4.3,4.3,1.5,7.3,4.4,7.2,11.5-.2,11.1.2,22-.1,33-.2,7.3-.1,14.5-2.1,22a256.37,256.37,0,0,1-16.3,44.9,4.09,4.09,0,0,1-1.6,2,8.63,8.63,0,0,1-2.8.8C1429.5,459,1302.5,471,1196.8,481Z"/>
      <g id="Layer_6" data-name="Layer 6">
        <g id="_7hattf.tif" data-name="7hattf.tif"><path
          class="cls-68"
          d="M1382.1,463.7V429.6a23,23,0,0,1,5.5-7.8,91.86,91.86,0,0,1,18.2-13.6c5.4-3.3,10.9-6.6,16.1-11,7.4-6.2,11.3-14,11.1-23.7-.1-2.4-.6-4.5-2.1-5.8-3.7-3.2-5.7-7.7-6.5-13a4.21,4.21,0,0,0-1.3-2.6c-1-.9-1.8-.4-3-1.2a5.67,5.67,0,0,1-2.2-3.4,21.18,21.18,0,0,1-.7-4.5c-.2-3.1,0-6.1,2.5-9,.3-.4.1-.6.1-.9l-1.2-8.1c-.4-3.3-1-6.5-.5-10.1,1.5-11.2,6.9-20.6,16.2-28.3,6.2-5.1,12.9-8.1,19.8-10.5,6-2.1,12-3.2,17.5-2.2,11,2,16.9,9.4,16.4,22.6a132.7,132.7,0,0,1-2,14.9c-.2,1.4-.5,2.6.9,3.2a3.07,3.07,0,0,1,1.5,2.1c1.1,2.7.6,5.9.1,9-.6,3.9-2.1,7.3-5.9,9.7a5.48,5.48,0,0,0-2.4,3.9,39.7,39.7,0,0,1-8.1,18.9,9.74,9.74,0,0,0-2.1,6c-.4,9.2,2.5,16.1,10.1,19.9,4.1,2.1,5.5,1.8,7.3,2.9,4.5,2.8,2.6,10.6,2.4,33-.1,11.8-.2,17.8-.1,18.4-.1,4.1-.9,11-.8,14.9a23.41,23.41,0,0,1-4.3.6c-6.5.3-13,1.5-19.5,1.8-1.3.1-4.8.4-11.9,1.1s-11.6,1.3-17,1.9c-6,.7-15.7,1.8-23.6,2.6C1404.9,461.9,1394.7,462.8,1382.1,463.7Z"/></g>
      </g>
    </g><ellipse class="cls-69" cx="1493.3" cy="103.2" rx="3.2" ry="6.2"/><ellipse class="cls-69" cx="1493.4" cy="457.2" rx="3.3" ry="5.5"/><ellipse class="cls-69" cx="1189.8" cy="304.6" rx="0.8" ry="3.8"/><ellipse class="cls-69" cx="1190" cy="483.8" rx="0.8" ry="3.1"/>
    <g id="Rat"><path
      id="path6480"
      class="cls-70"
      d="M1097.66,706.65s5.47-8.2,6.08-8.3-.41-.41,0-1c.4-.4.6-1,1.41-1a4.79,4.79,0,0,0,1.42-.61s1.73-.61,1.93-1,2.43-1.82,2.43-2.43a62.88,62.88,0,0,1,.61-6.39c.4-.6.4-1.82.61-1.82s3.64,5.47,3.54,5.47c0,.41,3.65.41,3.65.41h2.43s.61-1.83,1.42-1.83c.61,0,1.42-1,2.63-.6a10,10,0,0,0,2.44.4l.6-.61c.61-.4,6.08-3.14,7.6-3.14s5.88-.4,7.9,1.83,6.08,5.87,7.2,7.7c.61,1.82,2.63,3.95,3.54,3.95.41,0,7.2-.61,7.2-1v-.4c-.1-.81-1.12-1.42-1.42-1.52a46.24,46.24,0,0,1-5.47-2.64,16.35,16.35,0,0,0-3.55-1.82,11.25,11.25,0,0,0-2.53-.61,28.1,28.1,0,0,1,9.73,1.73,30.12,30.12,0,0,1,5.37,2.53c.4.71,1.31,1.82,1,3.14a3.19,3.19,0,0,1-1,1.42c-2.23,1.92-7.2,2.63-8.21,2.84h-.1c-.41.3.61,2.43.61,2.43s1.41,5.47.4,7.29c-.61,1.83-1.92,5.88-3.65,7.7-1.92,1.83-4,5-5.06,5.37-.61.41,1.92.61,2.43.41a11,11,0,0,0,1.72-.41c0,.41,1.93,1.83,2.43,1.83s0,1-.6,1a2.49,2.49,0,0,0-1.42-.41l1.42,1.83s-.41,1.82-.41,1a3.62,3.62,0,0,1-1.93-1c0-.41-.6-1-.6-1l.4,1.83s-.4,1-.61,1a3.18,3.18,0,0,1-1.41-.4c-.41-.71-.41-2.13-.71-2.13s-.41.61-.41,1a.74.74,0,0,1-.4.61c-.41-.41-1.42-.41-1.42-1s0-1.93-.61-1.83a6.06,6.06,0,0,0-1.42,1.93c0,.4-.4,5.47-.4,5.47s0,5,.4,5.37a31.11,31.11,0,0,0,3.55,1.82.65.65,0,0,1-.61.61c-.41,0-2.63-.41-2.63-.41s-.41.61,0,1,.4,1.82,0,1.82-.61.61-.61.41c0-.41-.41-1.93-.61-1.83-.61.41-1.42,1.93-1.93,1.83s-.6-.41-.4-.61c.4-.41,1.72-2.43,1.42-1.93-.41,0-2.64,1.93-3.65,1.83-.41,0-1.72-.41-1.42-.61a32.79,32.79,0,0,1,3.55-1.93s.61-3.54.4-3.54c-.4,0,0-2.43,0-2.84s-4-8.31-5.06-8.31-9.63-3.14-11.25-1.82c-1.72,1.82-7.19,7.7-7.19,9.42s.61,3.14.4,3.55-.61.4-.61,0-.6.61-.4,1.82c.4,1,.4,2.84,0,2.84-.61,0-1.42-1.82-1.72-1.82s-.41,0-.61.4c-.41.41-.61,1.82-1.72,1.93-.61.4-.61-.61-.41-1,.41-.4.61-1,.41-1-.41.4-1.73,1.82-2.44,1.82-.4,0-.6-.4-.4-.4.4-.41,1.72-1.93,1.72-1.93s-1.92.61-1.42,0,1.93-1.92,1.73-1.92,1.72,0,1.72-.41.4-3.14.4-3.54c-.4-.41.41-1,0-1.93-.6-5,.61-8.71-2.63-17.22-3.55-.41-5.07-.41-7.6-1.83a16.37,16.37,0,0,1-3.65-2.83A13.47,13.47,0,0,1,1097.66,706.65Z"/><path
      id="path6480-2"
      data-name="path6480"
      class="cls-71"
      d="M1098.59,706.37s5.32-8,5.91-8.08-.4-.39,0-1c.39-.39.59-1,1.38-1a4.77,4.77,0,0,0,1.38-.59s1.67-.59,1.87-1,2.37-1.77,2.37-2.36a62.22,62.22,0,0,1,.59-6.21c.39-.59.39-1.77.59-1.77s3.55,5.32,3.45,5.32c0,.39,3.54.39,3.54.39H1122s.59-1.77,1.38-1.77c.59,0,1.38-1,2.56-.59a9.64,9.64,0,0,0,2.37.39l.59-.59c.59-.39,5.91-3.06,7.39-3.06s5.71-.39,7.68,1.78,5.92,5.71,7,7.49c.59,1.77,2.56,3.84,3.45,3.84.39,0,7-.59,7-1v-.4c-.1-.79-1.09-1.38-1.38-1.48a44.61,44.61,0,0,1-5.32-2.56,15.68,15.68,0,0,0-3.45-1.77,10.65,10.65,0,0,0-2.47-.59,27.24,27.24,0,0,1,9.46,1.67,29.58,29.58,0,0,1,5.23,2.46c.39.69,1.28,1.78,1,3.06a3.06,3.06,0,0,1-1,1.38c-2.17,1.87-7,2.56-8,2.76h-.09c-.4.29.59,2.36.59,2.36s1.38,5.32.39,7.1c-.59,1.77-1.87,5.71-3.55,7.49-1.87,1.77-3.94,4.83-4.92,5.22-.6.39,1.87.59,2.36.39a10.66,10.66,0,0,0,1.68-.39c0,.39,1.87,1.77,2.36,1.77s0,1-.59,1a2.44,2.44,0,0,0-1.38-.39l1.38,1.77s-.39,1.77-.39,1a3.5,3.5,0,0,1-1.88-1c0-.39-.59-1-.59-1l.4,1.78s-.4,1-.59,1a3.08,3.08,0,0,1-1.38-.39c-.4-.69-.4-2.07-.69-2.07s-.4.59-.4,1a.74.74,0,0,1-.39.6c-.4-.4-1.38-.4-1.38-1s0-1.87-.59-1.77a5.8,5.8,0,0,0-1.38,1.87c0,.39-.4,5.32-.4,5.32s0,4.83.4,5.22a28.17,28.17,0,0,0,3.45,1.78.64.64,0,0,1-.6.59c-.39,0-2.56-.4-2.56-.4s-.39.6,0,1,.4,1.77,0,1.77-.59.59-.59.4c0-.4-.39-1.87-.59-1.78-.59.4-1.38,1.88-1.87,1.78s-.59-.4-.4-.59c.4-.4,1.68-2.37,1.38-1.88-.39,0-2.56,1.88-3.54,1.78-.4,0-1.68-.4-1.38-.59a31,31,0,0,1,3.45-1.88,20.14,20.14,0,0,0,.39-3.44c-.39,0,0-2.37,0-2.76s-3.94-8.08-4.93-8.08-9.36-3.06-10.94-1.78c-1.67,1.78-7,7.49-7,9.17s.59,3,.39,3.45-.59.39-.59,0-.59.59-.39,1.77c.39,1,.39,2.76,0,2.76-.59,0-1.38-1.78-1.68-1.78s-.39,0-.59.4c-.39.39-.59,1.77-1.68,1.87-.59.39-.59-.59-.39-1,.39-.4.59-1,.39-1-.39.39-1.67,1.77-2.36,1.77-.39,0-.59-.39-.39-.39.39-.39,1.67-1.87,1.67-1.87s-1.87.59-1.38,0,1.87-1.88,1.68-1.88,1.67,0,1.67-.39.4-3.05.4-3.45c-.4-.39.39-1,0-1.87-.6-4.83.59-8.48-2.57-16.75-3.45-.4-4.92-.4-7.39-1.78a15.58,15.58,0,0,1-3.54-2.76A11,11,0,0,1,1098.59,706.37Z"/><path id="path6482" class="cls-72" d="M1111.5,700.26a4.28,4.28,0,0,0,.59-1.77c0-.4,1.67-1,1.87-1s1.87,1,1.87,1.87c0,.6.4,1.88-.39,1.88a2.43,2.43,0,0,1-2.57,0,13.84,13.84,0,0,1-1.37-1Z"/><path id="path6484" class="cls-73" d="M1101.25,709.13s1.67-.39,1.67-.59c0-.4,0-2.37-.39-2.37s-1.87-.59-2.37-.39c-.39.39-.39,0-.59.39-.39.4,0,1.78,0,1.88.4.39.4,1,.59,1a6.53,6.53,0,0,0,1.09.1Z"/><path id="path6496" class="cls-74" d="M1106.37,696.12,1104.7,698s-.4-.39-.4-.59c0-.39.59-1,.59-1l1.48-.3Z"/><path
      id="path6498"
      class="cls-75"
      d="M1156.73,702h0c.09.09.29-.6.29-.6l2.17-.59c1.08-.39,2.17-1,3.25-1.38.69-.69,1.38-1.28,2.07-1.87a22,22,0,0,0-.59-2.46l-1.08-1.09-3.45-2.16a36.48,36.48,0,0,0-6.8-1.38c-1.38-.1-2.76-.1-3.94-.1a24.45,24.45,0,0,1,5.91,1.77,27,27,0,0,1,5.22,3.06,9.72,9.72,0,0,1,1.68,1.38c-1,.39-1.88.78-2.86,1.28-1.48-.4-1.87,0-2.07.09C1155.54,698.78,1156.73,701.35,1156.73,702Z"/></g><ellipse class="cls-76" cx="842.4" cy="71" rx="58.8" ry="22.4"/><ellipse class="cls-77" cx="842.4" cy="71" rx="42.4" ry="18.3"/></g><path class="cls-29" d="M731,260V700.4H969V260ZM954.2,700.3H744.6V273H954.2V700.3Z"/><rect class="cls-14" x="1575.2" width="86.8" height="524.7"/></svg>
