<?xml version="1.0" encoding="utf-8"?>
<!-- Generator: Adobe Illustrator 22.1.0, SVG Export Plug-In . SVG Version: 6.00 Build 0)  -->
<svg version="1.1" id="Layer_1" xmlns="http://www.w3.org/2000/svg" xmlns:xlink="http://www.w3.org/1999/xlink" x="0px" y="0px"
	 viewBox="0 0 1662 1013.8" style="enable-background:new 0 0 1662 1013.8;" xml:space="preserve">
<style type="text/css">
	.st0{fill:none;}
	.st1{fill:#7A6551;stroke:#2D1E11;stroke-miterlimit:10;}
	.st2{fill:#B79C80;}
	.st3{fill:#937F6D;}
	.st4{fill:#FFFFFF;stroke:#000000;stroke-miterlimit:10;}
	.st5{fill:url(#SVGID_1_);stroke:#000000;stroke-miterlimit:10;}
	.st6{fill:#D7BCA9;stroke:#000000;stroke-miterlimit:10;}
	.st7{fill:url(#Floor_2_);stroke:#7C726C;stroke-miterlimit:10;}
	.st8{fill:url(#overlay_floor_1_);fill-opacity:0.3;stroke:#010101;stroke-width:0.75;stroke-linejoin:round;}
	.st9{fill:#EDA777;stroke:#000000;stroke-miterlimit:10;}
	.st10{fill:#FCBD8D;stroke:#000000;stroke-miterlimit:10;}
	.st11{fill:#F7F6CB;stroke:#000000;stroke-miterlimit:10;}
	.st12{fill:#FEE1CA;stroke:#000000;stroke-miterlimit:10;}
	.st13{fill:#705746;stroke:#000000;stroke-miterlimit:10;}
	.st14{fill:#E9B78B;stroke:#000000;stroke-width:0.75;stroke-miterlimit:10;}
	.st15{fill:#846144;}
	.st16{fill:#E6F5FF;}
	.st17{fill:#76BF6D;}
	.st18{fill:#995D34;}
	.st19{fill:#D2F1FF;}
	.st20{fill:#5B8852;}
	.st21{fill:#FFEDE1;}
	.st22{fill:#895E3B;stroke:#000000;stroke-miterlimit:10;}
	.st23{fill:#AA7D55;}
	.st24{fill:none;stroke:#895F3B;stroke-miterlimit:10;}
	.st25{fill:#895E3B;}
	.st26{fill-opacity:0.17;}
	.st27{fill:#4C301C;stroke:#000000;stroke-width:0.5;stroke-miterlimit:10;}
	.st28{fill:#7A543F;stroke:#000000;stroke-width:0.5;stroke-miterlimit:10;}
	.st29{fill:#A0775C;stroke:#000000;stroke-width:0.5;stroke-miterlimit:10;}
	.st30{fill:#BA8D6E;stroke:#000000;stroke-width:0.5;stroke-miterlimit:10;}
	.st31{fill:#526677;stroke:#000000;stroke-width:0.75;stroke-miterlimit:10;}
	.st32{fill:#3C5268;stroke:#000000;stroke-miterlimit:10;}
	.st33{fill:none;stroke:#526778;stroke-miterlimit:10;}
	.st34{fill:none;stroke:#3C5268;stroke-miterlimit:10;}
	.st35{fill:#493B31;stroke:#000000;stroke-width:0.75;stroke-miterlimit:10;}
	.st36{fill:#5B4A3F;}
	.st37{fill:none;stroke:#5C4A3F;stroke-miterlimit:10;}
	.st38{fill:none;stroke:#1E1E1E;stroke-miterlimit:10;}
	.st39{fill:#A0775C;stroke:#000000;stroke-miterlimit:10;}
	.st40{fill:none;stroke:#1E1E1E;stroke-width:0.75;stroke-miterlimit:10;}
	.st41{fill:#7F5334;stroke:#000000;stroke-miterlimit:10;}
	.st42{fill:none;stroke:#1E1E1E;stroke-width:2;stroke-miterlimit:10;}
	.st43{fill:#9B5699;stroke:#5C2168;stroke-width:0.5;stroke-miterlimit:10;}
	.st44{fill:#9B5699;stroke:#5C2568;stroke-width:0.5;stroke-miterlimit:10;}
	.st45{fill:#AA6D89;stroke:#000000;stroke-width:0.75;stroke-miterlimit:10;}
	.st46{fill:#894E6C;stroke:#000000;stroke-width:0.75;stroke-miterlimit:10;}
	.st47{fill:#D3A3C4;stroke:#000000;stroke-width:0.75;stroke-miterlimit:10;}
	.st48{fill:#FFDD92;stroke:#D8A744;stroke-width:0.5;stroke-miterlimit:10;}
	.st49{fill:#4C3D33;}
	.st50{fill:#A87669;}
	.st51{fill:#756154;}
	.st52{fill:#372D42;}
	.st53{fill:none;stroke:#9084AF;stroke-miterlimit:10;}
	.st54{fill:#4F3819;}
	.st55{fill:#E5CFB5;}
	.st56{fill:#F4ECA4;}
	.st57{display:none;fill:url(#path6480_2_);stroke:#020202;}
	.st58{fill:url(#path6480_3_);stroke:#020202;}
	.st59{fill:#040404;stroke:#4C2D1A;stroke-width:0.4343;}
	.st60{fill:#F59DB1;stroke:#020202;stroke-width:0.2895;}
	.st61{fill:#040404;stroke:#020202;stroke-width:0.2895;}
	.st62{fill:#F59DB1;stroke:#020202;stroke-width:0.1448;stroke-linejoin:round;}
	.st63{fill:#7A6D64;stroke:#000000;stroke-miterlimit:10;}
	.st64{fill:url(#SVGID_2_);stroke:#000000;stroke-miterlimit:10;}
	.st65{fill:#BA7E56;stroke:#000000;stroke-width:0.75;stroke-miterlimit:10;}
</style>
<pattern  y="1013.8" width="436" height="348" patternUnits="userSpaceOnUse" id="Floor_1_" viewBox="290.7 -377 436 348" style="overflow:visible;">
	<g>
		<rect x="290.7" y="-377" class="st0" width="436" height="348"/>
		<g>
			<rect x="290.7" y="-377" class="st0" width="436" height="348"/>
			<g>
				<rect x="290.7" y="-377" class="st0" width="436" height="348"/>
				<g>
					<rect x="290.7" y="-377" class="st0" width="436" height="348"/>
					<g>
						<rect x="290.7" y="-377" class="st0" width="436" height="348"/>
						<g>
							<rect x="290.7" y="-377" class="st0" width="436" height="348"/>
							<g>
								<rect x="291.2" y="-405.5" class="st1" width="435" height="57"/>
								<path class="st2" d="M724.2-366.5l-124-1c0,0-83-2-90-3s-17-2-16-4s16-5,29-6s201-2,201-2s-180,1-187,4s0,3,3,4
									S724.2-366.5,724.2-366.5z"/>
								<path class="st2" d="M723.2-372.5c-2,0-85,0-83-2s11-4,19-5s50-2,50-2s-59,4-55,5s70,2,70,2L723.2-372.5z"/>
								<rect x="291.2" y="-355.5" class="st2" width="435" height="4"/>
								<rect x="291.2" y="-360.5" class="st3" width="435" height="1"/>
								<rect x="291.2" y="-357.5" class="st2" width="435" height="1"/>
							</g>
							<g>
								<rect x="436.5" y="-347.5" class="st1" width="435" height="57"/>
								<path class="st3" d="M437.5-335.5c0,0,234-5,271-6s115,2,118,3s43,0,43,0v-3c0,0-34,0-41,0s-55-6-55-6h-110h-226V-335.5z"/>
								<path class="st2" d="M869.5-308.5l-124-1c0,0-83-2-90-3s-17-2-16-4s16-5,29-6s201-2,201-2s-180,1-187,4s0,3,3,4
									S869.5-308.5,869.5-308.5z"/>
								<rect x="436.5" y="-297.5" class="st2" width="435" height="4"/>
								<rect x="436.5" y="-302.5" class="st3" width="435" height="1"/>
								<rect x="436.5" y="-299.5" class="st2" width="435" height="1"/>
							</g>
							<g>
								<rect x="0.5" y="-347.5" class="st1" width="435" height="57"/>
								<path class="st3" d="M1.5-335.5c0,0,234-5,271-6s115,2,118,3s43,0,43,0v-3c0,0-34,0-41,0s-55-6-55-6h-110H1.5V-335.5z"/>
								<path class="st2" d="M433.5-308.5l-124-1c0,0-83-2-90-3s-17-2-16-4s16-5,29-6s201-2,201-2s-180,1-187,4s0,3,3,4
									S433.5-308.5,433.5-308.5z"/>
								<path class="st2" d="M432.5-314.5c-2,0-85,0-83-2s11-4,19-5s50-2,50-2s-59,4-55,5s70,2,70,2L432.5-314.5z"/>
								<rect x="0.5" y="-297.5" class="st2" width="435" height="4"/>
								<rect x="0.5" y="-302.5" class="st3" width="435" height="1"/>
								<rect x="0.5" y="-299.5" class="st2" width="435" height="1"/>
							</g>
							<g>
								<rect x="581.8" y="-289.5" class="st1" width="435" height="57"/>
								<path class="st3" d="M582.8-277.5c0,0,234-5,271-6s115,2,118,3s43,0,43,0v-3c0,0-34,0-41,0s-55-6-55-6h-110h-226V-277.5z"/>
								<rect x="581.8" y="-239.5" class="st2" width="435" height="4"/>
								<rect x="581.8" y="-244.5" class="st3" width="435" height="1"/>
								<rect x="581.8" y="-241.5" class="st2" width="435" height="1"/>
							</g>
							<g>
								<rect x="145.8" y="-289.5" class="st1" width="435" height="57"/>
								<path class="st3" d="M146.8-277.5c0,0,234-5,271-6s115,2,118,3s43,0,43,0v-3c0,0-34,0-41,0s-55-6-55-6h-110h-226
									L146.8-277.5L146.8-277.5z"/>
								<path class="st2" d="M578.8-250.5l-124-1c0,0-83-2-90-3s-17-2-16-4s16-5,29-6s201-2,201-2s-180,1-187,4s0,3,3,4
									S578.8-250.5,578.8-250.5z"/>
								<path class="st2" d="M577.8-256.5c-2,0-85,0-83-2s11-4,19-5s50-2,50-2s-59,4-55,5s70,2,70,2L577.8-256.5z"/>
								<rect x="145.8" y="-239.5" class="st2" width="435" height="4"/>
								<rect x="145.8" y="-244.5" class="st3" width="435" height="1"/>
								<rect x="145.8" y="-241.5" class="st2" width="435" height="1"/>
							</g>
							<g>
								<rect x="291.2" y="-231.5" class="st1" width="435" height="57"/>
								<path class="st3" d="M292.2-219.5c0,0,234-5,271-6s115,2,118,3s43,0,43,0v-3c0,0-34,0-41,0s-55-6-55-6h-110h-226V-219.5z"/>
								<path class="st2" d="M724.2-192.5l-124-1c0,0-83-2-90-3s-17-2-16-4s16-5,29-6s201-2,201-2s-180,1-187,4s0,3,3,4
									S724.2-192.5,724.2-192.5z"/>
								<path class="st2" d="M723.2-198.5c-2,0-85,0-83-2s11-4,19-5s50-2,50-2s-59,4-55,5s70,2,70,2L723.2-198.5z"/>
								<rect x="291.2" y="-181.5" class="st2" width="435" height="4"/>
								<rect x="291.2" y="-186.5" class="st3" width="435" height="1"/>
								<rect x="291.2" y="-183.5" class="st2" width="435" height="1"/>
							</g>
							<g>
								<rect x="436.5" y="-173.5" class="st1" width="435" height="57"/>
								<path class="st3" d="M437.5-161.5c0,0,234-5,271-6s115,2,118,3s43,0,43,0v-3c0,0-34,0-41,0s-55-6-55-6h-110h-226V-161.5z"/>
								<path class="st2" d="M869.5-134.5l-124-1c0,0-83-2-90-3s-17-2-16-4s16-5,29-6s201-2,201-2s-180,1-187,4s0,3,3,4
									S869.5-134.5,869.5-134.5z"/>
								<rect x="436.5" y="-123.5" class="st2" width="435" height="4"/>
								<rect x="436.5" y="-128.5" class="st3" width="435" height="1"/>
								<rect x="436.5" y="-125.5" class="st2" width="435" height="1"/>
							</g>
							<g>
								<rect x="0.5" y="-173.5" class="st1" width="435" height="57"/>
								<path class="st3" d="M1.5-161.5c0,0,234-5,271-6s115,2,118,3s43,0,43,0v-3c0,0-34,0-41,0s-55-6-55-6h-110H1.5V-161.5z"/>
								<path class="st2" d="M433.5-134.5l-124-1c0,0-83-2-90-3s-17-2-16-4s16-5,29-6s201-2,201-2s-180,1-187,4s0,3,3,4
									S433.5-134.5,433.5-134.5z"/>
								<path class="st2" d="M432.5-140.5c-2,0-85,0-83-2s11-4,19-5s50-2,50-2s-59,4-55,5s70,2,70,2L432.5-140.5z"/>
								<rect x="0.5" y="-123.5" class="st2" width="435" height="4"/>
								<rect x="0.5" y="-128.5" class="st3" width="435" height="1"/>
								<rect x="0.5" y="-125.5" class="st2" width="435" height="1"/>
							</g>
							<g>
								<rect x="581.8" y="-115.5" class="st1" width="435" height="57"/>
								<path class="st3" d="M582.8-103.5c0,0,234-5,271-6s115,2,118,3s43,0,43,0v-3c0,0-34,0-41,0s-55-6-55-6h-110h-226V-103.5z"/>
								<rect x="581.8" y="-65.5" class="st2" width="435" height="4"/>
								<rect x="581.8" y="-70.5" class="st3" width="435" height="1"/>
								<rect x="581.8" y="-67.5" class="st2" width="435" height="1"/>
							</g>
							<g>
								<rect x="145.8" y="-115.5" class="st1" width="435" height="57"/>
								<path class="st3" d="M146.8-103.5c0,0,234-5,271-6s115,2,118,3s43,0,43,0v-3c0,0-34,0-41,0s-55-6-55-6h-110h-226
									L146.8-103.5L146.8-103.5z"/>
								<path class="st2" d="M578.8-76.5l-124-1c0,0-83-2-90-3s-17-2-16-4s16-5,29-6s201-2,201-2s-180,1-187,4s0,3,3,4
									S578.8-76.5,578.8-76.5z"/>
								<path class="st2" d="M577.8-82.5c-2,0-85,0-83-2s11-4,19-5s50-2,50-2s-59,4-55,5s70,2,70,2L577.8-82.5z"/>
								<rect x="145.8" y="-65.5" class="st2" width="435" height="4"/>
								<rect x="145.8" y="-70.5" class="st3" width="435" height="1"/>
								<rect x="145.8" y="-67.5" class="st2" width="435" height="1"/>
							</g>
							<g>
								<rect x="291.2" y="-57.5" class="st1" width="435" height="57"/>
								<path class="st3" d="M292.2-45.5c0,0,234-5,271-6s115,2,118,3s43,0,43,0v-3c0,0-34,0-41,0s-55-6-55-6h-110h-226V-45.5z"/>
								<path class="st2" d="M724.2-18.5l-124-1c0,0-83-2-90-3s-17-2-16-4s16-5,29-6s201-2,201-2s-180,1-187,4s0,3,3,4
									S724.2-18.5,724.2-18.5z"/>
								<path class="st2" d="M723.2-24.5c-2,0-85,0-83-2s11-4,19-5s50-2,50-2s-59,4-55,5s70,2,70,2L723.2-24.5z"/>
							</g>
						</g>
					</g>
				</g>
			</g>
		</g>
	</g>
</pattern>
<g id="Layer_1_1_">
	<path class="st4" d="M0,1013.8"/>
	<path class="st0" d="M0,1013.8"/>
	
		<radialGradient id="SVGID_1_" cx="839.1" cy="-257.5" r="537.7081" gradientTransform="matrix(1 0 0 0.6 0 1012.3)" gradientUnits="userSpaceOnUse">
		<stop  offset="0" style="stop-color:#E8CBB1"/>
		<stop  offset="0.6094" style="stop-color:#F8D9C1"/>
		<stop  offset="0.7553" style="stop-color:#F9DAC2"/>
		<stop  offset="0.998" style="stop-color:#FFDFC8"/>
	</radialGradient>
	<path class="st5" d="M95.1,1013.8c148.7-104.3,297.3-208.7,446-313c206,0,412,0,618,0c141.3,104.6,282.7,209.4,424,314
		C1087.1,1014.5,591.1,1014,95.1,1013.8z"/>
	<path class="st6" d="M182.5-5.6c119.7,81.4,239.3,162.9,359,244.3c206-0.3,410.6,0.3,616.6,0c109.3-80.1,224.9-161.9,334.2-242
		C1057.3-4.3,617.5-4.6,182.5-5.6z"/>
	<g id="FLOOR">
		<pattern  id="Floor_2_" xlink:href="#Floor_1_" patternTransform="matrix(1 0 0 -1 -3006.5 -55123)">
		</pattern>
		<rect id="Floor" y="613.3" class="st7" width="1650.8" height="397.7"/>
		
			<radialGradient id="overlay_floor_1_" cx="-421.4378" cy="1735.7258" r="462.8406" gradientTransform="matrix(1.5336 0 0 -1.6144 1466.7141 3608.3113)" gradientUnits="userSpaceOnUse">
			<stop  offset="0" style="stop-color:#A2814B"/>
			<stop  offset="0.5711" style="stop-color:#A17559"/>
			<stop  offset="1" style="stop-color:#7F6D4F"/>
		</radialGradient>
		<polygon id="overlay_floor" class="st8" points="1650.8,627.7 1.1,606.7 0,1011 1650.8,1011 		"/>
	</g>
	<polygon class="st9" points="543.3,239 163,0 0,0 0,1013.8 91.9,1013.8 543.3,700 	"/>
	<polygon class="st9" points="1157.4,240 1510.7,1 1662.2,1 1662.2,1014.8 1576.8,1014.8 1157.4,701 	"/>
	<rect y="-23.3" class="st10" width="98.1" height="1037.1"/>
	<path class="st11" d="M1157.5,541c139.1-3,278.3-6,417.4-9V-63c-139.5,100.7-277.8,201-417.2,301.7
		C1157.9,339.4,1157.1,440.3,1157.5,541z"/>
	<path class="st11" d="M543.1,541c-148.6-3-297.1-6-445.7-9V-63C246.2,37.7,395.1,138.3,543.9,239
		C543.6,339.7,543.4,440.3,543.1,541z"/>
	<path class="st12" d="M544.6,239h612.8v461c-204.7,0-409.4,0-614,0C543.8,546.3,544.2,392.7,544.6,239z"/>
	<g id="Door">
		<polygon class="st13" points="744.6,700 744.6,259.7 954.2,259.7 954,700 		"/>
		<ellipse class="st14" cx="923.2" cy="479.8" rx="7.8" ry="10"/>
	</g>
	<g id="windowAfter">
		<path class="st15" d="M431.5,519.3l69,2.1c-0.9-82.9-1.7-165.7-2.6-248.6c-22.1-15.6-44.3-31.2-66.4-46.8V519.3z"/>
		<path class="st15" d="M239.6,517.7l124.5,2.9c-1.6-108.1-3-216.1-4.6-324.2c-39.6-21.7-79.6-43.6-120-65.6v386.9H239.6z"/>
		<path class="st16" d="M355.1,202.2c-31.6-16.3-63.4-32.9-95.6-49.6l-2.5-1.3c-0.1,0-9.7-5.1-9.8-5.1c0,118.9-0.1,237.9-0.1,356.8
			l112.7,3.6L355.1,202.2z"/>
		<path class="st16" d="M493.4,276.7c-11.7-7.7-23.4-15.3-35.2-23c-7.4-4.9-14.9-9.7-22.3-14.6c0,90.5,0,180.9,0,271.4l60,4.1
			L493.4,276.7z"/>
		<path class="st17" d="M436.3,253.6c3.9,6.2,7.5,7.9,10.2,8.2c5.2,0.7,8.2-3.5,13.5-2.8c4.5,0.5,4.6,5.5,10.1,7.5
			c3,1.1,5.9,0.8,7.8,0.5l0.2-0.3l-43.4-29l0.1,14.8L436.3,253.6z"/>
		<path class="st17" d="M252,174.1c10.4,9.5,28.2,2.6,35.4,11.8c5.4,7.1-2.4,15.2,2.4,22.1c5.6,8,21.6-1.2,39.5,4.2
			c10.9,3.3,18.1,10.4,22.4,15.5c1.3,0.8,2.6,1.7,3.9,2.5c-0.2-9.9-0.4-19.9-0.5-29.8c-33.3-16.7-69.1-34.7-107.8-54.1
			C243.9,162.3,247.6,170,252,174.1z"/>
		<path class="st18" d="M455.4,257.7c-1.6,16.3-3.4,38.6-4.8,65.2c-1.7,32.1-3.2,60.3-1.8,95.8c1,24.1,3.5,56.1,10,93.8
			c-7.7-0.3-15.5-0.5-23.2-0.8c-0.2-69.1-0.5-157.3-0.9-273.8C441.8,244.5,448.7,251.2,455.4,257.7z"/>
		
			<rect x="297.1" y="275.7" transform="matrix(0.347 -0.9379 0.9379 0.347 -121.9372 502.7045)" class="st15" width="5.9" height="126.4"/>
		<polygon class="st15" points="433,385.7 435.5,382.6 497.1,405.3 494.6,408.4 		"/>
		<rect x="310.2" y="173.5" class="st15" width="5.1" height="338.8"/>
		<rect x="470.4" y="261.5" class="st15" width="2.6" height="257.1"/>
	</g>
	<g id="Mold">
		<g id="Window">
			<path class="st15" d="M431.4,519.3l69,2.1c-0.9-82.9-1.7-165.7-2.6-248.6c-22.1-15.6-44.3-31.2-66.4-46.8V519.3z"/>
			<path class="st15" d="M239.5,517.6l124.5,2.9c-1.6-108.1-3-216.1-4.6-324.2c-39.6-21.7-79.6-43.6-120-65.6v386.9H239.5z"/>
			<path class="st19" d="M355,202.1c-31.6-16.3-63.4-32.9-95.6-49.6l-2.5-1.3c-0.1,0-9.7-5.1-9.8-5.1c0,118.9-0.1,237.9-0.1,356.8
				l112.7,3.6L355,202.1z"/>
			<path class="st19" d="M493.3,276.6c-11.7-7.7-23.4-15.3-35.2-23c-7.4-4.9-14.9-9.7-22.3-14.6c0,90.5,0,180.9,0,271.4l60,4.1
				L493.3,276.6z"/>
			<path class="st18" d="M455.3,257.6c-1.6,16.3-3.4,38.6-4.8,65.2c-1.7,32.1-3.2,60.3-1.8,95.8c1,24.1,3.5,56.1,10,93.8
				c-7.7-0.3-15.5-0.5-23.2-0.8c-0.2-69.1-0.5-157.3-0.9-273.8C441.7,244.4,448.6,251.1,455.3,257.6z"/>
			<path class="st17" d="M436.2,253.5c3.9,6.2,7.5,7.9,10.2,8.2c5.2,0.7,8.2-3.5,13.5-2.8c4.5,0.5,4.6,5.5,10.1,7.5
				c3,1.1,5.9,0.8,7.8,0.5l0.2-0.3l-43.4-29l0.1,14.8L436.2,253.5z"/>
			<path class="st17" d="M251.9,174c10.4,9.5,28.2,2.6,35.4,11.8c5.4,7.1-2.4,15.2,2.4,22.1c5.6,8,21.6-1.2,39.5,4.2
				c10.9,3.3,18.1,10.4,22.4,15.5c1.3,0.8,2.6,1.7,3.9,2.5c-0.2-9.9-0.4-19.9-0.5-29.8c-33.3-16.7-69.1-34.7-107.8-54.1
				C243.8,162.2,247.5,169.9,251.9,174z"/>
		</g>
		<g id="Mold_1_">
			<path class="st20" d="M242,445.1c0,0,11.5,1.6,9.9,11.2c0,0,1.3,5.4-0.7,8.7l1.5,4.2c0,0-1.3,7.9-0.2,7.9c0,0-2.1,4-1.5,7.4
				c0,0,4.7,4.7,3,10.5c0,0,4.7,2.1,4,5.7c0,0,8,1.1,8.9,2.6c0,0,2.3-3.2,12.1-1.5s14.7,0.3,14.7,0.3l9.1,1l4.2-0.6
				c0,0,1.4-3.8,3-1.6s0,7.6,0,7.6l-3.5-1.1c0,0-12.2,1.5-18.8-1.9c-6.6-3.4-12-0.7-12-0.7l9.3,3.6c0,0-11.6-0.5-17.3-3.5
				c-5.8-3-3.7,5-3.7,5s-3.8,1.2-1.7,5.8c2.1,4.6-3,4.2-3,4.2s-5.6-6.8-3.5-10.5s-2.3-4.4-2.3-4.4l-3.2,4.9c0,0-5.5,0.8-5.6,5.9
				c0,0-2.4-7.6,2.2-13l-3.3-10c0,0,3-7.9,0.8-11.4s0.2-8.8,0.2-8.8l1-8.1c0,0-4-5.8,0.2-9C245.8,455.6,241.3,449.9,242,445.1z"/>
			<path class="st20" d="M243.1,314.2c0,0,8.2-0.5,9.4,1.1s0,2.9,0,2.9l-10.7-3.9L243.1,314.2z"/>
			<path class="st20" d="M245.6,321.9c0,0-1.3,3.6,0.7,3.4l-0.1,3.1l1.1-3.1l4.1,0.1l0.3-1.3L245.6,321.9z"/>
			<polygon class="st20" points="303.1,343.4 302.5,345.3 303.6,348.5 305.5,350.6 304.6,353.9 302.6,354.4 303.3,358.5 
				303.9,361.1 302.6,361.9 303,364.5 304.4,365.8 304,368 303.1,369.1 304.1,372.1 303.3,380.2 306.2,377.8 305.9,373.9 
				305.9,371.9 309.1,370.2 307.2,364 308.9,361.2 310.4,355.1 310,345.6 			"/>
			<polygon class="st20" points="316.5,348.4 315.9,350.8 318,352.3 319.9,356 318.8,356.7 321.1,362.5 319.4,371.9 320.1,377.3 
				319.4,380.9 318.8,387.4 320.1,387.2 317.4,391.1 317.9,396.6 317.5,399.9 318.3,408.3 317.1,412.9 317,418.2 317.6,424.9 
				315.8,428.2 315,429.4 314.9,347.7 			"/>
			<polygon class="st20" points="314.9,504 317.4,503.3 316.7,500.8 320.5,501.9 322.5,500.3 325,502.4 328.7,503.2 334.3,501.7 
				336.3,502.9 338.2,502.4 340.3,501.7 344.8,503.4 348.8,502.5 352,502.2 356.7,499.9 354.2,496.3 362.5,500.9 363.2,502.8 
				361.6,506.2 360.3,511.6 359.1,508.3 357.2,509.3 357.6,511.3 356.4,513 357.5,515.6 356.6,517.1 357.1,519.3 356.2,522.2 
				356.2,524.7 353,521.6 351.3,518.2 349.7,517.7 350.1,515.4 351.8,513.7 349.7,511.3 350.9,509.7 351.3,508.2 347.4,509.4 
				345.1,509.8 343,509.7 341.6,511.5 341.6,513.6 339.4,514.9 338.4,516.2 336.1,512.2 333.8,515 333.3,517.5 331.9,517.9 
				330.8,515.4 330.1,518.4 327.7,519.8 324.8,516.2 324.7,520.6 322.7,523.3 321,521.5 319.7,519.7 320.4,517.9 319.1,515.5 
				318,513.4 320.1,510.4 319.7,508.2 317.8,508.3 316.7,509.1 315.2,508.8 			"/>
			<path class="st20" d="M434,386.7v2l-2.2-0.2v2.2l1.4,3.8l1.1,4.1l0.1,3.2l0.5,1L434,407l-0.6,1.3l2,3.3l-0.7,1.5l-0.6,2.1l1,13.5
				l-2.1,1.5l-0.3,2.4l2,1.2l-1.1,3.1l1,1.8l-2,1.2l1.9,2.6l-1.8,3.4l1.3,1.5l-0.8,4.7l-0.1,3.1l1.4,1.1c0,0-0.8,2.6-0.8,2.7
				s-1.6,1.9-1.6,1.9l1,3.3l0.5,5.1l-1.7,2.2l1.2,2.7l0.6,5.6l-1.2,2.7l1.5,3.9c0,0-0.4,4.5-0.6,5.1s-1.5,2-1.5,2l0.9,2.2l-0.4,2.9
				l0.6,2.2l-0.6,2.3l1,4.2l0.2,1.8l-3.7-0.7l2.8,3.9L432,515l-1.4,0.8l0.8,3.5l-2-0.7l0.3,2.3l-1.1,2.9l0.9,2.2l2,2l2.5-1.1
				l1.2-4.3l2.6-1.2l-0.9-2.5l1.9-3.6c0,0,1.1-0.9,1.2-0.8s2.4,0,2.4,0l-0.1,5.3l2.4-1.5l2.3-2l1.8,0.5l2.6-1.7l1.3,1.5l2.1-1.1
				l2.4,0.5l1.6,1.4l0.2,3.5c0,0,1.7,0.8,2.3,0.7s2.9-2.2,2.9-2.2l1.4-2.4l1.9-1.4l1,1.4l1.6-2.8v-1.7l0.1-3.3l-4.6,1.4l-1.8-1.3
				l-1.8-0.6l-4.9,1.3l-1.5-0.9l-2.5-0.7l-3.8,0.7l-2-3.5l-4.1-3.1l-2.2,0.4l-0.8,1.6l2.2,2.1l-1.8,0.8l-1.2-0.9l0.6-3l-1.2-2.4
				l1.4-4.9l0.7-2.3l-1.5-3.6l-0.4-4.4l0.5-4.2l-2.2-3.9l-1.2-4.6l1.4-6.4l0.8-5c0,0-0.2-3.2,0-3.7s1.2-3.4,1.2-3.4l-0.4-6l3.1-13.2
				l-1.2-3.6l-0.2-3.4l0.9-2.1l0.9-4.7l-1.8-5.1l0.5-3.5l0.7-3.7c0,0-1.7-4-1.4-4.9c0.3-1-0.1-9-0.1-9l-2.2-3.9l0.2-3.3L434,386.7z"
				/>
			<polygon class="st20" points="433.7,382.5 433.9,375.3 435.3,379 435.4,382.5 437.2,381.7 438.6,380.7 437.9,383.2 			"/>
			<path class="st20" d="M472.9,488.9l2-5.7l2,4c0,0-0.7,2.8-0.7,3.1c0,0.3,1.1,1.3,1.3,1.5s-0.8,1.4-0.8,1.4l1.2,1.4l0.6,3.1
				l-0.6,0.9l-1.2,1.5l0.4,2.7l0.7,1.6l-0.9,0.8l0.6,1.2l-1.4,1.8l0.6,1.3l2.3,0.9l3.1,0.4l4.6,1l4.5,0.5l2.6,0.3l1.9-1.1l-0.1,2
				h1.8l0.3,1.9l3,1.2v1.5l-0.9,0.9l0.8,0.9l-2.3,2.7c0,0-0.6,0.8-0.6,0.9s0.4,2.1,0.2,2.7s-1.5,1.7-1.5,1.7s-1,0.1-0.9,0
				s-1.3-2.5-1.3-2.5s-0.9-1.6-1.1-1.8s-1.7-2.9-1.7-2.9l0.8-4.6l-2.6-0.9l1.1,1.8l-0.2,2.8c0,0-1.7,1.4-1.9,1.7
				c-0.2,0.3-1.5,1.7-1.6,1.9s-1.7,0.3-1.7,0.3l-2.2-3.7l-0.9-2.1l2.5-1.1l-1.1-1.5l-2.9-0.1v2.4l-2.6,1.7l-1.4,2.7l-2,0.8l-1.6-2.4
				c0,0-0.2-2.3-0.1-2.2S472.9,488.9,472.9,488.9z"/>
			<polygon class="st20" points="470.1,404.6 468,402.2 466.1,400 465,397.4 470.2,399.3 470.3,405.1 			"/>
			<polygon class="st20" points="465.9,393.8 467.4,393.2 464.5,392.4 463.1,392.3 464.4,392 468.1,392 470.3,391.9 470.3,395.4 			
				"/>
			<path class="st20" d="M472.9,392.3l1.3,1.2l2.3,0.3l1.5,0.2l0.5-1.4l0.5,0.3l-0.2,1.1l0.1,0.7l-0.3,0.6l-1.1-0.1l-1.2,0.1
				l-0.8,0.2l0.9,0.8l1.1-0.6l-0.1,1.7l-0.9,0.1l-1.3-0.8l-1-0.7l-1.4,0.1v-3.8L472.9,392.3L472.9,392.3z"/>
			<path class="st20" d="M473,401.2l1.2,0.8l3.6,2.2l-1.5,0.9l1.7,1.5l0.6,3.4l0.9,4.1v3.3l-1.2,1.2l1.2,5.1l0.3,1.3l-0.7,1.6
				l-1,1.7l0.6,3.6l0.7,1.4l-1.6,1.6c0,0-0.9,2.5-1,3.2s-0.4,4.2-0.4,4.2l1.6-1.3l-0.3,2l-0.1,2.4l-1.4,1.3l0.9,2.9l-0.7,2.1
				l0.7,2.8l-1.9,3.1l0.2,3l0.7,1.5l-1,2.6l-1.5,3.3l-0.1-4.1v-6.6l-0.7-2.4L473,401.2z"/>
		</g>
		
			<rect x="297.2" y="275.8" transform="matrix(0.347 -0.9379 0.9379 0.347 -121.9416 502.8336)" class="st15" width="5.9" height="126.4"/>
		<polygon class="st15" points="432.9,385.6 435.4,382.5 497,405.2 494.5,408.3 		"/>
		<rect x="310.1" y="173.4" class="st15" width="5.1" height="338.8"/>
		<rect x="470.3" y="261.4" class="st15" width="2.6" height="257.1"/>
	</g>
	<ellipse class="st13" cx="842.4" cy="62.2" rx="87.8" ry="33.5"/>
	<path class="st21" d="M542.6,533L98.7,513v56c148.6-3.5,295.4-7,444-10.5C542.6,550,542.6,541.5,542.6,533z"/>
	<g id="Stairs">
		<polygon class="st22" points="0,877.4 0,1014 183,1014 		"/>
		<polygon class="st22" points="16.4,480.1 16.4,889.6 31,900.5 31,493.2 		"/>
		<polygon class="st22" points="65.4,521.4 65.4,926.2 80,937.1 80,534.5 		"/>
		<polygon class="st22" points="114.4,565.1 114.4,962.8 129,973.7 129,578.2 		"/>
		<polygon class="st22" points="163.4,607.4 163.4,999.4 178,1010.3 178,620.3 		"/>
		<polygon class="st22" points="212.4,655.3 212.4,1016.5 227,1022.8 227,666.7 		"/>
		<polygon class="st22" points="263.8,701 263.8,1014.5 278.4,1022.8 278.4,711 		"/>
		<polygon class="st23" points="0,908.7 0,1014 141,1014 		"/>
		<line class="st24" x1="0" y1="961.4" x2="49" y2="941.8"/>
		<polygon class="st25" points="48.2,941.8 48.2,974.8 92.8,974.8 		"/>
		<polygon class="st25" points="1.4,908.7 1.4,941.7 46,941.7 		"/>
		<polygon class="st25" points="92.1,974.8 92.1,1007.7 136.7,1007.7 		"/>
		<line class="st24" x1="0" y1="1014" x2="97.2" y2="975.7"/>
		<line class="st24" x1="91.6" y1="1025.1" x2="140.7" y2="1005.5"/>
		<polygon class="st25" points="135,1006.3 135,1039.3 179.6,1039.3 		"/>
		<path class="st22" d="M0,439.2l291,250.2c10.3,0,20.7,0,31,0c8.6,2.7,14.6,9.7,15,17c0.5,10.1-9.9,20.9-24,20c-8.7-1-17.3-2-26-3
			c-95.7-86-191.3-172-287-258V439.2z"/>
	</g>
	<g id="Hanger">
		<path id="coatrack_shadow" class="st26" d="M1136.3,471.2l-6-69c-6.7-23.1-13.3-46.2-20-69.3c-0.2-0.9-0.9-3.4-3.3-5.4
			c-2.3-1.9-4.8-2.2-5.7-2.3c-1.1,0-2.8,0.3-4.7,1.3c-3.4,1.9-4.7,5-5,6c0,0.6,0,1.2,0,1.7l-15.7,13.6h-1
			c4.8-8.3,9.5-16.6,14.3-24.9c-1.5,0.7-2.9,1.5-4.4,2.2l-13.7,21.2v-11.6c-0.4-1.1-1.4-1.8-2.5-1.9c-1.2,0-2.3,0.7-2.7,1.9
			c0.1,3.8,0.1,7.6,0.1,11.4l-13-21.1c-1.2-0.5-2.5-0.9-3.8-1.4c4.4,8.1,8.8,16.2,13.2,24.2h-3l-16.9-15.4l0.9-11.6l-4.8,4.4h-13.1
			c-5,4.6-7.5,7.9-11.5,13.4c-1.8,5.5-3.3,11.1-3.2,16.6l8.4,10.1l-0.8,6.9l22.8-21.8l1-13.8c5.1,5.3,10.2,10.6,15.4,15.9h6.6h0.4
			l-8.8,347c-8.4,7.2-38.4,19.4-39.6,21.1c-0.1,0.2-0.5,0.8-0.4,1.3c0.2,0.6,1,0.9,1.5,1c8.6-5.8,28.8-11.8,37.4-17.6
			c-1.1,12.2-14.3,34.1-13.9,36c0,0.3,0.2,0.9,0.7,1.2c0.6,0.3,1.4-0.3,1.8-0.7c2.5-11.6,16.9-24.5,17-36.5c3.4,5.1-3.3,11.9,0.1,17
			c0.4,0.2,1,0.4,1.3,0.1c0.2-0.2,0.1-0.6,0.1-0.8c-0.2-0.7,4.1-11.8,1.2-17.5c0.9,6.9,7.4,16.5,14.5,22c0.5-0.1,1.3-0.3,1.5-0.9
			c0.2-0.6-0.2-1.2-0.3-1.4c-1.1-1.8-8.5-17.2-15.8-24.2l9.7-347.1h5.2c4.6-4.5,9.1-9,13.7-13.5c0,0.9,0,1.9-0.1,2.8
			c-2.3,18.7-3.2,32.7-3.5,36.3c-1.7,23.6-5.9,65.3-7.7,83.3c-1.3,13.5-3,33.1-4.7,57.3c0.6,2.7,1.7,7.7,3.3,12.7
			c0.4,1.2,1,2.9,2.3,4.7c1.3,1.6,2.7,2.7,3.7,3.3c1.5,0.7,3.7,1.4,6.3,1.7c1.8,0.2,3.4,0.1,4.7,0c0.4,0.5,3,3.9,7.7,4.3
			c0.4,0,0.8,0,1.2,0c0.8,0.6,1.7,1.1,2.9,1.4c2.6,0.5,4.7-0.9,5.3-1.3c2.4-2.3,4.9-4.7,7.3-7c3.6,0.5,6.5,0.7,8.7,0.7
			c2.8,0.1,3.8-0.1,4.7-0.3c2.9-0.8,4.9-2.5,6-3.7C1138.5,513.9,1137.4,492.5,1136.3,471.2z"/>
		<path class="st27" d="M1045.1,348.8h5.1V331c-0.4-1.1-1.4-1.8-2.5-1.9c-1.2,0-2.3,0.7-2.7,1.9
			C1045.1,336.9,1045.1,342.8,1045.1,348.8z"/>
		<path class="st28" d="M1050.1,698c2.8,5.5,11.4,22.3,11.7,23.6c0,0.2,0.1,0.6-0.1,0.8c-0.3,0.3-0.9,0.1-1.3-0.1
			c-5.3-8.1-10.6-16.2-16-24.2L1050.1,698z"/>
		<path class="st29" d="M1078.7,723.8c-1.1-1.8-19.7-19.9-27-26.9V344h-8v352.1c-8.4,7.2-26.3,22.8-27.5,24.5
			c-0.1,0.2-0.5,0.8-0.4,1.3c0.2,0.6,1,0.9,1.5,1c8.6-5.8,17.3-11.7,25.9-17.6c-1.1,12.2-3.2,34.1-2.8,36c0,0.3,0.2,0.9,0.7,1.2
			c0.6,0.3,1.4-0.3,1.8-0.7c2.6-12.1,5.1-24.2,7.7-36.3c9,6.9,18,13.7,26.9,20.6c0.5-0.1,1.3-0.3,1.5-0.9
			C1079.2,724.6,1078.8,724,1078.7,723.8z"/>
		<path class="st30" d="M1075.2,326.6l-20.2,17.5h-1c4.8-8.3,9.5-16.6,14.3-24.9c-1.5,0.7-2.9,1.5-4.4,2.2l-13.9,21.5h-4.6
			l-13.3-21.6c-1.2-0.5-2.5-0.9-3.8-1.4c4.4,8.1,8.8,16.2,13.2,24.2h-3l-19.2-17.5c-2.3-0.9-4.6-1.9-6.9-2.9
			c8.1,8.3,16.2,16.7,24.3,25.1h6.6h0.8h1.2h0.1h2.3h3.6h0.4h5.2c8.3-8.2,16.6-16.5,24.9-24.7
			C1079.6,324.9,1077.4,325.7,1075.2,326.6z"/>
		<path class="st31" d="M1071.7,328.1c-0.2,1.9-0.6,4.8-1,8.3l0,0c-2.4,19.5-3.4,34.2-3.7,38c-1.7,23.6-5.9,65.3-7.7,83.3
			c-1.3,13.5-3,33.1-4.7,57.3c0.6,2.7,1.7,7.7,3.3,12.7c0.4,1.2,1,2.9,2.3,4.7c1.3,1.6,2.7,2.7,3.7,3.3c1.5,0.7,3.7,1.4,6.3,1.7
			c1.8,0.2,3.4,0.1,4.7,0c0.4,0.5,3,3.9,7.7,4.3c5.5,0.5,9-3.6,9.3-4c2.8-1.4,5.5-2.8,8.3-4.2c1.1-21.1,1.4-43.5,0.7-67.1
			c-1.7-53.7-8.4-101.8-17.1-143.3c-0.7,1-2.8,3.5-6.5,4.6C1074.9,328.5,1072.9,328.3,1071.7,328.1z"/>
		<path class="st32" d="M1070.7,328.8c0.3-1,1.6-4.1,5-6c1.9-1,3.6-1.3,4.7-1.3c0.9,0.1,3.4,0.4,5.7,2.3c2.4,2,3.1,4.5,3.3,5.4
			c6.7,23.1,13.3,46.2,20,69.3l6,69c1.1,21.3,2.2,42.7,3.3,64c-1.1,1.2-3.1,2.9-6,3.7c-0.9,0.2-1.9,0.4-4.7,0.3
			c-2.2,0-5.1-0.2-8.7-0.7c-2.4,2.3-4.9,4.7-7.3,7c-0.6,0.4-2.7,1.8-5.3,1.3c-2-0.4-3.3-1.6-4.3-2.7c-2.1-2.1-2.9-4.5-3.3-6
			c-4.3-41.2-7.3-85.1-8.3-131.7C1070.1,377.3,1070.1,352.6,1070.7,328.8z"/>
		<line class="st33" x1="1089.4" y1="356.5" x2="1104.4" y2="478.5"/>
		<line class="st33" x1="1086.2" y1="357.9" x2="1093.5" y2="469.6"/>
		<line class="st33" x1="1098.6" y1="531.2" x2="1095.2" y2="482.6"/>
		<line class="st34" x1="1075.2" y1="533.5" x2="1071.7" y2="480.3"/>
	</g>
	<g id="Hat">
		<path class="st35" d="M993.1,334.9c-1.8,5.5-3.3,11.1-3.2,16.6l8.4,10.1l-0.8,6.9l22.8-21.8l2.2-29.6l-4.8,4.4h-13.1
			C999.6,326.1,997.1,329.4,993.1,334.9z"/>
		<polygon class="st36" points="1004.1,324.1 1000.4,337.5 991.3,348.7 994.4,335.6 		"/>
		<line class="st37" x1="1008.6" y1="353.4" x2="1017.4" y2="344.8"/>
		<line class="st37" x1="1018" y1="333.9" x2="1017.1" y2="345.1"/>
	</g>
	<g id="Stool">
		<g id="Layer_3">
			<line class="st38" x1="552.5" y1="698.2" x2="704.9" y2="698.2"/>
			<path class="st39" d="M558,646.4c-4.5,17.9-18.1,72.8-18,77.1c0,0.5,0.1,1.9,0.9,2.5c1,0.8,2.7,0,3.6-0.5
				c9.9-26.6,19.9-53.1,29.8-79.7L558,646.4z"/>
			<path class="st39" d="M690.6,652.2c6.3,20.7,21.4,70,23.7,73c0.2,0.3,1,1.4,1.8,1.2c1-0.2,1.8-1.9,2.2-3
				c-5.2-26.1-10.3-52.1-15.5-78.2C698.8,647.6,694.7,649.9,690.6,652.2z"/>
			<line class="st40" x1="558.4" y1="706.4" x2="703.5" y2="706.4"/>
			<line class="st40" x1="558.4" y1="704" x2="702.3" y2="704"/>
			<line class="st40" x1="558.8" y1="701.8" x2="701" y2="701.8"/>
			<line class="st40" x1="557.6" y1="707.9" x2="703.5" y2="707.9"/>
			<rect x="552.5" y="642.1" class="st41" width="158" height="11.4"/>
		</g>
		<line class="st38" x1="550.3" y1="709.8" x2="708.7" y2="709.9"/>
		<line class="st38" x1="559.5" y1="698.2" x2="557.2" y2="709.8"/>
		<line class="st38" x1="700" y1="698.2" x2="704.7" y2="709.8"/>
		<line class="st42" x1="628.7" y1="698.2" x2="628.7" y2="709.8"/>
		<polygon class="st43" points="562.1,583.6 554.3,587.7 546.3,598.7 547.2,628.8 556.2,641 565.4,638.3 564,635.3 556,638 
			549.1,627.6 547.3,598 554.6,588.2 562.3,584.6 564,582.2 		"/>
		<polygon class="st44" points="577.6,582.5 565.2,585.6 550.8,599.7 550.5,634 560.3,642.1 570,638.5 569.1,636.6 560.4,640 
			553,632.6 552.7,609 552.6,599 565.7,586.5 577.5,584 580.4,581.1 		"/>
		<path class="st45" d="M567,578.6c-0.9,1.1-6.9,8.9-7.8,10c-2.4,3.1-2.6,3.3-2.6,3.4c-2.7,3.5-3.7,15.4,2.4,50.1h22.3l-1.7-45.6
			L567,578.6z"/>
		<polygon class="st46" points="591.5,579.7 567,578.6 579.5,596.5 581.2,642.1 608.9,642.1 610.5,596.6 596.4,579.2 		"/>
		<polygon class="st47" points="579.5,596.5 599.6,604.8 610.5,596.6 596.4,579.2 567,578.6 		"/>
		<path class="st48" d="M599.1,600.2l-1.3,4.9l2,4.4l1.6-4.9L599.1,600.2z"/>
		<g id="Layer_4">
			<path class="st49" d="M641,677.4c0.7-0.7,2-1.9,4.2-2.8c2.1-0.8,4-1,5-1c1.1,0,3.6,0.3,6,1.7c1.2,0.7,2.1,1.5,2.6,2.2
				c1.3,8.1,2.5,16.2,3.8,24.4c-0.3,0.9-1,3.2-3.4,5.1c-2.9,2.4-6.4,2.8-7.4,3c-1.8-0.3-5.5-1.2-8.9-3.8c-2-1.5-3.1-3.1-3.8-4.3
				C639.8,693.6,640.4,685.5,641,677.4z"/>
			<path class="st49" d="M666.9,677.4c1-0.7,2.4-1.6,4.2-2.3c1.9-0.8,3.7-1.2,5-1.5c1.1,0.1,2.5,0.4,4,1c2.3,0.9,3.8,2,4.6,2.8
				c1.3,8.1,2.5,16.2,3.8,24.4c-0.4,1-1.5,3.2-4,5.1c-2.7,2-5.5,2.7-6.8,3c-1.6-0.3-5-1-8.3-3.3c-2.4-1.7-3.7-3.6-4.4-4.8
				C665.7,693.6,666.3,685.5,666.9,677.4z"/>
			<path class="st50" d="M642.4,702.1c2.8,0.7,5.6,1.3,8.4,2c2.9-0.7,5.7-1.4,8.6-2.1c-0.9-7.8-1.8-15.7-2.8-23.5
				c-0.5-0.5-1.4-1.2-2.6-1.8c-1.4-0.7-2.7-0.9-3.5-1c-0.8,0-2,0.2-3.3,0.7c-1.5,0.6-2.5,1.3-3.1,1.8
				C643.5,686.1,643,694.1,642.4,702.1z"/>
			<path class="st50" d="M667.9,701.2c3,1.7,5.9,3.4,8.9,5.2c3-2,6-4,9.1-6c-1-6.8-2-13.6-3-20.3c-0.3-0.5-0.9-1.7-2.4-2.5
				c-2-1.1-3.9-0.9-4.5-0.8c-0.6,0-2.6-0.1-4.5,1.2c-1.5,1-2.2,2.3-2.4,2.8C668.7,687.6,668.3,694.4,667.9,701.2z"/>
			<path class="st51" d="M639.3,700l11.6-5.5l11.5,5.5c0.1,0.6,0.4,4.1-2.9,7c-3,2.6-6.9,2.8-7.6,2.8c-0.9,0-5.7-0.2-9.3-3.5
				C639.8,703.9,639.4,701,639.3,700z"/>
			<path class="st51" d="M665.3,699.6l11.6-5.5l11.5,5.5c0.1,0.6,0.4,4.1-2.9,7c-3,2.6-6.9,2.8-7.6,2.8c-0.9,0-5.7-0.2-9.3-3.5
				C665.8,703.4,665.4,700.5,665.3,699.6z"/>
			<polygon class="st49" points="650.9,700.4 654.6,696.3 650.9,694.6 647.5,696.2 			"/>
			<polygon class="st49" points="676.7,700 680.5,695.9 676.8,694.1 673.3,695.7 			"/>
		</g>
	</g>
	<g id="Carpet_1_">
		<ellipse id="Carpet" class="st52" cx="849.4" cy="746.4" rx="132.3" ry="36.1"/>
		<ellipse id="CIRCLE_DETAIL" class="st53" cx="849.4" cy="746.4" rx="123.6" ry="28.4"/>
	</g>
	<polygon class="st21" points="1158,539.9 1575.7,517 1575.7,568.5 1157.9,558.8 	"/>
	<polygon class="st54" points="1498.5,464.5 1187.8,488.6 1187.8,298.8 1498.5,88.6 	"/>
	<polygon class="st55" points="1488.9,453.3 1192.1,481.2 1192.1,305.4 1488.9,110.7 	"/>
	<g id="Layer_5">
		<path d="M1196.8,481c-2.9-34.2-3.3-48.2-2.7-52.6c0.1-0.8,0.1-3.4,1.1-7.2c0.7-3,1.1-6,1.3-9c0.2-2.7,1.2-4.8,3-6.3
			c7.4-6.5,15.1-13.3,23.3-20.2c0,0,1.4-1.2,3-3.4c2-2.9,2-4.5,1.9-4.9c0-0.3-0.1-0.5-0.2-0.8c-1.2-4-2.6-6.7-2.6-6.7
			c-0.8-1.7-1.1-2.3-1.6-2.4c-2-0.4-2.1-2.3-2.2-4.5c-0.1-3.6-0.8-6.9-1.3-10.3c-0.1-0.6-0.4-1.1-0.2-1.8c0.5-1.9,0.1-3.3-0.5-4.7
			c-0.7-1.7-1.3-3.4-1.5-5.5c-0.7-6.8-0.6-13.6,3.3-21.2c2.1-4.2,4.4-6.9,6.9-9.7c1.8-2,5.9-6.7,11.4-9.5c3.3-1.7,6.1-2.2,7-2.4
			c1.2-0.2,2.2-0.5,2.8-0.3c2.1,0.7,3.7-0.1,5.1,0.7c0.8,0.4,1.3,1,2.7,1.4c0.3,0.1,0.7,0.2,1.3,0.3c1.8,0.2,2.3-0.4,2.9,0.1
			s0.9,1.5,1,3c0.1,1.2,0.2,2.5,0.7,3.3c0.9,1.3,0.9,3.2,1.2,4.9c0.5,2.3,0.9,4.6-0.3,7.5c-0.1,0.1-0.1,0.3-0.1,0.4
			c0.8,2-0.2,4.4-0.9,6.7c-0.4,1.4-0.4,2.9,0.4,3.4s1.1,1.3,1.1,2.5c0,4,0.1,8-0.1,12.1c-0.2,3.4-2.6,6.6-2.7,6.9
			c-1.2,2.3-2,2.9-2.5,4.8c-0.6,2.4-0.1,4.3,0.1,4.9c0,0,0,0.1,0.1,0.2c1,2.8,5.8,5.4,9.7,8.3c0.8,0.6,1.9,1.3,3.6,2.5
			c0.8,0.5,1.5,1.2,2.5,1.4c4.6,1.1,9.5,1.8,14.5,2.6c-1-0.9-2.3-2.3-2.4-4.5c0-0.7,0-1.6,1.6-5.9c2-5.7,3.1-7.3,2.6-9
			c-0.3-1-0.8-0.9-1.1-2.3c-0.3-1.3-0.3-2.7,0-4.5c0.5-2.5,1.3-5.2,1.4-7.6c0.2-4,1.9-7.5,4.4-11c2.9-4.2,4.6-4.5,6.2-7.8
			c0.8-1.6,1-2.8,1.3-4.2c1.3-6.6-0.1-8.8,1-14.5c0.1-0.3,0.3-0.6,0.4-0.9c2.7-5.7,5.6-11.4,9-17.1c5.6-9.5,10.8-19.4,17.7-29.1
			c6.1-8.6,11.8-11.6,15-13.4c1.4-0.8,2.7-1.4,5.4-2.6c6.4-2.8,10.9-5.4,14.7-5.4c10.8-0.3,18.7,4,23,12.9
			c5.5,11.5,3.3,17.5,10.2,21.4c5.5,3.1,6.9,3.7,6.9,3.7c3.5,1.6,6.2,2.3,7.5,5.3c0.3,0.8,0.5,1.6,0.8,2.9c0.6,2.9,0.8,4.3,0,6
			c-1,2-2,2.2-2.6,3.6c-1.7,4.1,5.7,7.4,12.8,10.6c0.7,0.3,2.6,0,3.2,1.5c1,2.7,3.9,3.3,6.6,4c7.7,2,9.3,7.8,3.7,15.4
			c-0.2,0.3-0.5,0.6-0.6,1.1c-1.1,2.5,1.8,2.9,2.5,5.7c0.1,0.5-0.5,3.2-1.6,8.7c-0.4,2-0.4,2.1-0.4,2.3c0.4,3.2,5.7,3.1,9.2,4.3
			c4.3,1.5,7.3,4.4,7.2,11.5c-0.2,11.1,0.2,22-0.1,33c-0.2,7.3-0.1,14.5-2.1,22c-4.1,15.5-9.4,30.4-16.3,44.9
			c-0.4,0.9-0.9,1.6-1.6,2c-1.2,0.7-2.6,0.7-2.8,0.8C1429.5,459,1302.5,471,1196.8,481z"/>
		<g id="Layer_6">
			<g id="_x37_hattf.tif">
				<g>
					<path d="M1382.1,463.7c0-11.4,0-22.8,0-34.1c1.3-3.1,3.2-5.6,5.5-7.8c5.5-5.5,11.7-9.7,18.2-13.6c5.4-3.3,10.9-6.6,16.1-11
						c7.4-6.2,11.3-14,11.1-23.7c-0.1-2.4-0.6-4.5-2.1-5.8c-3.7-3.2-5.7-7.7-6.5-13c-0.1-0.6-0.3-1.7-1.3-2.6s-1.8-0.4-3-1.2
						c-1.2-0.8-1.8-2-2.2-3.4c-0.4-1.4-0.6-2.9-0.7-4.5c-0.2-3.1,0-6.1,2.5-9c0.3-0.4,0.1-0.6,0.1-0.9c-0.4-2.7-0.8-5.4-1.2-8.1
						c-0.4-3.3-1-6.5-0.5-10.1c1.5-11.2,6.9-20.6,16.2-28.3c6.2-5.1,12.9-8.1,19.8-10.5c6-2.1,12-3.2,17.5-2.2
						c11,2,16.9,9.4,16.4,22.6c-0.2,4.8-1.2,9.9-2,14.9c-0.2,1.4-0.5,2.6,0.9,3.2c0.8,0.3,1.2,1.2,1.5,2.1c1.1,2.7,0.6,5.9,0.1,9
						c-0.6,3.9-2.1,7.3-5.9,9.7c-1.4,0.9-2.2,2.4-2.4,3.9c-1.1,6.8-3.5,13.1-8.1,18.9c-1.4,1.8-2.1,3.9-2.1,6
						c-0.4,9.2,2.5,16.1,10.1,19.9c4.1,2.1,5.5,1.8,7.3,2.9c4.5,2.8,2.6,10.6,2.4,33c-0.1,11.8-0.2,17.8-0.1,18.4
						c-0.1,4.1-0.9,11-0.8,14.9c0,0.2-3.8,0.6-4.3,0.6c-6.5,0.3-13,1.5-19.5,1.8c-1.3,0.1-4.8,0.4-11.9,1.1c-7,0.7-11.6,1.3-17,1.9
						c-6,0.7-15.7,1.8-23.6,2.6C1404.9,461.9,1394.7,462.8,1382.1,463.7z"/>
				</g>
			</g>
		</g>
	</g>
	<ellipse class="st56" cx="1493.3" cy="103.2" rx="3.2" ry="6.2"/>
	<ellipse class="st56" cx="1493.4" cy="457.2" rx="3.3" ry="5.5"/>
	<ellipse class="st56" cx="1189.8" cy="304.6" rx="0.8" ry="3.8"/>
	<ellipse class="st56" cx="1190" cy="483.8" rx="0.8" ry="3.1"/>
	<g id="Rat" transform="matrix(0.98542783,0,0,0.98542783,133.65514,-61.375923)">
		
			<linearGradient id="path6480_2_" gradientUnits="userSpaceOnUse" x1="-17139.3887" y1="3946.1267" x2="-17190.4688" y2="4012.1606" gradientTransform="matrix(0.4253 0 0 -0.4253 8326.6309 2493.0386)">
			<stop  offset="0" style="stop-color:#2A1B12"/>
			<stop  offset="1" style="stop-color:#CDCCCC"/>
		</linearGradient>
		<path id="path6480_1_" class="st57" d="M979.2,779.6c0,0,5.4-8.1,6-8.2c0.6-0.1-0.4-0.4,0-1c0.4-0.4,0.6-1,1.4-1
			c0.4,0,1.4-0.6,1.4-0.6s1.7-0.6,1.9-1s2.4-1.8,2.4-2.4s0.4-5.8,0.6-6.3c0.4-0.6,0.4-1.8,0.6-1.8c0.1,0,3.6,5.4,3.5,5.4
			c0,0.4,3.6,0.4,3.6,0.4h2.4c0,0,0.6-1.8,1.4-1.8c0.6,0,1.4-1,2.6-0.6c1.4,0.4,2.4,0.4,2.4,0.4s0.4-0.4,0.6-0.6
			c0.6-0.4,6-3.1,7.5-3.1c1.4,0,5.8-0.4,7.8,1.8c1.9,2.2,6,5.8,7.1,7.6c0.6,1.8,2.6,3.9,3.5,3.9c0.4,0,7.1-0.6,7.1-1
			c0-0.1,0-0.4,0-0.4c-0.1-0.8-1.1-1.4-1.4-1.5c-2.4-1-4.2-1.9-5.4-2.6c-0.8-0.4-1.8-1.3-3.5-1.8c-1-0.3-1.9-0.6-2.5-0.6
			c2.4,0,5.8,0.3,9.6,1.7c2.1,0.7,3.9,1.7,5.3,2.5c0.4,0.7,1.3,1.8,1,3.1c0,0.1-0.3,0.8-1,1.4c-2.2,1.9-7.1,2.6-8.1,2.8
			c0,0,0,0-0.1,0c-0.4,0.3,0.6,2.4,0.6,2.4s1.4,5.4,0.4,7.2c-0.6,1.8-1.9,5.8-3.6,7.6c-1.9,1.8-4,4.9-5,5.3
			c-0.6,0.4,1.9,0.6,2.4,0.4c0.4,0,1.7-0.4,1.7-0.4c0,0.4,1.9,1.8,2.4,1.8c0.4,0,0,1-0.6,1c-0.4-0.4-1.4-0.4-1.4-0.4l1.4,1.8
			c0,0-0.4,1.8-0.4,1c-0.4,0-1.7-0.6-1.9-1c0-0.4-0.6-1-0.6-1l0.4,1.8c0,0-0.4,1-0.6,1c-0.1,0-0.6,0-1.4-0.4
			c-0.4-0.7-0.4-2.1-0.7-2.1c-0.4,0-0.4,0.6-0.4,1s-0.4,0.6-0.4,0.6c-0.4-0.4-1.4-0.4-1.4-1s0-1.9-0.6-1.8c-0.6,0.4-1.4,1.8-1.4,1.9
			c0,0.4-0.4,5.4-0.4,5.4s0,4.9,0.4,5.3s3.5,1.8,3.5,1.8c0,0.4-0.4,0.6-0.6,0.6c-0.4,0-2.6-0.4-2.6-0.4s-0.4,0.6,0,1s0.4,1.8,0,1.8
			s-0.6,0.6-0.6,0.4c0-0.4-0.4-1.9-0.6-1.8c-0.6,0.4-1.4,1.9-1.9,1.8c-0.4,0-0.6-0.4-0.4-0.6c0.4-0.4,1.7-2.4,1.4-1.9
			c-0.4,0-2.6,1.9-3.6,1.8c-0.4,0-1.7-0.4-1.4-0.6c0.4-0.4,3.5-1.9,3.5-1.9s0.6-3.5,0.4-3.5c-0.4,0,0-2.4,0-2.8s-4-8.2-5-8.2
			s-9.5-3.1-11.1-1.8c-1.7,1.8-7.1,7.6-7.1,9.3c0,1.8,0.6,3.1,0.4,3.5s-0.6,0.4-0.6,0s-0.6,0.6-0.4,1.8c0.4,1,0.4,2.8,0,2.8
			c-0.6,0-1.4-1.8-1.7-1.8s-0.4,0-0.6,0.4c-0.4,0.4-0.6,1.8-1.7,1.9c-0.6,0.4-0.6-0.6-0.4-1c0.4-0.4,0.6-1,0.4-1
			c-0.4,0.4-1.7,1.8-2.4,1.8c-0.4,0-0.6-0.4-0.4-0.4c0.4-0.4,1.7-1.9,1.7-1.9s-1.9,0.6-1.4,0s1.9-1.9,1.7-1.9s1.7,0,1.7-0.4
			s0.4-3.1,0.4-3.5c-0.4-0.4,0.4-1,0-1.9c-0.6-4.9,0.6-8.6-2.6-17c-3.5-0.4-5-0.4-7.5-1.8c-1-0.6-2.4-1.5-3.6-2.8
			C980.9,782.2,979.9,780.7,979.2,779.6z"/>
		
			<linearGradient id="path6480_3_" gradientUnits="userSpaceOnUse" x1="-17139.377" y1="3947.2864" x2="-17190.457" y2="4013.3203" gradientTransform="matrix(0.4253 0 0 -0.4253 8326.6309 2493.0386)">
			<stop  offset="0" style="stop-color:#2A1B12"/>
			<stop  offset="1" style="stop-color:#CDCCCC"/>
		</linearGradient>
		<path id="path6480" class="st58" d="M979.2,779.1c0,0,5.4-8.1,6-8.2c0.6-0.1-0.4-0.4,0-1c0.4-0.4,0.6-1,1.4-1
			c0.4,0,1.4-0.6,1.4-0.6s1.7-0.6,1.9-1s2.4-1.8,2.4-2.4c0-0.6,0.4-5.8,0.6-6.3c0.4-0.6,0.4-1.8,0.6-1.8c0.1,0,3.6,5.4,3.5,5.4
			c0,0.4,3.6,0.4,3.6,0.4h2.4c0,0,0.6-1.8,1.4-1.8c0.6,0,1.4-1,2.6-0.6c1.4,0.4,2.4,0.4,2.4,0.4s0.4-0.4,0.6-0.6
			c0.6-0.4,6-3.1,7.5-3.1c1.4,0,5.8-0.4,7.8,1.8c1.9,2.2,6,5.8,7.1,7.6c0.6,1.8,2.6,3.9,3.5,3.9c0.4,0,7.1-0.6,7.1-1
			c0-0.1,0-0.4,0-0.4c-0.1-0.8-1.1-1.4-1.4-1.5c-2.4-1-4.2-1.9-5.4-2.6c-0.8-0.4-1.8-1.3-3.5-1.8c-1-0.3-1.9-0.6-2.5-0.6
			c2.4,0,5.8,0.3,9.6,1.7c2.1,0.7,3.9,1.7,5.3,2.5c0.4,0.7,1.3,1.8,1,3.1c0,0.1-0.3,0.8-1,1.4c-2.2,1.9-7.1,2.6-8.1,2.8
			c0,0,0,0-0.1,0c-0.4,0.3,0.6,2.4,0.6,2.4s1.4,5.4,0.4,7.2c-0.6,1.8-1.9,5.8-3.6,7.6c-1.9,1.8-4,4.9-5,5.3
			c-0.6,0.4,1.9,0.6,2.4,0.4c0.4,0,1.7-0.4,1.7-0.4c0,0.4,1.9,1.8,2.4,1.8c0.4,0,0,1-0.6,1c-0.4-0.4-1.4-0.4-1.4-0.4l1.4,1.8
			c0,0-0.4,1.8-0.4,1c-0.4,0-1.7-0.6-1.9-1c0-0.4-0.6-1-0.6-1l0.4,1.8c0,0-0.4,1-0.6,1c-0.1,0-0.6,0-1.4-0.4
			c-0.4-0.7-0.4-2.1-0.7-2.1c-0.4,0-0.4,0.6-0.4,1s-0.4,0.6-0.4,0.6c-0.4-0.4-1.4-0.4-1.4-1s0-1.9-0.6-1.8c-0.6,0.4-1.4,1.8-1.4,1.9
			c0,0.4-0.4,5.4-0.4,5.4s0,4.9,0.4,5.3c0.4,0.4,3.5,1.8,3.5,1.8c0,0.4-0.4,0.6-0.6,0.6c-0.4,0-2.6-0.4-2.6-0.4s-0.4,0.6,0,1
			s0.4,1.8,0,1.8s-0.6,0.6-0.6,0.4c0-0.4-0.4-1.9-0.6-1.8c-0.6,0.4-1.4,1.9-1.9,1.8c-0.4,0-0.6-0.4-0.4-0.6c0.4-0.4,1.7-2.4,1.4-1.9
			c-0.4,0-2.6,1.9-3.6,1.8c-0.4,0-1.7-0.4-1.4-0.6c0.4-0.4,3.5-1.9,3.5-1.9s0.6-3.5,0.4-3.5c-0.4,0,0-2.4,0-2.8c0-0.4-4-8.2-5-8.2
			s-9.5-3.1-11.1-1.8c-1.7,1.8-7.1,7.6-7.1,9.3c0,1.8,0.6,3.1,0.4,3.5s-0.6,0.4-0.6,0s-0.6,0.6-0.4,1.8c0.4,1,0.4,2.8,0,2.8
			c-0.6,0-1.4-1.8-1.7-1.8s-0.4,0-0.6,0.4c-0.4,0.4-0.6,1.8-1.7,1.9c-0.6,0.4-0.6-0.6-0.4-1c0.4-0.4,0.6-1,0.4-1
			c-0.4,0.4-1.7,1.8-2.4,1.8c-0.4,0-0.6-0.4-0.4-0.4c0.4-0.4,1.7-1.9,1.7-1.9s-1.9,0.6-1.4,0s1.9-1.9,1.7-1.9s1.7,0,1.7-0.4
			s0.4-3.1,0.4-3.5c-0.4-0.4,0.4-1,0-1.9c-0.6-4.9,0.6-8.6-2.6-17c-3.5-0.4-5-0.4-7.5-1.8c-1-0.6-2.4-1.5-3.6-2.8
			C980.9,781.8,979.9,780.3,979.2,779.1z"/>
		<path id="path6482" class="st59" d="M992.3,772.9c0,0,0.6-1,0.6-1.8c0-0.4,1.7-1,1.9-1s1.9,1,1.9,1.9c0,0.6,0.4,1.9-0.4,1.9
			c-0.6,0.4-1.9,0.6-2.6,0C993.3,773.7,992.3,772.9,992.3,772.9L992.3,772.9z"/>
		<path id="path6484" class="st60" d="M981.9,781.9c0,0,1.7-0.4,1.7-0.6c0-0.4,0-2.4-0.4-2.4s-1.9-0.6-2.4-0.4
			c-0.4,0.4-0.4,0-0.6,0.4c-0.4,0.4,0,1.8,0,1.9c0.4,0.4,0.4,1,0.6,1C981.3,781.9,981.9,781.9,981.9,781.9L981.9,781.9z"/>
		<path id="path6496" class="st61" d="M987.1,768.7l-1.7,1.9c0,0-0.4-0.4-0.4-0.6c0-0.4,0.6-1,0.6-1L987.1,768.7L987.1,768.7z"/>
		<path id="path6498" class="st62" d="M1038.2,774.7L1038.2,774.7c0.1,0.1,0.3-0.6,0.3-0.6l2.2-0.6c1.1-0.4,2.2-1,3.3-1.4
			c0.7-0.7,1.4-1.3,2.1-1.9c-0.1-0.8-0.4-1.7-0.6-2.5l-1.1-1.1l-3.5-2.2c-1.9-0.6-4.3-1.1-6.9-1.4c-1.4-0.1-2.8-0.1-4-0.1
			c1.7,0.3,3.8,0.8,6,1.8s4,2.1,5.3,3.1c0.6,0.4,1.1,0.8,1.7,1.4c-1,0.4-1.9,0.8-2.9,1.3c-1.5-0.4-1.9,0-2.1,0.1
			C1037,771.4,1038.2,774,1038.2,774.7z"/>
	</g>
	<polygon class="st10" points="1575,-29.5 1682,1 1682,1014.8 1575,1014.8 	"/>
	<ellipse class="st63" cx="842.4" cy="71" rx="58.8" ry="22.4"/>
	
		<radialGradient id="SVGID_2_" cx="842.4" cy="-587" r="32.6546" gradientTransform="matrix(1 0 0 1 0 658)" gradientUnits="userSpaceOnUse">
		<stop  offset="0" style="stop-color:#FFFFFF"/>
		<stop  offset="1.446936e-02" style="stop-color:#FFFEFC"/>
		<stop  offset="0.2537" style="stop-color:#FFF3CA"/>
		<stop  offset="0.4794" style="stop-color:#FFEAA2"/>
		<stop  offset="0.6854" style="stop-color:#FFE486"/>
		<stop  offset="0.8649" style="stop-color:#FFE075"/>
		<stop  offset="0.998" style="stop-color:#FFDF6F"/>
	</radialGradient>
	<ellipse class="st64" cx="842.4" cy="71" rx="42.4" ry="18.3"/>
</g>
<path class="st65" d="M731,260v440.4h238V260H731z M954.2,700.3H744.6V273h209.6L954.2,700.3L954.2,700.3z"/>
</svg>
