<?xml version="1.0" encoding="utf-8"?>
<!-- Generator: Adobe Illustrator 19.2.1, SVG Export Plug-In . SVG Version: 6.00 Build 0)  -->
<svg version="1.1" id="Layer_1" xmlns="http://www.w3.org/2000/svg" xmlns:xlink="http://www.w3.org/1999/xlink" x="0px" y="0px"
	 viewBox="0 0 1662 1013.8" style="enable-background:new 0 0 1662 1013.8;" xml:space="preserve">
<style type="text/css">
	.st0{fill:#FFFFFF;stroke:#000000;stroke-miterlimit:10;}
	.st1{fill:none;}
	.st2{fill:#D7BCA9;}
	.st3{fill:#EDA777;}
	.st4{fill:#FCBD8D;}
	.st5{fill:#F7F6CB;}
	.st6{fill:#846144;}
	.st7{fill:#E6F5FF;}
	.st8{fill:#76BF6D;}
	.st9{fill:#995D34;}
	.st10{fill:#FEE1CA;}
	.st11{fill:#705746;}
	.st12{fill:#E9B78B;}
	.st13{fill:#F8F18B;}
	.st14{fill:#FFEDE1;}
	.st15{fill:#895E3B;}
	.st16{fill:#AA7D55;}
	.st17{fill:none;stroke:#895F3B;stroke-miterlimit:10;}
	.st18{fill:#4C301C;}
	.st19{fill:#A0775C;}
	.st20{fill:#7A543F;}
	.st21{fill:#BA8D6E;}
	.st22{fill:#526677;}
	.st23{fill:#3C5268;}
	.st24{fill:none;stroke:#526778;stroke-miterlimit:10;}
	.st25{fill:none;stroke:#3C5268;stroke-miterlimit:10;}
	.st26{fill:#493B31;}
	.st27{fill:#5B4A3F;}
	.st28{fill:none;stroke:#5C4A3F;stroke-miterlimit:10;}
	.st29{fill:none;stroke:#1E1E1E;stroke-miterlimit:10;}
	.st30{fill:none;stroke:#1E1E1E;stroke-width:0.75;stroke-miterlimit:10;}
	.st31{fill:#7F5334;}
	.st32{fill:none;stroke:#1E1E1E;stroke-width:2;stroke-miterlimit:10;}
	.st33{fill:#9B5699;stroke:#5C2168;stroke-width:0.5;stroke-miterlimit:10;}
	.st34{fill:#9B5699;stroke:#5C2568;stroke-width:0.5;stroke-miterlimit:10;}
	.st35{fill:#AA6D89;}
	.st36{fill:#894E6C;}
	.st37{fill:#D3A3C4;}
	.st38{fill:#FFDD92;stroke:#D8A744;stroke-width:0.5;stroke-miterlimit:10;}
	.st39{fill:#4C3D33;}
	.st40{fill:#A87669;}
	.st41{fill:#756154;}
	.st42{fill:#CC8E6D;}
</style>
<path class="st0" d="M0,1013.8"/>
<path class="st1" d="M0,1013.8"/>
<path class="st2" d="M95,1013c148.7-104,297.3-208,446-312c206,0,412,0,618,0c141.3,104.3,282.7,208.7,424,313
	C1087,1013.7,591,1013.3,95,1013z"/>
<path class="st2" d="M183-5c119.7,81.4,239.3,162.9,359,244.3c206-0.3,412-0.7,618-1C1269.3,158.2,1378.7,78.1,1488-2
	C1053-3,618-4,183-5z"/>
<polygon class="st3" points="542.2,239 162.7,0 0,0 0,1013.8 91.7,1013.8 542.2,700 "/>
<polygon class="st3" points="1157.2,239 1510.5,0 1662,0 1662,1013.8 1576.6,1013.8 1157.2,700 "/>
<rect y="0" class="st4" width="98.1" height="1013.8"/>
<rect x="1544.5" y="0" class="st4" width="117.5" height="1013.8"/>
<path class="st5" d="M1157.5,541c129-3,258-6,387-9V-63C1415.2,37.7,1286,138.3,1156.8,239C1157,339.7,1157.2,440.3,1157.5,541z"/>
<path class="st5" d="M543.8,541.8c-148.6-3-297.1-6-445.7-9v-595c148.8,100.7,297.7,201.3,446.5,302
	C544.3,340.5,544.1,441.1,543.8,541.8z"/>
<path class="st6" d="M431.4,519.3l69,2.1c-0.9-82.9-1.7-165.7-2.6-248.6c-22.1-15.6-44.3-31.2-66.4-46.8V519.3z"/>
<path class="st6" d="M239.5,517.6l124.5,2.9c-1.6-108.1-3-216.1-4.6-324.2c-39.6-21.7-79.6-43.6-120-65.6v386.9H239.5z"/>
<path class="st7" d="M355,202.1c-31.6-16.3-63.4-32.9-95.6-49.6l-2.5-1.3c-0.1,0-9.7-5.1-9.8-5.1c0,118.9-0.1,237.9-0.1,356.8
	l112.7,3.6L355,202.1z"/>
<path class="st7" d="M493.3,276.6c-11.7-7.7-23.4-15.3-35.2-23c-7.4-4.9-14.9-9.7-22.3-14.6c0,90.5,0,180.9,0,271.4l60,4.1
	L493.3,276.6z"/>
<path class="st8" d="M251.9,174c10.4,9.5,28.2,2.6,35.4,11.8c5.4,7.1-2.4,15.2,2.4,22.1c5.6,8,21.6-1.2,39.5,4.2
	c10.9,3.3,18.1,10.4,22.4,15.5c1.3,0.8,2.6,1.7,3.9,2.5c-0.2-9.9-0.4-19.9-0.5-29.8c-33.3-16.7-69.1-34.7-107.8-54.1
	C243.8,162.2,247.5,169.9,251.9,174z"/>
<path class="st9" d="M455.3,257.6c-1.6,16.3-3.4,38.6-4.8,65.2c-1.7,32.1-3.2,60.3-1.8,95.8c1,24.1,3.5,56.1,10,93.8
	c-7.7-0.3-15.5-0.5-23.2-0.8c-0.2-69.1-0.5-157.3-0.9-273.8C441.7,244.4,448.6,251.1,455.3,257.6z"/>
<rect x="541.6" y="238.7" class="st10" width="615.6" height="462"/>
<g id="Door">
	<polygon class="st11" points="744.6,700 744.6,238.7 954.2,238.7 954,700 	"/>
	<ellipse class="st12" cx="923.2" cy="469.3" rx="7.8" ry="10.5"/>
</g>
<ellipse class="st11" cx="842.4" cy="62.2" rx="87.8" ry="33.5"/>
<circle class="st13" cx="844.9" cy="82.5" r="27.8"/>
<polygon class="st14" points="542.3,541.1 98.4,533.7 98.4,554.4 542.1,550 "/>
<g id="Stairs">
	<path class="st15" d="M0,439.2l291,250.2c10.3,0,20.7,0,31,0c8.6,2.7,14.6,9.7,15,17c0.5,10.1-9.9,20.9-24,20c-8.7-1-17.3-2-26-3
		c-95.7-86-191.3-172-287-258V439.2z"/>
	<polygon class="st15" points="0,877.4 0,1014 183,1014 	"/>
	<polygon class="st15" points="16.4,480.1 16.4,889.6 31,900.5 31,493.2 	"/>
	<polygon class="st15" points="65.4,521.4 65.4,930.9 80,941.8 80,534.5 	"/>
	<polygon class="st15" points="114.4,565.1 114.4,974.6 129,985.5 129,578.2 	"/>
	<polygon class="st15" points="163.4,607.4 163.4,1012.1 178,1022.8 178,620.3 	"/>
	<polygon class="st15" points="212.4,655.3 212.4,1013.3 227,1022.8 227,666.7 	"/>
	<polygon class="st15" points="263.8,701 263.8,1014.5 278.4,1022.8 278.4,711 	"/>
	<polygon class="st16" points="0,908.7 0,1014 141,1014 	"/>
	<line class="st17" x1="0" y1="961.4" x2="49" y2="941.8"/>
	<polygon class="st15" points="48.2,941.8 48.2,974.8 92.8,974.8 	"/>
	<polygon class="st15" points="1.4,908.7 1.4,941.7 46,941.7 	"/>
	<polygon class="st15" points="92.1,974.8 92.1,1007.7 136.7,1007.7 	"/>
	<line class="st17" x1="0" y1="1014" x2="97.2" y2="975.7"/>
	<line class="st17" x1="89.9" y1="1023.8" x2="139" y2="1004.2"/>
	<polygon class="st15" points="136.7,1006.3 136.7,1039.3 181.3,1039.3 	"/>
</g>
<rect x="296.8" y="275.8" transform="matrix(0.347 -0.9379 0.9379 0.347 -122.2471 502.5029)" class="st6" width="5.9" height="126.4"/>
<polygon class="st6" points="432.9,385.6 435.4,382.5 497,405.2 494.5,408.3 "/>
<g id="Hanger">
	<path class="st18" d="M1045.1,348.8h5.1V331c-0.4-1.1-1.4-1.8-2.5-1.9c-1.2,0-2.3,0.7-2.7,1.9
		C1045.1,336.9,1045.1,342.8,1045.1,348.8z"/>
	<rect x="1043.7" y="344" class="st19" width="8" height="360.6"/>
	<path class="st20" d="M1050.1,698c2.8,5.5,11.4,22.3,11.7,23.6c0,0.2,0.1,0.6-0.1,0.8c-0.3,0.3-0.9,0.1-1.3-0.1
		c-5.3-8.1-10.6-16.2-16-24.2L1050.1,698z"/>
	<path class="st19" d="M1043.7,700.2c-0.9,9.6-3.7,38.9-3.3,41.1c0,0.3,0.2,0.9,0.7,1.2c0.6,0.3,1.4-0.3,1.8-0.7
		c3.1-14.6,6.2-29.2,9.3-43.8L1043.7,700.2z"/>
	<path class="st21" d="M1047.7,348.8h-11c-8.1-8.4-16.2-16.8-24.3-25.1c2.3,1,4.6,2,6.9,2.9l19.2,17.5h9.2V348.8z"/>
	<path class="st21" d="M1045.3,348.8h11.6c8.3-8.2,16.6-16.5,24.9-24.7c-2.2,0.8-4.4,1.6-6.6,2.5l-20.2,17.5h-9.6v4.7H1045.3z"/>
	<path class="st21" d="M1051.7,348.8h-7.6c-5.3-9.6-10.6-19.2-15.8-28.9c1.3,0.5,2.6,0.9,3.8,1.4l13.3,21.6h6.3L1051.7,348.8
		L1051.7,348.8z"/>
	<path class="st21" d="M1043.3,348.8h8c5.7-9.9,11.3-19.7,17-29.6c-1.5,0.7-2.9,1.5-4.4,2.2l-14,21.6h-6.6V348.8z"/>
	<path class="st19" d="M1045.7,694.4c-7,6-28.2,24.4-29.5,26.2c-0.1,0.2-0.5,0.8-0.4,1.3c0.2,0.6,1,0.9,1.5,1
		c11.5-7.8,23.1-15.7,34.6-23.5L1045.7,694.4z"/>
	<path class="st19" d="M1050.9,696.1c6.6,6.4,26.7,25.8,27.8,27.7c0.1,0.2,0.5,0.8,0.3,1.4c-0.2,0.6-1,0.8-1.5,0.9
		c-11-8.4-22-16.9-33.1-25.3L1050.9,696.1z"/>
	<path class="st22" d="M1071.7,328.1c-0.2,1.9-0.6,4.8-1,8.3l0,0c-2.4,19.5-3.4,34.2-3.7,38c-1.7,23.6-5.9,65.3-7.7,83.3
		c-1.3,13.5-3,33.1-4.7,57.3c0.6,2.7,1.7,7.7,3.3,12.7c0.4,1.2,1,2.9,2.3,4.7c1.3,1.6,2.7,2.7,3.7,3.3c1.5,0.7,3.7,1.4,6.3,1.7
		c1.8,0.2,3.4,0.1,4.7,0c0.4,0.5,3,3.9,7.7,4.3c5.5,0.5,9-3.6,9.3-4c2.8-1.4,5.5-2.8,8.3-4.2c1.1-21.1,1.4-43.5,0.7-67.1
		c-1.7-53.7-8.4-101.8-17.1-143.3c-0.7,1-2.8,3.5-6.5,4.6C1074.9,328.5,1072.9,328.3,1071.7,328.1z"/>
	<path class="st23" d="M1070.7,328.8c0.3-1,1.6-4.1,5-6c1.9-1,3.6-1.3,4.7-1.3c0.9,0.1,3.4,0.4,5.7,2.3c2.4,2,3.1,4.5,3.3,5.4
		c6.7,23.1,13.3,46.2,20,69.3l6,69c1.1,21.3,2.2,42.7,3.3,64c-1.1,1.2-3.1,2.9-6,3.7c-0.9,0.2-1.9,0.4-4.7,0.3
		c-2.2,0-5.1-0.2-8.7-0.7c-2.4,2.3-4.9,4.7-7.3,7c-0.6,0.4-2.7,1.8-5.3,1.3c-2-0.4-3.3-1.6-4.3-2.7c-2.1-2.1-2.9-4.5-3.3-6
		c-4.3-41.2-7.3-85.1-8.3-131.7C1070.1,377.3,1070.1,352.6,1070.7,328.8z"/>
	<line class="st24" x1="1089.4" y1="356.5" x2="1104.4" y2="478.5"/>
	<line class="st24" x1="1086.2" y1="357.9" x2="1093.5" y2="469.6"/>
	<line class="st24" x1="1098.6" y1="531.2" x2="1095.2" y2="482.6"/>
	<line class="st25" x1="1075.2" y1="533.5" x2="1071.7" y2="480.3"/>
</g>
<g id="Hat">
	<path class="st26" d="M989.8,335c0,5.5,0,11,0.1,16.5l8.4,10.1l-0.8,6.9l26-19.8l-1-31.6l-4.8,4.4h-13.1
		C999.6,326.1,994.7,330.6,989.8,335z"/>
	<polygon class="st27" points="1004.1,324.1 1005.5,338.1 991.3,348.7 991.3,336.4 	"/>
	<line class="st28" x1="1008.6" y1="353.4" x2="1018.9" y2="345.7"/>
	<line class="st28" x1="1018" y1="333.9" x2="1018.7" y2="345.9"/>
</g>
<g id="Stool">
	<g id="Layer_3">
		<line class="st29" x1="552.5" y1="698.2" x2="704.9" y2="698.2"/>
		<path class="st19" d="M558,646.4c-4.5,17.9-18.1,72.8-18,77.1c0,0.5,0.1,1.9,0.9,2.5c1,0.8,2.7,0,3.6-0.5
			c9.9-26.6,19.9-53.1,29.8-79.7L558,646.4z"/>
		<path class="st19" d="M690.6,652.2c6.3,20.7,21.4,70,23.7,73c0.2,0.3,1,1.4,1.8,1.2c1-0.2,1.8-1.9,2.2-3
			c-5.2-26.1-10.3-52.1-15.5-78.2C698.8,647.6,694.7,649.9,690.6,652.2z"/>
		<line class="st30" x1="558.4" y1="706.4" x2="703.5" y2="706.4"/>
		<line class="st30" x1="558.4" y1="704" x2="702.3" y2="704"/>
		<line class="st30" x1="558.8" y1="701.8" x2="701" y2="701.8"/>
		<line class="st30" x1="557.6" y1="707.9" x2="703.5" y2="707.9"/>
		<rect x="552.5" y="642.1" class="st31" width="158" height="11.4"/>
	</g>
	<line class="st29" x1="547" y1="709.8" x2="710.5" y2="709.8"/>
	<line class="st29" x1="559.5" y1="698.2" x2="557.2" y2="709.8"/>
	<line class="st29" x1="700" y1="698.2" x2="704.7" y2="709.8"/>
	<line class="st32" x1="628.7" y1="698.2" x2="628.7" y2="709.8"/>
	<polygon class="st33" points="562.1,583.6 554.3,587.7 546.3,598.7 547.2,628.8 556.2,641 565.4,638.3 564,635.3 556,638 
		549.1,627.6 547.3,598 554.6,588.2 562.3,584.6 564,582.2 	"/>
	<polygon class="st34" points="577.6,582.5 565.2,585.6 550.8,599.7 550.5,634 560.3,642.1 570,638.5 569.1,636.6 560.4,640 
		553,632.6 552.7,609 552.6,599 565.7,586.5 577.5,584 580.4,581.1 	"/>
	<path class="st35" d="M567,578.6c-0.9,1.1-6.9,8.9-7.8,10c-2.4,3.1-2.6,3.3-2.6,3.4c-2.7,3.5-3.7,15.4,2.4,50.1h22.3l-1.7-45.6
		L567,578.6z"/>
	<polygon class="st36" points="591.5,579.7 567,578.6 579.5,596.5 581.2,642.1 608.9,642.1 610.5,596.6 596.4,579.2 	"/>
	<polygon class="st37" points="579.5,596.5 599.6,604.8 610.5,596.6 596.4,579.2 567,578.6 	"/>
	<path class="st38" d="M599.1,600.2l-1.3,4.9l2,4.4l1.6-4.9L599.1,600.2z"/>
	<g id="Layer_4">
		<path class="st39" d="M641,677.4c0.7-0.7,2-1.9,4.2-2.8c2.1-0.8,4-1,5-1c1.1,0,3.6,0.3,6,1.7c1.2,0.7,2.1,1.5,2.6,2.2
			c1.3,8.1,2.5,16.2,3.8,24.4c-0.3,0.9-1,3.2-3.4,5.1c-2.9,2.4-6.4,2.8-7.4,3c-1.8-0.3-5.5-1.2-8.9-3.8c-2-1.5-3.1-3.1-3.8-4.3
			C639.8,693.6,640.4,685.5,641,677.4z"/>
		<path class="st39" d="M666.9,677.4c1-0.7,2.4-1.6,4.2-2.3c1.9-0.8,3.7-1.2,5-1.5c1.1,0.1,2.5,0.4,4,1c2.3,0.9,3.8,2,4.6,2.8
			c1.3,8.1,2.5,16.2,3.8,24.4c-0.4,1-1.5,3.2-4,5.1c-2.7,2-5.5,2.7-6.8,3c-1.6-0.3-5-1-8.3-3.3c-2.4-1.7-3.7-3.6-4.4-4.8
			C665.7,693.6,666.3,685.5,666.9,677.4z"/>
		<path class="st40" d="M642.4,702.1c2.8,0.7,5.6,1.3,8.4,2c2.9-0.7,5.7-1.4,8.6-2.1c-0.9-7.8-1.8-15.7-2.8-23.5
			c-0.5-0.5-1.4-1.2-2.6-1.8c-1.4-0.7-2.7-0.9-3.5-1c-0.8,0-2,0.2-3.3,0.7c-1.5,0.6-2.5,1.3-3.1,1.8
			C643.5,686.1,643,694.1,642.4,702.1z"/>
		<path class="st40" d="M667.9,701.2c3,1.7,5.9,3.4,8.9,5.2c3-2,6-4,9.1-6c-1-6.8-2-13.6-3-20.3c-0.3-0.5-0.9-1.7-2.4-2.5
			c-2-1.1-3.9-0.9-4.5-0.8c-0.6,0-2.6-0.1-4.5,1.2c-1.5,1-2.2,2.3-2.4,2.8C668.7,687.6,668.3,694.4,667.9,701.2z"/>
		<path class="st41" d="M639.3,700l11.6-5.5l11.5,5.5c0.1,0.6,0.4,4.1-2.9,7c-3,2.6-6.9,2.8-7.6,2.8c-0.9,0-5.7-0.2-9.3-3.5
			C639.8,703.9,639.4,701,639.3,700z"/>
		<path class="st41" d="M665.3,699.6l11.6-5.5l11.5,5.5c0.1,0.6,0.4,4.1-2.9,7c-3,2.6-6.9,2.8-7.6,2.8c-0.9,0-5.7-0.2-9.3-3.5
			C665.8,703.4,665.4,700.5,665.3,699.6z"/>
		<polygon class="st39" points="650.9,700.4 654.6,696.3 650.9,694.6 647.5,696.2 		"/>
		<polygon class="st39" points="676.7,700 680.5,695.9 676.8,694.1 673.3,695.7 		"/>
	</g>
</g>
<ellipse id="Carpet" class="st42" cx="849.4" cy="746.4" rx="132.3" ry="36.1"/>
<polygon class="st14" points="1157.3,539.7 1544.5,527.1 1544.5,555.4 1157.2,550.1 "/>
<path class="st9" d="M1892,28.8"/>
<path class="st8" d="M436.2,253.5c3.9,6.2,7.5,7.9,10.2,8.2c5.2,0.7,8.2-3.5,13.5-2.8c4.5,0.5,4.6,5.5,10.1,7.5
	c3,1.1,5.9,0.8,7.8,0.5l0.2-0.3l-43.4-29l0.1,14.8L436.2,253.5z"/>
<rect x="310.1" y="173.4" class="st6" width="5.1" height="338.8"/>
<rect x="470.3" y="261.4" class="st6" width="2.6" height="257.1"/>
</svg>
