<?xml version="1.0" encoding="utf-8"?>
<!-- Generator: Adobe Illustrator 22.1.0, SVG Export Plug-In . SVG Version: 6.00 Build 0)  -->
<svg version="1.1" id="Layer_1" xmlns="http://www.w3.org/2000/svg" xmlns:xlink="http://www.w3.org/1999/xlink" x="0px" y="0px"
	 viewBox="0 0 204 204" style="enable-background:new 0 0 204 204;" xml:space="preserve">
<style type="text/css">
	.st0{fill:#FFFFFF;}
</style>
<g id="Sound_off">
	<g>
		<path class="st0" d="M55.7,133.2H30.5c-4,0-7.3-3.3-7.3-7.3V75.9c0-4,3.3-7.3,7.3-7.3h25.2c1.3,0,2.4,1.1,2.4,2.4v59.9
			C58.1,132.2,57,133.2,55.7,133.2z M30.5,73.4c-1.4,0-2.5,1.1-2.5,2.5V126c0,1.4,1.1,2.5,2.5,2.5h22.9V73.4H30.5z"/>
		<path class="st0" d="M111.1,161.4c-0.4,0-0.7-0.1-1.1-0.3L54.6,133c-0.8-0.4-1.3-1.2-1.3-2.1V71c0-0.9,0.5-1.7,1.3-2.1l55.5-28.2
			c0.7-0.4,1.6-0.3,2.3,0.1c0.7,0.4,1.1,1.2,1.1,2v116.3c0,0.8-0.4,1.6-1.1,2C112,161.3,111.6,161.4,111.1,161.4z M58.1,129.4
			l50.7,25.8V46.6L58.1,72.4V129.4z"/>
		<path class="st0" d="M111.1,118.7c-1.3,0-2.4-1.1-2.4-2.4c0-1.3,1.1-2.4,2.4-2.4c6.9,0,12.5-5.6,12.5-12.5
			c0-6.9-5.6-12.5-12.5-12.5c-1.3,0-2.4-1.1-2.4-2.4c0-1.3,1.1-2.4,2.4-2.4c9.5,0,17.2,7.7,17.2,17.2
			C128.3,111,120.6,118.7,111.1,118.7z"/>
	</g>
	<path class="st0" d="M170.8,128.4c-2.4,0-4.7-0.9-6.4-2.6l-12.1-12.1l-12.1,12.1c-1.7,1.7-4,2.6-6.4,2.6c-2.4,0-4.7-0.9-6.4-2.6
		c-1.7-1.7-2.6-4-2.6-6.4c0-2.4,0.9-4.7,2.6-6.4l12.1-12.1l-12.1-12.1c-1.7-1.7-2.6-4-2.6-6.4c0-2.4,0.9-4.7,2.6-6.4
		c1.7-1.7,4-2.6,6.4-2.6c2.4,0,4.7,0.9,6.4,2.6l12.1,12.1l12.1-12.1c1.7-1.7,4-2.6,6.4-2.6s4.7,0.9,6.4,2.6c1.7,1.7,2.6,4,2.6,6.4
		c0,2.4-0.9,4.7-2.6,6.4l-12.1,12.1l12.1,12.1c3.5,3.5,3.5,9.2,0,12.7C175.5,127.5,173.2,128.4,170.8,128.4z M152.3,107.9
		c0.6,0,1.2,0.2,1.7,0.7l13.8,13.8c0.8,0.8,1.9,1.2,3,1.2c1.1,0,2.2-0.4,3-1.2c0.8-0.8,1.2-1.9,1.2-3c0-1.1-0.4-2.2-1.2-3L160,102.6
		c-0.4-0.4-0.7-1-0.7-1.7c0-0.6,0.2-1.2,0.7-1.7l13.8-13.8c0.8-0.8,1.2-1.9,1.2-3c0-1.1-0.4-2.2-1.2-3c-0.8-0.8-1.9-1.2-3-1.2
		c-1.1,0-2.2,0.4-3,1.2L154,93.2c-0.9,0.9-2.5,0.9-3.3,0l-13.8-13.8c-0.8-0.8-1.9-1.2-3-1.2c-1.1,0-2.2,0.4-3,1.2
		c-0.8,0.8-1.2,1.9-1.2,3c0,1.1,0.4,2.2,1.2,3l13.8,13.8c0.4,0.4,0.7,1,0.7,1.7c0,0.6-0.2,1.2-0.7,1.7l-13.8,13.8
		c-0.8,0.8-1.2,1.9-1.2,3c0,1.1,0.4,2.2,1.2,3c0.8,0.8,1.9,1.2,3,1.2c1.1,0,2.2-0.4,3-1.2l13.8-13.8
		C151.1,108.2,151.7,107.9,152.3,107.9z"/>
</g>
</svg>
