<?xml version="1.0" encoding="utf-8"?>
<!-- Generator: Adobe Illustrator 23.1.1, SVG Export Plug-In . SVG Version: 6.00 Build 0)  -->
<svg version="1.1" id="Layer_1" xmlns="http://www.w3.org/2000/svg" xmlns:xlink="http://www.w3.org/1999/xlink" x="0px" y="0px"
	 viewBox="0 0 204 204" style="enable-background:new 0 0 204 204;" xml:space="preserve">
<style type="text/css">
	.st0{fill:#FFFFFF;}
	.st1{display:none;}
	.st2{display:inline;fill:#FFFFFF;}
	.st3{display:none;fill:#FFFFFF;}
</style>
<g id="Sound_off">
	<path class="st0" d="M102.5,14.8c-47.3,0-85.7,38.4-85.7,85.7s38.4,85.7,85.7,85.7s85.7-38.4,85.7-85.7
		C188.2,53.1,149.8,14.8,102.5,14.8z M102.5,176.7c-42.1,0-76.3-34.1-76.3-76.3s34.1-76.3,76.3-76.3s76.3,34.1,76.3,76.3
		C178.7,142.5,144.5,176.7,102.5,176.7z"/>
	<g class="st1">
		<path class="st2" d="M60.9,129.6H38.5c-3.6,0-6.5-2.9-6.5-6.5V78.6c0-3.6,2.9-6.5,6.5-6.5h22.4c1.2,0,2.1,1,2.1,2.1v53.3
			C63,128.7,62.1,129.6,60.9,129.6z M38.5,76.4c-1.2,0-2.2,1-2.2,2.2v44.5c0,1.2,1,2.2,2.2,2.2h20.4v-49H38.5z"/>
		<path class="st2" d="M110.1,154.6c-0.4,0-0.6-0.1-1-0.3l-49.3-25c-0.7-0.4-1.2-1.1-1.2-1.9V74.3c0-0.8,0.4-1.5,1.2-1.9l49.3-25.1
			c0.6-0.4,1.4-0.3,2,0.1c0.6,0.4,1,1.1,1,1.8v103.4c0,0.7-0.4,1.4-1,1.8C110.9,154.6,110.6,154.6,110.1,154.6z M63,126.2l45.1,22.9
			V52.6L63,75.5V126.2z"/>
		<path class="st2" d="M110.1,116.7c-1.2,0-2.1-1-2.1-2.1s1-2.1,2.1-2.1c6.1,0,11.1-5,11.1-11.1c0-6.1-5-11.1-11.1-11.1
			c-1.2,0-2.1-1-2.1-2.1s1-2.1,2.1-2.1c8.4,0,15.3,6.8,15.3,15.3C125.4,109.8,118.6,116.7,110.1,116.7z"/>
	</g>
	<path class="st3" d="M163.2,125.3c-2.1,0-4.2-0.8-5.7-2.3l-10.8-10.8L136,123c-1.5,1.5-3.6,2.3-5.7,2.3s-4.2-0.8-5.7-2.3
		c-1.5-1.5-2.3-3.6-2.3-5.7c0-2.1,0.8-4.2,2.3-5.7l10.8-10.8l-10.8-10.8c-1.5-1.5-2.3-3.6-2.3-5.7s0.8-4.2,2.3-5.7
		c1.5-1.5,3.6-2.3,5.7-2.3c2.1,0,4.2,0.8,5.7,2.3l10.8,10.8l10.8-10.8c1.5-1.5,3.6-2.3,5.7-2.3s4.2,0.8,5.7,2.3s2.3,3.6,2.3,5.7
		c0,2.1-0.8,4.2-2.3,5.7l-10.8,10.8l10.8,10.8c3.1,3.1,3.1,8.2,0,11.3C167.4,124.5,165.4,125.3,163.2,125.3z M146.8,107.1
		c0.5,0,1.1,0.2,1.5,0.6l12.3,12.3c0.7,0.7,1.7,1.1,2.7,1.1c1,0,2-0.4,2.7-1.1c0.7-0.7,1.1-1.7,1.1-2.7c0-1-0.4-2-1.1-2.7
		l-12.3-12.3c-0.4-0.4-0.6-0.9-0.6-1.5c0-0.5,0.2-1.1,0.6-1.5l12.3-12.3c0.7-0.7,1.1-1.7,1.1-2.7s-0.4-2-1.1-2.7s-1.7-1.1-2.7-1.1
		c-1,0-2,0.4-2.7,1.1L148.3,94c-0.8,0.8-2.2,0.8-2.9,0l-12.3-12.3c-0.7-0.7-1.7-1.1-2.7-1.1c-1,0-2,0.4-2.7,1.1
		c-0.7,0.7-1.1,1.7-1.1,2.7s0.4,2,1.1,2.7L140,99.3c0.4,0.4,0.6,0.9,0.6,1.5c0,0.5-0.2,1.1-0.6,1.5l-12.3,12.3
		c-0.7,0.7-1.1,1.7-1.1,2.7c0,1,0.4,2,1.1,2.7c0.7,0.7,1.7,1.1,2.7,1.1c1,0,2-0.4,2.7-1.1l12.3-12.3
		C145.7,107.3,146.2,107.1,146.8,107.1z"/>
</g>
<g id="Sound_On">
	<g>
		<path class="st0" d="M68.2,124.9H49.7c-3,0-5.3-2.4-5.3-5.3V83c0-3,2.4-5.3,5.3-5.3h18.5c1,0,1.8,0.8,1.8,1.8v43.7
			C70,124.1,69.2,124.9,68.2,124.9z M49.7,81.1c-1.1,0-1.9,0.8-1.9,1.9v36.6c0,1.1,0.8,1.9,1.9,1.9h16.7V81.1H49.7z"/>
		<path class="st0" d="M108.7,145.6c-0.3,0-0.5-0.1-0.8-0.3l-40.5-20.5c-0.6-0.3-1-0.9-1-1.6V79.4c0-0.7,0.4-1.2,1-1.6l40.5-20.6
			c0.5-0.3,1.2-0.3,1.7,0.1c0.5,0.3,0.8,0.9,0.8,1.5v85.1c0,0.6-0.3,1.2-0.8,1.5C109.4,145.5,109.1,145.6,108.7,145.6z M70,122.1
			l37.1,18.8V61.6L70,80.4V122.1z"/>
		<path class="st0" d="M108.7,114.3c-1,0-1.8-0.8-1.8-1.8s0.8-1.8,1.8-1.8c5,0,9.1-4.1,9.1-9.1s-4.1-9.1-9.1-9.1
			c-1,0-1.8-0.8-1.8-1.8s0.8-1.8,1.8-1.8c6.9,0,12.6,5.7,12.6,12.6C121.4,108.7,115.7,114.3,108.7,114.3z"/>
	</g>
	<path class="st0" d="M117.3,123.4c-0.7,0-1.4-0.4-1.6-1.2c-0.3-0.9,0.3-2,1.2-2.2c8-2.6,13.3-10,13.3-18.4c0-8-5-15.2-12.4-18
		c-0.9-0.4-1.3-1.3-1.1-2.3c0.4-0.9,1.3-1.3,2.3-1.1c8.8,3.4,14.8,11.9,14.8,21.3c0,9.9-6.3,18.6-15.8,21.8
		C117.6,123.4,117.3,123.4,117.3,123.4z"/>
	<path class="st0" d="M127.9,128.5c-0.6,0-1.2-0.3-1.5-0.8c-0.5-0.8-0.3-2,0.6-2.5c8.3-5.1,13.2-13.9,13.2-23.6s-5-18.5-13.2-23.6
		c-0.8-0.5-1.2-1.6-0.6-2.5c0.5-0.8,1.6-1.2,2.5-0.6c9.4,5.7,14.9,15.6,14.9,26.6s-5.6,20.9-14.9,26.5
		C128.6,128.5,128.3,128.5,127.9,128.5z"/>
	<path class="st0" d="M138.6,133.2c-0.5,0-1.1-0.3-1.4-0.7c-0.6-0.7-0.4-1.9,0.3-2.5c8.8-6.8,13.8-17.2,13.8-28.3
		s-5.1-21.4-13.8-28.4c-0.7-0.6-0.9-1.7-0.3-2.5c0.6-0.7,1.7-0.9,2.5-0.3c9.6,7.6,15.1,18.9,15.1,31.1s-5.5,23.6-15.1,31.1
		C139.4,133,139,133.2,138.6,133.2z"/>
</g>
<rect x="21.9" y="95.3" transform="matrix(0.7071 -0.7071 0.7071 0.7071 -41.5961 99.9189)" class="st0" width="155.8" height="9.8"/>
</svg>
