<?xml version="1.0" encoding="utf-8"?>
<!-- Generator: Adobe Illustrator 22.1.0, SVG Export Plug-In . SVG Version: 6.00 Build 0)  -->
<svg version="1.1" id="Layer_1" xmlns="http://www.w3.org/2000/svg" xmlns:xlink="http://www.w3.org/1999/xlink" x="0px" y="0px"
	 viewBox="0 0 204 204" style="enable-background:new 0 0 204 204;" xml:space="preserve">
<style type="text/css">
	.st0{fill:#FFFFFF;}
</style>
<g id="Sound_On">
	<g>
		<path class="st0" d="M55.6,132.3H30.8c-4,0-7.2-3.2-7.2-7.2V75.9c0-4,3.2-7.2,7.2-7.2h24.8c1.3,0,2.4,1.1,2.4,2.4v58.8
			C58,131.2,56.9,132.3,55.6,132.3z M30.8,73.4c-1.4,0-2.5,1.1-2.5,2.5v49.2c0,1.4,1.1,2.5,2.5,2.5h22.4V73.4H30.8z"/>
		<path class="st0" d="M110.1,160c-0.4,0-0.7-0.1-1.1-0.3L54.6,132c-0.8-0.4-1.3-1.2-1.3-2.1V71.1c0-0.9,0.5-1.7,1.3-2.1l54.5-27.7
			c0.7-0.4,1.6-0.3,2.3,0.1c0.7,0.4,1.1,1.2,1.1,2v114.3c0,0.8-0.4,1.6-1.1,2C111,159.9,110.6,160,110.1,160z M58,128.5l49.8,25.3
			V47.2L58,72.5V128.5z"/>
		<path class="st0" d="M110.1,118c-1.3,0-2.4-1.1-2.4-2.4s1.1-2.4,2.4-2.4c6.7,0,12.2-5.5,12.2-12.2c0-6.7-5.5-12.2-12.2-12.2
			c-1.3,0-2.4-1.1-2.4-2.4c0-1.3,1.1-2.4,2.4-2.4c9.3,0,16.9,7.6,16.9,16.9C127.1,110.4,119.5,118,110.1,118z"/>
	</g>
	<path class="st0" d="M121.5,130.3c-1,0-1.9-0.6-2.2-1.6c-0.4-1.2,0.3-2.6,1.5-3c10.7-3.5,17.9-13.4,17.9-24.7
		c0-10.7-6.7-20.4-16.7-24.2c-1.2-0.5-1.8-1.8-1.4-3.1c0.5-1.2,1.8-1.8,3.1-1.4c11.8,4.5,19.8,16,19.8,28.7c0,13.3-8.5,25-21.2,29.2
		C122,130.3,121.7,130.3,121.5,130.3z"/>
	<path class="st0" d="M135.9,137.1c-0.8,0-1.6-0.4-2-1.1c-0.7-1.1-0.3-2.6,0.8-3.3c11.1-6.8,17.8-18.6,17.8-31.6
		c0-13-6.7-24.8-17.8-31.6c-1.1-0.7-1.5-2.1-0.8-3.3c0.7-1.1,2.1-1.5,3.3-0.8c12.6,7.6,20.1,21,20.1,35.7c0,14.7-7.5,28-20.1,35.6
		C136.8,137,136.3,137.1,135.9,137.1z"/>
	<path class="st0" d="M150.2,143.4c-0.7,0-1.4-0.3-1.9-0.9c-0.8-1-0.6-2.5,0.4-3.3c11.8-9.2,18.5-23.1,18.5-38
		c0-14.9-6.8-28.8-18.5-38.1c-1-0.8-1.2-2.3-0.4-3.3c0.8-1,2.3-1.2,3.3-0.4c12.9,10.1,20.3,25.4,20.3,41.8
		c0,16.4-7.4,31.6-20.3,41.8C151.3,143.2,150.8,143.4,150.2,143.4z"/>
</g>
</svg>
