<svg id="Layer_2" data-name="Layer 2" xmlns="http://www.w3.org/2000/svg" viewBox="0 0 887.08 264.53"><defs><style>.cls-1,.cls-6{fill:#231f20;}.cls-2,.cls-3{fill:#fff;}.cls-2,.cls-3,.cls-5,.cls-6{stroke:#231f20;}.cls-2,.cls-3,.cls-6{stroke-miterlimit:10;}.cls-2{stroke-width:1.1px;}.cls-4{fill:#ee3224;}.cls-5{fill:none;stroke-miterlimit:2;}.cls-6{stroke-width:0.1px;}.cls-7{fill:#57575c;}.cls-8{fill:#fdfeff;}.cls-9{fill:#fafbfc;}.cls-10{fill:#0ea7e0;}.cls-11{fill:#0ca6df;}.cls-12{fill:#f9fcfd;}.cls-13{fill:#5a5a5e;}</style></defs><title>asthmacoalition_logos</title><path class="cls-1" d="M79,249.44v17.67s-15.36-.27-25.51-7.71C53.51,259.4,73.66,250.52,79,249.44Z" transform="translate(-3.35 -78.48)"/><path class="cls-2" d="M32.35,248.36s-8.25-16.08-25.8-20.94c0,0,16.71-4.86,30.67-3.17,0,0,8-8,16.92-11.42l-.63,48s4.86,2.29,15,2.52,10.41,4.21,8.68,5.1c-9.1,4.65-19.46-4.24-28.77-2.12,0,0-3.39.5-7,5.85s-25.95,4.3-36.14,1.13C5.31,273.32,31.93,266.13,32.35,248.36Z" transform="translate(-3.35 -78.48)"/><path class="cls-3" d="M54.09,209.85V259.4s40.24-23.52,114.48-18c0,0,63.88,7.59,98.62,16.78l-21.05-51.07S133.79,177.27,54.09,209.85Z" transform="translate(-3.35 -78.48)"/><path class="cls-3" d="M249.58,212.41l21.16,50.76s50.76,3.17,97.92,1.69,54.78,9.52,54.78,9.52V221.71s3.31-8.25-88.83-2.16C295.48,222.13,249.58,212.41,249.58,212.41Z" transform="translate(-3.35 -78.48)"/><path class="cls-1" d="M399.75,266.44v17.67s15.36-.48,25.51-7.92C425.26,276.19,410.33,266.44,399.75,266.44Z" transform="translate(-3.35 -78.48)"/><path class="cls-2" d="M446.41,265.15s8.25-16.08,25.81-20.94c0,0-16.71-4.86-30.67-3.17,0,0-8-8-16.92-11.43v46.58s-4.23,3.73-14.39,4-10.41,4.21-8.67,5.09c9.1,4.66,15.44-5.09,30.46-2.75,0,0,1.69,1.14,5.29,6.49s25.94,4.3,36.13,1.13C473.45,290.11,446.84,282.92,446.41,265.15Z" transform="translate(-3.35 -78.48)"/><path class="cls-4" d="M119.84,342.25h45.07l26.2-64h80.41l27.41,64.57h46.29L235.58,78.48h-7.2L179.79,196.24l43.6,6.59L232.53,179l31.78,78.41s-42.85-9.76-62.56-11.49c-17.53-1.54-40.49-4.19-40.49-4.19Z" transform="translate(-3.35 -78.48)"/><path class="cls-5" d="M243.66,206.47s-109.87-29.2-189.57,3.38V259.4s40.24-23.52,114.48-18c0,0,61,6.85,95.74,16" transform="translate(-3.35 -78.48)"/><polygon class="cls-4" points="236.9 119.56 262.11 182.78 268.93 201.59 284.32 200.34 244.56 113.83 236.9 119.56"/><path class="cls-6" d="M73.61,235.79a5.31,5.31,0,0,0-.75.13l-.68.16-.69.16a3.73,3.73,0,0,0-.67.21l-1.1-2.28c-.38-.78-.77-1.55-1.17-2.32l-1,.2-1,.23-.84.21-.83.24c0,.87,0,1.74,0,2.6s0,1.7.07,2.52a1.6,1.6,0,0,0-.39.05l-.38.09a2.34,2.34,0,0,0-.38.09,2.49,2.49,0,0,0-.41.14c0-.45.06-1.06.1-1.85s.08-1.68.12-2.68.08-2.05.13-3.19l.12-3.45c0-1.16.07-2.31.11-3.43s.06-2.18.08-3.15h.33a1.63,1.63,0,0,0,.31,0,2.09,2.09,0,0,0,.3-.11l.29-.16,2.14,4.12c.76,1.47,1.51,2.91,2.27,4.31s1.47,2.74,2.17,4S73.08,234.93,73.61,235.79Zm-8.55-10.67c0,1-.09,2-.12,3s0,2,0,3.05l3-.7-1.38-2.71C66,226.92,65.54,226,65.06,225.12Z" transform="translate(-3.35 -78.48)"/><path class="cls-6" d="M74.72,219.4a1.48,1.48,0,0,0-1.07.92,2.57,2.57,0,0,0-.14,1.63,2.8,2.8,0,0,0,.68,1.38,4.77,4.77,0,0,0,1.14.83c.43.22.89.44,1.37.63a5.77,5.77,0,0,1,1.41.78,5.15,5.15,0,0,1,1.24,1.3,6.08,6.08,0,0,1,.86,2.18,7.88,7.88,0,0,1,.17,2.28,5.43,5.43,0,0,1-.5,1.91,4,4,0,0,1-1.12,1.38,4.19,4.19,0,0,1-1.67.76,4.54,4.54,0,0,1-1.63.06,2.77,2.77,0,0,1-1.19-.46c0-.59,0-1.13-.06-1.61s-.07-1-.14-1.57l.31-.07a4.26,4.26,0,0,0,.46,1,3.77,3.77,0,0,0,.63.73,2.26,2.26,0,0,0,.79.43,1.9,1.9,0,0,0,.92,0,1.63,1.63,0,0,0,1.28-1,3.24,3.24,0,0,0,.08-1.84,2.91,2.91,0,0,0-.68-1.42,4.35,4.35,0,0,0-1.11-.83c-.43-.22-.88-.43-1.36-.62a6,6,0,0,1-1.39-.78A5,5,0,0,1,72.79,226a6.08,6.08,0,0,1-.85-2.18,7.75,7.75,0,0,1-.18-2.29,5.28,5.28,0,0,1,.45-1.8,3.49,3.49,0,0,1,.94-1.24,3,3,0,0,1,1.31-.64,3.61,3.61,0,0,1,1.6,0,3.54,3.54,0,0,1,1.31.63c0,.39,0,.77,0,1.13s0,.82,0,1.38l-.25.05C76.49,219.75,75.68,219.19,74.72,219.4Z" transform="translate(-3.35 -78.48)"/><path class="cls-6" d="M82.37,219.34a7.1,7.1,0,0,0-.21-.84l-.6.14-.75.21-.81.27c-.27.09-.52.19-.75.29,0-.18,0-.37,0-.55s0-.36-.08-.54S79,218,79,217.79s-.1-.34-.16-.52l1-.15.92-.15,1-.17,1.31-.25,1.31-.28,1-.22.88-.21.93-.24c0,.18,0,.36,0,.54a4.68,4.68,0,0,0,.08.54c0,.18.08.36.13.53s.11.35.17.52c-.23,0-.48,0-.76,0s-.56,0-.83.06l-.77.09a5.31,5.31,0,0,0-.6.1,3,3,0,0,0,0,.34c0,.15.06.32.1.51l.25,1.29,1.22,6.07q.4,2,.75,3.57c.23,1,.47,2.06.71,3.05a3.36,3.36,0,0,0-.61.07l-.73.15-.74.14a4.57,4.57,0,0,0-.59.17c-.15-1-.33-2-.51-3.09s-.42-2.24-.69-3.58l-1.21-6.07C82.54,220.15,82.46,219.72,82.37,219.34Z" transform="translate(-3.35 -78.48)"/><path class="cls-6" d="M96.94,222.72c-.42.05-.84.11-1.25.18s-.83.16-1.24.25-.82.18-1.22.29l.24,1.39c.24,1.35.47,2.54.68,3.59s.42,2.06.64,3.06a3.4,3.4,0,0,0-.61.06l-.73.13-.74.13a3,3,0,0,0-.59.16c-.14-1-.29-2.05-.46-3.1s-.36-2.25-.6-3.6L90.47,222c-.24-1.35-.47-2.55-.68-3.59s-.42-2.09-.66-3.14l.62,0c.23,0,.47,0,.74-.1s.52-.1.73-.16l.59-.19c.14,1.06.29,2.11.45,3.14s.37,2.23.61,3.58c.29,0,.63-.08,1-.15l1.48-.25q.89-.15,1.44-.27c.36-.07.7-.14,1-.22-.24-1.34-.47-2.53-.67-3.56s-.43-2.06-.66-3.11l.62,0c.22,0,.47,0,.74-.1a5.65,5.65,0,0,0,.73-.17c.21-.06.41-.12.59-.19.14,1.06.3,2.12.46,3.17s.37,2.25.61,3.6l.59,3.31c.24,1.35.47,2.55.67,3.59s.43,2.07.65,3.07a3.4,3.4,0,0,0-.61.06l-.74.13-.73.13a3.27,3.27,0,0,0-.6.16c-.13-1-.28-2.05-.45-3.11s-.36-2.25-.6-3.59l-.25-1.39Z" transform="translate(-3.35 -78.48)"/><path class="cls-6" d="M104.91,224.1q.28,2.76.55,5.52a1.77,1.77,0,0,0-.4,0l-.38.06-.38.06a1.34,1.34,0,0,0-.38.1c-.07-2.86-.17-5.69-.3-8.51s-.3-5.67-.5-8.56l.35,0a2,2,0,0,0,.34,0l.31-.09.33-.13c.44.93.9,1.88,1.37,2.85l1.41,2.88c.48,1,.94,1.89,1.41,2.81s.91,1.78,1.33,2.6q.59-2.89,1.11-6c.36-2.1.68-4.17,1-6.24a2.62,2.62,0,0,0,.73,0,2.72,2.72,0,0,0,.67-.22c.31,1.38.65,2.88,1,4.47s.72,3.16,1.07,4.69.68,2.94,1,4.26.58,2.38.8,3.19a3.78,3.78,0,0,0-.67,0L116,228l-.68.1-.68.15c-.3-1.67-.66-3.48-1.07-5.41s-.84-3.87-1.25-5.77h0q-.51,3-1,5.95t-1,5.87H110l-.15,0-.15.06-2.58-5.22q-1.28-2.61-2.63-5.29h0Q104.64,221.34,104.91,224.1Z" transform="translate(-3.35 -78.48)"/><path class="cls-6" d="M128.54,226.59a4.65,4.65,0,0,0-.76,0l-.7.07-.7.09a4,4,0,0,0-.69.13l-.83-2.4c-.28-.81-.58-1.63-.88-2.44-.36,0-.71,0-1.06.09s-.7.06-1.06.11l-.85.1-.85.14c-.13.86-.23,1.72-.32,2.58s-.17,1.7-.23,2.52a1.72,1.72,0,0,0-.39,0l-.39,0-.4,0a2.53,2.53,0,0,0-.42.1c.08-.44.19-1.05.32-1.83s.28-1.66.43-2.64.32-2,.5-3.16.35-2.26.52-3.41.35-2.28.51-3.4.32-2.15.45-3.11l.33.05h.31a1,1,0,0,0,.31-.08l.31-.12c.51,1.36,1.06,2.8,1.64,4.35s1.17,3.06,1.75,4.54,1.15,2.9,1.69,4.23S128.11,225.67,128.54,226.59ZM121.29,215c-.17,1-.33,2-.47,3s-.28,2-.4,3l3-.35-1.05-2.85C122,216.89,121.67,215.94,121.29,215Z" transform="translate(-3.35 -78.48)"/><path class="cls-6" d="M143.26,223.72a6.22,6.22,0,0,0-.06,1.05,5.42,5.42,0,0,1-3.31,1.24,5.34,5.34,0,0,1-2.61-.43,5.63,5.63,0,0,1-2-1.57,8.16,8.16,0,0,1-1.37-2.53,12,12,0,0,1-.64-3.23,15.4,15.4,0,0,1,.25-4.39,8.58,8.58,0,0,1,1.24-3,5.51,5.51,0,0,1,2-1.79,6.24,6.24,0,0,1,2.47-.68,4.72,4.72,0,0,1,.91,0,7.27,7.27,0,0,1,.95.2,6.49,6.49,0,0,1,.87.33,4,4,0,0,1,.72.42,10.88,10.88,0,0,0-.17,1.26c0,.43,0,.85,0,1.28l-.23,0a5.08,5.08,0,0,0-1.4-1.6,2.51,2.51,0,0,0-1.59-.41,2.37,2.37,0,0,0-1.3.54,4,4,0,0,0-1.13,1.44,8.67,8.67,0,0,0-.73,2.39,14.89,14.89,0,0,0-.11,3.42,13.42,13.42,0,0,0,.57,3.22,7.36,7.36,0,0,0,1,2.14,3.69,3.69,0,0,0,1.34,1.16,2.92,2.92,0,0,0,1.44.3,2.66,2.66,0,0,0,.8-.19,4.08,4.08,0,0,0,.79-.43,3.78,3.78,0,0,0,.71-.63,4.14,4.14,0,0,0,.57-.8l.23.18C143.35,223,143.3,223.36,143.26,223.72Z" transform="translate(-3.35 -78.48)"/><path class="cls-6" d="M144.82,213.44a9.5,9.5,0,0,1,1.23-2.84,6.31,6.31,0,0,1,2-1.95,5.14,5.14,0,0,1,2.6-.74,5.77,5.77,0,0,1,2.49.49,5.5,5.5,0,0,1,2,1.6,8.22,8.22,0,0,1,1.38,2.73,13.93,13.93,0,0,1,.57,3.89,12.1,12.1,0,0,1-.41,3.47,9.56,9.56,0,0,1-1.25,2.84,6.21,6.21,0,0,1-2,1.9,5.06,5.06,0,0,1-2.54.72,6.33,6.33,0,0,1-2.47-.43,5.07,5.07,0,0,1-2-1.52,8.19,8.19,0,0,1-1.4-2.72,13.9,13.9,0,0,1-.58-4A12.86,12.86,0,0,1,144.82,213.44Zm9.21-.16a7.8,7.8,0,0,0-.78-2.15,3.92,3.92,0,0,0-1.17-1.35,2.45,2.45,0,0,0-1.48-.46,2.17,2.17,0,0,0-1.5.64,4.92,4.92,0,0,0-1.11,1.66,10.51,10.51,0,0,0-.65,2.45,16.9,16.9,0,0,0-.19,3,16.67,16.67,0,0,0,.35,3.33,7.27,7.27,0,0,0,.81,2.18,3.14,3.14,0,0,0,1.13,1.18,2.56,2.56,0,0,0,1.33.34,2.49,2.49,0,0,0,1.42-.49,4,4,0,0,0,1.16-1.46,9.38,9.38,0,0,0,.76-2.47,16.91,16.91,0,0,0,.24-3.52A14.29,14.29,0,0,0,154,213.28Z" transform="translate(-3.35 -78.48)"/><path class="cls-6" d="M167.81,225.53a7.29,7.29,0,0,0-.76-.08l-.7,0-.7,0a5.56,5.56,0,0,0-.71,0c-.15-.81-.3-1.65-.45-2.5s-.32-1.69-.5-2.54l-1.06-.08-1.06-.05-.86,0h-.86c-.26.83-.49,1.66-.71,2.5s-.43,1.65-.61,2.45a1.37,1.37,0,0,0-.39-.06l-.39,0-.4,0a2.22,2.22,0,0,0-.43,0c.15-.43.35-1,.6-1.76s.53-1.6.83-2.54.63-2,1-3,.69-2.18,1-3.29l1-3.28c.33-1.08.64-2.08.92-3l.31.1a1.54,1.54,0,0,0,.31.05,1.12,1.12,0,0,0,.32,0l.32-.07,1,4.54c.34,1.62.68,3.2,1,4.76s.69,3,1,4.44S167.52,224.56,167.81,225.53ZM162.42,213c-.32,1-.63,1.95-.92,2.9s-.58,1.93-.87,2.93l3,.11c-.21-1-.41-2-.61-3S162.65,214,162.42,213Z" transform="translate(-3.35 -78.48)"/><path class="cls-6" d="M170.55,212c.08-1.06.16-2.13.22-3.2l.6.15c.22,0,.46.08.74.11a6.75,6.75,0,0,0,.75,0l.61,0q-.22,1.59-.42,3.18c-.12,1.06-.26,2.26-.39,3.63l-.34,3.35c-.1.93-.18,1.84-.27,2.71s-.15,1.62-.2,2.26q.94.11,1.89.12a17.75,17.75,0,0,0,1.92-.06c0,.18-.07.35-.1.49s-.05.35-.08.62,0,.47,0,.61a2.24,2.24,0,0,0,0,.38l-1.09-.15c-.44-.05-1-.12-1.79-.19l-1.64-.17-1-.1-.56,0c-.13,0-.24,0-.33,0,.15-1,.29-2,.42-3.1s.26-2.27.4-3.63l.33-3.35C170.35,214.24,170.46,213,170.55,212Z" transform="translate(-3.35 -78.48)"/><path class="cls-6" d="M179.45,213c.14-1.05.27-2.11.4-3.18l.59.18a5.83,5.83,0,0,0,.73.15,5.36,5.36,0,0,0,.74.08c.23,0,.43,0,.62,0-.21,1-.41,2.11-.59,3.15s-.39,2.25-.6,3.6l-.53,3.33c-.21,1.35-.39,2.55-.53,3.61S180,226,179.89,227a3.29,3.29,0,0,0-.6-.15l-.74-.11-.73-.12a4.69,4.69,0,0,0-.62,0c.21-1,.4-2,.59-3.07s.39-2.25.6-3.6l.52-3.33C179.12,215.26,179.3,214.06,179.45,213Z" transform="translate(-3.35 -78.48)"/><path class="cls-6" d="M187.13,213.88c.07-.39.11-.68.13-.86l-.61-.09-.78-.09c-.27,0-.56-.05-.85-.06s-.56,0-.8,0c.05-.18.11-.35.16-.53a4.87,4.87,0,0,0,.12-.52,3.35,3.35,0,0,0,.08-.54c0-.19,0-.37,0-.55l1,.24c.3.08.6.15.91.21l1,.22,1.31.27,1.31.24,1,.17.89.14.95.13c-.06.17-.11.35-.16.52a5.11,5.11,0,0,0-.13.53,5,5,0,0,0-.08.54c0,.18,0,.36,0,.55-.2-.09-.44-.19-.7-.28s-.53-.18-.79-.25l-.74-.21-.6-.14a2.26,2.26,0,0,0-.09.34c0,.14-.07.31-.11.5l-.25,1.29-1.17,6.08c-.26,1.34-.48,2.54-.66,3.59s-.35,2.08-.5,3.09a4.57,4.57,0,0,0-.59-.17l-.74-.14-.73-.14a3.36,3.36,0,0,0-.61-.07c.24-1,.47-2,.69-3.05s.47-2.23.73-3.58l1.17-6.07Q187,214.46,187.13,213.88Z" transform="translate(-3.35 -78.48)"/><path class="cls-6" d="M194.28,215.75c.19-1,.36-2.1.52-3.16.18.07.37.14.58.2a6,6,0,0,0,.73.18c.27.05.52.09.74.11l.62,0c-.25,1-.49,2.08-.71,3.12s-.47,2.24-.73,3.58l-.65,3.31c-.26,1.34-.48,2.54-.66,3.58s-.35,2.08-.5,3.1a3.26,3.26,0,0,0-.6-.17l-.73-.14-.73-.15a3.4,3.4,0,0,0-.61-.06q.36-1.5.69-3.06c.23-1,.47-2.23.74-3.58l.64-3.3C193.88,218,194.1,216.8,194.28,215.75Z" transform="translate(-3.35 -78.48)"/><path class="cls-6" d="M198.83,218.56a9.54,9.54,0,0,1,1.8-2.52,6.36,6.36,0,0,1,2.34-1.48,5,5,0,0,1,2.7-.17,5.58,5.58,0,0,1,2.32,1,5.42,5.42,0,0,1,1.64,2,8.45,8.45,0,0,1,.78,3,14.39,14.39,0,0,1-.27,3.92,12.13,12.13,0,0,1-1.14,3.3,9.43,9.43,0,0,1-1.82,2.51,6.31,6.31,0,0,1-2.32,1.45,5,5,0,0,1-2.64.16,6.19,6.19,0,0,1-2.32-.95,5,5,0,0,1-1.67-1.91,8.12,8.12,0,0,1-.8-3,14.14,14.14,0,0,1,.29-4A12.26,12.26,0,0,1,198.83,218.56Zm9,1.79a8.3,8.3,0,0,0-.3-2.26,3.88,3.88,0,0,0-.86-1.57,2.49,2.49,0,0,0-1.35-.76,2.18,2.18,0,0,0-1.6.3,4.87,4.87,0,0,0-1.44,1.4,10.73,10.73,0,0,0-1.16,2.25,19.26,19.26,0,0,0-.81,2.89,17,17,0,0,0-.37,3.33,7.31,7.31,0,0,0,.33,2.29,3.12,3.12,0,0,0,.86,1.39,2.41,2.41,0,0,0,1.23.62,2.44,2.44,0,0,0,1.49-.18,3.94,3.94,0,0,0,1.44-1.18,9.69,9.69,0,0,0,1.27-2.25,17.54,17.54,0,0,0,1-3.39A14.63,14.63,0,0,0,207.86,220.35Z" transform="translate(-3.35 -78.48)"/><path class="cls-6" d="M213.6,218.37c.13-.77.24-1.44.35-2a2.69,2.69,0,0,0,.71.27,2.51,2.51,0,0,0,.75,0c.79,2.2,1.58,4.35,2.36,6.48s1.58,4.28,2.41,6.48l.42-2.11.47-2.36.45-2.34c.15-.77.28-1.48.41-2.13s.22-1.21.29-1.68.13-.79.14-1a2.69,2.69,0,0,0,.7.26,2.93,2.93,0,0,0,.76,0c-.35,1.46-.65,2.78-.92,4s-.52,2.3-.75,3.34-.45,2.09-.66,3.11-.43,2.13-.66,3.29l-.57,2.91a4.55,4.55,0,0,0-.66-.17,3.19,3.19,0,0,0-.64-.08q-2.21-6.49-4.79-13.14c-.1.47-.21.94-.3,1.41s-.2.94-.3,1.43l-.55,2.82c-.2,1-.36,1.79-.49,2.47s-.23,1.26-.31,1.73-.15.86-.2,1.16-.08.54-.11.72a1.29,1.29,0,0,0-.38-.12l-.37-.08a6.31,6.31,0,0,0-.76-.1c0-.12.17-.58.36-1.36s.41-1.75.68-2.89.54-2.36.83-3.69.56-2.61.8-3.84S213.47,219.14,213.6,218.37Z" transform="translate(-3.35 -78.48)"/><path class="cls-6" d="M229.61,224.65a9.46,9.46,0,0,1,1.81-2.52,6.27,6.27,0,0,1,2.33-1.48,5.07,5.07,0,0,1,2.71-.17,5.58,5.58,0,0,1,2.32,1,5.35,5.35,0,0,1,1.63,2,8.18,8.18,0,0,1,.78,3,14,14,0,0,1-.28,3.92,12.42,12.42,0,0,1-1.13,3.31,9.79,9.79,0,0,1-1.83,2.5,6.27,6.27,0,0,1-2.33,1.45,5,5,0,0,1-2.63.15,6.17,6.17,0,0,1-2.32-.94,5.13,5.13,0,0,1-1.67-1.92,8.12,8.12,0,0,1-.79-3,13.78,13.78,0,0,1,.29-4A12.07,12.07,0,0,1,229.61,224.65Zm9,1.79a8.36,8.36,0,0,0-.3-2.26,3.77,3.77,0,0,0-.86-1.57,2.42,2.42,0,0,0-1.34-.76,2.21,2.21,0,0,0-1.61.3,4.8,4.8,0,0,0-1.43,1.39,10.37,10.37,0,0,0-1.17,2.26,17.73,17.73,0,0,0-.81,2.88,16.29,16.29,0,0,0-.37,3.33,7.4,7.4,0,0,0,.32,2.3,3.27,3.27,0,0,0,.86,1.39,2.57,2.57,0,0,0,1.23.62,2.44,2.44,0,0,0,1.49-.18,4,4,0,0,0,1.44-1.18,9.34,9.34,0,0,0,1.27-2.25,16.86,16.86,0,0,0,1-3.39A14,14,0,0,0,238.64,226.44Z" transform="translate(-3.35 -78.48)"/><path class="cls-6" d="M243.73,225.51c.18-1,.35-2.11.51-3.17q.73.16,1.44.36t1.44.33c.8.16,1.52.28,2.14.38s1.06.15,1.28.16a6.88,6.88,0,0,0-.26,1c-.05.26-.09.46-.11.61s0,.31,0,.49l-1-.3-1.07-.31-.94-.25c-.27-.08-.47-.12-.59-.15-.22.88-.42,1.76-.59,2.64s-.35,1.75-.53,2.64c.71.12,1.35.23,1.93.3l1.8.23c-.08.27-.15.48-.18.62a4.46,4.46,0,0,0-.11.46,2.57,2.57,0,0,0-.05.4c0,.14,0,.34-.06.61a31.7,31.7,0,0,0-3.66-.94l-.24,1.24c-.26,1.34-.48,2.54-.66,3.59s-.35,2.08-.51,3.09a3.15,3.15,0,0,0-.59-.17l-.73-.14-.73-.14A2.74,2.74,0,0,0,241,239c.24-1,.48-2,.7-3.06s.47-2.23.73-3.57l.65-3.31C243.32,227.75,243.54,226.55,243.73,225.51Z" transform="translate(-3.35 -78.48)"/><path class="cls-6" d="M309.75,236.55c.08-1.06.16-2.13.23-3.2l.6.15a6.37,6.37,0,0,0,.74.12c.27,0,.52,0,.74,0l.62,0c-.15,1.06-.3,2.12-.43,3.18s-.26,2.26-.4,3.63l-.35,3.35q-.13,1.4-.27,2.7c-.08.87-.15,1.63-.2,2.27.62.06,1.25.1,1.88.12a17.9,17.9,0,0,0,1.93,0,3.56,3.56,0,0,0-.1.49c0,.14-.06.35-.09.61s0,.47,0,.62,0,.27,0,.37c-.29,0-.66-.1-1.09-.15l-1.79-.2-1.63-.16-1-.1-.57-.05h-.32c.15-1,.28-2,.42-3.1s.26-2.26.4-3.63l.35-3.34C309.55,238.82,309.66,237.61,309.75,236.55Z" transform="translate(-3.35 -78.48)"/><path class="cls-6" d="M317.32,239.25a9.63,9.63,0,0,1,1.48-2.73,6.3,6.3,0,0,1,2.14-1.76,5.18,5.18,0,0,1,2.66-.51A5.55,5.55,0,0,1,326,235a5.37,5.37,0,0,1,1.88,1.77,8.28,8.28,0,0,1,1.14,2.84,14,14,0,0,1,.21,3.93,12,12,0,0,1-.71,3.42,9.66,9.66,0,0,1-1.5,2.71,6.21,6.21,0,0,1-2.13,1.72,5,5,0,0,1-2.59.49,6.34,6.34,0,0,1-2.42-.65,4.94,4.94,0,0,1-1.89-1.7,8,8,0,0,1-1.16-2.83,14.15,14.15,0,0,1-.22-4A12.67,12.67,0,0,1,317.32,239.25Zm9.19.65a8.45,8.45,0,0,0-.58-2.21,3.83,3.83,0,0,0-1.05-1.45,2.48,2.48,0,0,0-1.43-.58,2.19,2.19,0,0,0-1.56.5,4.89,4.89,0,0,0-1.24,1.56,9.86,9.86,0,0,0-.87,2.38,16.83,16.83,0,0,0-.45,3,16.47,16.47,0,0,0,.05,3.35,7.29,7.29,0,0,0,.6,2.24,3.28,3.28,0,0,0,1,1.27,2.6,2.6,0,0,0,1.3.47,2.5,2.5,0,0,0,1.45-.37,3.89,3.89,0,0,0,1.28-1.35,9.46,9.46,0,0,0,1-2.39,16.71,16.71,0,0,0,.55-3.48A13.73,13.73,0,0,0,326.51,239.9Z" transform="translate(-3.35 -78.48)"/><path class="cls-6" d="M331.69,237.13v-2.06a2.88,2.88,0,0,0,.75.14,3.08,3.08,0,0,0,.75-.1q1.72,3,3.41,6c1.13,2,2.28,4,3.47,6l.06-2.15.06-2.4c0-.8,0-1.6.05-2.39s0-1.5,0-2.16,0-1.23,0-1.71,0-.8,0-1a3.38,3.38,0,0,0,.75.14,3.52,3.52,0,0,0,.74-.1c-.09,1.5-.17,2.85-.24,4.06s-.12,2.36-.17,3.43-.09,2.13-.12,3.17-.07,2.17-.1,3.35l-.08,3a3.71,3.71,0,0,0-.67-.06,3.3,3.3,0,0,0-.65,0q-3.25-6-6.93-12.14c0,.48-.05,1-.07,1.43s0,1,0,1.46l-.08,2.87c0,1,0,1.83-.05,2.53s0,1.28,0,1.76,0,.87,0,1.17,0,.55,0,.73a1.34,1.34,0,0,0-.4-.06h-.38a4.83,4.83,0,0,0-.76,0q0-.19.12-1.41c.05-.8.11-1.79.18-3s.14-2.42.2-3.78.11-2.67.15-3.92S331.69,237.9,331.69,237.13Z" transform="translate(-3.35 -78.48)"/><path class="cls-6" d="M352.44,237.2a2.91,2.91,0,0,0-1.94-.68A2.83,2.83,0,0,0,349,237a4.3,4.3,0,0,0-1.34,1.45,8.58,8.58,0,0,0-1,2.41,14.09,14.09,0,0,0-.37,3.4,13.22,13.22,0,0,0,.27,2.75,7.73,7.73,0,0,0,.79,2.19,4.18,4.18,0,0,0,1.26,1.45,2.92,2.92,0,0,0,1.7.52,3,3,0,0,0,.49,0l.53-.08a3.36,3.36,0,0,0,.48-.14,1.21,1.21,0,0,0,.31-.18,7.37,7.37,0,0,0,0-.75c0-.29,0-.62,0-1,0-1.33,0-2.32,0-3s-.06-1.07-.07-1.3a3,3,0,0,0,.44.08,5.37,5.37,0,0,0,.79,0c.4,0,.69,0,.88,0l.46-.09c0,.13,0,.35-.06.64s0,.64,0,1,0,.8,0,1.24,0,.85,0,1.25v.81c0,.42,0,.8,0,1.16a5.9,5.9,0,0,0,0,.75,14.34,14.34,0,0,1-2.21.74,9.49,9.49,0,0,1-2.22.27,6.24,6.24,0,0,1-2.63-.56,5.73,5.73,0,0,1-2.07-1.64,7.81,7.81,0,0,1-1.35-2.6,11.06,11.06,0,0,1-.49-3.43,14.93,14.93,0,0,1,.53-4.12,8.69,8.69,0,0,1,1.45-2.94,5.92,5.92,0,0,1,2.18-1.76,6.26,6.26,0,0,1,2.72-.6,5.94,5.94,0,0,1,2.18.39,7.31,7.31,0,0,1,1.81,1.11c-.08.42-.17.85-.26,1.26s-.15.83-.2,1.26h-.24A5.39,5.39,0,0,0,352.44,237.2Z" transform="translate(-3.35 -78.48)"/><path class="cls-6" d="M361.92,238.56c0-1.07,0-2.14-.08-3.21l.61.09c.22,0,.47,0,.75,0s.52,0,.74,0l.62-.08c-.05,1.07-.09,2.14-.12,3.2s-.05,2.28-.06,3.65l0,3.36c0,1.38,0,2.59,0,3.66s.05,2.1.08,3.13a2.87,2.87,0,0,0-.61-.06h-1.49a4,4,0,0,0-.62,0c.06-1,.1-2.07.12-3.13s0-2.28.06-3.65l0-3.37C361.94,240.84,361.93,239.62,361.92,238.56Z" transform="translate(-3.35 -78.48)"/><path class="cls-6" d="M370.35,236.62a1.47,1.47,0,0,0-1.25.66,2.58,2.58,0,0,0-.49,1.55,2.65,2.65,0,0,0,.36,1.5,4.39,4.39,0,0,0,.92,1.06c.38.32.78.62,1.21.92a6.63,6.63,0,0,1,1.2,1.07,5.43,5.43,0,0,1,.92,1.54,6.19,6.19,0,0,1,.35,2.32,7.61,7.61,0,0,1-.33,2.26,5.27,5.27,0,0,1-.91,1.75,4,4,0,0,1-1.4,1.1,4.09,4.09,0,0,1-1.8.37,4.43,4.43,0,0,1-1.6-.3,2.7,2.7,0,0,1-1.06-.71c.11-.58.21-1.11.29-1.58s.16-1,.22-1.56h.31a4.3,4.3,0,0,0,.24,1,3.36,3.36,0,0,0,.46.86,2.1,2.1,0,0,0,.67.59,1.93,1.93,0,0,0,.9.21,1.59,1.59,0,0,0,1.47-.73,3.25,3.25,0,0,0,.49-1.77,2.86,2.86,0,0,0-.35-1.54,4.33,4.33,0,0,0-.9-1.06,14.24,14.24,0,0,0-1.19-.9,6.56,6.56,0,0,1-1.19-1.06,5.18,5.18,0,0,1-.89-1.53,6.4,6.4,0,0,1-.35-2.32,7.83,7.83,0,0,1,.33-2.28,5.55,5.55,0,0,1,.83-1.65,3.65,3.65,0,0,1,1.2-1,2.94,2.94,0,0,1,1.42-.33,3.45,3.45,0,0,1,1.56.33,3.49,3.49,0,0,1,1.15.9c-.1.38-.19.75-.27,1.1s-.17.81-.28,1.35h-.25C372,237.34,371.33,236.63,370.35,236.62Z" transform="translate(-3.35 -78.48)"/><path class="cls-6" d="M375.75,238.67q0-1.59-.06-3.21l.62.1c.22,0,.47,0,.74.05s.53,0,.75,0l.61-.08c-.06,1.07-.1,2.14-.14,3.2s-.06,2.28-.08,3.65l0,3.37c0,.94,0,1.85,0,2.72s0,1.63,0,2.28c.63,0,1.26,0,1.89-.05s1.27-.12,1.91-.22c0,.18,0,.34-.05.49s0,.35,0,.62,0,.47,0,.62a3,3,0,0,0,.05.37l-1.11-.05c-.43,0-1,0-1.79,0l-1.64,0h-1a5.28,5.28,0,0,0-.57,0l-.32,0c.06-1,.11-2.06.14-3.12s.06-2.29.08-3.66l.05-3.36C375.75,241,375.76,239.73,375.75,238.67Z" transform="translate(-3.35 -78.48)"/><path class="cls-6" d="M393.2,252.76a6.75,6.75,0,0,0-.75-.07H391a4.06,4.06,0,0,0-.7,0c-.16-.81-.33-1.64-.5-2.48s-.36-1.69-.55-2.54l-1.06-.06-1.06,0h-.86l-.87,0c-.23.83-.46,1.67-.66,2.51s-.39,1.66-.56,2.46a1.74,1.74,0,0,0-.39-.05H383a2.29,2.29,0,0,0-.43,0q.21-.63.57-1.77l.78-2.56c.28-.95.58-2,.91-3.06s.65-2.2,1-3.31.65-2.22,1-3.3.61-2.09.87-3l.31.1a1.44,1.44,0,0,0,.63,0l.32-.08c.32,1.41.67,2.91,1.05,4.52s.74,3.19,1.12,4.74.75,3,1.11,4.41S392.9,251.79,393.2,252.76Zm-5.62-12.46c-.31,1-.6,1.95-.88,2.91s-.54,1.94-.8,2.95l3,.05c-.23-1-.45-2-.67-3S387.82,241.29,387.58,240.3Z" transform="translate(-3.35 -78.48)"/><path class="cls-6" d="M395.45,237.86c0-.78,0-1.46,0-2.06a2.58,2.58,0,0,0,.75.15,3.08,3.08,0,0,0,.75-.1q1.71,3,3.39,6t3.44,6l.07-2.15.07-2.4c0-.81.05-1.6.06-2.39s0-1.5.05-2.16,0-1.23,0-1.71,0-.8,0-1a3.55,3.55,0,0,0,.74.15,3.68,3.68,0,0,0,.76-.1c-.11,1.5-.19,2.85-.26,4.06s-.13,2.35-.19,3.42-.1,2.14-.13,3.18-.08,2.17-.11,3.35l-.09,3a5.05,5.05,0,0,0-.68-.07,6.32,6.32,0,0,0-.65,0q-3.24-6-6.88-12.16c0,.47-.05,1-.07,1.43s0,1-.05,1.46l-.09,2.87q0,1.48-.06,2.52c0,.7,0,1.28,0,1.76s0,.87,0,1.18,0,.54,0,.72a1.9,1.9,0,0,0-.4-.05l-.38,0a6.61,6.61,0,0,0-.77,0c0-.13.07-.6.13-1.41s.12-1.79.2-2.95.14-2.42.21-3.78.12-2.67.16-3.92S395.45,238.63,395.45,237.86Z" transform="translate(-3.35 -78.48)"/><path class="cls-6" d="M408.33,239.42q0-1.6.06-3.21l.6.12a7.4,7.4,0,0,0,.75.07q.54,0,1.23,0c.45,0,1,0,1.77,0a8.44,8.44,0,0,1,2.57.51,4.69,4.69,0,0,1,1.95,1.4,6.23,6.23,0,0,1,1.19,2.52,16.11,16.11,0,0,1-.36,7.6,9.69,9.69,0,0,1-1.38,2.77,5.78,5.78,0,0,1-1.91,1.71,4.3,4.3,0,0,1-2.24.5c-.83,0-1.53-.08-2.12-.12s-1.09-.08-1.52-.1l-.75,0a4,4,0,0,0-.61,0c.09-1,.18-2.06.25-3.12s.14-2.28.21-3.64l.17-3.37C408.25,241.7,408.3,240.48,408.33,239.42Zm2.05,8.93-.07,1.48c0,.48,0,.92-.05,1.31s0,.65,0,.77l.59.08c.23,0,.52,0,.86.06a3.3,3.3,0,0,0,3.06-1.75,11.89,11.89,0,0,0,1.37-5.71,12.74,12.74,0,0,0-.14-2.76,7.1,7.1,0,0,0-.67-2.1,3.87,3.87,0,0,0-1.13-1.37,2.85,2.85,0,0,0-1.53-.53c-.4,0-.72,0-1,0l-.76.05c0,.12,0,.37-.05.77s-.05.84-.07,1.33l-.07,1.48-.06,1.24-.21,4.4Z" transform="translate(-3.35 -78.48)"/><path class="cls-4" d="M131.34,217.69a2.12,2.12,0,1,1-2.11-2.11A2.11,2.11,0,0,1,131.34,217.69Z" transform="translate(-3.35 -78.48)"/><path class="cls-4" d="M227,227a2.12,2.12,0,1,1-2.12-2.11A2.11,2.11,0,0,1,227,227Z" transform="translate(-3.35 -78.48)"/><path class="cls-4" d="M360.62,244.39a2.12,2.12,0,1,1-2.11-2.11A2.1,2.1,0,0,1,360.62,244.39Z" transform="translate(-3.35 -78.48)"/><path class="cls-7" d="M479.92,327.26V130c.12-.09.31-.16.34-.27,2-8.21,7.07-13.4,15.17-15.48H874.92c4.92,1.3,9.25,3.63,11.94,8.15a69.41,69.41,0,0,1,3.57,8.06V327.26c-.73,1.82-1.35,3.68-2.21,5.43-2.68,5.47-7.19,8.64-12.84,10.32H494.52a7.64,7.64,0,0,0-1.14-.58,19.16,19.16,0,0,1-12.6-13.13C480.55,328.6,480.21,327.94,479.92,327.26Zm256-97.73-.84,5-.63,6c-1.21,7.21-2.27,14.46-.82,21.74a9.25,9.25,0,0,0,7.71,7.84,26.71,26.71,0,0,0,7.45.5,54.11,54.11,0,0,0,29.12-11.94c5.81-4.65,10.6-10.17,11.92-18H807a26.29,26.29,0,0,0,5.81,11.88c6.66,8,15.25,12.85,24.91,15.92,5.46,1.73,11,2.87,16.82,1.86,4.76-.82,7.68-3.39,8.79-8.16a18.17,18.17,0,0,0,.57-4.8q-.27-7-.88-14.06c-.81-9.58-2.33-18.94-7.49-27.34-6-9.8-13.21-18.52-22.65-25a48.35,48.35,0,0,0-12.21-6c-5.41-1.77-10,.64-12.37,5.88a20.69,20.69,0,0,0-2.25,7.22c-.43,8.45-.45,16.92-.62,25.38l-14,0c0-7.4.07-14.8-.13-22.19a23.66,23.66,0,0,0-3.58-12c-1.94-3.11-4.77-5-8.36-4.62a27.62,27.62,0,0,0-8.71,2.28c-8.4,3.88-14.93,10.25-20.86,17.25-2.31,2.73-4.21,5.82-6.29,8.74L740,219l-2.1,4.6Zm42.2-76.6c.78,3.26,1.17,6.7,2.43,9.76,3.15,7.61,8.7,12.45,17.1,12.86,7.53.37,13.12-3.32,17-9.65a25.08,25.08,0,0,0-2-28.76,18.1,18.1,0,0,0-26.57-2C780.93,139.8,778.66,145.83,778.11,152.93Zm-93.05,65c0-5.87,0-11.49,0-17.11,0-3.66,1.23-5.24,4-5.21,2.6,0,3.53,1.33,3.54,5,0,5,0,10,0,15v2.17h8.55V200.37c0-.54,0-1.08,0-1.62-.56-6.5-4.2-9.84-10.43-9.64a10.46,10.46,0,0,0-8.59,4.54c-1.48-2.85-3.49-4.87-6.54-4.45-2.59.36-5.07,1.49-7.65,2.29-.91-2.16-2.64-2.63-7.41-1.61v28h8.32c0-6.23,0-12.31,0-18.39,0-2.45,1.41-3.81,4-3.86s3.68,1.13,3.71,3.85c0,4.25,0,8.49,0,12.73V218ZM582.44,218c-.39-1.13-.64-1.93-.94-2.71q-5.79-15.18-11.6-30.34c-.88-2.28-1.25-5.4-2.92-6.55s-4.68-.28-7.1-.46a2.42,2.42,0,0,0-2.82,1.91c-3.48,9.35-7.06,18.67-10.61,28L542.58,218h5.29c4.16,0,4.2,0,5.52-3.94.34-1,.77-2,1-3.06a2.14,2.14,0,0,1,2.53-1.9c3.72.13,7.45.16,11.17,0,1.65-.07,2.26.59,2.62,2.05a15.69,15.69,0,0,0,1.49,4.34,5.06,5.06,0,0,0,2.9,2.39A49,49,0,0,0,582.44,218Zm78.29,52.26V241.92h-20.1v-8c-5.7-.9-5.82-.82-7.07,4.52a4.9,4.9,0,0,0-.24.89c-.08,1.91-1,3-2.92,3-2.52,0-2.09,1.75-2.14,3.33-.06,1.88,1.09,2.13,2.53,2.12a9.4,9.4,0,0,1,1.43.25c0,4.93,0,9.78,0,14.64,0,3.32,1.12,6.2,4.37,7.44,4.08,1.55,8,.84,11.76-1.7-.73-1.18-1.4-2.18-2-3.25-.68-1.25-1.49-1.79-3-1.21-2,.79-2.72-.49-2.75-2.17q-.13-6.25,0-12.5a2.06,2.06,0,0,1,1.39-1.44c3.33-.13,6.67-.07,10.27-.07v22.51Zm-120.79-5.86-2.28-2.51c-2.19-2.37-2.37-2.39-5.07-.48a10.48,10.48,0,0,1-15.35-4,16.49,16.49,0,0,1-.14-14.08,8.91,8.91,0,0,1,7.07-5.55,11.18,11.18,0,0,1,8.24,1.77c1.33.87,2.74,1.61,4,0,1.06-1.36,2-2.81,3-4.18-6.75-7.48-20.56-7.2-27.82.43-7.75,8.14-7.07,23.71,1.35,30.84C520.76,273.18,534.36,272.13,539.94,264.42Zm97.95-46.48c0-6.31,0-12.4,0-18.48,0-2.13,1.85-3.67,4.48-3.82,2.47-.15,3.91.89,4,3.3.17,3.15.09,6.31.1,9.47s0,6.28,0,9.5h8.55c0-4.65,0-9.18,0-13.71a48,48,0,0,0-.45-7.59c-.8-4.63-4.13-7.56-8.76-7.39-2.6.09-5.17,1.13-8,1.8V177H629.7v40.92Zm-82.56,23.51c-8.8,0-14.34,5.67-14.34,14.62,0,9.15,5.48,14.76,14.42,14.75,8.72,0,14.26-5.72,14.25-14.72S564.05,241.43,555.33,241.45Zm124.21,0c-8.73,0-14.45,5.83-14.44,14.64,0,9.06,5.76,14.77,14.8,14.73,8.52,0,14-5.82,14-14.75S688.27,241.42,679.54,241.45Zm18.65.33v28.46h8.43v-2.35c0-5.4-.06-10.8,0-16.19,0-.89.63-2.33,1.28-2.54,1.7-.55,3.8-1.18,5.29-.59,1,.41,1.83,2.75,1.9,4.26.23,5.08.09,10.17.09,15.26v2.09h8.28c0-6.58.15-13,0-19.37-.17-5.95-4.35-9.8-10.17-9.2-2.57.27-5,1.59-7.57,2.43C704.49,240.07,701,242.6,698.19,241.78Zm22.54-41.08c-4.19,1.18-8.17,1.9-11.82,3.42s-5,5.06-4.1,9c.76,3.18,3.57,5.13,7.38,5.38a12.76,12.76,0,0,0,9.55-3.48c1.73,3.27,2.8,3.64,7.27,2.69,0-6.53.16-13.07-.07-19.6a9.13,9.13,0,0,0-5.24-7.87c-5-2.69-13.71-1-17.64,3.31,1.86,4.5,3,5,7.15,3a10,10,0,0,1,1.46-.65C718.94,194.57,721.24,196.6,720.73,200.7ZM573.25,245.78c2.43,4.82,3.11,5.07,7.48,3a10,10,0,0,1,1.47-.62c4.18-1.18,6.42.81,5.94,5.47a23.8,23.8,0,0,0-3.75.43c-3,.82-6.07,1.45-8.8,2.81-3.23,1.61-4.31,5-3.41,8.49.83,3.24,3.47,5.18,7.07,5.45a12.62,12.62,0,0,0,10-3.59c1.12,4.59,4.45,2.77,7,3.1,0-7,.28-13.88-.12-20.69a8.36,8.36,0,0,0-6.46-7.6C583.67,240.36,578.2,241.69,573.25,245.78ZM759.63,317.3l-6.87-7.65a13.62,13.62,0,0,0,1.67-1.3c5.38-5.66,5.14-16.1-.45-21.09a14.85,14.85,0,0,0-17.79-1.11c-5.12,3.55-7.2,10.94-4.88,17.38a13.21,13.21,0,0,0,14.49,8.69c2.26-.31,3.66.23,4.78,2C752.7,317.53,755.76,318.05,759.63,317.3Zm-177-102.38c4.55,4,12.53,4.8,17.46,1.88,3.29-2,4.6-5,4.35-8.76-.21-3.41-2.37-5.18-5.21-6.32-2-.79-4-1.34-5.93-2.3-.76-.39-1.67-1.65-1.54-2.34a2.82,2.82,0,0,1,2.19-1.73,18.35,18.35,0,0,1,5.25,1.05c1.61.52,2.8.42,3.67-1.18.43-.81.94-1.58,1.48-2.46-3.87-3.57-8.41-4.22-13.22-3.3-4.58.87-7.31,3.92-7.6,8-.32,4.48,1.67,7.21,6.56,9a33.09,33.09,0,0,1,4.68,1.74c.78.42,1.73,1.61,1.64,2.32a2.91,2.91,0,0,1-2.07,2,13.21,13.21,0,0,1-5.2-1c-3-1.28-3.58-1.26-5.37,1.56C583.45,213.63,583.1,214.23,582.68,214.92Zm27.81-19.3c0,4.7,0,9.31,0,13.92,0,2.91.51,5.7,3.13,7.54,3.4,2.38,9.83,1.77,12.92-1.26a33.88,33.88,0,0,0-2.22-3.46,2.5,2.5,0,0,0-1.82-.91c-3.36.33-3.46.29-3.47-3.06v-13h6.75v-5.8H619v-8.18c-7.42-.17-5.82-.75-7.22,5.25-.53,2.25-1.42,3.32-3.6,3.47a8,8,0,0,0-1.42.35C606.42,195.2,606.42,195.2,610.49,195.62ZM548.2,297.47c3.6-2.29,4.55-4.15,4-7.42a6.22,6.22,0,0,0-6.11-5.54c-4.4-.34-8.85-.09-13.26-.09v27.31c4.55,0,9,.36,13.32-.11a7.24,7.24,0,0,0,6.81-6.39C553.46,301.38,552.57,299.89,548.2,297.47Zm53.74-27.28h8.31V229.35h-8.31ZM717.1,297c-4-.46-4-.45-4.71,2.71-.26,1.06-.72,2.07-1.2,3.4-2.8-3-5.36-5.63-7.77-8.39a7.87,7.87,0,0,1-1.65-3.21,2.86,2.86,0,0,1,2-3.65c1.11-.26,3.16.16,3.55.93,1.41,2.77,3.13,1.78,5,1.14-.16-4.53-5.46-7.33-9.61-5.75a9.47,9.47,0,0,0-4.54,3.43c-1.81,2.91-.78,6,.76,8.9-.56.38-1,.67-1.44,1-3.27,2.33-4.59,5.72-3.58,9.23.92,3.22,4.25,5.55,8.06,5.66a14.6,14.6,0,0,0,9.19-3.14c2,3.39,5,3.13,8.29,2.59l-5.1-5.48C715.32,303,716.18,300.08,717.1,297Zm-103-13.62V311.9h4.57v-9.55a13.51,13.51,0,0,1,2.83,2,24.5,24.5,0,0,1,3,4.6c1.57,3.25,4.09,3.58,7.37,2.87l-7.35-10.89,6.92-8.44c-3.32-.75-5.81-.3-7.5,2.64a17.79,17.79,0,0,1-2.73,3.4,15,15,0,0,1-2.69,1.71V283.33Zm10.33-13.09V242.08h-8.29v28.16Zm-35.91,32.07c.05-6.49-3.5-10.36-9.52-10.4s-9.71,3.74-9.74,10c0,6.46,3.55,10.41,9.52,10.46S588.49,308.5,588.53,302.31Zm2.55-.17c0,6.3,3.85,10.26,9.84,10.19s9.52-4.05,9.51-10.29-3.7-10.12-9.61-10.13C594.75,291.9,591.06,295.78,591.08,302.14ZM774,292.3c0,4.16.06,8.23-.05,12.29,0,.94-.47,2.39-1.12,2.69a8.1,8.1,0,0,1-4.63.85c-1.83-.39-1.81-2.38-1.81-4,0-3.9,0-7.8,0-11.78h-4.58c0,5-.21,9.8.07,14.62a5.55,5.55,0,0,0,6.07,5.31c2.09-.13,4.13-1.06,6.33-1.68.49,2.4,2.54,1.35,4.42,1.4,0-6.38,0-12.54,0-18.69a7.26,7.26,0,0,0-.15-1ZM668.64,312c0-4.39-.06-8.54.05-12.68,0-.86.5-2.2,1.09-2.43,1.46-.57,3.33-1.18,4.62-.68.9.35,1.51,2.49,1.58,3.86.2,4,.07,8,.07,11.83h4.72c0-4.7.25-9.25-.07-13.76-.34-4.84-3.88-7.2-8.49-6a22.91,22.91,0,0,0-3.94,2c-.35-3-2.58-1.7-4.39-1.87V312ZM787,302.72h5.38c1.83,0,3.65-.08,5.47,0s2.37-.79,2.28-2.52c-.23-4.1-2.66-7.35-6.22-8.13-4.49-1-9,.77-10.55,4.71a16.45,16.45,0,0,0-1,7.17,8.55,8.55,0,0,0,6.31,7.92c4.06,1.26,8.75,0,11-2.9-.9-1.94-2-2.48-4.11-1.36C791.07,310,787.57,308,787,302.72Zm20.41,0c3.66,0,7.23.08,10.79-.06.72,0,1.93-.77,2-1.36a8,8,0,0,0-7-9.32c-4.52-.45-7.92,1.28-9.69,4.92-1.86,3.83-1.2,9.45,1.45,12.41,3.82,4.26,11.91,4,15-.4-1-2-2.23-2.33-4.21-1.2C812,309.89,807.38,308.05,807.42,302.72ZM824,292.21v19.7h4.58V300.05a4,4,0,0,1,4.29-4.39c2.34,0,3.29,1.18,3.31,4.2,0,4,0,8,0,12h4.65c0-4.71.14-9.26,0-13.79-.16-4-2.8-6.43-6.75-6.07-1.92.17-3.76,1.14-5.74,1.79C827.84,291.27,825.76,292.37,824,292.21Zm-182.08,0a3.86,3.86,0,0,0,0,.82c2.17,5.08,4.28,10.19,6.57,15.2a4.72,4.72,0,0,1-.12,4.74c-1,1.7-1.63,3.56-2.46,5.42,4.49.42,4.49.41,6.13-3.49,1.54-3.68,3.1-7.35,4.65-11l4.79-11.47c-4.55-.52-4.55-.52-6.05,3.37-1.12,2.89-2.25,5.77-3.54,9.1-1.61-4-2.93-7.45-4.49-10.82a4.39,4.39,0,0,0-2.46-1.78A10,10,0,0,0,641.89,292.18ZM844,310c3.57,2.52,7.24,3.09,11.1,1.45,2.4-1,3.48-3.09,3.5-5.72s-1.45-3.93-3.57-4.8a34.67,34.67,0,0,1-4.24-1.61c-.73-.41-1.62-1.57-1.49-2.18a2.75,2.75,0,0,1,2.1-1.64,9.27,9.27,0,0,1,3.91.84,1.61,1.61,0,0,0,2.47-1.1,2.42,2.42,0,0,0-.88-2,9.45,9.45,0,0,0-7.89-.93,5.72,5.72,0,0,0-4.48,5.68c0,2.57,1.28,4.21,4.21,5.34A31.57,31.57,0,0,1,852.9,305c1.64.92,1.55,3-.23,3.46a7.4,7.4,0,0,1-4.34-.24C845.48,307.12,845.53,307,844,310Zm-209.4-26.66v28.57h4.39V283.35Zm-66.1,9c-3.3-1.46-5.36.16-7.19,2.51-1-3-1-3.08-4.57-2.44v19.42h4.76c0-3.76,0-7.36,0-11,0-2.89,1.81-4.61,4.62-4.29,1.54.17,2.09-.36,2.14-1.8C568.24,294.06,568.36,293.3,568.45,292.39ZM656.77,239a4.88,4.88,0,0,0,5.19-4.88,5.05,5.05,0,0,0-5.1-5,4.94,4.94,0,0,0-5,5.07A4.78,4.78,0,0,0,656.77,239Zm-36.49.09a5,5,0,1,0,0-10,5,5,0,0,0,0,10ZM517.93,292.43c0-2.78-1.59-4.55-4-4.53-3,0-5.41,3-5.39,6.52,0,2.86,1.51,4.51,4,4.48C515.63,298.85,518,296.06,517.93,292.43Zm8.65-8.56c-3.68-.43-4.56.34-5.77,3-.69,1.5-2,2.64-.52,4.34.17.19-.09.73-.13,1.11-.34,3-.68,5.92-1,8.9,2-.08,2.35-.27,2.7-2.35.47-2.8.76-5.62,1.09-8.09l2.6-1.76-.34-.61-2.66-.5Z" transform="translate(-3.35 -78.48)"/><path class="cls-8" d="M890.43,130.45a69.41,69.41,0,0,0-3.57-8.06c-2.69-4.52-7-6.85-11.94-8.15h15.51Z" transform="translate(-3.35 -78.48)"/><path class="cls-8" d="M495.43,114.24c-8.1,2.08-13.13,7.27-15.17,15.48,0,.11-.22.18-.34.27V114.24Z" transform="translate(-3.35 -78.48)"/><path class="cls-9" d="M875.38,343c5.65-1.68,10.16-4.85,12.84-10.32.86-1.75,1.48-3.61,2.21-5.43V343Z" transform="translate(-3.35 -78.48)"/><path class="cls-9" d="M479.92,327.26c.29.68.63,1.34.86,2a19.16,19.16,0,0,0,12.6,13.13,7.64,7.64,0,0,1,1.14.58h-14.6Z" transform="translate(-3.35 -78.48)"/><path class="cls-10" d="M805.46,223.49c.17-8.46.19-16.93.62-25.38a20.69,20.69,0,0,1,2.25-7.22c2.4-5.24,7-7.65,12.37-5.88a48.35,48.35,0,0,1,12.21,6c9.44,6.5,16.64,15.22,22.65,25,5.16,8.4,6.68,17.76,7.49,27.34q.6,7,.88,14.06a18.17,18.17,0,0,1-.57,4.8c-1.11,4.77-4,7.34-8.79,8.16-5.8,1-11.36-.13-16.82-1.86-9.66-3.07-18.25-8-24.91-15.92A26.29,26.29,0,0,1,807,240.69c12.6,0,25.2-.07,37.8-.05,2.81,0,4.69,1.62,5.71,4.19s0,5.06-2.36,5.81c-1.51.46-2.24-.16-2.45-1.64,2.91-1.21,3.78-2.59,3-4.57s-3.13-2.48-5.69-1.14c-2.73,1.44-3.87,4.07-3.22,7.4a7.66,7.66,0,0,0,6.76,6.17c7.34.48,12.26-6.41,9.82-13.74-1.85-5.53-6.36-8.68-12.54-8.71q-18.68-.07-37.35-.1c-.14-1.48-.29-2.95-.43-4.42,4.25,0,8.5,0,12.74-.11a12.32,12.32,0,0,0,12-8.51c2.56-7.39-2.43-14.49-9.8-13.93a7.79,7.79,0,0,0-6.89,6.87,6.33,6.33,0,0,0,4.22,7.07c2.3.84,4.39.12,5-1.7s-.32-3.24-2.81-4.16c-.11,0-.17-.24-.57-.82.8-.42,1.88-1.33,2.25-1.1,1.18.74,2.67,1.74,3,2.95,1,3.33-2,7-5.6,7.09C814.87,223.65,810.16,223.52,805.46,223.49Z" transform="translate(-3.35 -78.48)"/><path class="cls-11" d="M778.11,152.93c.55-7.1,2.82-13.13,8-17.84a18.1,18.1,0,0,1,26.57,2,25.08,25.08,0,0,1,2,28.76c-3.91,6.33-9.5,10-17,9.65-8.4-.41-13.95-5.25-17.1-12.86C779.28,159.63,778.89,156.19,778.11,152.93Z" transform="translate(-3.35 -78.48)"/><path class="cls-11" d="M789.82,240.68c-1.32,7.8-6.11,13.32-11.92,18a54.11,54.11,0,0,1-29.12,11.94,26.71,26.71,0,0,1-7.45-.5,9.25,9.25,0,0,1-7.71-7.84c-1.45-7.28-.39-14.53.82-21.74l52.66,0C788,240.53,788.91,240.62,789.82,240.68Z" transform="translate(-3.35 -78.48)"/><path class="cls-10" d="M743.56,213c2.08-2.92,4-6,6.29-8.74,5.93-7,12.46-13.37,20.86-17.25a27.62,27.62,0,0,1,8.71-2.28c3.59-.37,6.42,1.51,8.36,4.62a23.66,23.66,0,0,1,3.58,12c.2,7.39.1,14.79.13,22.19-4.24.05-8.48.14-12.71.14q-20.46,0-40.9-.09L740,219c9.72,0,19.44.06,29.16,0a12.2,12.2,0,0,0,12.23-13.78,9,9,0,0,0-5.76-7.69c-3.1-1.36-6.12-1.21-8.74,1.08a7.17,7.17,0,0,0-2.5,7.45,6.22,6.22,0,0,0,5.22,4.85,2.9,2.9,0,0,0,3.69-2.22c.5-1.8-.36-2.94-2-3.63l-1.17-.49-.21-.63c.81-.4,1.67-1.22,2.42-1.12A3.44,3.44,0,0,1,775.5,206a6.26,6.26,0,0,1-6.21,7C760.72,213.06,752.14,213,743.56,213Z" transform="translate(-3.35 -78.48)"/><path class="cls-12" d="M789.82,240.68c-.91-.06-1.82-.15-2.72-.15l-52.66,0,.63-6,54.36,0a8.57,8.57,0,0,0,1.12-.14l15.92-.08q18.67,0,37.35.1c6.18,0,10.69,3.18,12.54,8.71,2.44,7.33-2.48,14.22-9.82,13.74a7.66,7.66,0,0,1-6.76-6.17c-.65-3.33.49-6,3.22-7.4,2.56-1.34,4.85-.88,5.69,1.14s-.05,3.36-3,4.57c.21,1.48.94,2.1,2.45,1.64,2.4-.75,3.43-3.15,2.36-5.81s-2.9-4.18-5.71-4.19c-12.6,0-25.2,0-37.8.05Z" transform="translate(-3.35 -78.48)"/><path class="cls-8" d="M685.06,218h-8.55v-5.74c0-4.24,0-8.48,0-12.73,0-2.72-1.21-3.9-3.71-3.85s-4,1.41-4,3.86c0,6.08,0,12.16,0,18.39h-8.32v-28c4.77-1,6.5-.55,7.41,1.61,2.58-.8,5.06-1.93,7.65-2.29,3.05-.42,5.06,1.6,6.54,4.45a10.46,10.46,0,0,1,8.59-4.54c6.23-.2,9.87,3.14,10.43,9.64,0,.54,0,1.08,0,1.62v17.49h-8.55v-2.17c0-5,0-10,0-15,0-3.69-.94-5-3.54-5-2.76,0-4,1.55-4,5.21C685.05,206.46,685.06,212.08,685.06,218Z" transform="translate(-3.35 -78.48)"/><path class="cls-12" d="M737.88,223.58q20.45,0,40.9.09c4.23,0,8.47-.09,12.71-.14l14,0c4.7,0,9.41.16,14.11,0,3.6-.09,6.58-3.76,5.6-7.09-.35-1.21-1.84-2.21-3-2.95-.37-.23-1.45.68-2.25,1.1.4.58.46.77.57.82,2.49.92,3.4,2.26,2.81,4.16s-2.67,2.54-5,1.7a6.33,6.33,0,0,1-4.22-7.07,7.79,7.79,0,0,1,6.89-6.87c7.37-.56,12.36,6.54,9.8,13.93a12.32,12.32,0,0,1-12,8.51c-4.24.07-8.49.08-12.74.11l-15-.17c-.91-.05-1.81-.16-2.72-.16q-26.22,0-52.44,0C736.57,227.55,737.22,225.57,737.88,223.58Z" transform="translate(-3.35 -78.48)"/><path class="cls-8" d="M582.44,218a49,49,0,0,1-7.33-.11,5.06,5.06,0,0,1-2.9-2.39,15.69,15.69,0,0,1-1.49-4.34c-.36-1.46-1-2.12-2.62-2.05-3.72.16-7.45.13-11.17,0a2.14,2.14,0,0,0-2.53,1.9c-.24,1-.67,2-1,3.06C552.07,218,552,218,547.87,218h-5.29l3.87-10.17c3.55-9.32,7.13-18.64,10.61-28a2.42,2.42,0,0,1,2.82-1.91c2.42.18,5.42-.7,7.1.46s2,4.27,2.92,6.55q5.82,15.15,11.6,30.34C581.8,216.09,582.05,216.89,582.44,218Zm-25.19-15.43h10.63l-5.34-15.84C560.67,192.36,559,197.4,557.25,202.59Z" transform="translate(-3.35 -78.48)"/><path class="cls-8" d="M660.73,270.28h-8.37V247.77c-3.6,0-6.94-.06-10.27.07a2.06,2.06,0,0,0-1.39,1.44q-.16,6.24,0,12.5c0,1.68.78,3,2.75,2.17,1.47-.58,2.28,0,3,1.21.58,1.07,1.25,2.07,2,3.25-3.76,2.54-7.68,3.25-11.76,1.7-3.25-1.24-4.35-4.12-4.37-7.44,0-4.86,0-9.71,0-14.64a9.4,9.4,0,0,0-1.43-.25c-1.44,0-2.59-.24-2.53-2.12,0-1.58-.38-3.37,2.14-3.33,2,0,2.84-1.09,2.92-3a4.9,4.9,0,0,1,.24-.89c1.25-5.34,1.37-5.42,7.07-4.52v8h20.1Z" transform="translate(-3.35 -78.48)"/><path class="cls-8" d="M539.94,264.42c-5.58,7.71-19.18,8.76-27,2.19-8.42-7.13-9.1-22.7-1.35-30.84,7.26-7.63,21.07-7.91,27.82-.43-1,1.37-2,2.82-3,4.18-1.29,1.65-2.7.91-4,0a11.18,11.18,0,0,0-8.24-1.77,8.91,8.91,0,0,0-7.07,5.55,16.49,16.49,0,0,0,.14,14.08,10.48,10.48,0,0,0,15.35,4c2.7-1.91,2.88-1.89,5.07.48Z" transform="translate(-3.35 -78.48)"/><path class="cls-8" d="M637.89,217.94H629.7V177h8.16v14c2.81-.67,5.38-1.71,8-1.8,4.63-.17,8,2.76,8.76,7.39a48,48,0,0,1,.45,7.59c.07,4.53,0,9.06,0,13.71h-8.55c0-3.22,0-6.36,0-9.5s.07-6.32-.1-9.47c-.13-2.41-1.57-3.45-4-3.3-2.63.15-4.48,1.69-4.48,3.82C637.88,205.54,637.89,211.63,637.89,217.94Z" transform="translate(-3.35 -78.48)"/><path class="cls-8" d="M555.33,241.45c8.72,0,14.33,5.71,14.33,14.65s-5.53,14.71-14.25,14.72c-8.94,0-14.42-5.6-14.42-14.75C541,247.12,546.53,241.46,555.33,241.45Zm-5.8,14.79a42.63,42.63,0,0,0,.74,4.5,5,5,0,0,0,5.08,3.83c2.34,0,4.42-1.22,4.84-3.71a33.13,33.13,0,0,0,.24-8.84c-.29-2.71-2.38-4.15-4.93-4.25a5,5,0,0,0-5.3,4.1A39.16,39.16,0,0,0,549.53,256.24Z" transform="translate(-3.35 -78.48)"/><path class="cls-8" d="M679.54,241.45c8.73,0,14.34,5.69,14.35,14.62s-5.47,14.71-14,14.75c-9,0-14.78-5.67-14.8-14.73C665.09,247.28,670.81,241.48,679.54,241.45Zm5.79,14.71c-.2-1.36-.29-2.75-.62-4.08-.71-2.88-2.49-4.32-5.13-4.31a5,5,0,0,0-5.24,4.48,30.89,30.89,0,0,0,0,8,4.92,4.92,0,0,0,5.13,4.33c2.62.05,4.49-1.44,5.18-4.27C685,259,685.12,257.57,685.33,256.16Z" transform="translate(-3.35 -78.48)"/><path class="cls-8" d="M698.19,241.78c2.78.82,6.3-1.71,7.54,2.26,2.53-.84,5-2.16,7.57-2.43,5.82-.6,10,3.25,10.17,9.2.19,6.39,0,12.79,0,19.37h-8.28v-2.09c0-5.09.14-10.18-.09-15.26-.07-1.51-.85-3.85-1.9-4.26-1.49-.59-3.59,0-5.29.59-.65.21-1.26,1.65-1.28,2.54-.11,5.39,0,10.79,0,16.19v2.35h-8.43Z" transform="translate(-3.35 -78.48)"/><path class="cls-8" d="M720.73,200.7c.51-4.1-1.79-6.13-6.06-4.81a10,10,0,0,0-1.46.65c-4.14,2-5.29,1.52-7.15-3,3.93-4.34,12.61-6,17.64-3.31a9.13,9.13,0,0,1,5.24,7.87c.23,6.53.07,13.07.07,19.6-4.47.95-5.54.58-7.27-2.69a12.76,12.76,0,0,1-9.55,3.48c-3.81-.25-6.62-2.2-7.38-5.38-.94-3.95.34-7.45,4.1-9S716.54,201.88,720.73,200.7Zm-.1,5.51a35.09,35.09,0,0,0-6.2,1.65,3.73,3.73,0,0,0-1.62,3c.07.72,1.62,1.75,2.6,1.86C719.3,213.17,721.2,210.89,720.63,206.21Z" transform="translate(-3.35 -78.48)"/><path class="cls-8" d="M573.25,245.78c5-4.09,10.42-5.42,16.43-3.73a8.36,8.36,0,0,1,6.46,7.6c.4,6.81.12,13.65.12,20.69-2.59-.33-5.92,1.49-7-3.1a12.62,12.62,0,0,1-10,3.59c-3.6-.27-6.24-2.21-7.07-5.45-.9-3.46.18-6.88,3.41-8.49,2.73-1.36,5.83-2,8.8-2.81a23.8,23.8,0,0,1,3.75-.43c.48-4.66-1.76-6.65-5.94-5.47a10,10,0,0,0-1.47.62C576.36,250.85,575.68,250.6,573.25,245.78Zm14.8,12.78a36.33,36.33,0,0,0-6.23,1.64,3.72,3.72,0,0,0-1.6,3c.07.73,1.61,1.77,2.58,1.87C586.7,265.53,588.68,263.17,588.05,258.56Z" transform="translate(-3.35 -78.48)"/><path class="cls-9" d="M759.63,317.3c-3.87.75-6.93.23-9-3.1-1.12-1.75-2.52-2.29-4.78-2a13.21,13.21,0,0,1-14.49-8.69c-2.32-6.44-.24-13.83,4.88-17.38A14.85,14.85,0,0,1,754,287.26c5.59,5,5.83,15.43.45,21.09a13.62,13.62,0,0,1-1.67,1.3ZM735.7,298c0,4.72,2,8.14,5.63,9.35,4.65,1.58,9.25-.44,10.93-4.78,2.06-5.37.27-11.52-4-13.52a7.83,7.83,0,0,0-2.16-.66C739.91,287.44,735.71,291.32,735.7,298Z" transform="translate(-3.35 -78.48)"/><path class="cls-12" d="M743.56,213c8.58,0,17.16.11,25.73,0a6.26,6.26,0,0,0,6.21-7,3.44,3.44,0,0,0-3.14-3.16c-.75-.1-1.61.72-2.42,1.12l.21.63,1.17.49c1.6.69,2.46,1.83,2,3.63a2.9,2.9,0,0,1-3.69,2.22,6.22,6.22,0,0,1-5.22-4.85,7.17,7.17,0,0,1,2.5-7.45c2.62-2.29,5.64-2.44,8.74-1.08a9,9,0,0,1,5.76,7.69A12.2,12.2,0,0,1,769.14,219c-9.72,0-19.44,0-29.16,0Q741.76,216,743.56,213Z" transform="translate(-3.35 -78.48)"/><path class="cls-8" d="M582.68,214.92c.42-.69.77-1.29,1.14-1.87,1.79-2.82,2.38-2.84,5.37-1.56a13.21,13.21,0,0,0,5.2,1,2.91,2.91,0,0,0,2.07-2c.09-.71-.86-1.9-1.64-2.32a33.09,33.09,0,0,0-4.68-1.74c-4.89-1.78-6.88-4.51-6.56-9,.29-4.07,3-7.12,7.6-8,4.81-.92,9.35-.27,13.22,3.3-.54.88-1,1.65-1.48,2.46-.87,1.6-2.06,1.7-3.67,1.18a18.35,18.35,0,0,0-5.25-1.05,2.82,2.82,0,0,0-2.19,1.73c-.13.69.78,1.95,1.54,2.34,1.88,1,4,1.51,5.93,2.3,2.84,1.14,5,2.91,5.21,6.32.25,3.8-1.06,6.8-4.35,8.76C595.21,219.72,587.23,218.9,582.68,214.92Z" transform="translate(-3.35 -78.48)"/><path class="cls-8" d="M610.49,195.62c-4.07-.42-4.07-.42-3.69-5.13a8,8,0,0,1,1.42-.35c2.18-.15,3.07-1.22,3.6-3.47,1.4-6-.2-5.42,7.22-5.25v8.18h6.75v5.8H619v13c0,3.35.11,3.39,3.47,3.06a2.5,2.5,0,0,1,1.82.91,33.88,33.88,0,0,1,2.22,3.46c-3.09,3-9.52,3.64-12.92,1.26-2.62-1.84-3.09-4.63-3.13-7.54C610.45,204.93,610.49,200.32,610.49,195.62Z" transform="translate(-3.35 -78.48)"/><path class="cls-8" d="M548.2,297.47c4.37,2.42,5.26,3.91,4.77,7.76a7.24,7.24,0,0,1-6.81,6.39c-4.34.47-8.77.11-13.32.11V284.42c4.41,0,8.86-.25,13.26.09a6.22,6.22,0,0,1,6.11,5.54C552.75,293.32,551.8,295.18,548.2,297.47Zm-10.26,10.28a66.43,66.43,0,0,0,6.8-.05,3.69,3.69,0,0,0,3.24-4.05,3.37,3.37,0,0,0-3.32-3.65c-2.21-.18-4.45,0-6.72,0Zm0-11.38a63,63,0,0,0,6.83-.72c1.8-.39,2.35-1.95,2.31-3.77s-.79-3.12-2.47-3.41c-2.19-.36-4.44-.35-6.67-.5Z" transform="translate(-3.35 -78.48)"/><path class="cls-9" d="M601.94,270.19V229.35h8.31v40.84Z" transform="translate(-3.35 -78.48)"/><path class="cls-9" d="M717.1,297c-.92,3.13-1.78,6-2.76,9.35l5.1,5.48c-3.28.54-6.26.8-8.29-2.59a14.6,14.6,0,0,1-9.19,3.14c-3.81-.11-7.14-2.44-8.06-5.66-1-3.51.31-6.9,3.58-9.23.44-.31.88-.6,1.44-1-1.54-2.86-2.57-6-.76-8.9a9.47,9.47,0,0,1,4.54-3.43c4.15-1.58,9.45,1.22,9.61,5.75-1.86.64-3.58,1.63-5-1.14-.39-.77-2.44-1.19-3.55-.93a2.86,2.86,0,0,0-2,3.65,7.87,7.87,0,0,0,1.65,3.21c2.41,2.76,5,5.39,7.77,8.39.48-1.33.94-2.34,1.2-3.4C713.15,296.5,713.11,296.49,717.1,297Zm-8.71,9.39-7.63-6.8a5,5,0,0,0-1.49,7C701,309.11,705,309.09,708.39,306.34Z" transform="translate(-3.35 -78.48)"/><path class="cls-10" d="M735.91,229.53q26.22,0,52.44,0c.91,0,1.81.11,2.72.16l-.52,4.67a8.57,8.57,0,0,1-1.12.14l-54.36,0Z" transform="translate(-3.35 -78.48)"/><path class="cls-8" d="M614.11,283.33h4.44v16.88a15,15,0,0,0,2.69-1.71,17.79,17.79,0,0,0,2.73-3.4c1.69-2.94,4.18-3.39,7.5-2.64l-6.92,8.44,7.35,10.89c-3.28.71-5.8.38-7.37-2.87a24.5,24.5,0,0,0-3-4.6,13.51,13.51,0,0,0-2.83-2v9.55h-4.57Z" transform="translate(-3.35 -78.48)"/><path class="cls-8" d="M624.44,270.24h-8.29V242.08h8.29Z" transform="translate(-3.35 -78.48)"/><path class="cls-9" d="M588.53,302.31c0,6.19-3.82,10.07-9.74,10s-9.56-4-9.52-10.46c0-6.22,3.73-10,9.74-10S588.58,295.82,588.53,302.31Zm-4.81-.15c-.12-1.05-.16-2-.35-2.88a4.31,4.31,0,0,0-4.31-3.7,4.16,4.16,0,0,0-4.57,3.61,18.09,18.09,0,0,0,0,5.92c.49,2.72,2.89,4,5.55,3.34C582.49,307.87,583.76,305.63,583.72,302.16Z" transform="translate(-3.35 -78.48)"/><path class="cls-9" d="M591.08,302.14c0-6.36,3.67-10.24,9.74-10.23,5.91,0,9.59,3.89,9.61,10.13s-3.66,10.22-9.51,10.29S591.11,308.44,591.08,302.14Zm14.39-.32c0-.2,0-.82-.09-1.43-.34-3.12-1.88-4.76-4.49-4.81s-4.31,1.36-4.71,4.54a16.85,16.85,0,0,0,.18,5,4.08,4.08,0,0,0,3.56,3.41C603.35,309.15,605.44,306.78,605.47,301.82Z" transform="translate(-3.35 -78.48)"/><path class="cls-8" d="M774,292.3h4.55a7.26,7.26,0,0,1,.15,1c0,6.15,0,12.31,0,18.69-1.88,0-3.93,1-4.42-1.4-2.2.62-4.24,1.55-6.33,1.68a5.55,5.55,0,0,1-6.07-5.31c-.28-4.82-.07-9.66-.07-14.62h4.58c0,4,0,7.88,0,11.78,0,1.66,0,3.65,1.81,4a8.1,8.1,0,0,0,4.63-.85c.65-.3,1.09-1.75,1.12-2.69C774,300.53,774,296.46,774,292.3Z" transform="translate(-3.35 -78.48)"/><path class="cls-9" d="M668.64,312h-4.76V292.23c1.81.17,4-1.13,4.39,1.87a22.91,22.91,0,0,1,3.94-2c4.61-1.24,8.15,1.12,8.49,6,.32,4.51.07,9.06.07,13.76h-4.72c0-3.88.13-7.86-.07-11.83-.07-1.37-.68-3.51-1.58-3.86-1.29-.5-3.16.11-4.62.68-.59.23-1.06,1.57-1.09,2.43C668.58,303.42,668.64,307.57,668.64,312Z" transform="translate(-3.35 -78.48)"/><path class="cls-9" d="M787,302.72c.56,5.3,4.06,7.3,8.59,4.92,2.12-1.12,3.21-.58,4.11,1.36-2.23,2.88-6.92,4.16-11,2.9a8.55,8.55,0,0,1-6.31-7.92,16.45,16.45,0,0,1,1-7.17c1.55-3.94,6.06-5.71,10.55-4.71,3.56.78,6,4,6.22,8.13.09,1.73-.41,2.63-2.28,2.52s-3.64,0-5.47,0Zm8.74-3.09c-.55-3.14-1.86-4.38-4.31-4.29s-3.79,1.45-4.1,4.29Z" transform="translate(-3.35 -78.48)"/><path class="cls-9" d="M807.42,302.72c0,5.33,4.57,7.17,8.38,5,2-1.13,3.25-.81,4.21,1.2-3.11,4.43-11.2,4.66-15,.4-2.65-3-3.31-8.58-1.45-12.41,1.77-3.64,5.17-5.37,9.69-4.92a8,8,0,0,1,7,9.32c-.11.59-1.32,1.33-2,1.36C814.65,302.8,811.08,302.72,807.42,302.72Zm.16-3c.51,0,1,.1,1.53.1h6.78c0-2.87-1.29-4.33-3.67-4.45C809.59,295.21,808,296.67,807.58,299.68Z" transform="translate(-3.35 -78.48)"/><path class="cls-8" d="M824,292.21c1.79.16,3.87-.94,4.3,1.58,2-.65,3.82-1.62,5.74-1.79,4-.36,6.59,2,6.75,6.07.18,4.53,0,9.08,0,13.79h-4.65c0-4,0-8,0-12,0-3-1-4.21-3.31-4.2a4,4,0,0,0-4.29,4.39v11.86H824Z" transform="translate(-3.35 -78.48)"/><path class="cls-9" d="M641.89,292.18a10,10,0,0,1,3,.07,4.39,4.39,0,0,1,2.46,1.78c1.56,3.37,2.88,6.87,4.49,10.82,1.29-3.33,2.42-6.21,3.54-9.1,1.5-3.89,1.5-3.89,6.05-3.37l-4.79,11.47c-1.55,3.67-3.11,7.34-4.65,11-1.64,3.9-1.64,3.91-6.13,3.49.83-1.86,1.51-3.72,2.46-5.42a4.72,4.72,0,0,0,.12-4.74c-2.29-5-4.4-10.12-6.57-15.2A3.86,3.86,0,0,1,641.89,292.18Z" transform="translate(-3.35 -78.48)"/><path class="cls-9" d="M844,310c1.58-3.05,1.53-2.89,4.38-1.81a7.4,7.4,0,0,0,4.34.24c1.78-.49,1.87-2.54.23-3.46a31.57,31.57,0,0,0-4.21-1.68c-2.93-1.13-4.23-2.77-4.21-5.34a5.72,5.72,0,0,1,4.48-5.68,9.45,9.45,0,0,1,7.89.93,2.42,2.42,0,0,1,.88,2,1.61,1.61,0,0,1-2.47,1.1,9.27,9.27,0,0,0-3.91-.84,2.75,2.75,0,0,0-2.1,1.64c-.13.61.76,1.77,1.49,2.18a34.67,34.67,0,0,0,4.24,1.61c2.12.87,3.6,2.27,3.57,4.8s-1.1,4.7-3.5,5.72C851.19,313.1,847.52,312.53,844,310Z" transform="translate(-3.35 -78.48)"/><path class="cls-8" d="M634.55,283.35h4.39v28.57h-4.39Z" transform="translate(-3.35 -78.48)"/><path class="cls-9" d="M568.45,292.39c-.09.91-.21,1.67-.23,2.43-.05,1.44-.6,2-2.14,1.8-2.81-.32-4.58,1.4-4.62,4.29,0,3.61,0,7.21,0,11h-4.76V292.46c3.53-.64,3.58-.61,4.57,2.44C563.09,292.55,565.15,290.93,568.45,292.39Z" transform="translate(-3.35 -78.48)"/><path class="cls-8" d="M656.77,239a4.78,4.78,0,0,1-4.94-4.85,4.94,4.94,0,0,1,5-5.07,5.05,5.05,0,0,1,5.1,5A4.88,4.88,0,0,1,656.77,239Z" transform="translate(-3.35 -78.48)"/><path class="cls-8" d="M620.28,239.06a5,5,0,0,1,0-10,5,5,0,1,1,0,10Z" transform="translate(-3.35 -78.48)"/><path class="cls-9" d="M517.93,292.43c0,3.63-2.3,6.42-5.39,6.47-2.53,0-4-1.62-4-4.48,0-3.55,2.41-6.49,5.39-6.52C516.34,287.88,517.92,289.65,517.93,292.43ZM511,295c.31.31,1.06,1.69,1.76,1.66,2.19-.09,2.52-2.07,2.68-3.84.12-1.21.05-2.6-1.58-2.78C512.38,289.88,511.05,291.89,511,295Z" transform="translate(-3.35 -78.48)"/><path class="cls-9" d="M526.58,283.87l-4.05,4,2.66.5.34.61-2.6,1.76c-.33,2.47-.62,5.29-1.09,8.09-.35,2.08-.67,2.27-2.7,2.35.34-3,.68-5.94,1-8.9,0-.38.3-.92.13-1.11-1.45-1.7-.17-2.84.52-4.34C522,284.21,522.9,283.44,526.58,283.87Z" transform="translate(-3.35 -78.48)"/><path class="cls-13" d="M790.55,234.39l.52-4.67,15,.17c.14,1.47.29,2.94.43,4.42Z" transform="translate(-3.35 -78.48)"/><path class="cls-13" d="M557.25,202.59c1.74-5.19,3.42-10.23,5.29-15.84l5.34,15.84Z" transform="translate(-3.35 -78.48)"/><path class="cls-13" d="M549.53,256.24a39.16,39.16,0,0,1,.67-4.37,5,5,0,0,1,5.3-4.1c2.55.1,4.64,1.54,4.93,4.25a33.13,33.13,0,0,1-.24,8.84c-.42,2.49-2.5,3.71-4.84,3.71a5,5,0,0,1-5.08-3.83A42.63,42.63,0,0,1,549.53,256.24Z" transform="translate(-3.35 -78.48)"/><path class="cls-13" d="M685.33,256.16c-.21,1.41-.31,2.8-.63,4.13-.69,2.83-2.56,4.32-5.18,4.27a4.92,4.92,0,0,1-5.13-4.33,30.89,30.89,0,0,1,0-8,5,5,0,0,1,5.24-4.48c2.64,0,4.42,1.43,5.13,4.31C685,253.41,685.13,254.8,685.33,256.16Z" transform="translate(-3.35 -78.48)"/><path class="cls-13" d="M720.63,206.21c.57,4.68-1.33,7-5.22,6.54-1-.11-2.53-1.14-2.6-1.86a3.73,3.73,0,0,1,1.62-3A35.09,35.09,0,0,1,720.63,206.21Z" transform="translate(-3.35 -78.48)"/><path class="cls-13" d="M588.05,258.56c.63,4.61-1.35,7-5.25,6.54-1-.1-2.51-1.14-2.58-1.87a3.72,3.72,0,0,1,1.6-3A36.33,36.33,0,0,1,588.05,258.56Z" transform="translate(-3.35 -78.48)"/><path class="cls-13" d="M735.7,298c0-6.69,4.21-10.57,10.41-9.61a7.83,7.83,0,0,1,2.16.66c4.26,2,6.05,8.15,4,13.52-1.68,4.34-6.28,6.36-10.93,4.78C737.75,306.15,735.69,302.73,735.7,298Z" transform="translate(-3.35 -78.48)"/><path class="cls-7" d="M537.94,307.75V300c2.27,0,4.51-.14,6.72,0a3.37,3.37,0,0,1,3.32,3.65,3.69,3.69,0,0,1-3.24,4.05A66.43,66.43,0,0,1,537.94,307.75Z" transform="translate(-3.35 -78.48)"/><path class="cls-13" d="M538,296.37V288c2.23.15,4.48.14,6.67.5,1.68.29,2.43,1.63,2.47,3.41s-.51,3.38-2.31,3.77A63,63,0,0,1,538,296.37Z" transform="translate(-3.35 -78.48)"/><path class="cls-13" d="M708.39,306.34c-3.4,2.75-7.36,2.77-9.12.25a5,5,0,0,1,1.49-7Z" transform="translate(-3.35 -78.48)"/><path class="cls-13" d="M583.72,302.16c0,3.47-1.23,5.71-3.65,6.29-2.66.65-5.06-.62-5.55-3.34a18.09,18.09,0,0,1,0-5.92,4.16,4.16,0,0,1,4.57-3.61,4.31,4.31,0,0,1,4.31,3.7C583.56,300.18,583.6,301.11,583.72,302.16Z" transform="translate(-3.35 -78.48)"/><path class="cls-13" d="M605.47,301.82c0,5-2.12,7.33-5.55,6.72a4.08,4.08,0,0,1-3.56-3.41,16.85,16.85,0,0,1-.18-5c.4-3.18,2-4.59,4.71-4.54s4.15,1.69,4.49,4.81C605.45,301,605.46,301.62,605.47,301.82Z" transform="translate(-3.35 -78.48)"/><path class="cls-13" d="M795.75,299.63h-8.41c.31-2.84,1.66-4.2,4.1-4.29S795.2,296.49,795.75,299.63Z" transform="translate(-3.35 -78.48)"/><path class="cls-13" d="M807.58,299.68c.4-3,2-4.47,4.64-4.34,2.38.12,3.65,1.58,3.67,4.45h-6.78C808.6,299.78,808.09,299.72,807.58,299.68Z" transform="translate(-3.35 -78.48)"/><path class="cls-13" d="M511,295c.08-3.1,1.41-5.11,2.86-5,1.63.18,1.7,1.57,1.58,2.78-.16,1.77-.49,3.75-2.68,3.84C512,296.68,511.28,295.3,511,295Z" transform="translate(-3.35 -78.48)"/></svg>