<svg id="Layer_1" data-name="Layer 1" xmlns="http://www.w3.org/2000/svg" viewBox="0 0 216 118.56"><defs><style>.cls-1{fill:#56565b;}.cls-2{fill:#fcfcfc;}.cls-3{fill:#fafafa;}.cls-4{fill:#02a7e0;}.cls-5{fill:#00a6e0;}.cls-6{fill:#f9fbfc;}.cls-7{fill:#59595d;}</style></defs><title>asthmacoalition_queens</title><path class="cls-1" d="M0,110.4V8.16c.06,0,.16-.08.18-.14a10.33,10.33,0,0,1,8-8H207.84a9.72,9.72,0,0,1,6.28,4.22A35.75,35.75,0,0,1,216,8.4v102c-.38.94-.71,1.91-1.16,2.81a10.33,10.33,0,0,1-6.76,5.35H7.68a4.8,4.8,0,0,0-.6-.3,10,10,0,0,1-6.63-6.81C.33,111.09.15,110.75,0,110.4ZM134.7,59.75l-.45,2.57-.33,3.12c-.64,3.74-1.19,7.49-.43,11.27a4.83,4.83,0,0,0,4.06,4.06,14.36,14.36,0,0,0,3.92.26,28.74,28.74,0,0,0,15.32-6.19c3.06-2.41,5.58-5.27,6.27-9.31h9.06a13.43,13.43,0,0,0,3.06,6.16,27.34,27.34,0,0,0,13.1,8.25,18.73,18.73,0,0,0,8.85,1,5.22,5.22,0,0,0,4.63-4.23,9.59,9.59,0,0,0,.3-2.49q-.15-3.64-.47-7.29c-.42-5-1.22-9.81-3.94-14.17a41.86,41.86,0,0,0-11.92-13,25.18,25.18,0,0,0-6.42-3.09c-2.84-.92-5.25.33-6.51,3a10.59,10.59,0,0,0-1.18,3.74c-.23,4.38-.24,8.77-.33,13.16l-7.35,0c0-3.84,0-7.67-.07-11.5A12.18,12.18,0,0,0,162,38.9a4.54,4.54,0,0,0-4.4-2.39A14.39,14.39,0,0,0,153,37.69c-4.42,2-7.86,5.31-11,8.94-1.22,1.41-2.21,3-3.31,4.53l-1.89,3.12-1.1,2.39Zm22.2-39.7a32.88,32.88,0,0,0,1.28,5.06c1.66,3.94,4.57,6.45,9,6.66,4,.19,6.9-1.72,8.95-5a12.83,12.83,0,0,0-1-14.9,9.64,9.64,0,0,0-14-1.07A13.15,13.15,0,0,0,156.9,20.05Zm-49,33.7V44.88c0-1.9.64-2.71,2.1-2.7s1.86.69,1.86,2.6c0,2.6,0,5.2,0,7.8V53.7h4.5V44.64a7.85,7.85,0,0,0,0-.84c-.29-3.37-2.2-5.1-5.48-5a5.57,5.57,0,0,0-4.53,2.36c-.77-1.48-1.83-2.53-3.44-2.31a25.5,25.5,0,0,0-4,1.19c-.48-1.12-1.39-1.37-3.9-.84V53.71h4.38V44.18a1.87,1.87,0,0,1,2.09-2c1.32,0,1.94.59,2,2,0,2.2,0,4.4,0,6.59v3Zm-54,0c-.2-.58-.33-1-.49-1.4q-3-7.86-6.11-15.73c-.46-1.18-.65-2.79-1.53-3.39s-2.47-.14-3.74-.24a1.28,1.28,0,0,0-1.48,1c-1.83,4.85-3.72,9.68-5.58,14.51l-2,5.27h2.78c2.19,0,2.21,0,2.91-2,.18-.53.4-1,.53-1.59a1.11,1.11,0,0,1,1.33-1c2,.07,3.92.08,5.88,0a1.16,1.16,0,0,1,1.38,1.06,7.8,7.8,0,0,0,.78,2.25,2.65,2.65,0,0,0,1.52,1.24A27.25,27.25,0,0,0,53.94,53.78Zm41.2,27.09V66.17H84.56V62c-3-.46-3.06-.42-3.72,2.35a2.42,2.42,0,0,0-.13.46c0,1-.5,1.57-1.53,1.55-1.33,0-1.1.91-1.13,1.73,0,1,.58,1.1,1.33,1.1a3.94,3.94,0,0,1,.75.13c0,2.55,0,5.07,0,7.58,0,1.73.59,3.22,2.3,3.86a6.53,6.53,0,0,0,6.19-.88c-.38-.61-.74-1.13-1-1.68A1.11,1.11,0,0,0,86,77.59c-1,.41-1.43-.26-1.45-1.13q-.08-3.24,0-6.48a1,1,0,0,1,.73-.74c1.75-.07,3.51,0,5.41,0V80.87Zm-63.56-3c-.39-.43-.79-.87-1.2-1.3-1.15-1.23-1.25-1.24-2.66-.25a5.55,5.55,0,0,1-8.08-2.08,8.43,8.43,0,0,1-.08-7.29A4.68,4.68,0,0,1,23.28,64a5.93,5.93,0,0,1,4.34.92c.7.45,1.44.83,2.12,0s1.07-1.46,1.59-2.17C27.77,58.88,20.51,59,16.69,63,12.61,67.2,13,75.27,17.4,79,21.49,82.37,28.65,81.83,31.58,77.83ZM83.12,53.74c0-3.27,0-6.42,0-9.57,0-1.11,1-1.91,2.36-2s2.06.47,2.13,1.71c.09,1.64,0,3.28,0,4.92s0,3.25,0,4.91h4.5c0-2.4,0-4.75,0-7.1a24.55,24.55,0,0,0-.24-3.93,4.34,4.34,0,0,0-4.61-3.83,23.81,23.81,0,0,0-4.2.93V32.54H78.81v21.2ZM39.68,65.93c-4.63,0-7.55,2.94-7.55,7.57s2.89,7.65,7.59,7.65,7.5-3,7.5-7.63S44.27,65.92,39.68,65.93Zm65.36,0c-4.6,0-7.61,3-7.6,7.58s3,7.66,7.78,7.64c4.49,0,7.37-3,7.37-7.65S109.63,65.91,105,65.93Zm9.81.17V80.85h4.43V79.63c0-2.8,0-5.6,0-8.39,0-.46.33-1.21.67-1.32a4.66,4.66,0,0,1,2.79-.3c.55.21,1,1.42,1,2.2.13,2.64,0,5.28,0,7.91v1.08h4.36c0-3.4.08-6.72,0-10A4.64,4.64,0,0,0,122.8,66a19.74,19.74,0,0,0-4,1.26C118.16,65.21,116.31,66.52,114.85,66.1Zm11.86-21.29a55.22,55.22,0,0,0-6.22,1.77,3.71,3.71,0,0,0-2.16,4.67c.4,1.65,1.88,2.66,3.88,2.79a6.77,6.77,0,0,0,5-1.81c.91,1.7,1.47,1.89,3.82,1.4,0-3.38.09-6.78,0-10.16a4.75,4.75,0,0,0-2.76-4.08c-2.65-1.39-7.21-.53-9.28,1.72,1,2.33,1.58,2.57,3.76,1.54a6.65,6.65,0,0,1,.77-.34C125.76,41.63,127,42.68,126.71,44.81ZM49.11,68.17c1.28,2.5,1.63,2.63,3.93,1.57a4.74,4.74,0,0,1,.78-.32c2.2-.62,3.38.41,3.12,2.83a13.2,13.2,0,0,0-2,.22,26,26,0,0,0-4.63,1.46,3.62,3.62,0,0,0-1.8,4.4,3.87,3.87,0,0,0,3.73,2.83,6.73,6.73,0,0,0,5.24-1.87c.59,2.38,2.34,1.44,3.7,1.61,0-3.65.15-7.2-.06-10.72a4.34,4.34,0,0,0-3.4-3.94A9.14,9.14,0,0,0,49.11,68.17Zm98.06,37.07-3.61-4a7.23,7.23,0,0,0,.88-.67c2.83-2.93,2.71-8.34-.24-10.93a7.92,7.92,0,0,0-9.36-.58,7.79,7.79,0,0,0-2.56,9,7,7,0,0,0,7.62,4.5,2.23,2.23,0,0,1,2.51,1C143.53,105.36,145.14,105.63,147.17,105.24ZM54.07,52.18a8.62,8.62,0,0,0,9.19,1,4.53,4.53,0,0,0,2.29-4.54c-.12-1.77-1.25-2.68-2.75-3.27-1-.41-2.13-.7-3.12-1.2a1.58,1.58,0,0,1-.81-1.21A1.51,1.51,0,0,1,60,42a10.16,10.16,0,0,1,2.77.55c.85.27,1.47.22,1.93-.61.23-.42.49-.82.78-1.28a7.67,7.67,0,0,0-7-1.71,4.51,4.51,0,0,0-4,4.15c-.16,2.31.88,3.73,3.46,4.65a18.48,18.48,0,0,1,2.46.9c.41.22.91.84.86,1.21a1.53,1.53,0,0,1-1.09,1,6.9,6.9,0,0,1-2.73-.51c-1.58-.67-1.89-.65-2.83.81C54.47,51.51,54.29,51.82,54.07,52.18Zm14.63-10c0,2.44,0,4.83,0,7.22,0,1.51.27,3,1.64,3.91a6.07,6.07,0,0,0,6.81-.66A19.76,19.76,0,0,0,76,50.85a1.32,1.32,0,0,0-1-.47c-1.77.17-1.82.15-1.83-1.59V42.06h3.55v-3H73.2V34.82c-3.91-.09-3.06-.39-3.8,2.71-.28,1.17-.75,1.73-1.89,1.8a4.33,4.33,0,0,0-.75.19C66.56,42,66.56,42,68.7,42.17ZM35.93,95c1.89-1.19,2.39-2.15,2.11-3.85a3.27,3.27,0,0,0-3.22-2.87c-2.32-.18-4.66,0-7,0v14.15a68,68,0,0,0,7-.06A3.79,3.79,0,0,0,38.44,99C38.7,97,38.23,96.22,35.93,95ZM64.2,80.82h4.38V59.65H64.2Zm60.6,13.87c-2.1-.24-2.08-.23-2.48,1.4-.14.55-.38,1.07-.63,1.76-1.47-1.55-2.82-2.91-4.09-4.34a4.06,4.06,0,0,1-.87-1.67A1.49,1.49,0,0,1,117.79,90c.58-.13,1.66.09,1.86.48.74,1.44,1.65.93,2.63.59-.09-2.34-2.88-3.79-5.06-3a5,5,0,0,0-2.39,1.78c-1,1.51-.41,3.13.4,4.61-.29.2-.53.35-.75.51a4.23,4.23,0,0,0-1.89,4.79,4.45,4.45,0,0,0,4.24,2.93,7.71,7.71,0,0,0,4.84-1.63c1.07,1.76,2.63,1.63,4.36,1.35l-2.68-2.85C123.86,97.82,124.31,96.31,124.8,94.69ZM70.61,87.63v14.81H73v-5a7.18,7.18,0,0,1,1.49,1,12.51,12.51,0,0,1,1.59,2.38c.82,1.69,2.15,1.86,3.88,1.49L76.1,96.74l3.64-4.38c-1.75-.39-3-.15-3.95,1.37a9,9,0,0,1-1.43,1.76,8.14,8.14,0,0,1-1.42.89V87.63ZM76,80.85V66.25H71.68v14.6ZM57.15,97.47c0-3.36-1.84-5.37-5-5.39S47,94,47,97.24s1.87,5.39,5,5.42S57.12,100.67,57.15,97.47Zm1.34-.09c0,3.26,2,5.32,5.18,5.28s5-2.1,5-5.33-1.94-5.25-5.06-5.25S58.48,94.08,58.49,97.38Zm96.23-5.1c0,2.16,0,4.26,0,6.37,0,.49-.24,1.24-.59,1.39a4.27,4.27,0,0,1-2.43.44c-1-.2-.95-1.23-.95-2.09,0-2,0-4,0-6.11h-2.41c0,2.57-.11,5.09,0,7.58a2.91,2.91,0,0,0,3.19,2.76,18.07,18.07,0,0,0,3.33-.88c.26,1.25,1.34.7,2.33.73V92.78c0-.15,0-.3-.08-.5ZM99.3,102.47c0-2.28,0-4.43,0-6.57,0-.45.26-1.14.57-1.26a3.8,3.8,0,0,1,2.43-.35c.47.18.79,1.28.83,2,.11,2,0,4.12,0,6.13h2.48c0-2.44.13-4.8,0-7.13-.19-2.51-2.05-3.73-4.47-3.09a12.29,12.29,0,0,0-2.07,1c-.19-1.55-1.36-.88-2.31-1v10.23Zm62.28-4.79h2.84c1,0,1.91,0,2.87,0s1.25-.4,1.2-1.3a4.35,4.35,0,0,0-3.27-4.22c-2.37-.51-4.74.41-5.55,2.45a8.21,8.21,0,0,0-.5,3.71,4.45,4.45,0,0,0,3.32,4.11,5.55,5.55,0,0,0,5.77-1.5c-.47-1-1-1.29-2.16-.71C163.72,101.47,161.88,100.43,161.58,97.68Zm10.74,0c1.93,0,3.8,0,5.68,0,.38,0,1-.4,1.07-.7a4.13,4.13,0,0,0-3.69-4.83,4.71,4.71,0,0,0-5.1,2.54,6.25,6.25,0,0,0,.76,6.43c2,2.21,6.27,2.09,7.91-.2-.51-1-1.18-1.21-2.22-.62C174.73,101.39,172.3,100.44,172.32,97.68ZM181,92.23v10.21h2.41V96.3A2.1,2.1,0,0,1,185.7,94c1.23,0,1.73.61,1.74,2.18,0,2.07,0,4.13,0,6.22h2.45c0-2.45.07-4.8,0-7.15a3,3,0,0,0-3.54-3.15,15.21,15.21,0,0,0-3,.93C183.07,91.75,182,92.32,181,92.23Zm-95.81,0c0,.27,0,.36,0,.42,1.14,2.63,2.24,5.28,3.45,7.88a2.43,2.43,0,0,1-.06,2.46c-.5.88-.86,1.84-1.3,2.81,2.37.21,2.36.21,3.23-1.81s1.63-3.81,2.44-5.72,1.68-3.94,2.53-5.94c-2.4-.27-2.4-.27-3.19,1.75l-1.86,4.71c-.85-2-1.54-3.86-2.37-5.6a2.28,2.28,0,0,0-1.29-.93A5.55,5.55,0,0,0,85.22,92.22Zm106.32,9.24a5.77,5.77,0,0,0,5.84.75,3,3,0,0,0,1.85-3,2.55,2.55,0,0,0-1.88-2.49,19.73,19.73,0,0,1-2.23-.84c-.39-.21-.86-.81-.79-1.13a1.47,1.47,0,0,1,1.11-.85,4.91,4.91,0,0,1,2.05.44.85.85,0,0,0,1.3-.57,1.23,1.23,0,0,0-.46-1.06,5,5,0,0,0-4.15-.48,3,3,0,0,0-2.36,2.94c0,1.34.68,2.18,2.22,2.77a18.44,18.44,0,0,1,2.21.87.94.94,0,0,1-.12,1.8,3.94,3.94,0,0,1-2.28-.13C192.35,100,192.38,99.88,191.54,101.46ZM81.36,87.64v14.81h2.31V87.64ZM46.58,92.33c-1.74-.76-2.82.08-3.78,1.3-.52-1.58-.55-1.6-2.4-1.27v10.07h2.5c0-2,0-3.82,0-5.69a2,2,0,0,1,2.43-2.22c.8.09,1.1-.19,1.12-.94C46.47,93.19,46.53,92.8,46.58,92.33ZM93.06,64.64a2.54,2.54,0,0,0,2.72-2.53A2.63,2.63,0,0,0,93.1,59.5a2.58,2.58,0,0,0-2.65,2.63A2.5,2.5,0,0,0,93.06,64.64Zm-19.21,0a2.65,2.65,0,0,0,2.71-2.59,2.62,2.62,0,0,0-2.7-2.58,2.59,2.59,0,1,0,0,5.17ZM20,92.34A2.09,2.09,0,0,0,17.87,90,3.16,3.16,0,0,0,15,93.38c0,1.48.79,2.34,2.12,2.32A3.08,3.08,0,0,0,20,92.34Zm4.55-4.43c-1.94-.22-2.4.18-3,1.54-.37.77-1,1.36-.28,2.24.09.1,0,.38-.07.58l-.54,4.61c1.07,0,1.24-.14,1.43-1.22.24-1.45.4-2.91.57-4.19L24,90.56l-.18-.32L22.42,90Z"/><path class="cls-2" d="M216,8.4a35.75,35.75,0,0,0-1.88-4.18A9.72,9.72,0,0,0,207.84,0H216Z"/><path class="cls-2" d="M8.16,0a10.33,10.33,0,0,0-8,8c0,.06-.12.1-.18.14V0Z"/><path class="cls-3" d="M208.08,118.56a10.33,10.33,0,0,0,6.76-5.35c.45-.9.78-1.87,1.16-2.81v8.16Z"/><path class="cls-3" d="M0,110.4c.15.35.33.69.45,1a10,10,0,0,0,6.63,6.81,4.8,4.8,0,0,1,.6.3H0Z"/><path class="cls-4" d="M171.29,56.62c.09-4.39.1-8.78.33-13.16a10.59,10.59,0,0,1,1.18-3.74c1.26-2.71,3.67-4,6.51-3a25.18,25.18,0,0,1,6.42,3.09,41.86,41.86,0,0,1,11.92,13c2.72,4.36,3.52,9.21,3.94,14.17q.32,3.64.47,7.29a9.59,9.59,0,0,1-.3,2.49,5.22,5.22,0,0,1-4.63,4.23,18.73,18.73,0,0,1-8.85-1,27.34,27.34,0,0,1-13.1-8.25,13.43,13.43,0,0,1-3.06-6.16c6.63,0,13.26,0,19.89,0a3.12,3.12,0,0,1,3,2.17,2.1,2.1,0,0,1-1.24,3c-.79.24-1.18-.08-1.29-.85,1.53-.63,2-1.34,1.56-2.37s-1.65-1.29-3-.59a3.27,3.27,0,0,0-1.7,3.83,4,4,0,0,0,3.56,3.2c3.86.25,6.45-3.32,5.16-7.12a6.52,6.52,0,0,0-6.59-4.51l-19.66-.06-.22-2.28c2.23,0,4.47,0,6.7-.06a6.47,6.47,0,0,0,6.31-4.41c1.35-3.83-1.28-7.51-5.15-7.22a4.07,4.07,0,0,0-3.63,3.56,3.27,3.27,0,0,0,2.22,3.66c1.21.44,2.31.07,2.62-.88s-.17-1.67-1.48-2.16c-.06,0-.09-.12-.3-.42.42-.22,1-.69,1.18-.57.62.39,1.41.91,1.59,1.53a3.07,3.07,0,0,1-2.95,3.67C176.24,56.7,173.77,56.63,171.29,56.62Z"/><path class="cls-5" d="M156.9,20.05a13.15,13.15,0,0,1,4.2-9.25,9.64,9.64,0,0,1,14,1.07,12.83,12.83,0,0,1,1,14.9c-2,3.28-5,5.19-8.95,5-4.43-.21-7.34-2.72-9-6.66A32.88,32.88,0,0,1,156.9,20.05Z"/><path class="cls-5" d="M163.06,65.53c-.69,4-3.21,6.9-6.27,9.31A28.74,28.74,0,0,1,141.47,81a14.36,14.36,0,0,1-3.92-.26,4.83,4.83,0,0,1-4.06-4.06c-.76-3.78-.21-7.53.43-11.27h27.71C162.11,65.45,162.58,65.5,163.06,65.53Z"/><path class="cls-4" d="M138.72,51.16c1.1-1.52,2.09-3.12,3.31-4.53,3.12-3.63,6.56-6.93,11-8.94a14.39,14.39,0,0,1,4.58-1.18A4.54,4.54,0,0,1,162,38.9a12.18,12.18,0,0,1,1.88,6.24c.11,3.83.06,7.66.07,11.5-2.23,0-4.46.07-6.69.07-7.17,0-14.35,0-21.52,0,.37-.8.74-1.59,1.1-2.39,5.12,0,10.23,0,15.35,0a6.36,6.36,0,0,0,6.44-7.14,4.7,4.7,0,0,0-3-4,4.08,4.08,0,0,0-4.59.56,3.68,3.68,0,0,0-1.32,3.86,3.27,3.27,0,0,0,2.75,2.52,1.54,1.54,0,0,0,1.94-1.16,1.47,1.47,0,0,0-1-1.88l-.62-.25-.11-.33c.43-.21.88-.63,1.27-.58a1.82,1.82,0,0,1,1.66,1.64,3.27,3.27,0,0,1-3.27,3.63C147.75,51.22,143.23,51.17,138.72,51.16Z"/><path class="cls-6" d="M163.06,65.53c-.48,0-.95-.08-1.43-.08H133.92l.33-3.12,28.6,0c.2,0,.4-.05.6-.07l8.37-.05,19.66.06a6.52,6.52,0,0,1,6.59,4.51c1.29,3.8-1.3,7.37-5.16,7.12a4,4,0,0,1-3.56-3.2,3.27,3.27,0,0,1,1.7-3.83c1.34-.7,2.54-.46,3,.59s0,1.74-1.56,2.37c.11.77.5,1.09,1.29.85a2.1,2.1,0,0,0,1.24-3,3.12,3.12,0,0,0-3-2.17c-6.63,0-13.26,0-19.89,0Z"/><path class="cls-2" d="M107.94,53.75h-4.5v-3c0-2.19,0-4.39,0-6.59,0-1.41-.63-2-2-2a1.87,1.87,0,0,0-2.09,2v9.53H95V39.2c2.51-.53,3.42-.28,3.9.84a25.5,25.5,0,0,1,4-1.19c1.61-.22,2.67.83,3.44,2.31a5.57,5.57,0,0,1,4.53-2.36c3.28-.1,5.19,1.63,5.48,5a7.85,7.85,0,0,1,0,.84V53.7h-4.5V52.58c0-2.6,0-5.2,0-7.8,0-1.91-.49-2.59-1.86-2.6s-2.1.8-2.1,2.7Z"/><path class="cls-6" d="M135.73,56.67c7.17,0,14.35,0,21.52,0,2.23,0,4.46-.05,6.69-.07l7.35,0c2.48,0,5,.08,7.42,0A3.07,3.07,0,0,0,181.66,53c-.18-.62-1-1.14-1.59-1.53-.19-.12-.76.35-1.18.57.21.3.24.4.3.42,1.31.49,1.79,1.18,1.48,2.16s-1.41,1.32-2.62.88a3.27,3.27,0,0,1-2.22-3.66,4.07,4.07,0,0,1,3.63-3.56c3.87-.29,6.5,3.39,5.15,7.22a6.47,6.47,0,0,1-6.31,4.41c-2.23,0-4.47,0-6.7.06l-7.88-.09c-.48,0-.95-.08-1.43-.08l-27.59,0C135,58.72,135.39,57.69,135.73,56.67Z"/><path class="cls-2" d="M53.94,53.78a27.25,27.25,0,0,1-3.86-.05,2.65,2.65,0,0,1-1.52-1.24,7.8,7.8,0,0,1-.78-2.25,1.16,1.16,0,0,0-1.38-1.06c-2,.08-3.92.07-5.88,0a1.11,1.11,0,0,0-1.33,1c-.13.54-.35,1.06-.53,1.59-.7,2-.72,2-2.91,2H33l2-5.27c1.86-4.83,3.75-9.66,5.58-14.51a1.28,1.28,0,0,1,1.48-1c1.27.1,2.85-.36,3.74.24s1.07,2.21,1.53,3.39q3.07,7.86,6.11,15.73C53.61,52.78,53.74,53.2,53.94,53.78Zm-13.25-8h5.59l-2.81-8.21Z"/><path class="cls-2" d="M95.14,80.87h-4.4V69.2c-1.9,0-3.66,0-5.41,0a1,1,0,0,0-.73.74q-.09,3.24,0,6.48c0,.87.41,1.54,1.45,1.13a1.11,1.11,0,0,1,1.56.63c.3.55.66,1.07,1,1.68a6.53,6.53,0,0,1-6.19.88c-1.71-.64-2.29-2.13-2.3-3.86,0-2.51,0-5,0-7.58a3.94,3.94,0,0,0-.75-.13c-.75,0-1.36-.12-1.33-1.1,0-.82-.2-1.75,1.13-1.73,1,0,1.49-.56,1.53-1.55a2.42,2.42,0,0,1,.13-.46c.66-2.77.72-2.81,3.72-2.35v4.15H95.14Z"/><path class="cls-2" d="M31.58,77.83c-2.93,4-10.09,4.54-14.18,1.13C13,75.27,12.61,67.2,16.69,63c3.82-3.95,11.08-4.1,14.64-.22-.52.71-1,1.46-1.59,2.17s-1.42.47-2.12,0A5.93,5.93,0,0,0,23.28,64a4.68,4.68,0,0,0-3.72,2.88,8.43,8.43,0,0,0,.08,7.29,5.55,5.55,0,0,0,8.08,2.08c1.41-1,1.51-1,2.66.25C30.79,77,31.19,77.4,31.58,77.83Z"/><path class="cls-2" d="M83.12,53.74H78.81V32.54H83.1v7.25a23.81,23.81,0,0,1,4.2-.93,4.34,4.34,0,0,1,4.61,3.83,24.55,24.55,0,0,1,.24,3.93c0,2.35,0,4.7,0,7.1h-4.5c0-1.66,0-3.29,0-4.91s0-3.28,0-4.92c-.07-1.24-.83-1.78-2.13-1.71s-2.35.88-2.36,2C83.11,47.32,83.12,50.47,83.12,53.74Z"/><path class="cls-2" d="M39.68,65.93c4.59,0,7.54,3,7.54,7.59s-2.91,7.62-7.5,7.63-7.59-2.9-7.59-7.65S35.05,65.93,39.68,65.93Zm-3,7.66A20.2,20.2,0,0,0,37,75.92a2.64,2.64,0,0,0,2.68,2A2.38,2.38,0,0,0,42.23,76a16.42,16.42,0,0,0,.13-4.59,2.48,2.48,0,0,0-2.59-2.2A2.62,2.62,0,0,0,37,71.33,17.78,17.78,0,0,0,36.63,73.59Z"/><path class="cls-2" d="M105,65.93c4.59,0,7.54,2.94,7.55,7.57s-2.88,7.63-7.37,7.65c-4.75,0-7.77-2.94-7.78-7.64S100.44,65.94,105,65.93Zm3,7.62a21.24,21.24,0,0,0-.32-2.12,2.78,2.78,0,0,0-5.46.09,15.94,15.94,0,0,0,0,4.14A2.59,2.59,0,0,0,105,77.91a2.63,2.63,0,0,0,2.73-2.22C107.92,75,108,74.28,108.08,73.55Z"/><path class="cls-2" d="M114.85,66.1c1.46.42,3.31-.89,4,1.17a19.74,19.74,0,0,1,4-1.26,4.64,4.64,0,0,1,5.35,4.77c.1,3.31,0,6.63,0,10h-4.36V79.73c0-2.63.08-5.27,0-7.91,0-.78-.44-2-1-2.2a4.66,4.66,0,0,0-2.79.3c-.34.11-.66.86-.67,1.32-.06,2.79,0,5.59,0,8.39v1.22h-4.43Z"/><path class="cls-2" d="M126.71,44.81c.27-2.13-.95-3.18-3.19-2.5a6.65,6.65,0,0,0-.77.34c-2.18,1-2.78.79-3.76-1.54,2.07-2.25,6.63-3.11,9.28-1.72A4.75,4.75,0,0,1,131,43.47c.12,3.38,0,6.78,0,10.16-2.35.49-2.91.3-3.82-1.4a6.77,6.77,0,0,1-5,1.81c-2-.13-3.48-1.14-3.88-2.79a3.71,3.71,0,0,1,2.16-4.67A55.22,55.22,0,0,1,126.71,44.81Zm-.06,2.85a18.49,18.49,0,0,0-3.26.86,1.94,1.94,0,0,0-.85,1.57c0,.37.86.91,1.37,1C126,51.27,127,50.09,126.65,47.66Z"/><path class="cls-2" d="M49.11,68.17a9.14,9.14,0,0,1,8.64-1.93,4.34,4.34,0,0,1,3.4,3.94c.21,3.52.06,7.07.06,10.72-1.36-.17-3.11.77-3.7-1.61a6.73,6.73,0,0,1-5.24,1.87,3.87,3.87,0,0,1-3.73-2.83,3.62,3.62,0,0,1,1.8-4.4A26,26,0,0,1,55,72.47a13.2,13.2,0,0,1,2-.22c.26-2.42-.92-3.45-3.12-2.83a4.74,4.74,0,0,0-.78.32C50.74,70.8,50.39,70.67,49.11,68.17Zm7.78,6.62a18.61,18.61,0,0,0-3.27.86,1.87,1.87,0,0,0-.84,1.56c0,.38.84.92,1.35,1C56.19,78.4,57.23,77.18,56.89,74.79Z"/><path class="cls-3" d="M147.17,105.24c-2,.39-3.64.12-4.76-1.61a2.23,2.23,0,0,0-2.51-1,7,7,0,0,1-7.62-4.5,7.79,7.79,0,0,1,2.56-9,7.92,7.92,0,0,1,9.36.58c3,2.59,3.07,8,.24,10.93a7.23,7.23,0,0,1-.88.67Zm-12.59-10c0,2.44,1.08,4.22,3,4.84a4.44,4.44,0,0,0,5.75-2.47c1.08-2.79.14-6-2.1-7a4.54,4.54,0,0,0-1.14-.34C136.8,89.76,134.59,91.77,134.58,95.24Z"/><path class="cls-6" d="M138.72,51.16c4.51,0,9,.06,13.54,0a3.27,3.27,0,0,0,3.27-3.63,1.82,1.82,0,0,0-1.66-1.64c-.39,0-.84.37-1.27.58l.11.33.62.25a1.47,1.47,0,0,1,1,1.88,1.54,1.54,0,0,1-1.94,1.16,3.27,3.27,0,0,1-2.75-2.52A3.68,3.68,0,0,1,151,43.72a4.08,4.08,0,0,1,4.59-.56,4.7,4.7,0,0,1,3,4,6.36,6.36,0,0,1-6.44,7.14c-5.12,0-10.23,0-15.35,0Z"/><path class="cls-2" d="M54.07,52.18c.22-.36.4-.67.6-1,.94-1.46,1.25-1.48,2.83-.81a6.9,6.9,0,0,0,2.73.51,1.53,1.53,0,0,0,1.09-1c0-.37-.45-1-.86-1.21a18.48,18.48,0,0,0-2.46-.9c-2.58-.92-3.62-2.34-3.46-4.65a4.51,4.51,0,0,1,4-4.15,7.67,7.67,0,0,1,7,1.71c-.29.46-.55.86-.78,1.28-.46.83-1.08.88-1.93.61A10.16,10.16,0,0,0,60,42a1.51,1.51,0,0,0-1.15.9,1.58,1.58,0,0,0,.81,1.21c1,.5,2.09.79,3.12,1.2,1.5.59,2.63,1.5,2.75,3.27a4.53,4.53,0,0,1-2.29,4.54A8.62,8.62,0,0,1,54.07,52.18Z"/><path class="cls-2" d="M68.7,42.17c-2.14-.21-2.14-.21-1.94-2.65a4.33,4.33,0,0,1,.75-.19c1.14-.07,1.61-.63,1.89-1.8.74-3.1-.11-2.8,3.8-2.71v4.23h3.55v3H73.2v6.73c0,1.74.06,1.76,1.83,1.59a1.32,1.32,0,0,1,1,.47,19.76,19.76,0,0,1,1.18,1.79,6.07,6.07,0,0,1-6.81.66c-1.37-.95-1.62-2.4-1.64-3.91C68.68,47,68.7,44.61,68.7,42.17Z"/><path class="cls-2" d="M35.93,95c2.3,1.26,2.77,2,2.51,4a3.79,3.79,0,0,1-3.59,3.31,68,68,0,0,1-7,.06V88.2c2.32,0,4.66-.14,7,0A3.27,3.27,0,0,1,38,91.11C38.32,92.81,37.82,93.77,35.93,95Zm-5.4,5.33a35,35,0,0,0,3.57,0,1.92,1.92,0,0,0,1.71-2.1,1.75,1.75,0,0,0-1.74-1.89c-1.17-.09-2.35,0-3.54,0Zm0-5.9a31,31,0,0,0,3.6-.38c1-.2,1.23-1,1.21-2a1.59,1.59,0,0,0-1.3-1.76c-1.15-.19-2.33-.19-3.51-.27Z"/><path class="cls-3" d="M64.2,80.82V59.65h4.38V80.82Z"/><path class="cls-3" d="M124.8,94.69c-.49,1.62-.94,3.13-1.45,4.84l2.68,2.85c-1.73.28-3.29.41-4.36-1.35a7.71,7.71,0,0,1-4.84,1.63,4.45,4.45,0,0,1-4.24-2.93,4.23,4.23,0,0,1,1.89-4.79c.22-.16.46-.31.75-.51-.81-1.48-1.35-3.1-.4-4.61A5,5,0,0,1,117.22,88c2.18-.81,5,.64,5.06,3-1,.34-1.89.85-2.63-.59-.2-.39-1.28-.61-1.86-.48a1.49,1.49,0,0,0-1.06,1.89,4.06,4.06,0,0,0,.87,1.67c1.27,1.43,2.62,2.79,4.09,4.34.25-.69.49-1.21.63-1.76C122.72,94.46,122.7,94.45,124.8,94.69Zm-4.58,4.87-4-3.53a2.56,2.56,0,0,0-.78,3.66C116.34,101,118.42,101,120.22,99.56Z"/><path class="cls-4" d="M134.7,59.75l27.59,0c.48,0,1,0,1.43.08l-.27,2.42c-.2,0-.4.07-.6.07l-28.6,0Z"/><path class="cls-2" d="M70.61,87.63h2.33v8.75a8.14,8.14,0,0,0,1.42-.89,9,9,0,0,0,1.43-1.76c.9-1.52,2.2-1.76,3.95-1.37L76.1,96.74,80,102.38c-1.73.37-3.06.2-3.88-1.49a12.51,12.51,0,0,0-1.59-2.38,7.18,7.18,0,0,0-1.49-1v5h-2.4Z"/><path class="cls-2" d="M76,80.85H71.68V66.25H76Z"/><path class="cls-3" d="M57.15,97.47c0,3.2-2,5.22-5.13,5.19s-5-2.07-5-5.42,2-5.18,5.13-5.16S57.17,94.11,57.15,97.47Zm-2.53-.08c-.07-.54-.09-1-.19-1.49A2.26,2.26,0,0,0,52.17,94a2.18,2.18,0,0,0-2.41,1.87,9.3,9.3,0,0,0,0,3.07,2.24,2.24,0,0,0,2.93,1.73C54,100.35,54.64,99.19,54.62,97.39Z"/><path class="cls-3" d="M58.49,97.38c0-3.3,1.93-5.31,5.12-5.3s5,2,5.06,5.25-1.93,5.29-5,5.33S58.5,100.64,58.49,97.38Zm7.57-.16a6.94,6.94,0,0,0,0-.75C65.84,94.86,65,94,63.65,94s-2.26.71-2.48,2.35a8.41,8.41,0,0,0,.1,2.6,2.12,2.12,0,0,0,1.87,1.77C64.94,101,66.05,99.78,66.06,97.22Z"/><path class="cls-2" d="M154.72,92.28h2.4c0,.2.07.35.08.5v9.69c-1,0-2.07.52-2.33-.73a18.07,18.07,0,0,1-3.33.88,2.91,2.91,0,0,1-3.19-2.76c-.15-2.49,0-5,0-7.58h2.41c0,2.07,0,4.09,0,6.11,0,.86,0,1.89.95,2.09a4.27,4.27,0,0,0,2.43-.44c.35-.15.58-.9.59-1.39C154.76,96.54,154.72,94.44,154.72,92.28Z"/><path class="cls-3" d="M99.3,102.47H96.8V92.24c1,.09,2.12-.58,2.31,1a12.29,12.29,0,0,1,2.07-1c2.42-.64,4.28.58,4.47,3.09.16,2.33,0,4.69,0,7.13H103.2c0-2,.07-4.08,0-6.13,0-.72-.36-1.82-.83-2a3.8,3.8,0,0,0-2.43.35c-.31.12-.56.81-.57,1.26C99.27,98,99.3,100.19,99.3,102.47Z"/><path class="cls-3" d="M161.58,97.68c.3,2.75,2.14,3.79,4.52,2.55,1.12-.58,1.69-.3,2.16.71a5.55,5.55,0,0,1-5.77,1.5,4.45,4.45,0,0,1-3.32-4.11,8.21,8.21,0,0,1,.5-3.71c.81-2,3.18-3,5.55-2.45a4.35,4.35,0,0,1,3.27,4.22c0,.9-.22,1.36-1.2,1.3s-1.92,0-2.87,0Zm4.6-1.6c-.29-1.63-1-2.27-2.26-2.22s-2,.75-2.16,2.22Z"/><path class="cls-3" d="M172.32,97.68c0,2.76,2.41,3.71,4.41,2.59,1-.59,1.71-.42,2.22.62-1.64,2.29-5.89,2.41-7.91.2a6.25,6.25,0,0,1-.76-6.43,4.71,4.71,0,0,1,5.1-2.54A4.13,4.13,0,0,1,179.07,97c0,.3-.69.68-1.07.7C176.12,97.72,174.25,97.68,172.32,97.68Zm.09-1.57c.27,0,.53,0,.8,0h3.57c0-1.48-.68-2.24-1.93-2.3S172.62,94.55,172.41,96.11Z"/><path class="cls-2" d="M181,92.23c.94.09,2-.48,2.26.82a15.21,15.21,0,0,1,3-.93,3,3,0,0,1,3.54,3.15c.1,2.35,0,4.7,0,7.15h-2.45c0-2.09,0-4.15,0-6.22,0-1.57-.51-2.18-1.74-2.18a2.1,2.1,0,0,0-2.26,2.28v6.14H181Z"/><path class="cls-3" d="M85.22,92.22a5.55,5.55,0,0,1,1.59,0,2.28,2.28,0,0,1,1.29.93c.83,1.74,1.52,3.55,2.37,5.6l1.86-4.71c.79-2,.79-2,3.19-1.75q-1.27,3-2.53,5.94c-.81,1.91-1.63,3.81-2.44,5.72s-.86,2-3.23,1.81c.44-1,.8-1.93,1.3-2.81a2.43,2.43,0,0,0,.06-2.46c-1.21-2.6-2.31-5.25-3.45-7.88C85.2,92.58,85.22,92.49,85.22,92.22Z"/><path class="cls-3" d="M191.54,101.46c.84-1.58.81-1.5,2.31-.94a3.94,3.94,0,0,0,2.28.13.94.94,0,0,0,.12-1.8A18.44,18.44,0,0,0,194,98c-1.54-.59-2.23-1.43-2.22-2.77a3,3,0,0,1,2.36-2.94,5,5,0,0,1,4.15.48,1.23,1.23,0,0,1,.46,1.06.85.85,0,0,1-1.3.57,4.91,4.91,0,0,0-2.05-.44,1.47,1.47,0,0,0-1.11.85c-.07.32.4.92.79,1.13a19.73,19.73,0,0,0,2.23.84,2.55,2.55,0,0,1,1.88,2.49,3,3,0,0,1-1.85,3A5.77,5.77,0,0,1,191.54,101.46Z"/><path class="cls-2" d="M81.36,87.64h2.31v14.81H81.36Z"/><path class="cls-3" d="M46.58,92.33c0,.47-.11.86-.12,1.25,0,.75-.32,1-1.12.94a2,2,0,0,0-2.43,2.22c0,1.87,0,3.74,0,5.69H40.4V92.36c1.85-.33,1.88-.31,2.4,1.27C43.76,92.41,44.84,91.57,46.58,92.33Z"/><path class="cls-2" d="M93.06,64.64a2.5,2.5,0,0,1-2.61-2.51A2.58,2.58,0,0,1,93.1,59.5a2.63,2.63,0,0,1,2.68,2.61A2.54,2.54,0,0,1,93.06,64.64Z"/><path class="cls-2" d="M73.85,64.69a2.59,2.59,0,1,1,0-5.17,2.62,2.62,0,0,1,2.7,2.58A2.65,2.65,0,0,1,73.85,64.69Z"/><path class="cls-3" d="M20,92.34a3.08,3.08,0,0,1-2.84,3.36c-1.33,0-2.11-.84-2.12-2.32A3.16,3.16,0,0,1,17.87,90,2.09,2.09,0,0,1,20,92.34Zm-3.66,1.33c.16.16.55.88.92.86,1.15,0,1.33-1.07,1.42-2,.06-.63,0-1.35-.84-1.44S16.38,92.07,16.34,93.67Z"/><path class="cls-3" d="M24.55,87.91,22.42,90l1.4.26.18.32-1.37.91c-.17,1.28-.33,2.74-.57,4.19-.19,1.08-.36,1.18-1.43,1.22l.54-4.61c0-.2.16-.48.07-.58-.76-.88-.09-1.47.28-2.24C22.15,88.09,22.61,87.69,24.55,87.91Z"/><path class="cls-7" d="M163.45,62.27l.27-2.42,7.88.09c.07.76.15,1.52.22,2.28Z"/><path class="cls-7" d="M40.69,45.79l2.78-8.21,2.81,8.21Z"/><path class="cls-7" d="M36.63,73.59A17.78,17.78,0,0,1,37,71.33a2.62,2.62,0,0,1,2.79-2.13,2.48,2.48,0,0,1,2.59,2.2A16.42,16.42,0,0,1,42.23,76a2.38,2.38,0,0,1-2.54,1.92,2.64,2.64,0,0,1-2.68-2A20.2,20.2,0,0,1,36.63,73.59Z"/><path class="cls-7" d="M108.08,73.55c-.11.73-.16,1.45-.33,2.14A2.63,2.63,0,0,1,105,77.91a2.59,2.59,0,0,1-2.69-2.25,15.94,15.94,0,0,1,0-4.14,2.78,2.78,0,0,1,5.46-.09A21.24,21.24,0,0,1,108.08,73.55Z"/><path class="cls-7" d="M126.65,47.66c.3,2.43-.7,3.61-2.74,3.39-.51,0-1.33-.59-1.37-1a1.94,1.94,0,0,1,.85-1.57A18.49,18.49,0,0,1,126.65,47.66Z"/><path class="cls-7" d="M56.89,74.79c.34,2.39-.7,3.61-2.76,3.4-.51-.06-1.32-.6-1.35-1a1.87,1.87,0,0,1,.84-1.56A18.61,18.61,0,0,1,56.89,74.79Z"/><path class="cls-7" d="M134.58,95.24c0-3.47,2.22-5.48,5.48-5a4.54,4.54,0,0,1,1.14.34c2.24,1,3.18,4.22,2.1,7a4.44,4.44,0,0,1-5.75,2.47C135.66,99.46,134.58,97.68,134.58,95.24Z"/><path class="cls-1" d="M30.53,100.29v-4c1.19,0,2.37-.07,3.54,0a1.75,1.75,0,0,1,1.74,1.89,1.92,1.92,0,0,1-1.71,2.1A35,35,0,0,1,30.53,100.29Z"/><path class="cls-7" d="M30.54,94.39V90c1.18.08,2.36.08,3.51.27a1.59,1.59,0,0,1,1.3,1.76c0,.94-.26,1.75-1.21,2A31,31,0,0,1,30.54,94.39Z"/><path class="cls-7" d="M120.22,99.56c-1.8,1.42-3.88,1.43-4.8.13A2.56,2.56,0,0,1,116.2,96Z"/><path class="cls-7" d="M54.62,97.39c0,1.8-.65,3-1.92,3.26a2.24,2.24,0,0,1-2.93-1.73,9.3,9.3,0,0,1,0-3.07A2.18,2.18,0,0,1,52.17,94a2.26,2.26,0,0,1,2.26,1.92C54.53,96.36,54.55,96.85,54.62,97.39Z"/><path class="cls-7" d="M66.06,97.22c0,2.56-1.12,3.79-2.92,3.48a2.12,2.12,0,0,1-1.87-1.77,8.41,8.41,0,0,1-.1-2.6c.22-1.64,1.06-2.37,2.48-2.35s2.19.88,2.36,2.49A6.94,6.94,0,0,1,66.06,97.22Z"/><path class="cls-7" d="M166.18,96.08h-4.42c.16-1.47.87-2.18,2.16-2.22S165.89,94.45,166.18,96.08Z"/><path class="cls-7" d="M172.41,96.11c.21-1.56,1.05-2.32,2.44-2.25s1.92.82,1.93,2.3h-3.57C172.94,96.16,172.68,96.12,172.41,96.11Z"/><path class="cls-7" d="M16.34,93.67c0-1.6.74-2.65,1.5-2.56s.9.81.84,1.44c-.09.91-.27,1.94-1.42,2C16.89,94.55,16.5,93.83,16.34,93.67Z"/></svg>