<?xml version="1.0" encoding="utf-8"?>
<!-- Generator: Adobe Illustrator 23.1.1, SVG Export Plug-In . SVG Version: 6.00 Build 0)  -->
<svg version="1.1" id="Layer_1" xmlns="http://www.w3.org/2000/svg" xmlns:xlink="http://www.w3.org/1999/xlink" x="0px" y="0px"
	 viewBox="0 0 887.1 264.5" style="enable-background:new 0 0 887.1 264.5;" xml:space="preserve">
<style type="text/css">
	.st0{fill:#231F20;}
	.st1{fill:#FFFFFF;stroke:#231F20;stroke-width:1.1;stroke-miterlimit:10;}
	.st2{fill:#FFFFFF;stroke:#231F20;stroke-miterlimit:10;}
	.st3{fill:#EE3224;}
	.st4{fill:none;stroke:#231F20;stroke-miterlimit:2;}
	.st5{fill:#231F20;stroke:#231F20;stroke-width:0.1;stroke-miterlimit:10;}
	.st6{fill:#FAFBFC;}
	.st7{fill:#57575C;}
	.st8{fill:#FDFEFF;}
	.st9{fill:#0EA7E0;}
	.st10{fill:#0CA6DF;}
	.st11{fill:#F9FCFD;}
	.st12{fill:#5A5A5E;}
</style>
<title>asthmacoalition_logos</title>
<g>
	<path class="st0" d="M97.1,151.2V165c0,0-12-0.2-19.9-6C77.2,159,92.9,152.1,97.1,151.2z"/>
	<path class="st1" d="M60.7,150.4c0,0-6.4-12.6-20.1-16.3c0,0,13-3.8,23.9-2.5c0,0,6.2-6.2,13.2-8.9l-0.5,37.5c0,0,3.8,1.8,11.7,2
		c7.9,0.2,8.1,3.3,6.8,4c-7.1,3.6-15.2-3.3-22.5-1.7c0,0-2.6,0.4-5.5,4.6c-2.8,4.2-20.3,3.4-28.2,0.9
		C39.6,169.9,60.4,164.3,60.7,150.4z"/>
	<path class="st2" d="M77.7,120.3V159c0,0,31.4-18.4,89.4-14.1c0,0,49.9,5.9,77,13.1l-16.4-39.9C227.6,118.2,139.9,94.9,77.7,120.3z
		"/>
	<path class="st2" d="M230.3,122.3l16.5,39.6c0,0,39.6,2.5,76.5,1.3c36.8-1.2,42.8,7.4,42.8,7.4v-41.1c0,0,2.6-6.4-69.4-1.7
		C266.1,129.9,230.3,122.3,230.3,122.3z"/>
	<path class="st0" d="M347.5,164.5v13.8c0,0,12-0.4,19.9-6.2C367.4,172.1,355.8,164.5,347.5,164.5z"/>
	<path class="st1" d="M384,163.5c0,0,6.4-12.6,20.2-16.3c0,0-13-3.8-23.9-2.5c0,0-6.2-6.2-13.2-8.9v36.4c0,0-3.3,2.9-11.2,3.1
		c-7.9,0.2-8.1,3.3-6.8,4c7.1,3.6,12.1-4,23.8-2.1c0,0,1.3,0.9,4.1,5.1c2.8,4.2,20.3,3.4,28.2,0.9C405.1,183,384.3,177.4,384,163.5z
		"/>
	<path class="st3" d="M129,223.7h35.2l20.5-50h62.8l21.4,50.4H305L219.4,17.7h-5.6l-37.9,91.9l34,5.1l7.1-18.6l24.8,61.2
		c0,0-33.5-7.6-48.8-9c-13.7-1.2-31.6-3.3-31.6-3.3L129,223.7z"/>
	<path class="st4" d="M225.7,117.7c0,0-85.8-22.8-148,2.6V159c0,0,31.4-18.4,89.4-14.1c0,0,47.6,5.3,74.7,12.5"/>
	<polygon class="st3" points="223,111.1 242.7,160.4 248,175.1 260,174.2 229,106.6 	"/>
	<path class="st5" d="M92.9,140.6c-0.2,0-0.4,0.1-0.6,0.1l-0.5,0.1l-0.5,0.1c-0.2,0-0.4,0.1-0.5,0.2l-0.9-1.8
		c-0.3-0.6-0.6-1.2-0.9-1.8l-0.8,0.2l-0.8,0.2l-0.7,0.2l-0.6,0.2c0,0.7,0,1.4,0,2c0,0.7,0,1.3,0.1,2c-0.1,0-0.2,0-0.3,0l-0.3,0.1
		c-0.1,0-0.2,0-0.3,0.1c-0.1,0-0.2,0.1-0.3,0.1c0-0.4,0-0.8,0.1-1.4s0.1-1.3,0.1-2.1s0.1-1.6,0.1-2.5l0.1-2.7c0-0.9,0.1-1.8,0.1-2.7
		s0-1.7,0.1-2.5h0.3c0.1,0,0.2,0,0.2,0c0.1,0,0.2-0.1,0.2-0.1l0.2-0.1l1.7,3.2c0.6,1.1,1.2,2.3,1.8,3.4c0.6,1.1,1.1,2.1,1.7,3.1
		C92.1,139.1,92.5,139.9,92.9,140.6z M86.2,132.2c0,0.8-0.1,1.6-0.1,2.3c0,0.8,0,1.6,0,2.4l2.3-0.5l-1.1-2.1
		C87,133.6,86.6,132.9,86.2,132.2z"/>
	<path class="st5" d="M93.8,127.8c-0.4,0.1-0.7,0.4-0.8,0.7c-0.2,0.4-0.2,0.8-0.1,1.3c0.1,0.4,0.3,0.8,0.5,1.1
		c0.3,0.3,0.6,0.5,0.9,0.6c0.3,0.2,0.7,0.3,1.1,0.5c0.4,0.2,0.8,0.4,1.1,0.6c0.4,0.3,0.7,0.6,1,1c0.3,0.5,0.6,1.1,0.7,1.7
		c0.1,0.6,0.2,1.2,0.1,1.8c0,0.5-0.2,1-0.4,1.5c-0.2,0.4-0.5,0.8-0.9,1.1c-0.4,0.3-0.8,0.5-1.3,0.6c-0.4,0.1-0.8,0.1-1.3,0
		c-0.3,0-0.7-0.2-0.9-0.4c0-0.5,0-0.9,0-1.3c0-0.4-0.1-0.8-0.1-1.2l0.2-0.1c0.1,0.3,0.2,0.5,0.4,0.8c0.1,0.2,0.3,0.4,0.5,0.6
		c0.2,0.2,0.4,0.3,0.6,0.3c0.2,0.1,0.5,0.1,0.7,0c0.4-0.1,0.8-0.4,1-0.8c0.2-0.5,0.2-1,0.1-1.4c-0.1-0.4-0.3-0.8-0.5-1.1
		c-0.3-0.3-0.5-0.5-0.9-0.6c-0.3-0.2-0.7-0.3-1.1-0.5c-0.4-0.2-0.8-0.4-1.1-0.6c-0.4-0.3-0.7-0.7-0.9-1.1c-0.3-0.5-0.6-1.1-0.7-1.7
		c-0.1-0.6-0.2-1.2-0.1-1.8c0-0.5,0.2-1,0.4-1.4c0.2-0.4,0.4-0.7,0.7-1c0.3-0.2,0.6-0.4,1-0.5c0.4-0.1,0.8-0.1,1.2,0
		c0.4,0.1,0.7,0.3,1,0.5c0,0.3,0,0.6,0,0.9c0,0.3,0,0.6,0,1.1l-0.2,0C95.1,128,94.5,127.6,93.8,127.8z"/>
	<path class="st5" d="M99.7,127.7c0-0.2-0.1-0.4-0.2-0.7l-0.5,0.1l-0.6,0.2l-0.6,0.2c-0.2,0.1-0.4,0.1-0.6,0.2c0-0.1,0-0.3,0-0.4
		c0-0.1,0-0.3-0.1-0.4s-0.1-0.2-0.1-0.4s-0.1-0.3-0.1-0.4l0.8-0.1l0.7-0.1l0.8-0.1l1-0.2l1-0.2l0.8-0.2l0.7-0.2l0.7-0.2
		c0,0.1,0,0.3,0,0.4c0,0.1,0,0.3,0.1,0.4c0,0.1,0.1,0.3,0.1,0.4c0,0.1,0.1,0.3,0.1,0.4c-0.2,0-0.4,0-0.6,0c-0.2,0-0.4,0-0.6,0
		l-0.6,0.1c-0.2,0-0.3,0-0.5,0.1c0,0.1,0,0.2,0,0.3c0,0.1,0,0.2,0.1,0.4l0.2,1l1,4.7c0.2,1,0.4,2,0.6,2.8c0.2,0.8,0.4,1.6,0.6,2.4
		c-0.2,0-0.3,0-0.5,0.1l-0.6,0.1l-0.6,0.1c-0.2,0-0.3,0.1-0.5,0.1c-0.1-0.8-0.3-1.6-0.4-2.4c-0.1-0.9-0.3-1.7-0.5-2.8l-0.9-4.7
		C99.9,128.4,99.8,128,99.7,127.7z"/>
	<path class="st5" d="M111.1,130.4c-0.3,0-0.7,0.1-1,0.1c-0.3,0.1-0.6,0.1-1,0.2s-0.6,0.1-1,0.2l0.2,1.1c0.2,1.1,0.4,2,0.5,2.8
		c0.2,0.8,0.3,1.6,0.5,2.4c-0.2,0-0.3,0-0.5,0l-0.6,0.1l-0.6,0.1c-0.2,0-0.3,0.1-0.5,0.1c-0.1-0.8-0.2-1.6-0.4-2.4
		c-0.1-0.8-0.3-1.8-0.5-2.8l-0.5-2.5c-0.2-1.1-0.4-2-0.5-2.8s-0.3-1.6-0.5-2.5h0.5c0.2,0,0.4,0,0.6-0.1c0.2-0.1,0.4-0.1,0.6-0.1
		l0.5-0.1c0.1,0.8,0.2,1.6,0.4,2.5c0.1,0.8,0.3,1.7,0.5,2.8c0.2,0,0.5-0.1,0.8-0.1l1.2-0.2c0.5-0.1,0.8-0.1,1.1-0.2
		c0.3-0.1,0.5-0.1,0.8-0.2c-0.2-1-0.4-2-0.5-2.8c-0.2-0.8-0.3-1.6-0.5-2.4h0.5c0.2,0,0.4,0,0.6-0.1c0.2,0,0.4-0.1,0.6-0.1
		c0.2,0,0.3-0.1,0.5-0.1c0.1,0.8,0.2,1.7,0.4,2.5c0.1,0.8,0.3,1.8,0.5,2.8l0.5,2.6c0.2,1.1,0.4,2,0.5,2.8c0.2,0.8,0.3,1.6,0.5,2.4
		c-0.2,0-0.3,0-0.5,0l-0.6,0.1l-0.6,0.1c-0.2,0-0.3,0.1-0.5,0.1c-0.1-0.8-0.2-1.6-0.4-2.4c-0.1-0.8-0.3-1.8-0.5-2.8l-0.2-1.1
		L111.1,130.4z"/>
	<path class="st5" d="M117.3,131.4c0.1,1.4,0.3,2.9,0.4,4.3c-0.1,0-0.2,0-0.3,0l-0.3,0l-0.3,0c-0.1,0-0.2,0-0.3,0.1
		c-0.1-2.2-0.1-4.4-0.2-6.6c-0.1-2.2-0.2-4.4-0.4-6.7h0.3c0.1,0,0.2,0,0.3,0l0.2-0.1l0.3-0.1c0.3,0.7,0.7,1.5,1.1,2.2l1.1,2.2
		c0.4,0.8,0.7,1.5,1.1,2.2c0.4,0.7,0.7,1.4,1,2c0.3-1.5,0.6-3.1,0.9-4.7c0.3-1.6,0.5-3.3,0.8-4.9c0.2,0,0.4,0,0.6,0
		c0.2,0,0.4-0.1,0.5-0.2c0.2,1.1,0.5,2.2,0.8,3.5s0.6,2.5,0.8,3.7c0.3,1.2,0.5,2.3,0.8,3.3c0.2,1,0.5,1.9,0.6,2.5
		c-0.2,0-0.3,0-0.5,0l-0.5,0.1l-0.5,0.1l-0.5,0.1c-0.2-1.3-0.5-2.7-0.8-4.2c-0.3-1.5-0.7-3-1-4.5l0,0c-0.3,1.6-0.5,3.1-0.8,4.6
		c-0.3,1.5-0.5,3.1-0.8,4.6h-0.2h-0.1l-0.1,0l-2-4.1c-0.7-1.4-1.4-2.7-2.1-4.1l0,0C117.1,128.5,117.2,130,117.3,131.4z"/>
	<path class="st5" d="M135.8,133.4c-0.2,0-0.4,0-0.6,0l-0.5,0.1l-0.5,0.1c-0.2,0-0.4,0.1-0.5,0.1l-0.6-1.9c-0.2-0.6-0.5-1.3-0.7-1.9
		c-0.3,0-0.6,0-0.8,0.1c-0.3,0.1-0.5,0-0.8,0.1l-0.7,0.1l-0.7,0.1c-0.1,0.7-0.2,1.3-0.2,2c-0.1,0.7-0.1,1.3-0.2,2
		c-0.1,0-0.2,0-0.3,0h-0.3h-0.3c-0.1,0-0.2,0-0.3,0.1c0.1-0.3,0.1-0.8,0.2-1.4c0.1-0.6,0.2-1.3,0.3-2.1c0.1-0.8,0.2-1.6,0.4-2.5
		c0.1-0.9,0.3-1.8,0.4-2.7c0.1-0.9,0.3-1.8,0.4-2.7c0.1-0.9,0.2-1.7,0.4-2.4l0.3,0h0.2c0.1,0,0.2,0,0.2-0.1l0.2-0.1
		c0.4,1.1,0.8,2.2,1.3,3.4c0.5,1.2,0.9,2.4,1.4,3.5c0.5,1.2,0.9,2.3,1.3,3.3S135.4,132.7,135.8,133.4z M130.1,124.3
		c-0.1,0.8-0.3,1.6-0.4,2.3c-0.1,0.8-0.2,1.6-0.3,2.3l2.3-0.3l-0.8-2.2C130.7,125.8,130.4,125.1,130.1,124.3z"/>
	<path class="st5" d="M147.3,131.1c0,0.3-0.1,0.5,0,0.8c-0.7,0.6-1.6,0.9-2.6,1c-0.7,0.1-1.4-0.1-2-0.3c-0.6-0.3-1.1-0.7-1.6-1.2
		c-0.5-0.6-0.8-1.3-1.1-2c-0.3-0.8-0.4-1.7-0.5-2.5c-0.1-1.1,0-2.3,0.2-3.4c0.2-0.8,0.5-1.6,1-2.3c0.4-0.6,0.9-1.1,1.6-1.4
		c0.6-0.3,1.3-0.5,1.9-0.5c0.2,0,0.5,0,0.7,0c0.3,0,0.5,0.1,0.7,0.2c0.2,0.1,0.5,0.2,0.7,0.3c0.2,0.1,0.4,0.2,0.6,0.3
		c-0.1,0.3-0.1,0.7-0.1,1c0,0.3,0,0.7,0,1h-0.2c-0.3-0.5-0.6-0.9-1.1-1.2c-0.4-0.2-0.8-0.4-1.2-0.3c-0.4,0-0.7,0.2-1,0.4
		c-0.4,0.3-0.7,0.7-0.9,1.1c-0.3,0.6-0.5,1.2-0.6,1.9c-0.1,0.9-0.2,1.8-0.1,2.7c0,0.9,0.2,1.7,0.4,2.5c0.2,0.6,0.4,1.2,0.8,1.7
		c0.3,0.4,0.6,0.7,1,0.9c0.3,0.2,0.7,0.3,1.1,0.2c0.2,0,0.4-0.1,0.6-0.1c0.2-0.1,0.4-0.2,0.6-0.3c0.2-0.1,0.4-0.3,0.6-0.5
		c0.2-0.2,0.3-0.4,0.4-0.6l0.2,0.1C147.3,130.6,147.3,130.9,147.3,131.1z"/>
	<path class="st5" d="M148.5,123.1c0.2-0.8,0.5-1.5,1-2.2c0.4-0.6,0.9-1.1,1.6-1.5c0.6-0.4,1.3-0.6,2-0.6c0.7,0,1.3,0.1,1.9,0.4
		c0.6,0.3,1.1,0.7,1.6,1.2c0.5,0.6,0.9,1.4,1.1,2.1c0.3,1,0.4,2,0.4,3c0,0.9-0.1,1.8-0.3,2.7c-0.2,0.8-0.5,1.5-1,2.2
		c-0.4,0.6-0.9,1.1-1.6,1.5c-0.6,0.4-1.3,0.6-2,0.6c-0.7,0-1.3-0.1-1.9-0.3c-0.6-0.3-1.1-0.7-1.6-1.2c-0.5-0.6-0.9-1.4-1.1-2.1
		c-0.3-1-0.5-2.1-0.5-3.1C148.2,124.9,148.3,124,148.5,123.1z M155.7,123c-0.1-0.6-0.3-1.2-0.6-1.7c-0.2-0.4-0.5-0.8-0.9-1.1
		c-0.3-0.2-0.7-0.4-1.2-0.4c-0.4,0-0.9,0.2-1.2,0.5c-0.4,0.4-0.7,0.8-0.9,1.3c-0.2,0.6-0.4,1.3-0.5,1.9c-0.1,0.8-0.2,1.6-0.1,2.3
		c0,0.9,0.1,1.7,0.3,2.6c0.1,0.6,0.3,1.2,0.6,1.7c0.2,0.4,0.5,0.7,0.9,0.9c0.3,0.2,0.7,0.3,1,0.3c0.4,0,0.8-0.1,1.1-0.4
		c0.4-0.3,0.7-0.7,0.9-1.1c0.3-0.6,0.5-1.3,0.6-1.9c0.2-0.9,0.2-1.8,0.2-2.7C155.9,124.5,155.8,123.7,155.7,123L155.7,123z"/>
	<path class="st5" d="M166.4,132.6c-0.2,0-0.4-0.1-0.6-0.1h-0.5h-0.5c-0.2,0-0.4,0-0.6,0c-0.1-0.6-0.2-1.3-0.4-2s-0.2-1.3-0.4-2
		l-0.8-0.1l-0.8,0h-0.7h-0.7c-0.2,0.6-0.4,1.3-0.6,2c-0.2,0.7-0.3,1.3-0.5,1.9c-0.1,0-0.2,0-0.3,0h-0.3h-0.3c-0.1,0-0.2,0-0.3,0
		c0.1-0.3,0.3-0.8,0.5-1.4c0.2-0.6,0.4-1.2,0.6-2c0.2-0.7,0.5-1.6,0.8-2.3c0.3-0.8,0.5-1.7,0.8-2.6l0.8-2.6c0.3-0.8,0.5-1.6,0.7-2.3
		l0.2,0.1c0.1,0,0.2,0,0.2,0c0.1,0,0.2,0,0.2,0l0.2-0.1l0.8,3.5c0.3,1.3,0.5,2.5,0.8,3.7c0.2,1.2,0.5,2.3,0.8,3.5
		C165.9,131,166.2,131.8,166.4,132.6z M162.2,122.8c-0.2,0.8-0.5,1.5-0.7,2.3c-0.2,0.7-0.5,1.5-0.7,2.3l2.3,0.1
		c-0.2-0.8-0.3-1.6-0.5-2.3C162.5,124.3,162.4,123.6,162.2,122.8z"/>
	<path class="st5" d="M168.6,122c0.1-0.8,0.1-1.7,0.2-2.5l0.5,0.1c0.2,0,0.4,0.1,0.6,0.1c0.2,0,0.4,0,0.6,0h0.5
		c-0.1,0.8-0.2,1.7-0.3,2.5c-0.1,0.8-0.2,1.8-0.3,2.8l-0.3,2.6c-0.1,0.7-0.1,1.4-0.2,2.1c-0.1,0.7-0.1,1.3-0.2,1.8
		c0.5,0.1,1,0.1,1.5,0.1c0.5,0,1,0,1.5,0c0,0.1-0.1,0.3-0.1,0.4c0,0.1,0,0.3-0.1,0.5c0,0.2,0,0.4,0,0.5c0,0.1,0,0.2,0,0.3l-0.9-0.1
		c-0.3,0-0.8-0.1-1.4-0.1l-1.3-0.1l-0.8-0.1h-0.4c-0.1,0-0.2,0-0.3,0c0.1-0.8,0.2-1.6,0.3-2.4c0.1-0.9,0.2-1.8,0.3-2.8l0.3-2.6
		C168.4,123.7,168.5,122.8,168.6,122z"/>
	<path class="st5" d="M175.5,122.8c0.1-0.8,0.2-1.6,0.3-2.5l0.5,0.1c0.2,0.1,0.4,0.1,0.6,0.1c0.2,0,0.4,0.1,0.6,0.1
		c0.2,0,0.3,0,0.5,0c-0.2,0.8-0.3,1.6-0.5,2.5c-0.1,0.8-0.3,1.8-0.5,2.8l-0.4,2.6c-0.2,1.1-0.3,2-0.4,2.8c-0.1,0.8-0.2,1.6-0.3,2.4
		c-0.2-0.1-0.3-0.1-0.5-0.1l-0.6-0.1l-0.6-0.1c-0.2,0-0.3,0-0.5,0c0.2-0.8,0.3-1.6,0.5-2.4c0.1-0.8,0.3-1.8,0.5-2.8l0.4-2.6
		C175.3,124.5,175.4,123.6,175.5,122.8z"/>
	<path class="st5" d="M181.5,123.5c0.1-0.3,0.1-0.5,0.1-0.7l-0.5-0.1l-0.6-0.1c-0.2,0-0.4,0-0.7,0s-0.4,0-0.6,0
		c0-0.1,0.1-0.3,0.1-0.4c0-0.1,0.1-0.3,0.1-0.4c0-0.1,0.1-0.3,0.1-0.4c0-0.1,0-0.3,0-0.4l0.8,0.2c0.2,0.1,0.5,0.1,0.7,0.2l0.8,0.2
		l1,0.2l1,0.2l0.8,0.1l0.7,0.1l0.7,0.1c0,0.1-0.1,0.3-0.1,0.4c0,0.1-0.1,0.3-0.1,0.4c0,0.1,0,0.3-0.1,0.4c0,0.1,0,0.3,0,0.4
		c-0.2-0.1-0.3-0.1-0.5-0.2c-0.2-0.1-0.4-0.1-0.6-0.2l-0.6-0.2l-0.5-0.1c0,0.1-0.1,0.2-0.1,0.3c0,0.1-0.1,0.2-0.1,0.4l-0.2,1
		l-0.9,4.7c-0.2,1-0.4,2-0.5,2.8c-0.1,0.8-0.3,1.6-0.4,2.4c-0.2-0.1-0.3-0.1-0.5-0.1l-0.6-0.1l-0.6-0.1c-0.2,0-0.3-0.1-0.5-0.1
		c0.2-0.8,0.4-1.6,0.5-2.4c0.2-0.8,0.4-1.7,0.6-2.8l0.9-4.7C181.4,124.1,181.5,123.8,181.5,123.5z"/>
	<path class="st5" d="M187.1,124.9c0.1-0.8,0.3-1.6,0.4-2.5c0.1,0.1,0.3,0.1,0.5,0.2c0.2,0.1,0.4,0.1,0.6,0.1c0.2,0,0.4,0.1,0.6,0.1
		h0.5c-0.2,0.8-0.4,1.6-0.6,2.4c-0.2,0.8-0.4,1.7-0.6,2.8l-0.5,2.6c-0.2,1-0.4,2-0.5,2.8c-0.1,0.8-0.3,1.6-0.4,2.4
		c-0.2-0.1-0.3-0.1-0.5-0.1l-0.6-0.1l-0.6-0.1c-0.2,0-0.3,0-0.5,0c0.2-0.8,0.4-1.6,0.5-2.4c0.2-0.8,0.4-1.7,0.6-2.8l0.5-2.6
		C186.8,126.7,187,125.7,187.1,124.9z"/>
	<path class="st5" d="M190.7,127.1c0.4-0.7,0.8-1.4,1.4-2c0.5-0.5,1.1-0.9,1.8-1.2c0.7-0.2,1.4-0.3,2.1-0.1c0.7,0.1,1.3,0.4,1.8,0.8
		c0.5,0.4,1,0.9,1.3,1.6c0.3,0.7,0.6,1.5,0.6,2.3c0.1,1,0,2.1-0.2,3.1c-0.2,0.9-0.5,1.8-0.9,2.6c-0.4,0.7-0.8,1.4-1.4,2
		c-0.5,0.5-1.1,0.9-1.8,1.1c-0.7,0.2-1.4,0.3-2.1,0.1c-0.6-0.1-1.3-0.4-1.8-0.7c-0.6-0.4-1-0.9-1.3-1.5c-0.4-0.7-0.6-1.5-0.6-2.3
		c-0.1-1,0-2.1,0.2-3.1C190,128.8,190.3,127.9,190.7,127.1z M197.7,128.5c0-0.6-0.1-1.2-0.2-1.8c-0.1-0.5-0.4-0.9-0.7-1.2
		c-0.3-0.3-0.6-0.5-1.1-0.6c-0.4-0.1-0.9,0-1.2,0.2c-0.4,0.3-0.8,0.7-1.1,1.1c-0.4,0.5-0.7,1.1-0.9,1.8c-0.3,0.7-0.5,1.5-0.6,2.3
		c-0.2,0.9-0.3,1.7-0.3,2.6c0,0.6,0.1,1.2,0.3,1.8c0.1,0.4,0.4,0.8,0.7,1.1c0.3,0.3,0.6,0.4,1,0.5c0.4,0.1,0.8,0,1.2-0.1
		c0.4-0.2,0.8-0.5,1.1-0.9c0.4-0.5,0.7-1.1,1-1.8c0.3-0.9,0.6-1.7,0.8-2.6C197.6,130,197.7,129.3,197.7,128.5L197.7,128.5z"/>
	<path class="st5" d="M202.2,127c0.1-0.6,0.2-1.1,0.3-1.6c0.2,0.1,0.4,0.2,0.6,0.2c0.2,0,0.4,0,0.6,0c0.6,1.7,1.2,3.4,1.8,5.1
		s1.2,3.3,1.9,5.1l0.3-1.6l0.4-1.8l0.4-1.8c0.1-0.6,0.2-1.2,0.3-1.7c0.1-0.5,0.2-0.9,0.2-1.3c0.1-0.4,0.1-0.6,0.1-0.8
		c0.2,0.1,0.4,0.2,0.5,0.2c0.2,0,0.4,0,0.6,0c-0.3,1.1-0.5,2.2-0.7,3.1s-0.4,1.8-0.6,2.6s-0.4,1.6-0.5,2.4c-0.2,0.8-0.3,1.7-0.5,2.6
		l-0.4,2.3c-0.2-0.1-0.3-0.1-0.5-0.1c-0.2,0-0.3-0.1-0.5-0.1c-1.2-3.4-2.4-6.8-3.7-10.3c-0.1,0.4-0.2,0.7-0.2,1.1
		c-0.1,0.4-0.2,0.7-0.2,1.1l-0.4,2.2c-0.2,0.8-0.3,1.4-0.4,1.9c-0.1,0.5-0.2,1-0.2,1.4c-0.1,0.4-0.1,0.7-0.2,0.9
		c0,0.2-0.1,0.4-0.1,0.6c-0.1,0-0.2-0.1-0.3-0.1l-0.3-0.1c-0.2,0-0.4-0.1-0.6-0.1c0-0.1,0.1-0.5,0.3-1.1c0.1-0.6,0.3-1.4,0.5-2.3
		c0.2-0.9,0.4-1.8,0.6-2.9s0.4-2,0.6-3C202,128.2,202.1,127.6,202.2,127z"/>
	<path class="st5" d="M214.7,131.9c0.4-0.7,0.8-1.4,1.4-2c0.5-0.5,1.1-0.9,1.8-1.2c0.7-0.2,1.4-0.3,2.1-0.1c0.7,0.1,1.3,0.4,1.8,0.8
		c0.5,0.4,1,0.9,1.3,1.6c0.4,0.7,0.6,1.5,0.6,2.3c0.1,1,0,2.1-0.2,3.1c-0.2,0.9-0.5,1.8-0.9,2.6c-0.4,0.7-0.9,1.4-1.4,2
		c-0.5,0.5-1.1,0.9-1.8,1.1c-0.7,0.2-1.4,0.3-2.1,0.1c-0.6-0.1-1.3-0.4-1.8-0.7c-0.6-0.4-1-0.9-1.3-1.5c-0.4-0.7-0.6-1.5-0.6-2.3
		c-0.1-1,0-2.1,0.2-3.1C214,133.5,214.3,132.7,214.7,131.9z M221.7,133.3c0-0.6-0.1-1.2-0.2-1.8c-0.1-0.5-0.4-0.9-0.7-1.2
		c-0.3-0.3-0.6-0.5-1-0.6c-0.4-0.1-0.9,0-1.3,0.2c-0.4,0.3-0.8,0.6-1.1,1.1c-0.4,0.5-0.7,1.1-0.9,1.8c-0.3,0.7-0.5,1.5-0.6,2.2
		c-0.2,0.9-0.3,1.7-0.3,2.6c0,0.6,0.1,1.2,0.2,1.8c0.1,0.4,0.4,0.8,0.7,1.1c0.3,0.2,0.6,0.4,1,0.5c0.4,0.1,0.8,0,1.2-0.1
		c0.4-0.2,0.8-0.5,1.1-0.9c0.4-0.5,0.7-1.1,1-1.8c0.4-0.9,0.6-1.7,0.8-2.6C221.7,134.8,221.7,134,221.7,133.3L221.7,133.3z"/>
	<path class="st5" d="M225.7,132.5c0.1-0.8,0.3-1.6,0.4-2.5c0.4,0.1,0.8,0.2,1.1,0.3c0.4,0.1,0.7,0.2,1.1,0.3
		c0.6,0.1,1.2,0.2,1.7,0.3s0.8,0.1,1,0.1c-0.1,0.3-0.2,0.5-0.2,0.8c0,0.2-0.1,0.4-0.1,0.5c0,0.1,0,0.2,0,0.4l-0.8-0.2l-0.8-0.2
		l-0.7-0.2c-0.2-0.1-0.4-0.1-0.5-0.1c-0.2,0.7-0.3,1.4-0.5,2.1s-0.3,1.4-0.4,2.1c0.6,0.1,1.1,0.2,1.5,0.2l1.4,0.2
		c-0.1,0.2-0.1,0.4-0.1,0.5c0,0.1-0.1,0.2-0.1,0.4c0,0.1,0,0.2,0,0.3c0,0.1,0,0.3,0,0.5c-0.9-0.3-1.9-0.5-2.9-0.7l-0.2,1
		c-0.2,1-0.4,2-0.5,2.8c-0.1,0.8-0.3,1.6-0.4,2.4c-0.1-0.1-0.3-0.1-0.5-0.1l-0.6-0.1l-0.6-0.1c-0.2,0-0.3-0.1-0.5-0.1
		c0.2-0.8,0.4-1.6,0.5-2.4c0.2-0.8,0.4-1.7,0.6-2.8l0.5-2.6C225.4,134.3,225.6,133.4,225.7,132.5z"/>
	<path class="st5" d="M277.3,141.2c0.1-0.8,0.1-1.7,0.2-2.5l0.5,0.1c0.2,0,0.4,0.1,0.6,0.1c0.2,0,0.4,0,0.6,0h0.5
		c-0.1,0.8-0.2,1.7-0.3,2.5c-0.1,0.8-0.2,1.8-0.3,2.8l-0.3,2.6c-0.1,0.7-0.1,1.4-0.2,2.1c-0.1,0.7-0.1,1.3-0.2,1.8
		c0.5,0,1,0.1,1.5,0.1c0.5,0,1,0,1.5,0c0,0.1-0.1,0.3-0.1,0.4c0,0.1,0,0.3-0.1,0.5c0,0.2,0,0.4,0,0.5c0,0.1,0,0.2,0,0.3
		c-0.2,0-0.5-0.1-0.9-0.1l-1.4-0.2l-1.3-0.1l-0.8-0.1l-0.4,0h-0.2c0.1-0.8,0.2-1.6,0.3-2.4c0.1-0.9,0.2-1.8,0.3-2.8l0.3-2.6
		C277.1,142.9,277.2,142,277.3,141.2z"/>
	<path class="st5" d="M283.2,143.3c0.3-0.8,0.7-1.5,1.2-2.1c0.4-0.6,1-1,1.7-1.4c0.6-0.3,1.4-0.5,2.1-0.4c0.7,0,1.3,0.2,1.9,0.6
		c0.6,0.3,1.1,0.8,1.5,1.4c0.4,0.7,0.7,1.4,0.9,2.2c0.2,1,0.3,2,0.2,3.1c-0.1,0.9-0.2,1.8-0.6,2.7c-0.3,0.8-0.7,1.5-1.2,2.1
		c-0.4,0.6-1,1-1.7,1.3c-0.6,0.3-1.3,0.4-2,0.4c-0.7,0-1.3-0.2-1.9-0.5c-0.6-0.3-1.1-0.8-1.5-1.3c-0.4-0.7-0.7-1.4-0.9-2.2
		c-0.2-1-0.3-2.1-0.2-3.1C282.7,145,282.9,144.1,283.2,143.3z M290.3,143.8c-0.1-0.6-0.2-1.2-0.5-1.7c-0.2-0.4-0.5-0.8-0.8-1.1
		c-0.3-0.3-0.7-0.4-1.1-0.5c-0.4,0-0.9,0.1-1.2,0.4c-0.4,0.3-0.7,0.7-1,1.2c-0.3,0.6-0.5,1.2-0.7,1.9c-0.2,0.8-0.3,1.6-0.4,2.3
		c-0.1,0.9-0.1,1.7,0,2.6c0.1,0.6,0.2,1.2,0.5,1.7c0.2,0.4,0.4,0.7,0.8,1c0.3,0.2,0.6,0.3,1,0.4c0.4,0,0.8-0.1,1.1-0.3
		c0.4-0.3,0.8-0.6,1-1.1c0.3-0.6,0.6-1.2,0.8-1.9c0.2-0.9,0.4-1.8,0.4-2.7C290.5,145.3,290.4,144.5,290.3,143.8z"/>
	<path class="st5" d="M294.4,141.6V140c0.2,0.1,0.4,0.1,0.6,0.1c0.2,0,0.4,0,0.6-0.1c0.9,1.6,1.8,3.1,2.7,4.7
		c0.9,1.6,1.8,3.1,2.7,4.7l0-1.7l0-1.9c0-0.6,0-1.2,0-1.9c0-0.6,0-1.2,0-1.7c0-0.5,0-1,0-1.3c0-0.4,0-0.6,0-0.8
		c0.2,0.1,0.4,0.1,0.6,0.1c0.2,0,0.4,0,0.6-0.1c-0.1,1.2-0.1,2.2-0.2,3.2c-0.1,0.9-0.1,1.8-0.1,2.7c0,0.8-0.1,1.7-0.1,2.5
		c0,0.8-0.1,1.7-0.1,2.6l-0.1,2.3c-0.2,0-0.3,0-0.5,0c-0.2,0-0.3,0-0.5,0c-1.7-3.1-3.5-6.3-5.4-9.5c0,0.4,0,0.8-0.1,1.1
		c0,0.3,0,0.8,0,1.1l-0.1,2.2c0,0.8,0,1.4,0,2c0,0.5,0,1,0,1.4s0,0.7,0,0.9s0,0.4,0,0.6c-0.1,0-0.2,0-0.3,0h-0.3c-0.2,0-0.4,0-0.6,0
		c0-0.1,0-0.5,0.1-1.1c0-0.6,0.1-1.4,0.1-2.3s0.1-1.9,0.2-3c0-1.1,0.1-2.1,0.1-3.1C294.4,142.8,294.4,142.2,294.4,141.6z"/>
	<path class="st5" d="M310.6,141.7c-0.4-0.4-1-0.5-1.5-0.5c-0.4,0-0.8,0.1-1.2,0.4c-0.4,0.3-0.8,0.7-1,1.1c-0.4,0.6-0.6,1.2-0.8,1.9
		c-0.2,0.9-0.3,1.8-0.3,2.7c0,0.7,0.1,1.4,0.2,2.1c0.1,0.6,0.3,1.2,0.6,1.7c0.2,0.4,0.6,0.8,1,1.1c0.4,0.3,0.9,0.4,1.3,0.4
		c0.1,0,0.3,0,0.4,0l0.4-0.1c0.1,0,0.3-0.1,0.4-0.1c0.1,0,0.2-0.1,0.2-0.1c0-0.2,0-0.4,0-0.6c0-0.2,0-0.5,0-0.8c0-1,0-1.8,0-2.3
		s0-0.8-0.1-1c0.1,0,0.2,0.1,0.3,0.1c0.2,0,0.4,0,0.6,0c0.3,0,0.5,0,0.7,0l0.4-0.1c0,0.1,0,0.3,0,0.5s0,0.5,0,0.8s0,0.6,0,1
		c0,0.3,0,0.7,0,1v0.6c0,0.3,0,0.6,0,0.9c0,0.2,0,0.4,0,0.6c-0.6,0.2-1.1,0.4-1.7,0.6c-0.6,0.1-1.1,0.2-1.7,0.2
		c-0.7,0-1.4-0.1-2.1-0.4c-0.6-0.3-1.2-0.7-1.6-1.3c-0.5-0.6-0.8-1.3-1.1-2c-0.3-0.9-0.4-1.8-0.4-2.7c0-1.1,0.1-2.2,0.4-3.2
		c0.2-0.8,0.6-1.6,1.1-2.3c0.4-0.6,1-1.1,1.7-1.4c0.7-0.3,1.4-0.5,2.1-0.5c0.6,0,1.2,0.1,1.7,0.3c0.5,0.2,1,0.5,1.4,0.9
		c-0.1,0.3-0.1,0.7-0.2,1c-0.1,0.3-0.1,0.6-0.2,1h-0.2C311.4,142.5,311,142,310.6,141.7z"/>
	<path class="st5" d="M318,142.7c0-0.8,0-1.7-0.1-2.5l0.5,0.1c0.2,0,0.4,0,0.6,0c0.2,0,0.4,0,0.6,0l0.5-0.1c0,0.8-0.1,1.7-0.1,2.5
		c0,0.8,0,1.8,0,2.8v2.6c0,1.1,0,2,0,2.9s0,1.6,0.1,2.4c-0.2,0-0.3,0-0.5,0h-1.2c-0.2,0-0.3,0-0.5,0c0-0.8,0.1-1.6,0.1-2.4
		c0-0.8,0-1.8,0-2.8v-2.6C318,144.5,318,143.6,318,142.7z"/>
	<path class="st5" d="M324.6,141.2c-0.4,0-0.8,0.2-1,0.5c-0.3,0.4-0.4,0.8-0.4,1.2c0,0.4,0.1,0.8,0.3,1.2c0.2,0.3,0.4,0.6,0.7,0.8
		c0.3,0.2,0.6,0.5,0.9,0.7c0.3,0.2,0.7,0.5,0.9,0.8c0.3,0.4,0.5,0.8,0.7,1.2c0.2,0.6,0.3,1.2,0.3,1.8c0,0.6-0.1,1.2-0.3,1.8
		c-0.1,0.5-0.4,1-0.7,1.4c-0.3,0.4-0.7,0.7-1.1,0.9c-0.4,0.2-0.9,0.3-1.4,0.3c-0.4,0-0.9-0.1-1.2-0.2c-0.3-0.1-0.6-0.3-0.8-0.6
		c0.1-0.5,0.2-0.9,0.2-1.2c0.1-0.4,0.1-0.8,0.2-1.2h0.2c0,0.3,0.1,0.5,0.2,0.8c0.1,0.2,0.2,0.5,0.4,0.7c0.1,0.2,0.3,0.3,0.5,0.5
		c0.2,0.1,0.5,0.2,0.7,0.2c0.5,0,0.9-0.2,1.1-0.6c0.3-0.4,0.4-0.9,0.4-1.4c0-0.4-0.1-0.8-0.3-1.2c-0.2-0.3-0.4-0.6-0.7-0.8
		c-0.3-0.3-0.6-0.5-0.9-0.7c-0.3-0.2-0.7-0.5-0.9-0.8c-0.3-0.4-0.5-0.8-0.7-1.2c-0.2-0.6-0.3-1.2-0.3-1.8c0-0.6,0.1-1.2,0.3-1.8
		c0.1-0.5,0.4-0.9,0.6-1.3c0.3-0.3,0.6-0.6,0.9-0.8c0.3-0.2,0.7-0.3,1.1-0.3c0.4,0,0.8,0.1,1.2,0.3c0.3,0.2,0.7,0.4,0.9,0.7
		c-0.1,0.3-0.1,0.6-0.2,0.9c-0.1,0.3-0.1,0.6-0.2,1.1h-0.2C325.9,141.8,325.3,141.2,324.6,141.2z"/>
	<path class="st5" d="M328.8,142.8c0-0.8,0-1.7,0-2.5l0.5,0.1c0.2,0,0.4,0,0.6,0c0.2,0,0.4,0,0.6,0l0.5-0.1c0,0.8-0.1,1.7-0.1,2.5
		c0,0.8,0,1.8-0.1,2.8v2.6c0,0.7,0,1.4,0,2.1c0,0.7,0,1.3,0,1.8c0.5,0,1,0,1.5,0c0.5,0,1-0.1,1.5-0.2c0,0.1,0,0.3,0,0.4
		c0,0.1,0,0.3,0,0.5c0,0.2,0,0.4,0,0.5c0,0.1,0,0.2,0,0.3l-0.9,0c-0.3,0-0.8,0-1.4,0h-1.3h-0.8c-0.1,0-0.3,0-0.4,0h-0.2
		c0-0.8,0.1-1.6,0.1-2.4c0-0.8,0-1.8,0.1-2.9l0-2.6C328.8,144.6,328.8,143.6,328.8,142.8z"/>
	<path class="st5" d="M342.4,153.8c-0.2,0-0.4,0-0.6-0.1h-1.1c-0.2,0-0.4,0-0.5,0c-0.1-0.6-0.3-1.3-0.4-1.9c-0.1-0.7-0.3-1.3-0.4-2
		l-0.8,0h-0.8H337h-0.7c-0.2,0.6-0.4,1.3-0.5,2s-0.3,1.3-0.4,1.9c-0.1,0-0.2,0-0.3,0h-0.6c-0.1,0-0.2,0-0.3,0
		c0.1-0.3,0.3-0.8,0.4-1.4l0.6-2c0.2-0.7,0.5-1.6,0.7-2.4s0.5-1.7,0.8-2.6s0.5-1.7,0.8-2.6c0.3-0.8,0.5-1.6,0.7-2.3l0.2,0.1
		c0.2,0,0.3,0,0.5,0l0.2-0.1c0.2,1.1,0.5,2.3,0.8,3.5c0.3,1.3,0.6,2.5,0.9,3.7c0.3,1.2,0.6,2.3,0.9,3.4
		C341.9,152.2,342.2,153.1,342.4,153.8z M338,144.1c-0.2,0.8-0.5,1.5-0.7,2.3c-0.2,0.7-0.4,1.5-0.6,2.3l2.3,0
		c-0.2-0.8-0.4-1.6-0.5-2.3C338.4,145.6,338.2,144.9,338,144.1L338,144.1z"/>
	<path class="st5" d="M344.2,142.2c0-0.6,0-1.1,0-1.6c0.2,0.1,0.4,0.1,0.6,0.1c0.2,0,0.4,0,0.6-0.1c0.9,1.6,1.8,3.1,2.6,4.7
		c0.9,1.6,1.8,3.1,2.7,4.7l0.1-1.7l0.1-1.9c0-0.6,0-1.2,0-1.9c0-0.6,0-1.2,0-1.7s0-1,0-1.3c0-0.4,0-0.6,0-0.8
		c0.2,0.1,0.4,0.1,0.6,0.1c0.2,0,0.4,0,0.6-0.1c-0.1,1.2-0.1,2.2-0.2,3.2c-0.1,0.9-0.1,1.8-0.1,2.7s-0.1,1.7-0.1,2.5
		c0,0.8-0.1,1.7-0.1,2.6l-0.1,2.3c-0.2,0-0.4,0-0.5-0.1c-0.2,0-0.3,0-0.5,0c-1.7-3.1-3.5-6.3-5.4-9.5c0,0.4,0,0.8-0.1,1.1
		s0,0.8,0,1.1l-0.1,2.2c0,0.8,0,1.4,0,2c0,0.5,0,1,0,1.4s0,0.7,0,0.9c0,0.2,0,0.4,0,0.6c-0.1,0-0.2,0-0.3,0h-0.3c-0.2,0-0.4,0-0.6,0
		c0-0.1,0.1-0.5,0.1-1.1c0-0.6,0.1-1.4,0.2-2.3c0.1-0.9,0.1-1.9,0.2-3c0.1-1.1,0.1-2.1,0.1-3.1C344.2,143.4,344.2,142.8,344.2,142.2
		z"/>
	<path class="st5" d="M354.2,143.4c0-0.8,0-1.7,0-2.5l0.5,0.1c0.2,0,0.4,0,0.6,0.1c0.3,0,0.6,0,1,0c0.4,0,0.8,0,1.4,0
		c0.7,0,1.4,0.2,2,0.4c0.6,0.2,1.1,0.6,1.5,1.1c0.5,0.6,0.8,1.2,0.9,2c0.4,2,0.3,4-0.3,5.9c-0.2,0.8-0.6,1.5-1.1,2.2
		c-0.4,0.6-0.9,1-1.5,1.3c-0.5,0.3-1.1,0.4-1.7,0.4c-0.6,0-1.2-0.1-1.7-0.1c-0.5,0-0.9-0.1-1.2-0.1h-0.6c-0.2,0-0.3,0-0.5,0
		c0.1-0.8,0.1-1.6,0.2-2.4c0.1-0.8,0.1-1.8,0.2-2.8l0.1-2.6C354.2,145.2,354.2,144.2,354.2,143.4z M355.8,150.4l-0.1,1.2
		c0,0.4,0,0.7,0,1c0,0.3,0,0.5,0,0.6l0.5,0.1c0.2,0,0.4,0,0.7,0c1,0,1.9-0.5,2.4-1.4c0.7-1.4,1.1-2.9,1.1-4.5c0-0.7,0-1.4-0.1-2.2
		c-0.1-0.6-0.3-1.1-0.5-1.6c-0.2-0.4-0.5-0.8-0.9-1.1c-0.3-0.3-0.8-0.4-1.2-0.4c-0.3,0-0.6,0-0.8,0l-0.6,0c0,0.1,0,0.3,0,0.6
		s0,0.7-0.1,1l-0.1,1.2l0,1l-0.2,3.4L355.8,150.4z"/>
	<path class="st3" d="M138,126.4c0,0.9-0.7,1.7-1.6,1.7c-0.9,0-1.7-0.7-1.7-1.6c0-0.9,0.7-1.7,1.6-1.7c0,0,0,0,0,0
		C137.2,124.8,138,125.5,138,126.4L138,126.4z"/>
	<path class="st3" d="M212.7,133.7c0,0.9-0.7,1.7-1.6,1.7c-0.9,0-1.7-0.7-1.7-1.6c0-0.9,0.7-1.7,1.6-1.7c0,0,0,0,0,0
		C211.9,132,212.7,132.8,212.7,133.7C212.7,133.7,212.7,133.7,212.7,133.7z"/>
	<path class="st3" d="M317,147.3c0,0.9-0.7,1.7-1.6,1.7c-0.9,0-1.7-0.7-1.7-1.6c0-0.9,0.7-1.7,1.6-1.7c0,0,0,0,0,0
		C316.2,145.6,317,146.4,317,147.3C317,147.3,317,147.3,317,147.3z"/>
</g>
<path class="st6" d="M401.4,251.3c0.2,0.5,0.5,1,0.7,1.6c1.3,4.9,5,8.7,9.8,10.3c0.3,0.1,0.6,0.3,0.9,0.5h-11.4V251.3z"/>
<g>
	<path class="st7" d="M532.8,211.9v-154c0.1-0.1,0.2-0.1,0.3-0.2c1.6-6.4,5.5-10.5,11.8-12.1h296.3c3.8,1,7.2,2.8,9.3,6.4
		c1.1,2,2,4.1,2.8,6.3v153.7c-0.6,1.4-1.1,2.9-1.7,4.2c-2.1,4.3-5.6,6.7-10,8.1H544.2c-0.3-0.2-0.6-0.3-0.9-0.5
		c-4.8-1.5-8.5-5.4-9.8-10.3C533.2,213,533,212.5,532.8,211.9z M732.6,135.6l-0.7,3.9l-0.5,4.7c-0.9,5.6-1.8,11.3-0.6,17
		c0.4,3.1,2.9,5.6,6,6.1c1.9,0.4,3.9,0.5,5.8,0.4c8.3-0.8,16.2-4,22.7-9.3c4.5-3.6,8.3-7.9,9.3-14.1h13.4c0.7,3.4,2.3,6.6,4.5,9.3
		c5.2,6.2,11.9,10,19.4,12.4c4.3,1.4,8.6,2.2,13.1,1.5c3.7-0.6,6-2.6,6.9-6.4c0.3-1.2,0.5-2.5,0.4-3.7c-0.1-3.6-0.4-7.3-0.7-11
		c-0.6-7.5-1.8-14.8-5.8-21.3c-4.7-7.7-10.3-14.5-17.7-19.5c-2.9-2-6.2-3.6-9.5-4.7c-4.2-1.4-7.8,0.5-9.7,4.6
		c-0.9,1.8-1.5,3.7-1.8,5.6c-0.3,6.6-0.4,13.2-0.5,19.8H776c0-5.8,0.1-11.6-0.1-17.3c-0.1-3.3-1-6.6-2.8-9.4
		c-1.5-2.4-3.7-3.9-6.5-3.6c-2.3,0.2-4.6,0.8-6.8,1.8c-6.6,3-11.7,8-16.3,13.5c-1.8,2.1-3.3,4.5-4.9,6.8l-2.7,4.8l-1.6,3.6
		L732.6,135.6z M765.6,75.8c0.6,2.5,0.9,5.2,1.9,7.6c2.5,5.9,6.8,9.7,13.4,10c5.9,0.3,10.2-2.6,13.3-7.5c4.3-7.1,3.6-16-1.6-22.5
		c-4.8-6.1-13.7-7.2-19.8-2.3c-0.3,0.2-0.6,0.5-0.9,0.8C767.8,65.6,766,70.3,765.6,75.8L765.6,75.8z M692.9,126.6c0-4.6,0-9,0-13.4
		c0-2.9,1-4.1,3.1-4.1c2,0,2.8,1,2.8,3.9c0,3.9,0,7.8,0,11.7v1.7h6.7v-13.6c0-0.4,0-0.8,0-1.3c-0.4-5.1-3.3-7.7-8.1-7.5
		c-2.7,0-5.2,1.3-6.7,3.5c-1.2-2.2-2.7-3.8-5.1-3.5c-2,0.3-4,1.2-6,1.8c-0.7-1.7-2.1-2.1-5.8-1.3v21.9h6.5c0-4.9,0-9.6,0-14.4
		c0-1.9,1.1-3,3.1-3s2.9,0.9,2.9,3c0,3.3,0,6.6,0,9.9v4.5L692.9,126.6z M612.8,126.6c-0.3-0.9-0.5-1.5-0.7-2.1
		c-3-7.9-6-15.8-9.1-23.7c-0.7-1.8-1-4.2-2.3-5.1c-1.3-0.9-3.7-0.2-5.5-0.4c-1-0.2-2,0.5-2.2,1.5c-2.7,7.3-5.5,14.6-8.3,21.9l-3,7.9
		h4.1c3.2,0,3.3,0,4.3-3.1c0.3-0.8,0.6-1.6,0.8-2.4c0.1-0.9,0.9-1.6,1.8-1.5c0.1,0,0.1,0,0.2,0c2.9,0.1,5.8,0.1,8.7,0
		c1.3-0.1,1.8,0.5,2,1.6c0.2,1.2,0.6,2.3,1.2,3.4c0.5,0.9,1.3,1.6,2.3,1.9C609,126.7,610.9,126.7,612.8,126.6z M673.9,167.4v-22.1
		h-15.7v-6.2c-4.5-0.7-4.5-0.6-5.5,3.5c-0.1,0.2-0.1,0.5-0.2,0.7c-0.1,1.5-0.8,2.3-2.3,2.3c-2,0-1.6,1.4-1.7,2.6
		c0,1.5,0.9,1.7,2,1.7c0.4,0,0.7,0.1,1.1,0.2c0,3.8,0,7.6,0,11.4c0,2.6,0.9,4.8,3.4,5.8c3.2,1.2,6.2,0.7,9.2-1.3
		c-0.6-0.9-1.1-1.7-1.6-2.5c-0.5-1-1.2-1.4-2.3-0.9c-1.6,0.6-2.1-0.4-2.1-1.7c-0.1-3.3-0.1-6.5,0-9.8c0.1-0.5,0.6-1,1.1-1.1
		c2.6-0.1,5.2-0.1,8-0.1v17.6L673.9,167.4z M579.6,162.8l-1.8-2c-1.7-1.9-1.9-1.9-4-0.4c-3.7,2.6-8.8,1.6-11.4-2.1
		c-0.2-0.3-0.4-0.7-0.6-1c-1.7-3.5-1.7-7.5-0.1-11c0.9-2.3,3-4,5.5-4.3c2.2-0.4,4.6,0.1,6.4,1.4c1,0.7,2.1,1.3,3.1,0
		c0.8-1.1,1.6-2.2,2.3-3.3c-5.3-5.8-16.1-5.6-21.7,0.3c-6.1,6.4-5.5,18.5,1.1,24.1C564.6,169.7,575.3,168.9,579.6,162.8L579.6,162.8
		z M656.1,126.6c0-4.9,0-9.7,0-14.4c0-1.7,1.4-2.9,3.5-3c1.9-0.1,3.1,0.7,3.1,2.6c0.1,2.5,0.1,4.9,0.1,7.4c0,2.5,0,4.9,0,7.4h6.7
		c0-3.6,0-7.2,0-10.7c0-2-0.1-4-0.4-5.9c-0.6-3.6-3.2-5.9-6.8-5.8c-2,0.1-4,0.9-6.2,1.4V94.6h-6.3v31.9L656.1,126.6z M591.6,144.9
		c-6.9,0-11.2,4.4-11.2,11.4c0,7.1,4.3,11.5,11.3,11.5c6.8,0,11.1-4.5,11.1-11.5C602.8,149.3,598.4,144.9,591.6,144.9L591.6,144.9z
		 M688.6,144.9c-6.8,0-11.3,4.6-11.3,11.4c0,7.1,4.5,11.5,11.6,11.5c6.7,0,10.9-4.5,10.9-11.5S695.4,144.9,688.6,144.9L688.6,144.9z
		 M703.2,145.2v22.2h6.6v-1.8c0-4.2,0-8.4,0-12.6c0-0.7,0.5-1.8,1-2c1.3-0.4,3-0.9,4.1-0.5c0.8,0.3,1.4,2.1,1.5,3.3
		c0.2,4,0.1,7.9,0.1,11.9v1.6h6.5c0-5.1,0.1-10.1,0-15.1c-0.1-4.6-3.4-7.7-7.9-7.2c-2,0.2-3.9,1.2-5.9,1.9
		C708.1,143.9,705.4,145.8,703.2,145.2L703.2,145.2z M720.8,113.1c-3.3,0.9-6.4,1.5-9.2,2.7c-2.8,1.2-3.9,4-3.2,7
		c0.6,2.5,2.8,4,5.8,4.2c2.8,0.2,5.5-0.8,7.5-2.7c1.4,2.6,2.2,2.8,5.7,2.1c0-5.1,0.1-10.2-0.1-15.3c-0.1-2.6-1.7-5-4.1-6.1
		c-3.9-2.1-10.7-0.8-13.8,2.6c1.5,3.5,2.3,3.9,5.6,2.3c0.4-0.2,0.7-0.4,1.1-0.5C719.4,108.3,721.2,109.9,720.8,113.1L720.8,113.1z
		 M605.6,148.3c1.9,3.8,2.4,4,5.8,2.3c0.4-0.2,0.8-0.4,1.1-0.5c3.3-0.9,5,0.6,4.6,4.3c-1,0-2,0.1-2.9,0.3c-2.3,0.6-4.7,1.1-6.9,2.2
		c-2.5,1.3-3.4,3.9-2.7,6.6c0.6,2.5,2.7,4,5.5,4.3c2.9,0.3,5.7-0.8,7.8-2.8c0.9,3.6,3.5,2.2,5.5,2.4c0-5.5,0.2-10.8-0.1-16.2
		c-0.2-2.9-2.2-5.3-5-5.9C613.8,144.1,609.5,145.1,605.6,148.3z M751.1,204.2l-5.4-6c0.5-0.3,0.9-0.6,1.3-1c4.2-4.4,4-12.6-0.4-16.5
		c-3.9-3.3-9.6-3.7-13.9-0.9c-4,2.8-5.6,8.5-3.8,13.6c1.6,4.7,6.4,7.5,11.3,6.8c1.8-0.2,2.9,0.2,3.7,1.6
		C745.7,204.3,748.1,204.7,751.1,204.2z M612.9,124.2c3.6,3.1,9.8,3.7,13.6,1.5c2.6-1.6,3.6-3.9,3.4-6.8c-0.2-2.7-1.9-4-4.1-4.9
		c-1.6-0.6-3.1-1-4.6-1.8c-0.6-0.3-1.3-1.3-1.2-1.8c0.3-0.7,0.9-1.2,1.7-1.4c1.4,0.1,2.8,0.3,4.1,0.8c1.3,0.4,2.2,0.3,2.9-0.9
		c0.3-0.6,0.7-1.2,1.2-1.9c-3-2.8-6.6-3.3-10.3-2.6c-3.6,0.7-5.7,3.1-5.9,6.2c-0.2,3.5,1.3,5.6,5.1,7c1.3,0.4,2.5,0.8,3.7,1.4
		c0.6,0.3,1.4,1.3,1.3,1.8c-0.2,0.8-0.8,1.4-1.6,1.6c-1.4,0-2.8-0.2-4.1-0.8c-2.3-1-2.8-1-4.2,1.2
		C613.6,123.2,613.3,123.7,612.9,124.2L612.9,124.2z M634.7,109.2c0,3.7,0,7.3,0,10.9c0,2.3,0.4,4.5,2.4,5.9c2.7,1.9,7.7,1.4,10.1-1
		c-0.5-0.9-1.1-1.8-1.7-2.7c-0.4-0.4-0.9-0.7-1.4-0.7c-2.6,0.3-2.7,0.2-2.7-2.4V109h5.3v-4.5h-5.3v-6.4c-5.8-0.1-4.5-0.6-5.6,4.1
		c-0.4,1.8-1.1,2.6-2.8,2.7c-0.4,0.1-0.7,0.1-1.1,0.3C631.5,108.8,631.5,108.8,634.7,109.2L634.7,109.2z M586.1,188.7
		c2.8-1.8,3.6-3.2,3.1-5.8c-0.3-2.4-2.3-4.3-4.8-4.3c-3.4-0.3-6.9-0.1-10.4-0.1v21.3c3.6,0,7,0.3,10.4-0.1c2.8-0.1,5-2.3,5.3-5
		C590.2,191.7,589.5,190.6,586.1,188.7z M628,167.4h6.5v-31.9H628V167.4z M717.9,188.3c-3.1-0.4-3.1-0.4-3.7,2.1
		c-0.2,0.8-0.6,1.6-0.9,2.7c-2.2-2.3-4.2-4.4-6.1-6.6c-0.6-0.7-1.1-1.6-1.3-2.5c-0.4-1.2,0.3-2.4,1.4-2.8c0,0,0.1,0,0.1,0
		c0.9-0.2,2.5,0.1,2.8,0.7c1.1,2.2,2.4,1.4,3.9,0.9c-0.1-3.5-4.3-5.7-7.5-4.5c-1.4,0.5-2.7,1.4-3.5,2.7c-1.4,2.3-0.6,4.7,0.6,6.9
		c-0.4,0.3-0.8,0.5-1.1,0.8c-2.6,1.8-3.6,4.5-2.8,7.2c0.7,2.5,3.3,4.3,6.3,4.4c2.6,0,5.1-0.8,7.2-2.5c1.6,2.6,3.9,2.4,6.5,2l-4-4.3
		C716.5,193,717.2,190.7,717.9,188.3z M637.5,177.7v22.3h3.6v-7.5c0.8,0.4,1.5,0.9,2.2,1.6c0.9,1.1,1.7,2.3,2.3,3.6
		c1.2,2.5,3.2,2.8,5.8,2.2l-5.7-8.5l5.4-6.6c-2.6-0.6-4.5-0.2-5.9,2.1c-0.6,1-1.3,1.9-2.1,2.7c-0.7,0.5-1.4,1-2.1,1.3v-13.2
		L637.5,177.7z M645.6,167.4v-22h-6.5v22L645.6,167.4z M617.5,192.5c0-5.1-2.7-8.1-7.4-8.1c-4.7,0-7.6,2.9-7.6,7.8
		c0,5,2.8,8.1,7.4,8.2S617.5,197.3,617.5,192.5L617.5,192.5z M619.5,192.4c0,4.9,3,8,7.7,8s7.4-3.2,7.4-8s-2.9-7.9-7.5-7.9
		C622.4,184.3,619.5,187.3,619.5,192.4L619.5,192.4z M762.4,184.6c0,3.2,0,6.4,0,9.6c0,0.7-0.4,1.9-0.9,2.1
		c-1.1,0.6-2.4,0.8-3.6,0.7c-1.4-0.3-1.4-1.9-1.4-3.1c0-3,0-6.1,0-9.2h-3.6c0,3.9-0.2,7.7,0.1,11.4c0.1,2.4,2.1,4.3,4.5,4.2
		c0.1,0,0.2,0,0.2,0c1.6-0.1,3.2-0.8,4.9-1.3c0.4,1.9,2,1.1,3.5,1.1c0-5,0-9.8,0-14.6c0-0.3-0.1-0.5-0.1-0.8L762.4,184.6z
		 M680.1,200c0-3.4,0-6.7,0-9.9c0-0.7,0.4-1.7,0.9-1.9c1.1-0.4,2.6-0.9,3.6-0.5c0.7,0.3,1.2,1.9,1.2,3c0.2,3.1,0.1,6.2,0.1,9.2h3.7
		c0-3.7,0.2-7.2-0.1-10.7c-0.3-3.8-3-5.6-6.6-4.7c-1.1,0.4-2.1,0.9-3.1,1.6c-0.3-2.3-2-1.3-3.4-1.5V200H680.1z M772.5,192.8h4.2
		c1.4,0,2.8-0.1,4.3,0c1.4,0.1,1.9-0.6,1.8-2c-0.2-3.2-2.1-5.7-4.9-6.3c-3.5-0.8-7,0.6-8.2,3.7c-0.7,1.8-0.9,3.7-0.8,5.6
		c0.1,2.9,2.1,5.4,4.9,6.2c3.2,1,6.8,0,8.6-2.3c-0.7-1.5-1.6-1.9-3.2-1.1C775.7,198.5,772.9,196.9,772.5,192.8z M788.4,192.8
		c2.9,0,5.6,0.1,8.4,0c0.6,0,1.5-0.6,1.6-1.1c0.6-3.4-1.7-6.6-5.1-7.2c-0.1,0-0.3,0-0.4-0.1c-3.5-0.4-6.2,1-7.6,3.8
		c-1.5,3-0.9,7.4,1.1,9.7c3,3.3,9.3,3.1,11.7-0.3c-0.8-1.6-1.7-1.8-3.3-0.9C792,198.4,788.4,196.9,788.4,192.8L788.4,192.8z
		 M801.4,184.6v15.4h3.6v-9.3c-0.2-1.7,1.1-3.2,2.8-3.4c0.2,0,0.4,0,0.6,0c1.8,0,2.6,0.9,2.6,3.3c0,3.1,0,6.2,0,9.4h3.6
		c0-3.7,0.1-7.2,0-10.8c-0.1-3.1-2.2-5-5.3-4.7c-1.5,0.1-2.9,0.9-4.5,1.4C804.4,183.8,802.8,184.7,801.4,184.6z M659.2,184.6
		c0,0.2,0,0.4,0,0.6c1.7,4,3.3,8,5.1,11.9c0.6,1.2,0.6,2.6-0.1,3.7c-0.8,1.3-1.3,2.8-1.9,4.2c3.5,0.3,3.5,0.3,4.8-2.7
		c1.2-2.9,2.4-5.7,3.6-8.6l3.7-9c-3.6-0.4-3.6-0.4-4.7,2.6c-0.9,2.3-1.8,4.5-2.8,7.1c-1.3-3.1-2.3-5.8-3.5-8.4
		c-0.5-0.7-1.1-1.2-1.9-1.4C660.8,184.5,660,184.4,659.2,184.6L659.2,184.6z M817,198.5c2.8,2,5.7,2.4,8.7,1.1
		c1.9-0.8,2.7-2.4,2.7-4.5s-1.1-3.1-2.8-3.7c-1.1-0.3-2.2-0.8-3.3-1.3c-0.6-0.3-1.3-1.2-1.2-1.7c0.3-0.7,0.9-1.2,1.6-1.3
		c1.1,0,2.1,0.2,3.1,0.7c0.6,0.4,1.4,0.2,1.7-0.4c0.1-0.1,0.2-0.3,0.2-0.5c0-0.6-0.2-1.2-0.7-1.6c-1.8-1.1-4.1-1.4-6.2-0.7
		c-2.1,0.5-3.5,2.3-3.5,4.4c0,2,1,3.3,3.3,4.2c1.1,0.4,2.2,0.8,3.2,1.3c1.3,0.7,1.2,2.3-0.2,2.7c-1.1,0.3-2.3,0.2-3.4-0.2
		C818.2,196.2,818.2,196.1,817,198.5z M653.5,177.6v22.3h3.4v-22.3L653.5,177.6z M601.9,184.7c-2.6-1.1-4.2,0.1-5.6,2
		c-0.8-2.3-0.8-2.4-3.6-1.9v15.2h3.7c0-2.9,0-5.7,0-8.6c0-2.3,1.4-3.6,3.6-3.3c1.2,0.1,1.6-0.3,1.7-1.4
		C601.7,186,601.8,185.4,601.9,184.7L601.9,184.7z M670.8,143c2.1,0.1,3.9-1.5,4-3.6c0-0.1,0-0.2,0-0.2c0-2.2-1.8-3.9-4-3.9
		c0,0,0,0,0,0c-2.1,0-3.9,1.7-3.9,3.8c0,0.1,0,0.1,0,0.1c0,2.1,1.6,3.7,3.7,3.8C670.7,143,670.8,143,670.8,143z M642.3,143.1
		c2.2,0,3.9-1.7,3.9-3.9c0-2.2-1.7-3.9-3.9-3.9c-2.2,0-3.9,1.7-3.9,3.9C638.4,141.3,640.2,143.1,642.3,143.1z M562.4,184.7
		c0-2.2-1.2-3.6-3.1-3.5c-2.3,0-4.2,2.3-4.2,5.1c0,2.2,1.2,3.5,3.1,3.5C560.6,189.7,562.5,187.6,562.4,184.7z M569.2,178.1
		c-2.9-0.3-3.6,0.3-4.5,2.3c-0.5,1.2-1.6,2.1-0.4,3.4c0.1,0.1-0.1,0.6-0.1,0.9c-0.3,2.3-0.5,4.6-0.8,6.9c1.6-0.1,1.8-0.2,2.1-1.8
		c0.4-2.2,0.6-4.4,0.9-6.3l2-1.4l-0.3-0.5l-2.1-0.4L569.2,178.1z"/>
	<path class="st8" d="M853.3,58.3c-0.8-2.2-1.7-4.3-2.8-6.3c-2.1-3.5-5.5-5.3-9.3-6.4h12.1V58.3z"/>
	<path class="st8" d="M544.9,45.6c-6.3,1.6-10.3,5.7-11.8,12.1c0,0.1-0.2,0.1-0.3,0.2V45.6H544.9z"/>
	<path class="st6" d="M841.5,224.2c4.4-1.3,7.9-3.8,10-8.1c0.7-1.4,1.2-2.8,1.7-4.2v12.3H841.5z"/>
	<path class="st9" d="M786.9,130.9c0.1-6.6,0.1-13.2,0.5-19.8c0.2-2,0.8-3.9,1.8-5.6c1.9-4.1,5.5-6,9.7-4.6c3.4,1.1,6.6,2.7,9.5,4.7
		c7.4,5.1,13,11.9,17.7,19.5c4,6.6,5.2,13.9,5.8,21.3c0.3,3.6,0.5,7.3,0.7,11c0,1.3-0.1,2.5-0.4,3.7c-0.9,3.7-3.1,5.7-6.9,6.4
		c-4.5,0.8-8.9-0.1-13.1-1.5c-7.5-2.4-14.2-6.2-19.4-12.4c-2.3-2.7-3.9-5.9-4.6-9.3c9.8,0,19.7-0.1,29.5,0c2.2,0,3.7,1.3,4.5,3.3
		c0.8,2,0,4-1.8,4.5c-1.2,0.4-1.7-0.1-1.9-1.3c2.3-0.9,3-2,2.3-3.6c-0.6-1.5-2.4-1.9-4.4-0.9c-2.1,1.1-3,3.2-2.5,5.8
		c0.5,2.6,2.6,4.6,5.3,4.8c5.7,0.4,9.6-5,7.7-10.7c-1.4-4.3-5-6.8-9.8-6.8c-9.7,0-19.4-0.1-29.2-0.1c-0.1-1.2-0.2-2.3-0.3-3.5
		c3.3,0,6.6,0,9.9-0.1c4.2,0.1,8.1-2.6,9.4-6.6c2-5.8-1.9-11.3-7.7-10.9c-2.8,0.3-5.1,2.5-5.4,5.4c-0.4,2.4,1,4.7,3.3,5.5
		c1.8,0.7,3.4,0.1,3.9-1.3c0.5-1.4-0.2-2.5-2.2-3.2c-0.1,0-0.1-0.2-0.4-0.6c0.6-0.3,1.5-1,1.8-0.9c0.9,0.6,2.1,1.4,2.3,2.3
		c0.8,2.6-1.6,5.5-4.4,5.5C794.3,131,790.6,130.9,786.9,130.9z"/>
	<path class="st10" d="M765.6,75.8c0.4-5.5,2.2-10.3,6.2-13.9c5.7-5.3,14.6-5,20,0.7c0.3,0.3,0.5,0.6,0.8,0.9
		c5.2,6.4,5.8,15.4,1.6,22.5c-3.1,4.9-7.4,7.8-13.3,7.5c-6.6-0.3-10.9-4.1-13.4-10C766.5,81.1,766.2,78.4,765.6,75.8z"/>
	<path class="st10" d="M774.7,144.3c-1,6.1-4.8,10.4-9.3,14.1c-6.5,5.3-14.4,8.5-22.7,9.3c-1.9,0.1-3.9,0-5.8-0.4
		c-3.1-0.5-5.6-3-6-6.1c-1.1-5.7-0.3-11.3,0.6-17h41.1C773.3,144.2,774,144.3,774.7,144.3z"/>
	<path class="st9" d="M738.6,122.7c1.6-2.3,3.1-4.7,4.9-6.8c4.6-5.5,9.7-10.4,16.3-13.5c2.2-1,4.5-1.6,6.8-1.8
		c2.8-0.3,5,1.2,6.5,3.6c1.8,2.8,2.7,6.1,2.8,9.4c0.2,5.8,0.1,11.5,0.1,17.3c-3.3,0-6.6,0.1-9.9,0.1c-10.6,0-21.3,0-31.9-0.1
		l1.7-3.6c7.6,0,15.2,0,22.8,0c5.3,0.1,9.6-4.2,9.6-9.4c0-0.4,0-0.9-0.1-1.3c-0.2-2.7-2-5-4.5-6c-2.4-1.1-4.8-0.9-6.8,0.8
		c-1.7,1.4-2.5,3.7-2,5.8c0.4,2,2.1,3.5,4.1,3.8c1.2,0.4,2.5-0.3,2.8-1.5c0-0.1,0-0.1,0.1-0.2c0.4-1.4-0.3-2.3-1.6-2.8l-0.9-0.4
		l-0.2-0.5c0.6-0.3,1.3-1,1.9-0.9c1.3,0.1,2.4,1.2,2.5,2.5c0.3,2.7-1.6,5.1-4.3,5.4c-0.2,0-0.4,0-0.6,0
		C752,122.8,745.3,122.7,738.6,122.7z"/>
	<path class="st11" d="M774.7,144.3c-0.7,0-1.4-0.1-2.1-0.1h-41.1l0.5-4.7h42.4c0.3,0,0.6-0.1,0.9-0.1l12.4-0.1
		c9.7,0,19.4,0,29.2,0.1c4.8,0,8.3,2.5,9.8,6.8c1.9,5.7-1.9,11.1-7.7,10.7c-2.6-0.3-4.8-2.2-5.3-4.8c-0.5-2.6,0.4-4.7,2.5-5.8
		c2-1,3.8-0.7,4.4,0.9c0.7,1.6,0,2.6-2.3,3.6c0.2,1.2,0.7,1.6,1.9,1.3c1.9-0.6,2.7-2.5,1.8-4.5c-0.8-2.1-2.3-3.3-4.5-3.3
		c-9.8,0-19.7,0-29.5,0L774.7,144.3z"/>
	<path class="st8" d="M692.9,126.6h-6.7v-4.5c0-3.3,0-6.6,0-9.9c0-2.1-0.9-3-2.9-3c-2,0-3.1,1.1-3.1,3c0,4.7,0,9.5,0,14.4h-6.5
		v-21.9c3.7-0.8,5.1-0.4,5.8,1.3c2-0.6,4-1.5,6-1.8c2.4-0.3,4,1.2,5.1,3.5c1.5-2.2,4-3.5,6.7-3.5c4.9-0.2,7.7,2.5,8.1,7.5
		c0,0.4,0,0.8,0,1.3v13.7h-6.7v-1.7c0-3.9,0-7.8,0-11.7c0-2.9-0.7-3.9-2.8-3.9c-2.2,0-3.1,1.2-3.1,4.1
		C692.9,117.6,692.9,122,692.9,126.6z"/>
	<path class="st11" d="M734.2,131c10.6,0,21.3,0,31.9,0.1c3.3,0,6.6-0.1,9.9-0.1h10.9c3.7,0,7.3,0.1,11,0c2.8-0.1,5.1-2.9,4.4-5.5
		c-0.3-0.9-1.4-1.7-2.3-2.3c-0.3-0.2-1.1,0.5-1.8,0.9c0.3,0.5,0.4,0.6,0.4,0.6c1.9,0.7,2.7,1.8,2.2,3.2c-0.5,1.5-2.1,2-3.9,1.3
		c-2.3-0.8-3.7-3.1-3.3-5.5c0.3-2.8,2.6-5.1,5.4-5.4c5.8-0.4,9.6,5.1,7.7,10.9c-1.3,4-5.1,6.7-9.4,6.6c-3.3,0.1-6.6,0.1-9.9,0.1
		l-11.7-0.1c-0.7,0-1.4-0.1-2.1-0.1c-13.6,0-27.3,0-40.9,0C733.1,134.1,733.6,132.5,734.2,131z"/>
	<path class="st8" d="M612.8,126.6c-1.9,0.1-3.8,0.1-5.7-0.1c-1-0.3-1.8-1-2.3-1.9c-0.6-1.1-0.9-2.2-1.2-3.4c-0.3-1.1-0.8-1.7-2-1.6
		c-2.9,0.1-5.8,0.1-8.7,0c-0.9-0.2-1.8,0.4-2,1.3c0,0.1,0,0.1,0,0.2c-0.2,0.8-0.5,1.6-0.8,2.4c-1,3.1-1.1,3.1-4.3,3.1h-4.1l3-7.9
		c2.8-7.3,5.6-14.6,8.3-21.9c0.2-1,1.2-1.7,2.2-1.5c1.9,0.1,4.2-0.5,5.5,0.4s1.6,3.3,2.3,5.1c3,7.9,6,15.8,9.1,23.7
		C612.3,125.1,612.5,125.8,612.8,126.6z M593.1,114.6h8.3l-4.2-12.4C595.8,106.6,594.5,110.5,593.1,114.6L593.1,114.6z"/>
	<path class="st8" d="M673.9,167.4h-6.5v-17.6c-2.8,0-5.4,0-8,0.1c-0.5,0.2-0.9,0.6-1.1,1.1c-0.1,3.2-0.1,6.5,0,9.8
		c0,1.3,0.6,2.3,2.1,1.7c1.1-0.5,1.8,0,2.3,0.9c0.5,0.8,1,1.6,1.6,2.5c-2.9,2-6,2.5-9.2,1.3c-2.5-1-3.4-3.2-3.4-5.8
		c0-3.8,0-7.6,0-11.4c-0.4-0.1-0.7-0.2-1.1-0.2c-1.1,0-2-0.2-2-1.7c0-1.2-0.3-2.6,1.7-2.6c1.6,0,2.2-0.9,2.3-2.3
		c0-0.2,0.1-0.5,0.2-0.7c1-4.2,1.1-4.2,5.5-3.5v6.2H674L673.9,167.4z"/>
	<path class="st8" d="M579.6,162.9c-4.4,6-15,6.8-21.1,1.7c-6.6-5.6-7.1-17.7-1.1-24.1c5.7-6,16.5-6.2,21.7-0.3
		c-0.8,1.1-1.6,2.2-2.3,3.3c-1,1.3-2.1,0.7-3.1,0c-1.9-1.3-4.2-1.8-6.4-1.4c-2.5,0.3-4.6,2-5.5,4.3c-1.6,3.5-1.6,7.5,0.1,11
		c2,4.1,6.9,5.7,11,3.7c0.4-0.2,0.7-0.4,1-0.6c2.1-1.5,2.2-1.5,4,0.4L579.6,162.9z"/>
	<path class="st8" d="M656.1,126.6h-6.4v-32h6.4v10.9c2.2-0.5,4.2-1.3,6.2-1.4c3.6-0.1,6.2,2.2,6.8,5.8c0.3,2,0.4,3.9,0.4,5.9
		c0.1,3.5,0,7.1,0,10.7h-6.7c0-2.5,0-5,0-7.4s0.1-4.9-0.1-7.4c-0.1-1.9-1.2-2.7-3.1-2.6c-2.1,0.1-3.5,1.3-3.5,3
		C656.1,116.9,656.1,121.7,656.1,126.6z"/>
	<path class="st8" d="M591.6,144.9c6.8,0,11.2,4.5,11.2,11.4s-4.3,11.5-11.1,11.5c-7,0-11.3-4.4-11.3-11.5
		C580.4,149.4,584.8,144.9,591.6,144.9z M587.1,156.5c0.1,1.2,0.3,2.4,0.6,3.5c0.4,1.8,2.1,3.1,4,3c1.8,0,3.5-1,3.8-2.9
		c0.4-2.3,0.4-4.6,0.2-6.9c-0.2-2.1-1.9-3.2-3.8-3.3c-2-0.2-3.8,1.2-4.1,3.2C587.4,154.2,587.2,155.3,587.1,156.5z"/>
	<path class="st8" d="M688.6,144.9c6.8,0,11.2,4.4,11.2,11.4s-4.3,11.5-10.9,11.5c-7,0-11.5-4.4-11.6-11.5
		C677.3,149.5,681.8,145,688.6,144.9z M693.1,156.4c-0.2-1.1-0.2-2.1-0.5-3.2c-0.6-2.2-1.9-3.4-4-3.4c-2.1-0.1-3.9,1.4-4.1,3.5
		c-0.3,2.1-0.3,4.2,0,6.2c0.2,2,2,3.5,4,3.4c2,0,3.5-1.1,4-3.3C692.9,158.6,693,157.5,693.1,156.4L693.1,156.4z"/>
	<path class="st8" d="M703.2,145.2c2.2,0.6,4.9-1.3,5.9,1.8c2-0.7,3.9-1.7,5.9-1.9c4.5-0.5,7.8,2.5,7.9,7.2c0.1,5,0,10,0,15.1h-6.5
		v-1.6c0-4,0.1-7.9-0.1-11.9c-0.1-1.2-0.7-3-1.5-3.3c-1.2-0.5-2.8,0-4.1,0.5c-0.5,0.2-1,1.3-1,2c-0.1,4.2,0,8.4,0,12.6v1.8h-6.6
		L703.2,145.2z"/>
	<path class="st8" d="M720.8,113.1c0.4-3.2-1.4-4.8-4.7-3.8c-0.4,0.1-0.8,0.3-1.1,0.5c-3.2,1.6-4.1,1.2-5.6-2.3
		c3.1-3.4,9.8-4.7,13.8-2.6c2.4,1.1,4,3.5,4.1,6.1c0.2,5.1,0.1,10.2,0.1,15.3c-3.5,0.7-4.3,0.5-5.7-2.1c-2,1.9-4.7,2.9-7.5,2.7
		c-3-0.2-5.2-1.7-5.8-4.2c-0.7-3.1,0.3-5.8,3.2-7S717.5,114,720.8,113.1z M720.7,117.4c-1.6,0.3-3.3,0.7-4.8,1.3
		c-0.8,0.5-1.2,1.4-1.3,2.3c0.1,0.6,1.3,1.4,2,1.5C719.6,122.9,721.1,121.1,720.7,117.4L720.7,117.4z"/>
	<path class="st8" d="M605.6,148.3c3.9-3.2,8.1-4.2,12.8-2.9c2.8,0.6,4.9,3.1,5,5.9c0.3,5.3,0.1,10.7,0.1,16.2
		c-2-0.3-4.6,1.2-5.5-2.4c-2.1,2-4.9,3.1-7.8,2.8c-2.8-0.2-4.9-1.7-5.5-4.3c-0.7-2.7,0.1-5.4,2.7-6.6c2.1-1.1,4.6-1.6,6.9-2.2
		c1-0.2,1.9-0.3,2.9-0.3c0.4-3.6-1.4-5.2-4.6-4.3c-0.4,0.1-0.8,0.3-1.1,0.5C608,152.3,607.5,152.1,605.6,148.3z M617.2,158.3
		c-1.7,0.3-3.3,0.7-4.9,1.3c-0.8,0.5-1.2,1.4-1.2,2.3c0.1,0.6,1.3,1.4,2,1.5C616.1,163.7,617.7,161.9,617.2,158.3z"/>
	<path class="st6" d="M751.1,204.2c-3,0.6-5.4,0.2-7-2.4c-0.9-1.4-2-1.8-3.7-1.6c-4.9,0.8-9.7-2.1-11.3-6.8
		c-1.8-5-0.2-10.8,3.8-13.6c4.3-2.8,10-2.5,13.9,0.9c4.4,3.9,4.6,12,0.4,16.5c-0.4,0.4-0.8,0.7-1.3,1L751.1,204.2z M732.5,189.1
		c0,3.7,1.6,6.4,4.4,7.3c3.6,1.2,7.2-0.3,8.5-3.7c1.6-4.2,0.2-9-3.1-10.6c-0.5-0.3-1.1-0.4-1.7-0.5
		C735.7,180.8,732.5,183.9,732.5,189.1z"/>
	<path class="st11" d="M738.6,122.7c6.7,0,13.4,0.1,20.1,0c2.7,0,4.9-2.2,4.9-4.9c0-0.2,0-0.4,0-0.6c-0.1-1.3-1.1-2.4-2.5-2.5
		c-0.6-0.1-1.3,0.6-1.9,0.9l0.2,0.5l0.9,0.4c1.2,0.5,1.9,1.4,1.6,2.8c-0.2,1.2-1.4,2-2.7,1.8c-0.1,0-0.2,0-0.2-0.1
		c-2-0.3-3.6-1.8-4.1-3.8c-0.6-2.2,0.2-4.4,2-5.8c2-1.8,4.4-1.9,6.8-0.8c2.5,1,4.3,3.3,4.5,6c0.7,5.2-3,10-8.2,10.7
		c-0.4,0.1-0.9,0.1-1.4,0.1c-7.6,0-15.2,0-22.8,0C736.7,125.8,737.7,124.3,738.6,122.7z"/>
	<path class="st8" d="M613,124.2c0.3-0.5,0.6-1,0.9-1.5c1.4-2.2,1.9-2.2,4.2-1.2c1.3,0.5,2.7,0.8,4.1,0.8c0.8-0.2,1.4-0.8,1.6-1.6
		c0.1-0.6-0.7-1.5-1.3-1.8c-1.2-0.5-2.4-1-3.7-1.4c-3.8-1.4-5.4-3.5-5.1-7c0.2-3.2,2.3-5.6,5.9-6.2c3.8-0.7,7.3-0.2,10.3,2.6
		c-0.4,0.7-0.8,1.3-1.2,1.9c-0.7,1.2-1.6,1.3-2.9,0.9c-1.3-0.5-2.7-0.7-4.1-0.8c-0.8,0.1-1.4,0.6-1.7,1.4c-0.1,0.5,0.6,1.5,1.2,1.8
		c1.5,0.8,3.1,1.2,4.6,1.8c2.2,0.9,3.9,2.3,4.1,4.9c0.2,3-0.8,5.3-3.4,6.8C622.8,128,616.5,127.3,613,124.2z"/>
	<path class="st8" d="M634.7,109.2c-3.2-0.3-3.2-0.3-2.9-4c0.4-0.1,0.7-0.2,1.1-0.3c1.7-0.1,2.4-1,2.8-2.7c1.1-4.7-0.2-4.2,5.6-4.1
		v6.4h5.3v4.5h-5.3v10.1c0,2.6,0.1,2.6,2.7,2.4c0.6,0,1.1,0.3,1.4,0.7c0.6,0.9,1.2,1.8,1.7,2.7c-2.4,2.3-7.4,2.8-10.1,1
		c-2-1.4-2.4-3.6-2.4-5.9C634.7,116.4,634.7,112.8,634.7,109.2z"/>
	<path class="st8" d="M586.1,188.7c3.4,1.9,4.1,3.1,3.7,6.1c-0.3,2.7-2.6,4.8-5.3,5c-3.4,0.4-6.8,0.1-10.4,0.1v-21.3
		c3.4,0,6.9-0.2,10.4,0.1c2.5,0,4.5,1.9,4.8,4.3C589.6,185.4,588.9,186.9,586.1,188.7z M578.1,196.7c1.8,0.1,3.5,0.1,5.3,0
		c1.6-0.2,2.7-1.6,2.5-3.2c0.1-1.4-1-2.7-2.4-2.8c-0.1,0-0.1,0-0.2,0c-1.7-0.1-3.5,0-5.2,0V196.7z M578.1,187.8
		c1.8-0.1,3.6-0.3,5.3-0.6c1.4-0.3,1.8-1.5,1.8-2.9c0-1.4-0.6-2.4-1.9-2.7c-1.7-0.3-3.5-0.3-5.2-0.4V187.8z"/>
	<path class="st6" d="M628,167.4v-31.9h6.5v31.9H628z"/>
	<path class="st6" d="M717.9,188.3c-0.7,2.4-1.4,4.7-2.2,7.3l4,4.3c-2.6,0.4-4.9,0.6-6.5-2c-2,1.6-4.6,2.5-7.2,2.5
		c-3-0.1-5.6-1.9-6.3-4.4c-0.8-2.7,0.2-5.4,2.8-7.2c0.3-0.2,0.7-0.5,1.1-0.8c-1.2-2.2-2-4.7-0.6-6.9c0.9-1.2,2.1-2.2,3.5-2.7
		c3.2-1.2,7.4,1,7.5,4.5c-1.5,0.5-2.8,1.3-3.9-0.9c-0.3-0.6-1.9-0.9-2.8-0.7c-1.2,0.3-1.9,1.5-1.6,2.7c0,0,0,0.1,0,0.1
		c0.2,0.9,0.7,1.8,1.3,2.5c1.9,2.2,3.9,4.2,6.1,6.6c0.4-1,0.7-1.8,0.9-2.7C714.8,187.9,714.8,187.9,717.9,188.3z M711.1,195.6
		l-6-5.3c-1.8,1.2-2.4,3.6-1.2,5.4c0,0,0,0.1,0.1,0.1C705.4,197.8,708.5,197.7,711.1,195.6L711.1,195.6z"/>
	<path class="st9" d="M732.6,135.6c13.6,0,27.3,0,40.9,0c0.7,0,1.4,0.1,2.1,0.1l-0.4,3.6c-0.3,0.1-0.6,0.1-0.9,0.1H732L732.6,135.6z
		"/>
	<path class="st8" d="M637.5,177.6h3.5v13.2c0.7-0.4,1.4-0.8,2.1-1.3c0.8-0.8,1.5-1.7,2.1-2.7c1.3-2.3,3.3-2.6,5.9-2.1l-5.4,6.6
		l5.7,8.5c-2.6,0.6-4.5,0.3-5.8-2.2c-0.6-1.3-1.4-2.5-2.3-3.6c-0.7-0.6-1.4-1.1-2.2-1.6v7.5h-3.6L637.5,177.6z"/>
	<path class="st8" d="M645.6,167.4h-6.5v-22h6.5V167.4z"/>
	<path class="st6" d="M617.5,192.4c0,4.8-3,7.9-7.6,7.8s-7.5-3.1-7.4-8.2c0-4.9,2.9-7.8,7.6-7.8S617.6,187.4,617.5,192.4z
		 M613.8,192.3c-0.1-0.8-0.1-1.6-0.3-2.2c-0.2-1.7-1.7-2.9-3.4-2.9c-1.8-0.2-3.3,1.1-3.6,2.8c-0.3,1.5-0.3,3.1,0,4.6
		c0.4,2.1,2.3,3.1,4.3,2.6C612.8,196.8,613.8,195,613.8,192.3L613.8,192.3z"/>
	<path class="st6" d="M619.5,192.3c0-5,2.9-8,7.6-8c4.6,0,7.5,3,7.5,7.9c0,4.9-2.9,8-7.4,8C622.7,200.3,619.6,197.2,619.5,192.3z
		 M630.8,192.1c0-0.2,0-0.6-0.1-1.1c-0.3-2.4-1.5-3.7-3.5-3.8c-2,0-3.4,1.1-3.7,3.5c-0.1,1.3-0.1,2.6,0.1,3.9
		c0.2,1.4,1.4,2.5,2.8,2.7C629.1,197.8,630.8,195.9,630.8,192.1L630.8,192.1z"/>
	<path class="st8" d="M762.4,184.6h3.6c0.1,0.3,0.1,0.5,0.1,0.8c0,4.8,0,9.6,0,14.6c-1.5,0-3.1,0.8-3.5-1.1
		c-1.7,0.5-3.3,1.2-4.9,1.3c-2.4,0.2-4.5-1.5-4.7-3.9c0-0.1,0-0.2,0-0.2c-0.2-3.8-0.1-7.5-0.1-11.4h3.6c0,3.1,0,6.2,0,9.2
		c0,1.3,0,2.8,1.4,3.1c1.2,0.1,2.5-0.1,3.6-0.7c0.5-0.2,0.9-1.4,0.9-2.1C762.4,191.1,762.4,187.9,762.4,184.6z"/>
	<path class="st6" d="M680.1,200h-3.7v-15.4c1.4,0.1,3.1-0.9,3.4,1.5c1-0.6,2-1.1,3.1-1.6c3.6-1,6.4,0.9,6.6,4.7
		c0.2,3.5,0.1,7.1,0.1,10.7h-3.7c0-3,0.1-6.1-0.1-9.2c-0.1-1.1-0.5-2.7-1.2-3c-1-0.4-2.5,0.1-3.6,0.5c-0.5,0.2-0.8,1.2-0.9,1.9
		C680,193.3,680.1,196.6,680.1,200z"/>
	<path class="st6" d="M772.5,192.8c0.4,4.1,3.2,5.7,6.7,3.8c1.7-0.9,2.5-0.5,3.2,1.1c-1.7,2.2-5.4,3.2-8.6,2.3
		c-2.8-0.8-4.8-3.3-4.9-6.2c-0.2-1.9,0.1-3.8,0.8-5.6c1.2-3.1,4.7-4.5,8.2-3.7c2.8,0.6,4.7,3.1,4.9,6.3c0.1,1.4-0.3,2.1-1.8,2
		c-1.5-0.1-2.8,0-4.3,0L772.5,192.8z M779.3,190.4c-0.4-2.5-1.5-3.4-3.4-3.3c-1.9,0.1-3,1.1-3.2,3.3H779.3z"/>
	<path class="st6" d="M788.4,192.8c0,4.2,3.6,5.6,6.5,3.9c1.6-0.9,2.5-0.6,3.3,0.9c-2.4,3.5-8.7,3.6-11.7,0.3
		c-2.1-2.3-2.6-6.7-1.1-9.7c1.4-2.8,4-4.2,7.6-3.8c3.4,0.4,5.9,3.5,5.5,6.9c0,0.1,0,0.3-0.1,0.4c-0.1,0.5-1,1-1.6,1.1
		C794.1,192.8,791.3,192.8,788.4,192.8z M788.6,190.4c0.4,0,0.8,0.1,1.2,0.1h5.3c0-2.2-1-3.4-2.9-3.5
		C790.1,186.9,788.9,188,788.6,190.4L788.6,190.4z"/>
	<path class="st8" d="M801.4,184.6c1.4,0.1,3-0.7,3.4,1.2c1.6-0.5,3-1.3,4.5-1.4c3.1-0.3,5.1,1.6,5.3,4.7c0.1,3.5,0,7.1,0,10.8h-3.6
		c0-3.1,0-6.2,0-9.4c0-2.3-0.8-3.3-2.6-3.3c-1.7-0.1-3.2,1.2-3.4,2.9c0,0.2,0,0.4,0,0.6v9.3h-3.5V184.6z"/>
	<path class="st6" d="M659.2,184.5c0.8-0.1,1.6-0.1,2.3,0.1c0.8,0.2,1.5,0.7,1.9,1.4c1.2,2.6,2.2,5.4,3.5,8.4c1-2.6,1.9-4.8,2.8-7.1
		c1.2-3,1.2-3,4.7-2.6l-3.7,9c-1.2,2.9-2.4,5.7-3.6,8.6c-1.3,3-1.3,3.1-4.8,2.7c0.6-1.5,1.2-2.9,1.9-4.2c0.7-1.1,0.7-2.5,0.1-3.7
		c-1.8-3.9-3.4-7.9-5.1-11.9C659.2,185,659.2,184.7,659.2,184.5z"/>
	<path class="st6" d="M817,198.5c1.2-2.4,1.2-2.3,3.4-1.4c1.1,0.4,2.3,0.5,3.4,0.2c1.4-0.4,1.5-2,0.2-2.7c-1.1-0.5-2.2-1-3.3-1.3
		c-2.3-0.9-3.3-2.2-3.3-4.2c0-2.1,1.4-4,3.5-4.4c2.1-0.7,4.3-0.4,6.2,0.7c0.5,0.4,0.7,1,0.7,1.6c-0.1,0.7-0.8,1.2-1.4,1
		c-0.2,0-0.3-0.1-0.5-0.2c-1-0.4-2-0.7-3.1-0.7c-0.7,0.1-1.4,0.6-1.6,1.3c-0.1,0.5,0.6,1.4,1.2,1.7c1.1,0.5,2.2,0.9,3.3,1.3
		c1.7,0.7,2.8,1.8,2.8,3.7c0,2-0.9,3.7-2.7,4.5C822.6,200.9,819.8,200.4,817,198.5z"/>
	<path class="st8" d="M653.5,177.6h3.4V200h-3.4V177.6z"/>
	<path class="st6" d="M601.9,184.7c-0.1,0.7-0.2,1.3-0.2,1.9c0,1.1-0.5,1.6-1.7,1.4c-2.2-0.2-3.6,1.1-3.6,3.3c0,2.8,0,5.6,0,8.6
		h-3.7v-15.2c2.8-0.5,2.8-0.5,3.6,1.9C597.7,184.8,599.3,183.6,601.9,184.7z"/>
	<path class="st8" d="M670.8,143c-2.1,0.1-3.8-1.5-3.9-3.6c0-0.1,0-0.1,0-0.2c-0.1-2.1,1.6-3.9,3.8-4c0,0,0.1,0,0.2,0
		c2.2,0,4,1.7,4,3.9c0,0,0,0,0,0c0,2.1-1.7,3.8-3.8,3.8C671,143,670.9,143,670.8,143z"/>
	<path class="st8" d="M642.3,143.1c-2.2,0-3.9-1.7-3.9-3.9c0-2.2,1.7-3.9,3.9-3.9c2.2,0,3.9,1.7,3.9,3.9
		C646.2,141.3,644.5,143.1,642.3,143.1z"/>
	<path class="st6" d="M562.4,184.7c0,2.8-1.8,5-4.2,5.1c-2,0-3.1-1.3-3.1-3.5c0-2.8,1.9-5.1,4.2-5.1
		C561.2,181.2,562.4,182.6,562.4,184.7z M557,186.7c0.2,0.2,0.8,1.3,1.4,1.3c1.7-0.1,2-1.6,2.1-3c0.1-0.9,0-2-1.2-2.2
		C558.1,182.7,557.1,184.3,557,186.7z"/>
	<path class="st6" d="M569.2,178.1l-3.2,3.1l2.1,0.4l0.3,0.5l-2,1.4c-0.3,1.9-0.5,4.1-0.9,6.3c-0.3,1.6-0.5,1.8-2.1,1.8
		c0.3-2.3,0.5-4.6,0.8-6.9c0-0.3,0.2-0.7,0.1-0.9c-1.1-1.3-0.1-2.2,0.4-3.4C565.6,178.3,566.3,177.7,569.2,178.1z"/>
	<path class="st12" d="M775.3,139.4l0.4-3.6l11.7,0.1c0.1,1.1,0.2,2.3,0.3,3.5L775.3,139.4z"/>
	<path class="st12" d="M593.1,114.6c1.4-4.1,2.7-8,4.1-12.4l4.2,12.4H593.1z"/>
	<path class="st12" d="M587.1,156.5c0.1-1.1,0.3-2.3,0.5-3.4c0.4-2,2.1-3.4,4.1-3.2c2,0.1,3.6,1.2,3.8,3.3c0.2,2.3,0.2,4.6-0.2,6.9
		c-0.3,1.9-2,2.9-3.8,2.9c-1.9,0.1-3.5-1.2-4-3C587.4,158.8,587.2,157.7,587.1,156.5z"/>
	<path class="st12" d="M693.1,156.4c-0.2,1.1-0.2,2.2-0.5,3.2c-0.5,2.2-2,3.4-4,3.3c-2,0.1-3.8-1.4-4-3.4c-0.3-2.1-0.3-4.2,0-6.2
		c0.2-2.1,2-3.6,4.1-3.5c2.1,0,3.5,1.1,4,3.4C692.9,154.3,693,155.4,693.1,156.4z"/>
	<path class="st12" d="M720.7,117.4c0.4,3.7-1,5.5-4.1,5.1c-0.8-0.1-2-0.9-2-1.5c0-0.9,0.5-1.8,1.3-2.3
		C717.4,118.1,719,117.7,720.7,117.4z"/>
	<path class="st12" d="M617.2,158.3c0.5,3.6-1.1,5.5-4.1,5.1c-0.8-0.1-2-0.9-2-1.5c0-0.9,0.5-1.8,1.2-2.3
		C613.9,159,615.5,158.6,617.2,158.3z"/>
	<path class="st12" d="M732.5,189.1c0-5.2,3.3-8.3,8.1-7.5c0.6,0.1,1.2,0.3,1.7,0.5c3.3,1.6,4.7,6.4,3.1,10.6
		c-1.3,3.4-4.9,5-8.5,3.7C734.1,195.4,732.4,192.8,732.5,189.1z"/>
	<path class="st7" d="M578.1,196.7v-6.1c1.8,0,3.5-0.1,5.2,0c1.5,0,2.6,1.2,2.6,2.7c0,0.1,0,0.1,0,0.2c0.2,1.6-1,3-2.5,3.2
		C581.6,196.8,579.8,196.8,578.1,196.7z"/>
	<path class="st12" d="M578.1,187.8v-6.5c1.7,0.1,3.5,0.1,5.2,0.4c1.3,0.2,1.9,1.3,1.9,2.7c0,1.4-0.4,2.6-1.8,2.9
		C581.7,187.5,579.9,187.7,578.1,187.8z"/>
	<path class="st12" d="M711.1,195.6c-2.7,2.1-5.7,2.2-7.1,0.2c-1.2-1.8-0.7-4.2,1.1-5.4c0,0,0.1,0,0.1-0.1L711.1,195.6z"/>
	<path class="st12" d="M613.8,192.3c0,2.7-1,4.5-2.8,4.9c-2.1,0.5-4-0.5-4.3-2.6c-0.3-1.5-0.3-3.1,0-4.6c0.2-1.8,1.8-3,3.6-2.8
		c1.7,0,3.1,1.2,3.4,2.9C613.7,190.8,613.7,191.5,613.8,192.3z"/>
	<path class="st12" d="M630.8,192.1c0,3.9-1.7,5.7-4.3,5.2c-1.4-0.2-2.6-1.3-2.8-2.7c-0.2-1.3-0.3-2.6-0.1-3.9
		c0.3-2.5,1.6-3.6,3.7-3.5s3.2,1.3,3.5,3.8C630.8,191.4,630.8,191.9,630.8,192.1z"/>
	<path class="st12" d="M779.3,190.4h-6.6c0.2-2.2,1.3-3.3,3.2-3.3C777.9,186.9,778.9,187.9,779.3,190.4z"/>
	<path class="st12" d="M788.6,190.4c0.3-2.3,1.6-3.5,3.6-3.4c1.9,0.1,2.8,1.2,2.9,3.5h-5.3C789.4,190.5,789,190.4,788.6,190.4z"/>
	<path class="st12" d="M557,186.7c0.1-2.4,1.1-4,2.2-3.9c1.3,0.1,1.3,1.2,1.2,2.2c-0.1,1.4-0.4,2.9-2.1,3
		C557.8,188.1,557.2,187,557,186.7z"/>
</g>
</svg>
