<?xml version="1.0" encoding="utf-8"?>
<!-- Generator: Adobe Illustrator 23.1.1, SVG Export Plug-In . SVG Version: 6.00 Build 0)  -->
<svg version="1.1" id="Layer_1" xmlns="http://www.w3.org/2000/svg" xmlns:xlink="http://www.w3.org/1999/xlink" x="0px" y="0px"
	 viewBox="0 0 90.31 77.87" style="enable-background:new 0 0 90.31 77.87;" xml:space="preserve">
<style type="text/css">
	.st0{fill:#606D8A;stroke:#000000;stroke-width:0.5;}
	.st1{fill:#DEE5E8;stroke:#000000;stroke-width:0.5;}
	.st2{fill:#AFBECE;stroke:#000000;stroke-width:0.5;}
	.st3{fill:#F1F9FA;stroke:#000000;stroke-width:0.5;}
	.st4{fill:#D6862F;stroke:#000000;stroke-width:0.5;}
	.st5{fill:#F5DBA8;stroke:#000000;stroke-width:0.5;}
</style>
<g id="Bowl">
	<path class="st0" d="M81.48,66.29c-1,1.2-1.9,2.2-2.9,3.4c-0.5,0.5-1.2,1.2-1.7,1.7c-0.2,0.2-0.3,0.3-0.7,0.5c-0.3,0.3-0.7,0.7-1,1
		c-0.2,0.2-0.3,0.3-0.5,0.5s-0.3,0.3-0.7,0.5c-1.2,1-2.2,1.7-2.9,2c-2.2,1-4.1,1.4-6.1,1.5c-0.8,0.2-1.5,0.2-1.9,0.2
		c-4.6,0-8.5,0-11.7,0c-2.4,0-2.4,0-4.1,0c-3.9-0.2-7.6,0.3-11.5-0.2c-2.4-0.3-1.9,0-3.2-0.2c-8.1-0.2-10.1,0.5-12.7-1
		c-0.3-0.2-1.4-1.4-3.5-3.4c-2.5-2.5-5.2-4.9-7.4-7.8c-2.4-3.2-4.2-6.8-5.6-10.6c-1.5-4.2-2.5-8.6-2.9-13c-0.5-4.7-0.2-9.5,1.2-14
		c0.5-2,1-4.1,1.5-6.1c0.5-1.4,1-3,2-4.1c1.2-1,2.9-0.2,4.4-0.3c1.5,0.2,3.2,0.2,4.7,0.3c0.3,0,0.5,0,0.8,0c1.2,0.3,2.4,0.3,3.7,0.2
		c1.2,0,2.4,0,3.7,0c3.2,0.5,6.6,0.3,9.8,0.2c1.4,0,2.5,0,3.9,0c1.2,0.3,2.4,0.3,3.4,0.3c6.8,0.2,13.4,0,20.1-0.2
		c5.9-0.2,11.8-0.3,17.7-0.3c0.5,0,1-0.2,1.5-0.2c0.7-0.2,1.5-0.2,2.2-0.3c0.3,0,0.8,0,1.2-0.2c0.2,0,0.3,0,0.5,0
		c0.7,0.2,1.5,0,2.2,0c0.2,0,0.5,0.2,0.5,0.3v0.2c1.2,2.4,2.2,4.9,2.9,7.6c0.5,2,0.3,2.4,1,4.4c0.2,0.3,0.3,1.4,0.5,2.9
		c0,0.2,0,0.3,0,0.3c0.3,4.6,0.3,9-0.5,13.5c-0.2,0.8-0.5,1.5-0.2,2.4c0,0.2,0,0.3-0.2,0.5c-0.2,0.7-0.5,2.7-2.2,6.9
		c-0.5,1.2-0.8,2.2-1.5,3.5c-0.3,0.7-0.7,1.4-1.2,2.2C83.58,63.49,82.38,65.09,81.48,66.29z M31.48,75.49c0.8-0.3,1.5,0.2,2.4,0
		c1.5,0.2,3,0.3,4.7,0.3c4.2,0,8.3,0,12.5,0c1.2-0.2,2.9-0.3,4.9-0.3c3.5-0.2,4.9-0.3,7.4-0.3c1.9,0,3.9,0,5.6-1
		c4.2-2.9,7.9-6.4,10.6-10.8c2.9-4.6,5.1-9.5,6.6-14.9c1.5-5.7,1.7-11.5,1-17.2c-0.5-4.1-1.7-8.1-3.4-11.8c-0.2-0.5-0.5-0.8-1.2-0.8
		c-2.2,0-4.4-0.2-6.8,0.2c-4.1,0-8.1,0-12.3,0.2c-0.2,0-0.3,0-0.5,0c-9.5,0-19.1,0-28.6,0c-1.4,0-2.9,0-4.2,0
		c-4.9-0.2-9.8-0.2-14.9-0.3c-1.4-0.2-2.7,0.2-4.1-0.2c-1.5-0.3-2.5,0.2-2.9,1.7c-1.2,3.7-2.5,7.4-3.2,11.3
		c-0.3,2.7-0.8,5.4-0.7,8.3c0.3,4.9,1.4,9.6,3,14.4c1.7,4.4,4.2,8.5,6.8,12.3c1.9,3.2,5.1,5.1,7.8,7.4c0.5,0.3,1.2,0.7,1.7,0.8
		C26.58,75.19,28.98,75.69,31.48,75.49z"/>
	<path class="st1" d="M9.58,17.39c-2.4,0.3-4.1,1.4-5.4,2.2c0.5-4.7,2.2-7.3,3.7-8.8c0.3-0.3,4.9-5.9,6.3-6.9
		c0.3-0.3,0.5-0.8,0.7-1.4c0-0.5,0.2-1,0.8-1.2c2.2,0.5,4.4,0.8,6.6,1.4c-0.2,0.5-0.8,0.2-0.8,0.8c0.2,0.3,0.2,0.8,0.3,1.2
		c1,0.5,2.2,0,3.4,0.5c-0.5,0.5-1,0.3-1.4,0.3c-1.4-0.2-2.5,0.2-3.2,1.5c0,0.2-0.3,0.3-0.3,0.3c-2,1.7-4.1,3.4-5.6,5.7
		c-0.5,0.8-0.7,1.7-1.2,2.5c0,0,0,0,0,0.2c0,0.5,1.5,1,1.5,1.2C14.58,17.39,11.88,17.09,9.58,17.39z"/>
	<path class="st0" d="M19.98,0.89c15-0.8,29.9-0.8,45-0.3c0.2,0,0.2,0,0.3,0c2.5,0,5.1,0.2,7.4,0.3c0,0.2,0,0.3,0,0.5
		c-1.4,0-2.7-0.2-3.9-0.2c-0.3,0-0.7,0-1.2,0c-1.2,0-2.4,0-3.7,0c-13.9-0.3-27.7-0.2-41.7,0c-0.8-0.2-1.7,0-2.4,0
		C19.98,1.19,19.98,0.99,19.98,0.89z"/>
	<path class="st2" d="M65.28,0.49c-0.2,0-0.2,0-0.3,0C65.18,0.49,65.28,0.49,65.28,0.49z"/>
	<path class="st3" d="M63.08,18.89c0,0,0.2,0,0.3,0c1.9,0,11.3-0.2,19.9-0.3c0.8,2,1.5,3.9,2,5.2c1.9,5.2,2,9.5,2,10.8
		c0.2,2,0.3,4.4-0.2,7.3c-0.5,3.2-1,3-2.2,7.4c-1.5,5.6-1.2,8.3-3.4,9.5c-0.8,0.5-1.5,0.5-2.4,1.4c-1,1.2-0.3,2-1.4,3.7
		c-0.3,0.7-0.8,1.2-2,2.5c-0.7,0.7-1.2,1.4-1.5,1.7c0,0-0.2,0.3-0.2,0.5c-1.9,3.9-6.9,6.3-10.6,6.3c-0.3,0-0.7,0-1.4,0
		c-2.4,0-4.1,0.3-4.9,0.5c-1,0.2-3.2,0.2-7.9,0.3c-2.5,0.2-4.6,0.2-5.6,0.2c-6.4,0.2-9.6,0.2-10.5,0c-4.6-1-7.8-3.5-9.8-5.2
		c-1.9-1.5-3.4-3-4.4-4.2c-1.2-1.2-2.7-3-4.2-5.4c-1.9-2.9-2.9-5.4-3.7-7.8c-1.4-3.4-2-6.4-2.4-8.1c-1.4-6.9-0.8-21.3,6.9-26.4
		c1.9-1.2,2-0.5,15.7-0.3c8.6,0,25-0.2,27.9,0C59.18,18.79,60.88,18.89,63.08,18.89z"/>
	<path class="st3" d="M14.78,17.39c-0.8-0.5-1.2-1-1.4-1.5c-0.8-2.2,1.9-5.6,6.6-8.5c0.5-0.8,1.2-1.9,1.7-2.7
		c0.5-0.2,1.2-0.3,1.9-0.3c0.7-0.2,1.2-0.2,1.9-0.3c1.4,0,2.5,0.3,3.7,0.3c0.3,0,0.7,0,1,0c2.4,0.2,4.7,0.3,7.1,0.5
		c2.7-0.5,5.4-0.2,8.1-0.3c0.3,0,0.7-0.2,1.2-0.2c0.8,0,1.9,0.2,2.7,0.2c2.4-0.2,4.7-0.2,7.1-0.3c0.8,0,1.9,0,2.7,0
		c0,0,0.7,0,1.2,0.5c0.2,0.2,0.2,0.5,0.2,0.5c0.7,1,1.4,1,2,0.8c2.2-0.3,4.4,0.2,6.3,1c2,0.8,3.5,2.7,5.2,4.1
		c0.2,0.2,0.2,0.2,0.2,0.3c1.5,1,2.5,2.2,2.9,3.2c0.2,0.7,0.2,1.4,0.2,1.4c0,0.5-0.2,0.8-0.3,1.2c-0.8,0-2.2,0.2-3.7,0.3
		c-4.6,0.3-8.5,0.3-20.3,0.3c-6.6,0-9.3-0.2-16.1-0.2c-1.7,0-3,0-3.9,0c-1.4,0-2.5,0-3.9,0c-3.2,0-6.4,0-9.6-0.2
		c-0.5-0.2-1.2-0.2-1.9-0.2C16.68,17.09,15.58,17.19,14.78,17.39z"/>
	<path class="st2" d="M15.58,18.79c-0.8,2.2-2.2,4.1-3.4,5.9c-0.5,0.8-0.7,1.7-1,2.5c-1.2,3.5-2.7,7.3-2.5,11.2
		c0,3.4,0.7,6.8,1.5,10.1c1.4,5.6,3.4,10.8,6.9,15.2c2,2.5,4.2,5.1,6.9,6.9c1.9,1.4,3.4,2.9,5.4,3.9c0.5,0.2,0.8,0.3,1.4,0.3
		c0.7,0,0.7,0.2,0.7,0.2c0,0.2-1.9,0.3-3.5,0.2c-0.5,0-2-0.2-3.5-0.7c-3.4-1-5.7-2.9-6.4-3.5c-7.1-5.7-10.6-18.3-11.5-21.3
		c-1.4-4.9-1.5-8.3-1.7-10.1c0-1.9,0.2-4.1,0.7-8.3c0,0,1-9.1,3.7-12.2c0.5-0.5,1.2-0.8,1.2-0.8c0.7-0.2,1.4-0.2,1.7-0.2
		C12.88,18.89,14.28,18.39,15.58,18.79z"/>
	<path class="st2" d="M63.48,75.19c0-0.5,0.2-0.7,0.7-1c3.7-2,7.1-4.7,9.8-8.1c1.5-1.9,3-3.9,4.2-5.9c1.9-3.4,3.7-6.8,4.7-10.6
		c1-3.7,1.2-7.4,1.5-11.2c0.2-2.7-0.7-5.4-1.2-7.9c-0.8-3.7-2.7-6.9-3.9-10.5c-0.3-0.7-0.8-1.2-1.7-1c-0.5,0-1.2,0-1.7,0
		c2.2-0.3,4.4-0.2,6.8-0.2c0.5,0,0.8,0.3,1.2,0.8c1.5,3.9,2.7,7.8,3.4,11.8c0.8,5.7,0.5,11.5-1,17.2c-1.4,5.2-3.5,10.3-6.6,14.9
		c-2.7,4.4-6.4,8.1-10.6,10.8C67.38,75.39,65.28,75.19,63.48,75.19z"/>
	<path class="st1" d="M76.48,17.09c0-0.3,0.2-0.5,0.3-0.7c0.7-0.5,0.5-1-0.2-1.4c-1.4-0.7-2-2-2.9-3.2c0-0.2-0.2-0.3-0.2-0.3
		c-1.7-1.4-3.2-3-5.2-4.1c-2-0.8-4.1-1.4-6.3-1c-1.2-0.5-1.7-1-1.7-1.5c0-1.2,2.9-2.4,8.6-3.7c1.4,0,2.7,0.2,3.9,0.2
		c0.3,0.3,0.7,0.7,0.8,1.2c-0.2,1,0,2.4,0.8,3c0.3,0.2,0.5,0.2,0.7,0.3c1.4,0.8,2.5,2,3.5,3.4c1.2,1.5,2,3.2,3.5,4.4
		c0.3,1.2,0.5,2.2,0.8,3.4c-0.8,0-1.5,0.2-2,0.2c-2.2,0.2-2.9,0.2-3.2,0C77.28,17.19,76.78,17.09,76.48,17.09z"/>
	<path class="st2" d="M83.38,17.09c-0.2-0.3-0.3-0.8-0.5-1.4c-0.3-0.7-1.4-3.4-3.9-6.4c-0.8-1-2-2.2-3.5-3.4c-0.7,0-1.2,0-1.9,0
		c-0.5-0.5-1-0.8-1.4-1.4c0-1,0-1.7,0-2.2c0-0.7-0.2-1,0.2-1.4c0.2-0.2,0.5-0.2,1.2-0.3c0.5,0,1-0.2,1.4-0.2
		c0.3,1.5,1.2,3.7,2.9,5.7c1,1.4,2,1.9,2.9,2.7c2.2,2.4,3.9,5.1,4.9,8.1C84.78,17.09,84.08,17.19,83.38,17.09z"/>
	<path class="st3" d="M72.08,1.49c-1.4,0.3-2.9,0.8-4.4,1.2c-2.5,0.7-4.9,1.4-7.4,2c-2.7,0-4.9,0.2-6.3,0.2
		c-16.4,0.5-22.1,0.7-29.7-0.8c-1.2-0.2-2.2-0.5-2.7-0.7c0-0.3-0.2-0.8-0.7-1.2s-1-0.3-1.4-0.3c-1.7,0-3.4-0.5-3.4-0.7
		s1.5-0.2,6.8-0.2c0.8,0,2.2,0,3.9,0c2,0,10.5-0.2,17.1-0.2c4.9,0,11.8,0,20.8,0.2c1,0,2.4-0.2,3.7,0S70.88,1.39,72.08,1.49z"/>
</g>
<g id="Suffy_1_">
	<path class="st4" d="M63.18,52.99c-0.1,0-0.3-0.1-0.5-0.1c-0.3-0.1-0.5-0.4-0.9-0.1c-0.4,0.3,0,0.7,0,0.9c0,0.5,0.5,1.1-0.4,1.4
		c-0.1,0-0.3-0.1-0.4-0.3c-0.4-0.3-0.7-0.4-0.8-0.7c0-0.1,0-0.4,0-0.4c-1.2-0.3-2-1.2-3-1.9c-0.7-0.5-1.5-0.7-2.2-0.4
		c-0.4,0.1-0.8,0.1-1.1,0.1c-1.1,0.1-1.4,0.4-1.4,1.6c0,0.7-0.7,1.5-0.1,2.2c-0.1,0-0.4,0.1-0.5,0.1c0.1,0.3,0.1,0.4,0,0.5
		s-0.3,0.1-0.3,0.1c-0.3-0.1-0.4-0.1-0.7-0.3c-0.1-0.4-0.5-0.9-0.7-0.8c-0.4,0.4-0.9,0.7-0.9,1.5c0,1.1-0.5,1.8-1.5,2.3
		c-0.7-0.8-0.5-1.9-0.5-2.8c0-0.5,0.3-1.1-0.4-1.4c0.3-1.2,1.2-2.2,1.2-3.5c-0.8,0.7-1.5,1.6-2.6,1.9c-0.1,0.1-0.3,0.1-0.4,0.3
		c-0.4,0-0.8,0-1.2,0.1c-0.3,0-0.7,0.1-0.4,0.4c0.9,1.2,0.5,2.6,0.1,3.8c-0.4,0-0.4,0.3-0.4,0.5c-0.1,0.5,0,1.1-0.4,1.5
		c-1.1-0.8-0.8-2.3-1.5-3.2c0.1,1.2,0.3,2.4,0.5,3.6c0,0.1,0,0.1-0.1,0.3c-0.3-1.1-0.9-0.7-1.5-0.4c0-2-0.5-4.2,0-6.2
		c0-0.1,0-0.4,0-0.5c-0.1-0.1-0.1-0.1-0.3-0.3c-0.1,0-0.1-0.1-0.3-0.1c-0.8-0.8-1.8-0.1-2.7-0.3c-0.7-0.1-1.5-0.1-1.9,0.8
		c-0.1,0.4-0.5,0.3-0.9,0.3v-0.1c0.3-1.2,0.4-2.4,0.5-3.6c0-0.4-0.1-0.9-0.7-0.9c-0.4-0.4-0.8-0.8-1.4-1.2c-0.8-0.9-1.6-1.9-2.4-2.7
		c-0.3-0.4-0.4-0.8-0.8-1.1c-1.1-1.2-1.5-2.4-0.7-3.9c0.1,0,0.1-0.1,0.3-0.1c0.8-0.7,1.6-1.5,2.6-1.9c0.9-0.5,2.2-0.7,3.2-0.9
		c0.3,0,0.4,0,0.7,0c0.5,0,1.1,0,1.6,0c0.4,0,0.9,0,1.1,0.4c0.4,1.2,1.5,0.8,2.3,1.1c1.4,0.3,2.6,0.1,3.6-0.5c1.5-0.9,3.2-1.2,5-1.2
		l0.1,0.1c0,0.7-0.8,0.1-0.9,0.5c0.8,0.5,0.8,0.9-0.1,1.5c0.3,0.1,0.9,0.1,0.5,0.7c-1.1,1.1,0,1.6,0.5,2c1.2,0.7,1.8,1.9,2.3,2.8
		c0.7,1.4,1.8,1.9,3,2.4c0.1,0.1,0.4,0.1,0.5,0.3c0.3,0.3,0.5,0.4,0.9,0.4c0.8,0.4,1.2,0.5,1.4,0.5c0.3,0.1,0.7,0.1,1.4-0.3
		c0.3,0,0.5,0,0.8-0.1s0.4-0.3,0.5-0.3s0.1-0.1,0.3-0.1c0.1-0.1,0.3-0.1,0.4-0.3c0.1-0.1,0.1-0.1,0.3-0.3c0.8-0.3,1.1-1.2,1.9-1.5
		c-0.1,0.4,0.7,0.5,0.4,0.8c-0.4,0.5-0.3,1.2,0,1.6c0.4,0.7,1.1,0.7,1.6,0.1c0.3-0.3,0.5-0.4,0.9-0.5c0.5-0.3,0.4,0.3,0.4,0.5
		c-0.1,0.1-0.3,0.3-0.4,0.4c-0.1,0.1-0.3,0.3-0.5,0.3c-0.5,0.3-1.2,0.5-2.6,0.8c-0.8,0.1-1.8,0.1-2.7,0.3c1.6,0.7,3,1.8,4.3,2.8
		l0.1,0.1c0.1,0.1,0.3,0.3,0.5,0.3c0,0.3-0.1,0.3-0.1,0.4C64.28,53.39,63.88,53.29,63.18,52.99z M33.18,39.79
		c-0.5,0-0.7,0.4-0.7,0.9s0.3,0.8,0.8,0.8s0.5-0.5,0.5-0.8C33.88,40.29,33.88,39.79,33.18,39.79z"/>
	<path class="st5" d="M43.48,57.59c0.5-1.2,0.8-2.6-0.1-3.8c-0.3-0.3,0.3-0.4,0.4-0.4c0.4-0.1,0.8-0.1,1.2-0.1
		c0.3-0.1,0.8-0.3,1.2-0.5c1.1-0.7,1.6-1.6,1.8-1.5c0.1,0,0,0.4-0.1,0.8c-0.1,0.5-0.3,0.8-0.4,1.1c-0.3,0.5-0.4,1.1-0.7,1.5
		c0.1,0,0.3,0.1,0.3,0.3c0.3,0.3,0,0.8,0.1,1.1c0,0.9-0.1,2,0.5,2.8c0.8-0.5,1.5-1.2,1.5-2.3c0-0.8,0.5-1.1,0.9-1.5
		c0.1-0.1,0.5,0.4,0.7,0.8c-0.1,0.5-0.7,0.9-0.4,1.6l0,0c-0.8,0.5-1.1,1.4-1.1,2.3c0,0.1,0,0.1,0,0.3c-0.5,0-0.9,0.3-0.8,0.9
		c-0.5,0.7-1.2,1.5-1.8,2.2c-0.5,0.7-0.1,1.5-0.4,2c-0.3,0.4,0.1,1.4-0.7,1.2c-0.5-0.1-0.5-1.2-0.5-1.4c0.4-0.9-0.3-1.2-0.7-1.8
		c-0.8-1.1-1.5-2.2-1.9-3.4c0.4-0.4,0.4-0.9,0.4-1.5C43.08,57.89,43.18,57.69,43.48,57.59C43.58,57.69,43.58,57.69,43.48,57.59
		C43.58,57.69,43.58,57.69,43.48,57.59C43.58,57.69,43.58,57.69,43.48,57.59z"/>
	<path class="st5" d="M54.28,46.69c-1.2-0.5-2.3-1.1-3-2.4c-0.5-1.1-1.1-2.2-2.3-2.8c-0.5-0.3-1.6-0.9-0.5-2
		c0.5-0.5-0.3-0.4-0.5-0.7c0.9-0.5,1.1-0.9,0.1-1.5c0.3-0.4,0.9,0.1,0.9-0.5c0.9-0.1,1.9,0,2.7,0.7c-0.5,0.5-1.2,0.4-1.4,1.4
		s0.1,1.5,0.7,2.2c0.8,0.9,1.6,2,1.5,3.5c0,0.7,0.3,0.9,0.8,1.4C53.78,45.79,54.18,46.09,54.28,46.69z"/>
	<path class="st5" d="M51.18,56.39c0.3-0.4,0.5-0.7,0.7-1.1c0.1,0,0.1,0,0.3,0c0.3-0.1,0.1-0.7,0.1-1.2c0-0.3,0.1-0.5,0.3-1.1
		c-0.1-1.1,0.3-1.5,1.4-1.6c0.3,0,0.7,0,1.1-0.1c0.7-0.3,1.5-0.1,2.2,0.4c0.9,0.7,1.8,1.6,3,1.9c0,0,0,0.3,0,0.4
		c-0.7,0.5-1.1-0.4-1.6-0.3c-0.1,0-0.1,0-0.3,0c-0.5-0.1-1.1-0.3-1.5-0.7s-0.7-0.1-0.9,0.3c-0.3-0.1-0.4-0.1-0.7-0.3
		c0-0.3-0.1-0.4-0.3-0.4s-0.3,0.1-0.5,0.4c-0.4,0-0.7,0-0.7,0.1c-0.3,0.4,0.4,1.4,0,1.8c-0.1,0.1-0.3,0.1-0.4,0.3c0,0,0,0-0.1,0
		c0,0,0,0,0.1,0c0.3,0.7-0.1,1.4,0,2c-0.3-0.1-0.7-0.1-0.9-0.3C51.88,56.79,51.48,56.49,51.18,56.39z"/>
	<path class="st5" d="M66.08,47.69c0-0.3,0.1-0.7-0.4-0.5c-0.3,0.1-0.7,0.3-0.9,0.5c-0.7,0.5-1.2,0.5-1.6-0.1
		c-0.3-0.4-0.4-1.1,0-1.6c0.3-0.3-0.5-0.4-0.4-0.8c0.1-0.5,0.5-0.5,0.9-0.7c0.5,0.3,1.1,0.5,1.5,0.9c0.3,0.3,0.5,0.3,0.9,0.3
		c1.2-0.4,2.3-1.1,2.7-2.4h0.1l0,0c0,0.5-0.1,1.1-0.4,1.5C67.78,45.69,66.98,46.69,66.08,47.69z"/>
	<path class="st5" d="M33.98,53.69c0.3,0,0.8,0.1,0.9-0.3c0.4-0.9,1.4-0.9,1.9-0.8c0.9,0.3,1.9-0.5,2.7,0.3c0,0.1,0,0.1,0,0.3
		c-0.1,0.1-0.3,0.3-0.4,0.4c-0.1,0.1-0.1,0.1-0.3,0.3c-0.1,0-0.3,0-0.4,0c-0.4,0.1-0.8,0.1-1.4,0.3c-0.1,0.1-0.1,0.1-0.3,0.3
		c-0.1,0-0.1,0-0.3,0c-0.5,0-0.7-0.1-0.9-0.7c-0.1,1.2-0.4,2.2-1.8,1.9C33.88,54.79,33.88,54.19,33.98,53.69z"/>
	<path class="st5" d="M61.48,54.89c0.8-0.3,0.4-0.8,0.4-1.4c0-0.3-0.4-0.7,0-0.9c0.3-0.3,0.7,0,0.9,0.1c0.4,0.1,0.7,0.3,0.9,0.5
		c-0.3,0.3-1.1,0.1-0.5,0.8c0.8,1.1,0.3,1.5-0.7,1.9l0,0c-0.1-0.4-0.4-0.7-0.9-0.7C61.48,55.19,61.48,54.99,61.48,54.89z"/>
	<path class="st5" d="M40.18,59.89c0.4-0.1,0.7-0.1,0.8-0.1s0.7,0,0.7,0.3c0,0,0,0.1-0.1,0.3c-0.3,0.3-0.5,0.7-0.7,1.1
		c-0.3,0.4-0.4,0.8-0.4,1.1c-0.1-0.3-0.3-0.8-0.3-1.2C40.08,60.69,40.08,60.19,40.18,59.89z"/>
	<path class="st0" d="M33.18,39.79c0.7,0,0.7,0.5,0.7,0.9c0,0.3,0,0.8-0.5,0.8s-0.8-0.3-0.8-0.8
		C32.68,40.19,32.78,39.79,33.18,39.79z"/>
</g>
</svg>
