<?xml version="1.0" encoding="utf-8"?>
<!-- Generator: Adobe Illustrator 23.0.4, SVG Export Plug-In . SVG Version: 6.00 Build 0)  -->
<svg version="1.1" id="Layer_1" xmlns="http://www.w3.org/2000/svg" xmlns:xlink="http://www.w3.org/1999/xlink" x="0px" y="0px"
	 viewBox="0 0 901.6 432" style="enable-background:new 0 0 901.6 432;" xml:space="preserve">
<style type="text/css">
	.st0{fill:#005596;}
	.st1{clip-path:url(#SVGID_2_);fill:#FFFFFF;}
	.st2{clip-path:url(#SVGID_2_);}
	.st3{fill:#C41230;}
	.st4{fill:#FFFFFF;}
	.st5{fill:#008265;}
	.st6{fill:#B81237;}
</style>
<g>
	<path class="st0" d="M42.5,238.8l2.7-4.3h2.4l0.8,17.7h-2.9c-1.8-7.8-6.7-15.2-15.4-15.2c-6.7,0-10,3.7-10,8.1
		c0,3.7,2.2,6.6,7.7,8.1c0,0,7.6,2,13.5,3.6c4,1.1,9.4,5.2,9.4,13.7c0,8.8-6.5,14.6-16.5,14.6c-4.7,0-9.9-1.2-14.3-5.2l-3,4.7h-2.5
		l-0.4-19.1l2.9-0.2c1.4,8.9,6.8,16.8,17.1,16.8c7.5,0,11.3-4.4,11.3-8.9c0-4.5-1.7-7.6-7.5-9.1c0,0-7.8-1.9-12.8-3.3
		c-4.2-1.2-10-4.2-10-12.7c0-9.3,6.5-14,15-14C33.5,234,38.4,234.8,42.5,238.8z"/>
	<path class="st0" d="M64.1,238.8v13.7h10.1v3H64.1v20.8c0,2.7,1.1,4.8,4.4,4.8c4.4,0,5.3-5.9,5.3-9.2h2.7
		c0.1,6.7-2.1,13.3-10.2,13.3c-4.4,0-8.4-2.7-8.4-7.3v-22.2h-5.6v-3c9.2-0.5,8.9-13.3,9.1-13.7H64.1z"/>
	<path class="st0" d="M108.3,268.7c0,8.9-5.2,16.5-14.8,16.5c-9.6,0-14.5-8.2-14.5-16.6c0-9.8,6.6-17,14.4-17
		C102.7,251.6,108.3,259.3,108.3,268.7z M85.9,268.5c0,4.8,0.9,14.1,7.5,14.1c7.5,0,8-9.1,8-14.4c0-5.9-1.1-13.9-7.7-13.9
		C86.7,254.3,85.9,263.2,85.9,268.5z"/>
	<path class="st0" d="M143.1,264.4v15c0,2.4,0.8,2,4.2,2.2c0,0,0.5,0.1,1.2,0.1v2.4h-17.2v-2.4h1.6c0.9,0,1.8-0.1,2.6-0.2
		c1-0.2,1.4-0.8,1.4-2v-15.8c0-5.8-2.4-8.2-6.4-8.2c-5.6,0-8.6,5.4-8.6,10.5v12.8c0,0.7,0.1,1.2,0.1,1.6c0.1,1,1.4,1.2,2.6,1.2
		c0.8,0,1.7,0.1,2.8,0.1v2.4H110v-2.4h1.7c1.8,0,3.9-0.2,3.9-2.2v-20.2c0-2.7-0.5-2.9-2-3.1c-0.5,0-3.6-0.1-3.6-0.1v-2.9l11.7-0.7
		v5.8h0.1c1.6-2.7,4.8-6.8,10.3-6.8C138.4,251.6,143.1,256.1,143.1,264.4z"/>
	<path class="st0" d="M161,252.6v2.4c-1.7,0.3-4.6-0.6-4.6,1.6c0,0.3,0.1,0.9,0.4,1.4l7.7,18.1l6.9-17.3c0.1-0.3,0.2-0.7,0.2-1.1
		c0-3.3-3-2.7-4.8-2.7v-2.4h13.4v2.4c-2.8,0.1-4,0.4-6.1,5.5l-8,19.7c-0.1,0.3-1.9,4.4-4,8.6c-2.8,5.4-6.6,9.3-11.6,9.3
		c-3.6,0-6.3-1.9-6.3-5.3c0-2.4,2-3.9,4.1-3.9c1.7,0,3.3,1.4,3.3,2.9c0,2.1-0.5,2-0.5,2.4c0,0.7,0.7,0.7,1.1,0.7
		c3.9,0,7.8-8.2,9.2-11.3l-11-25.1c-1.2-2.6-1.8-3.6-5.4-3.5v-2.4H161z"/>
	<path class="st0" d="M215.2,235c10.7,0,15.2,6.1,15.2,11.6c0,7.4-5.9,11.2-12,11.8c-0.1,0,0,0.1,0,0.1c1.2,0.2,5,0.3,9.4,2.9
		c2.4,1.5,5.1,4.4,5.1,9.2c0,3.7-1.5,7-3.4,8.8c-3.7,3.5-9.2,4.8-17.3,4.8h-22.8v-3.1c6.5-0.3,7.5,0.1,7.5-4.5v-34.9
		c0-3.5-1.4-3.5-4.8-3.5c-0.7,0-2,0-2.8-0.1V235H215.2z M220.3,240.7c-2-2.4-6.3-2.7-10.5-2.7c-2.1,0-5.6-0.6-5.6,3.4v15.8
		c0,0,2,0.1,3.3,0.1c8.8,0,15-0.5,15-9.7C222.6,244.3,221.5,242,220.3,240.7z M204.2,260.5v15.7c0,5,0.5,4.9,6.1,4.9
		c5.8,0,9.7-0.7,11.6-2.6c1.8-1.7,2.7-4.2,2.7-7.5c0-9.9-6.9-10.7-14.8-10.7C208,260.3,206.4,260.3,204.2,260.5z"/>
	<path class="st0" d="M262.6,256.9c0,2.8-1.6,4.6-4,4.6c-2.4,0-3.6-2-3.6-3.7c0-1.8,0.8-2.6,1.4-3.3c-7.7,0.9-9.5,13.5-9.5,17.5v7.9
		c0,1.8,1.9,1.8,3.9,1.8c1,0,2,0,2.5,0v2.4H235v-2.4c3.9-0.3,5.7,0.5,5.7-2.8v-19.5c0-3.3-2.4-3.3-4.8-3.3h-1.5v-2.9l12.5-0.7v8.1
		h0.1c0.7-3.2,3.9-9.1,10.1-9.1C260.4,251.6,262.6,253.9,262.6,256.9z"/>
	<path class="st0" d="M293.3,268.7c0,8.9-5.2,16.5-14.8,16.5c-9.6,0-14.6-8.2-14.6-16.6c0-9.8,6.6-17,14.4-17
		C287.6,251.6,293.3,259.3,293.3,268.7z M270.8,268.5c0,4.8,0.9,14.1,7.5,14.1c7.5,0,8-9.1,8-14.4c0-5.9-1.1-13.9-7.7-13.9
		C271.7,254.3,270.8,263.2,270.8,268.5z"/>
	<path class="st0" d="M328.2,268.7c0,8.9-5.2,16.5-14.8,16.5c-9.6,0-14.6-8.2-14.6-16.6c0-9.8,6.6-17,14.4-17
		C322.6,251.6,328.2,259.3,328.2,268.7z M305.8,268.5c0,4.8,0.9,14.1,7.5,14.1c7.5,0,8-9.1,8-14.4c0-5.9-1.1-13.9-7.7-13.9
		C306.6,254.3,305.8,263.2,305.8,268.5z"/>
	<path class="st0" d="M341.3,268l9.5-9.2c1-1,1.8-1.4,1.8-2.6c0-1-1.4-1.2-2.5-1.2h-3.1v-2.4h17.8v2.4c-6.5,0.2-9.5,4-14.7,8.8
		l10.8,14.8c1.3,1.8,3.7,3.2,7,3.2v2.4h-18v-2.4c0.8-0.1,1.6-0.1,2.4-0.1c0.8,0,2-0.1,2-1c0-0.8-0.5-1.1-1-1.7l-7.9-11.2l-4.3,3.9
		v7.8c0,2.4,1.3,2.3,3.8,2.3h1.3v2.4h-16.9v-2.4h1.3c2.5,0,4.2,0.1,4.2-2.6v-38.6c0-2.9-1.3-2.9-4.4-3c0,0-0.4-0.1-1.7-0.1v-2.9
		l12.4-0.7V268z"/>
</g>
<g>
	<defs>
		<path id="SVGID_1_" d="M189.2,39.4c-45,0-81.5,36.5-81.5,81.5c0,45,36.5,81.5,81.5,81.5s81.5-36.5,81.5-81.5
			C270.7,75.9,234.3,39.4,189.2,39.4z"/>
	</defs>
	<clipPath id="SVGID_2_">
		<use xlink:href="#SVGID_1_"  style="overflow:visible;"/>
	</clipPath>
	<path class="st1" d="M189.2,202.4c45,0,81.5-36.5,81.5-81.5c0-45-36.5-81.5-81.5-81.5s-81.5,36.5-81.5,81.5
		C107.8,165.9,144.2,202.4,189.2,202.4L189.2,202.4z"/>
	<g class="st2">
		<g>
			<path class="st3" d="M189.2,39.4c-45,0-81.5,36.5-81.5,81.5c0,45,36.5,81.5,81.5,81.5s81.5-36.5,81.5-81.5
				C270.7,75.9,234.3,39.4,189.2,39.4z"/>
		</g>
	</g>
	<g class="st2">
		<polygon class="st4" points="212.6,229 220.3,154.4 219,154.2 211.7,225.8 175,98.6 173.8,98.9 208.8,220.4 176.3,147 
			175.1,147.5 211.3,229.2 		"/>
		<path class="st4" d="M195.8,83.7c0-13.2-10.7-23.8-23.8-23.9c-13.2,0-23.8,10.7-23.9,23.9c0,13.2,10.7,23.8,23.9,23.8
			c0.9,0,1.7-0.1,2.5-0.2l-0.1,4.9c0,0.3,0.1,0.6,0.4,0.8c0.2,0.1,0.4,0.2,0.6,0.2c0.1,0,0.2,0,0.3-0.1l6.6-2.4
			c0.3-0.1,0.5-0.4,0.6-0.7c0.1-0.3,0-0.6-0.2-0.9l-2.9-3C189,103,195.8,94.1,195.8,83.7z"/>
		<path class="st4" d="M195.3,140.2c0-13.2-10.7-23.9-23.9-23.9c-13.2,0-23.8,10.7-23.8,23.9c0,13.2,10.7,23.8,23.8,23.8
			c2.9,0,5.6-0.5,8.2-1.4l0.4,4c0,0.3,0.2,0.6,0.5,0.7c0.1,0.1,0.3,0.1,0.5,0.1c0.1,0,0.3,0,0.4-0.1l5.7-2.6
			c0.3-0.1,0.5-0.4,0.6-0.7c0.1-0.3,0-0.6-0.2-0.8l-3-3.1C191,155.9,195.3,148.6,195.3,140.2z"/>
		<path class="st4" d="M245.3,140.1c0-13.2-10.7-23.9-23.8-23.9c-13.2,0-23.9,10.7-23.9,23.9c0,11.1,7.6,20.5,17.9,23.1l-1.6,2.5
			c-0.2,0.3-0.2,0.6-0.1,0.9c0.1,0.3,0.4,0.5,0.7,0.6l6.6,1.7c0.1,0,0.2,0,0.2,0c0.3,0,0.5-0.1,0.7-0.3c0.2-0.2,0.3-0.6,0.2-0.9
			l-1-3.7c0.1,0,0.1,0,0.2,0C234.6,164,245.3,153.3,245.3,140.1z"/>
	</g>
</g>
<g>
	<path class="st5" d="M78.3,313.9l2.8-4.3h2.5l1,19.6l-3,0.1c-2.4-10.1-6.7-17.1-15.4-17.1c-5,0-9.3,2.6-11.7,8.2
		c-1.6,3.7-2.4,7.8-2.4,15.6c0,14.1,4.9,21.2,15,21.2c9.5,0,14.1-6.9,15.3-15.2l3.2,0.5c-1.6,11.6-8.7,17.7-19.4,17.7
		c-13.5,0-22.9-10.8-22.9-24.5c0-7.1,2-13.4,6-18c4.5-5.3,9.6-8.6,16.8-8.6C71.7,309.2,75.9,311.4,78.3,313.9z"/>
	<path class="st5" d="M99.6,333.5h0.1c1.6-3.5,5.6-6.7,10.8-6.7c7.5,0,10.6,5.1,10.6,12.3v14.1c0,3.4-0.3,3.5,3.3,3.7
		c0,0,1.6,0.1,2.2,0.1v2.4h-17.3v-2.4h1.3c3,0,4.3,0.1,4.3-2.9v-14.7c0-4.1-1.2-8.4-6.3-8.4c-5.9,0-9,5.4-9,10.4v12.6
		c0,2.9,1.4,2.9,3.2,2.9c0.7,0,1.4,0.1,2.1,0.1v2.4H87.7v-2.4h1.4c2.3,0,4.1,0.1,4.1-3.1v-38.4c0-2.7-0.9-2.5-4.5-2.7l-1.6-0.1v-2.9
		l12.3-0.7V333.5z"/>
	<path class="st5" d="M128.3,359.3v-2.4h1.8c3.1,0,4.1-0.2,4.1-3.3v-19.1c0-3.1-0.8-3.2-4-3.2c-0.8,0-1.6-0.1-2.4-0.1v-2.9l12.7-0.7
		v27.3c0,1.8,0.9,1.7,3.9,1.8c0.7,0,1.4,0,1.8,0v2.4H128.3z M141,314.6c0,2-1.8,4.1-4,4.1c-2.1,0-4-1.8-4-4.1c0-2,1.8-3.9,4-3.9
		C139.3,310.6,141,312.5,141,314.6z"/>
	<path class="st5" d="M161.2,354.9c0,2,1,2,3.5,2c0.7,0,1.6,0,2.1,0v2.4h-17.6v-2.4h1.5c1.5,0,4.2,0.4,4.2-2.6v-38.8
		c0-2.7-1.4-2.8-4-2.8c-0.8,0-1.6,0-2.3,0v-2.9l12.6-0.7V354.9z"/>
	<path class="st5" d="M197.2,353.4c0,3.7,3.2,2.8,5.5,3v2.9l-11.8,0.7v-5.9c-1.5,3.3-3.9,6.3-9.4,6.3c-9,0-13.6-7.3-13.6-16.4
		c0-9.2,5-17.2,13.5-17.2c4.4,0,7.3,2,9.5,5.2v-16.6c0-2.9-2.3-2.6-4.5-2.6c-0.6,0-1.8-0.1-2.4-0.1v-2.9l13.2-0.7V353.4z M174.9,344
		c0,5.9,1.5,12.7,8,12.7c6.6,0,8.1-7.9,8.1-13c0-5.8-1.6-13.4-8.1-13.4C176,330.3,174.9,338.6,174.9,344z"/>
	<path class="st5" d="M233,332c0,2.8-1.6,4.6-4,4.6c-2.4,0-3.6-2-3.6-3.7c0-1.8,0.8-2.6,1.4-3.3c-7.7,0.9-9.5,13.5-9.5,17.5v7.9
		c0,1.8,1.9,1.8,3.9,1.8c1,0,2,0,2.5,0v2.4h-18.4v-2.4c3.9-0.3,5.7,0.5,5.7-2.8v-19.5c0-3.3-2.4-3.3-4.8-3.3h-1.5v-2.9l12.5-0.7v8.1
		h0.1c0.7-3.2,3.9-9.1,10.1-9.1C230.8,326.7,233,329.1,233,332z"/>
	<path class="st5" d="M262.7,344h-22.2c-0.3,6.8,2.8,12.8,9.7,12.8c5.3,0,8.3-3.1,10.3-7.3l2.3,1.3c-2.7,5.6-6.3,9.5-13.8,9.5
		c-8.2,0-15.4-5-15.4-15.9c0-9.5,5.8-17.7,15.2-17.7c5.5,0,9.3,3.1,11.6,7.2C261.9,336.7,262.7,342.9,262.7,344z M240.6,341.2h12.6
		c1.8,0,2.4-0.5,2.4-2.7c0-3.2-1.3-9-7-9C242.4,329.4,241,336.4,240.6,341.2z"/>
	<path class="st5" d="M299.7,339.6v15c0,2.4,0.8,2,4.2,2.2c0,0,0.5,0.1,1.2,0.1v2.4H288v-2.4h1.6c0.9,0,1.8-0.1,2.6-0.2
		c1-0.2,1.4-0.8,1.4-2v-15.8c0-5.8-2.4-8.2-6.4-8.2c-5.6,0-8.6,5.4-8.6,10.5v12.8c0,0.7,0.1,1.2,0.1,1.6c0.1,1,1.4,1.2,2.6,1.2
		c0.8,0,1.7,0.1,2.8,0.1v2.4h-17.3v-2.4h1.7c1.8,0,3.9-0.2,3.9-2.2v-20.2c0-2.7-0.5-2.9-2-3.1c-0.5,0-3.6-0.1-3.6-0.1v-2.9l11.7-0.7
		v5.8h0.1c1.6-2.7,4.8-6.8,10.3-6.8C295.1,326.7,299.7,331.3,299.7,339.6z"/>
	<path class="st5" d="M305.5,327.3c2.3-2,6.9-5.8,6.9-9.5c0-0.5,0.1-0.7-0.5-0.7c-0.7,0-1,0.3-1.7,0.3c-2.2-0.1-4-1.7-4.1-4.2
		c-0.1-2.3,2.2-3.9,4.5-3.9c3.6,0,5.4,3.4,5.4,6.5c0,8.2-8.4,12.6-9,13.5L305.5,327.3z"/>
	<path class="st5" d="M331.5,329.5l2-2.5h2.2v11.4h-2.4c-1.2-4.8-4.5-8.9-10-8.9c-3.1,0-6.3,1.6-6.3,4.9c0,2.2,1.6,3.7,4.1,4.4
		c2.7,0.8,9.3,1.9,10.8,2.5c2.7,1.1,6,3.5,6,8.7c0,7.6-5.9,10.3-11.2,10.3c-3.5,0-6.5-0.9-9.4-3.3l-2.4,3h-2.2v-12.9h2.5
		c1.5,6.1,5.3,10.5,11.6,10.5c3.1,0,6.9-1.6,6.9-5.3c0-3-2.2-4.1-4.6-4.9c-2.7-0.9-6.5-1.5-10.1-2.7c-5-1.6-5.8-5.2-5.8-8.5
		c0-6.2,4.4-9.5,9.9-9.5C326.7,326.7,329.2,327.7,331.5,329.5z"/>
</g>
<g>
	<path d="M523.7,287.4h-2.5l-0.4-20.5h2.9c2.1,11.6,8,17.7,17.1,17.7c7.7,0,11.9-3.9,11.9-10.1c0-3-1.1-5.3-3.1-6.7
		c-2.5-1.8-6.4-2.5-11.6-3.9c-11.3-3-16.7-5.9-16.7-15.2c0-8.7,5.9-14.4,15-14.4c5.1,0,9.7,1.7,13.2,4.9l2.7-4.2h2.6l0.8,18.3H553
		c-2.7-10.5-8.2-15.8-16.6-15.8c-6.2,0-9.7,3.1-9.7,8.5c0,6.8,5.3,7.5,14.7,9.9c5.1,1.3,9.3,2.3,12.6,5.3c2.8,2.5,4.3,6.3,4.3,10.9
		c0,9.8-6.2,15.6-17.5,15.6c-5.5,0-10.6-2-14-5.3L523.7,287.4z"/>
	<path d="M558.9,257v-2.8c5.8-0.4,9.1-5.4,9.4-14.6h3v14.3h10.2v3.1H571v20.4c0,4,0.8,6,4.2,6c3.9,0,5.6-3.1,5.9-9.6h2.6
		c0,0.3,0,0.6,0,0.9c0,8.5-3.9,13-11,13c-6.3,0-8-3.1-8-9.7v-21H558.9z"/>
	<path d="M601.4,252.8c9.3,0,15.8,7,15.8,17.5c0,10.5-6.6,17.4-15.8,17.4c-9.2,0-15.9-6.9-15.9-17.4
		C585.5,259.8,592.1,252.8,601.4,252.8z M601.3,284.8c6.2,0,8.7-4.6,8.7-14.5c0-9.9-2.5-14.6-8.6-14.6c-6.1,0-8.6,4.7-8.6,14.6
		C592.8,280.1,595.3,284.8,601.3,284.8z"/>
	<path d="M618.9,283.6l3-0.1c2-0.1,2.3-0.6,2.3-2.6v-21.4c0-2.3-0.8-2.8-3.9-2.8c-0.6,0-1.3,0.1-2.1,0.1v-2.8l12.1-0.8v6.8
		c3.2-4.7,6.7-6.8,11.6-6.8c6.7,0,10.6,4,10.6,11.3v16.5c0,2,0.4,2.5,2.3,2.6l3,0.1v3h-17.1v-3l3-0.1c1.8-0.1,2.3-0.6,2.3-2.6v-16.8
		c0-4.2-2.3-6.6-6.5-6.6c-5.9,0-9,3.9-9,11.8v11.6c0,2,0.3,2.5,2.3,2.6l3,0.1v3h-17.1V283.6z"/>
	<path d="M661.3,259.9c-0.5-1.1-1.1-1.9-1.6-2.3c-0.8-0.6-2.1-0.8-3.8-0.8v-3h16.4v3c-0.7,0-1.3,0-1.8,0c-2,0-2.8,0.2-2.8,1.5
		c0,0.4,0.3,1.1,0.7,2.2l7.5,17.2l7.1-16.9c0.1-0.4,0.4-0.8,0.4-1.6c0-2-1.4-2.3-4.9-2.4v-3H692v3c-2.6,0-4.2,1.2-5.3,3.8
		l-11.9,27.7c-3.7,8.5-7.5,12.8-13.7,12.8c-4.2,0-6.5-2.1-6.5-5.4c0-2.3,1.8-4.2,4.2-4.2c2.3,0,3.7,1.3,3.7,3.5c0,1.2-0.6,1.8-0.6,2
		c0,0.5,0.4,0.8,1.3,0.8c2.3,0,5.8-3.7,8.8-11.1l0.5-1.1L661.3,259.9z"/>
	<path d="M704.7,283.2h3.7c2.8,0,3.7-0.6,3.7-3.4v-37.5c0-2.8-0.9-3.4-3.7-3.4h-3.7v-3.3h26.7c10,0,15.2,4.4,15.2,12.4
		c0,6.1-3.9,10.1-11.8,11.8c9.7,1.3,14.5,5.6,14.5,13c0,8.5-6.6,13.7-18.7,13.7h-25.8V283.2z M719.6,258.6h5.6
		c9.1,0,13.1-2.1,13.1-9.9c0-7.1-3.2-9.9-10.8-9.9h-4.4c-2.9,0-3.5,0.7-3.5,3.1V258.6z M719.6,279.9c0,2.6,0.7,3.3,3.9,3.3h5
		c8.4,0,12.1-3,12.1-10.6c0-8-4.4-10.9-14.6-10.9h-6.3V279.9z"/>
	<path d="M765.5,283.5l4.3,0.1v3h-18.5v-3l3.3-0.1c2-0.1,2.3-0.6,2.3-2.6v-21.4c0-2.5-0.9-2.7-4.2-2.7c-0.6,0-1.3,0-2.1,0v-2.8
		l12.3-0.8v9.9c2.2-6.7,5.8-10.2,10.3-10.2c3.8,0,6.4,2.6,6.4,6c0,2.6-1.8,4.4-4.1,4.4c-2.6,0-4.2-1.6-4.2-4c0-1.3,0.5-2.4,1.4-3
		c-0.1,0-0.3,0-0.4,0c-4.4,0-9.1,6.7-9.1,17.1v7.5C763.2,282.8,763.5,283.4,765.5,283.5z"/>
	<path d="M796.3,252.8c9.3,0,15.8,7,15.8,17.5c0,10.5-6.6,17.4-15.8,17.4c-9.2,0-15.9-6.9-15.9-17.4
		C780.4,259.8,787,252.8,796.3,252.8z M796.2,284.8c6.2,0,8.7-4.6,8.7-14.5c0-9.9-2.5-14.6-8.6-14.6c-6.1,0-8.6,4.7-8.6,14.6
		C787.7,280.1,790.2,284.8,796.2,284.8z"/>
	<path d="M831.1,252.8c9.3,0,15.8,7,15.8,17.5c0,10.5-6.6,17.4-15.8,17.4c-9.2,0-15.9-6.9-15.9-17.4
		C815.2,259.8,821.8,252.8,831.1,252.8z M831,284.8c6.2,0,8.7-4.6,8.7-14.5c0-9.9-2.5-14.6-8.6-14.6c-6.1,0-8.6,4.7-8.6,14.6
		C822.5,280.1,825,284.8,831,284.8z"/>
	<path d="M847,283.6l3.2-0.1c2-0.1,2.4-0.6,2.4-2.6v-40.1c0-2.3-0.8-2.8-3.9-2.8c-0.6,0-1.3,0.1-2,0.1v-2.8l12.3-0.8v34.9l10.9-9.9
		c0.5-0.5,0.8-1.2,0.8-1.6c0-0.9-1.1-1.2-3.6-1.2h-2.3v-2.7h18.1v2.7c-0.1,0-0.3,0-0.4,0c-4.6,0-7.3,2.2-10.9,5.5l-3.6,3.3
		l11.1,14.7c1.8,2.4,3.7,3.3,7,3.5v3h-18.2v-3l2.1-0.1c1.6-0.1,2.5-0.2,2.5-1.1c0-0.6-0.3-0.9-0.6-1.4l-8.5-11.4l-4.3,3.8v7.5
		c0,2,0.4,2.5,2.4,2.6l3.1,0.1v3H847V283.6z"/>
	<path class="st6" d="M569.9,309.1v3.3h-3.7c-2.8,0-3.7,0.7-3.7,3.4v28.5c0,9,4.4,13,14.1,13c6.3,0,10.6-2.3,12.6-6.6
		c0.9-2,1.1-5.2,1.1-9.8v-22.2c0-4.3-0.9-6.3-5.1-6.3H582v-3.3h19.4v3.3h-2.6c-4,0-5.1,1.8-5.1,6.3v22.5c0,13.8-5.1,20-19.5,20
		c-12.8,0-19.2-5.7-19.2-17v-28.4c0-2.7-0.8-3.4-3.7-3.4H547v-3.3H569.9z"/>
	<path class="st6" d="M598,357l3-0.1c2-0.1,2.3-0.6,2.3-2.6v-21.4c0-2.3-0.8-2.8-3.9-2.8c-0.6,0-1.3,0.1-2.1,0.1v-2.8l12.1-0.8v6.8
		c3.2-4.7,6.7-6.8,11.6-6.8c6.7,0,10.6,4,10.6,11.3v16.5c0,2,0.4,2.5,2.3,2.6l3,0.1v3H620v-3l3-0.1c1.8-0.1,2.3-0.6,2.3-2.6v-16.8
		c0-4.2-2.3-6.6-6.5-6.6c-5.9,0-9,3.9-9,11.8v11.6c0,2,0.3,2.5,2.3,2.6l3,0.1v3H598V357z"/>
	<path class="st6" d="M638.3,357l3.4-0.1c2-0.1,2.4-0.6,2.4-2.6v-21.4c0-2.3-0.8-2.8-3.9-2.8c-0.6,0-1.3,0.1-2,0.1v-2.8l12.3-0.8
		v27.8c0,2,0.4,2.5,2.4,2.6l3.1,0.1v3h-17.7V357z M651.3,313.2c0,2.3-1.9,4.2-4.2,4.2c-2.3,0-4.2-2-4.2-4.2c0-2.3,1.9-4.2,4.2-4.2
		C649.4,309,651.3,310.8,651.3,313.2z"/>
	<path class="st6" d="M672,361.1l-12.2-28c-0.9-2.2-1.9-2.8-4.6-2.8c-0.2,0-0.4,0-0.5,0v-3h15.8v3c-3,0.1-4.2,0.3-4.2,1.6
		c0,0.4,0.3,1.1,0.8,2.3l7.6,17.6l6.3-16.2c0.4-1.1,0.7-2,0.7-2.8c0-1.5-1.3-2.4-3.9-2.4c-0.2,0-0.5,0-0.8,0v-3h13.7v3
		c-3.2,0.1-4.7,1.6-6,4.9l-10.5,25.9H672z"/>
	<path class="st6" d="M697.1,345.6c0,7.5,3.8,11.8,9.4,11.8c4.9,0,8.6-2.5,11.2-7.6l2.5,1.4c-3.1,6.6-8.1,9.9-14.9,9.9
		c-8.9,0-15.3-6.8-15.3-17.4c0-10.5,6.3-17.5,15.3-17.5c9.1,0,14.9,6.3,14.9,16.7c0,0.4,0,0.8,0,1.3h-23
		C697.2,344.7,697.1,345.1,697.1,345.6z M710.3,341.2c1.8,0,2.5-0.4,2.5-2.3c0-6.4-2.7-9.9-7.5-9.9c-5.4,0-8,4-8.1,12.1H710.3z"/>
	<path class="st6" d="M736,356.9l4.3,0.1v3h-18.5v-3l3.3-0.1c2-0.1,2.3-0.6,2.3-2.6v-21.4c0-2.5-0.9-2.7-4.2-2.7c-0.6,0-1.3,0-2.1,0
		v-2.8l12.3-0.8v9.9c2.2-6.7,5.8-10.2,10.3-10.2c3.8,0,6.4,2.6,6.4,6c0,2.6-1.8,4.4-4.1,4.4c-2.6,0-4.2-1.6-4.2-4
		c0-1.3,0.5-2.4,1.4-3c-0.1,0-0.3,0-0.4,0c-4.4,0-9.1,6.7-9.1,17.1v7.5C733.7,356.3,734,356.8,736,356.9z"/>
	<path class="st6" d="M754.6,347.1c1.8,7.3,5.9,11.1,11.6,11.1c4.5,0,7.4-2.3,7.4-5.9c0-3.7-2.8-4.5-7.4-5.4
		c-8.5-1.8-13.7-3.2-13.7-11.1c0-5.9,3.9-9.5,9.8-9.5c3.4,0,6,0.6,8.9,2.7l2-2.5h2.2v11.7h-2.2c-2-6.1-5.5-9.2-10.5-9.2
		c-3.9,0-6.4,2.2-6.4,4.9c0,4.2,3,4.7,8.8,5.8c8.3,1.6,12.6,3.5,12.6,10.6c0,6.8-4.4,11-11.8,11c-3.3,0-6.3-1.1-9.2-3.5l-2.3,3.2
		h-2.3v-14H754.6z"/>
	<path class="st6" d="M780.1,357l3.4-0.1c2-0.1,2.4-0.6,2.4-2.6v-21.4c0-2.3-0.8-2.8-3.9-2.8c-0.6,0-1.3,0.1-2,0.1v-2.8l12.3-0.8
		v27.8c0,2,0.4,2.5,2.4,2.6l3.1,0.1v3h-17.7V357z M793.1,313.2c0,2.3-1.9,4.2-4.2,4.2s-4.2-2-4.2-4.2c0-2.3,1.9-4.2,4.2-4.2
		C791.1,309,793.1,310.8,793.1,313.2z"/>
	<path class="st6" d="M797.1,330.4v-2.8c5.8-0.4,9.1-5.4,9.4-14.6h3v14.3h10.2v3.1h-10.5v20.4c0,4,0.8,6,4.2,6
		c3.9,0,5.6-3.1,5.9-9.6h2.6c0,0.3,0,0.6,0,0.9c0,8.5-3.9,13-11,13c-6.3,0-8-3.1-8-9.7v-21H797.1z"/>
	<path class="st6" d="M827.3,333.3c-0.5-1.1-1.1-1.9-1.6-2.3c-0.8-0.6-2.1-0.8-3.8-0.8v-3h16.4v3c-0.7,0-1.3,0-1.8,0
		c-2,0-2.8,0.2-2.8,1.5c0,0.4,0.3,1.1,0.7,2.2l7.5,17.2l7.1-16.9c0.1-0.4,0.4-0.8,0.4-1.6c0-2-1.4-2.3-4.9-2.4v-3H858v3
		c-2.6,0-4.2,1.2-5.3,3.8l-11.9,27.7c-3.7,8.5-7.5,12.8-13.7,12.8c-4.2,0-6.5-2.1-6.5-5.4c0-2.3,1.8-4.2,4.2-4.2
		c2.3,0,3.7,1.3,3.7,3.5c0,1.2-0.6,1.8-0.6,2c0,0.5,0.4,0.8,1.3,0.8c2.3,0,5.8-3.7,8.8-11.1l0.5-1.1L827.3,333.3z"/>
</g>
<path class="st4" d="M763,84.5c-33.2-20.3-85.4-19-119,0v53.1c-0.4,28.6,18,55.2,42.9,67.5c5.5,2.7,10.6,4.6,16.6,6
	c6-1.4,11.1-3.3,16.6-6c24.9-12.3,43.3-38.9,42.9-67.5L763,84.5z"/>
<g>
	<g>
		<path class="st6" d="M762.7,173.4L733.9,39.9c-1.2-0.1-2.4-0.2-3.6-0.3l24.1,141.9C757.3,179,760.1,176.3,762.7,173.4z"/>
		<path class="st6" d="M784.6,121.7l-33.1-78.9c-1.3-0.3-2.6-0.5-3.8-0.8l35.1,93.1C783.8,130.8,784.4,126.3,784.6,121.7z"/>
		<path class="st6" d="M735.5,194.2c2.2-1.1,4.3-2.3,6.4-3.5L725.4,39.3c-1.3-0.1-2.6-0.1-3.9-0.1l10,156.9
			C732.8,195.5,734.2,194.9,735.5,194.2z"/>
		<path class="st6" d="M777.5,150.7L742.5,41.1c-1.2-0.2-2.4-0.4-3.7-0.5L772,161C774,157.6,775.9,154.2,777.5,150.7z"/>
		<path class="st6" d="M784.7,56c-8.4-5.1-17.9-9-27.9-11.7l27.9,58.5L784.7,56z"/>
	</g>
	<g>
		<path class="st6" d="M648.3,56v60.9c-0.5,32.8,20.6,63.3,49.2,77.4c6.3,3.1,12.1,5.2,19,6.9v-162C692.1,39.3,667.5,45.1,648.3,56z
			 M690.5,111.6l3.8,11.7l-10-7.2l-9.9,7.2l3.8-11.7l-9.9-7.2h12.2l3.8-11.6l3.8,11.6h12.2L690.5,111.6z"/>
	</g>
</g>
</svg>
